<svg width="150" height="150" viewBox="0 0 150 150" fill="none" xmlns="http://www.w3.org/2000/svg">
<path d="M131.958 42.2187L130.908 55.2355C126.126 55.3316 121.341 55.1754 116.574 54.7676L107.669 65.8121L103.004 53.0796C92.0833 53.0005 82.5208 51.0513 71.9384 48.3715C71.0609 49.668 70.4671 51.1353 70.1959 52.6772C69.9247 54.2191 69.9822 55.8009 70.3645 57.3191C78.7597 59.3839 85.4917 61.0503 94.1138 61.8137L98.2682 60.566C97.7436 66.4802 97.8145 72.432 98.4809 78.332C104.138 77.7648 110.519 78.5163 117.354 80.0759C117.689 74.4507 118.1 69.9777 119.58 64.9189C124.601 65.3568 129.649 65.4232 134.68 65.1174C136.055 64.9912 137.34 64.3823 138.308 63.3987C139.276 62.4152 139.864 61.1205 139.969 59.7444L141.259 42.9985C138.238 42.1412 135.079 41.8764 131.958 42.2187Z" fill="#F9B1DC"/>
<path d="M109.923 48.4298L108.491 49.791L108.902 48.5156L109.923 48.4298Z" fill="#BFC1FF"/>
<path d="M94.1138 61.8003C95.4003 61.913 96.7585 62.0071 98.1435 62.0772C98.1838 61.5675 98.2308 61.0616 98.2681 60.5526L94.1138 61.8003Z" fill="#BFC1FF"/>
<path d="M72.704 55.349C72.6325 55.2636 72.5373 55.2013 72.4303 55.1699C72.3235 55.1386 72.2096 55.1397 72.1033 55.173C71.997 55.2064 71.903 55.2705 71.8331 55.3573C71.7632 55.444 71.7207 55.5496 71.7107 55.6605C71.7008 55.7715 71.724 55.8829 71.7775 55.9807C71.8309 56.0785 71.9121 56.1582 72.0107 56.2098C72.1095 56.2615 72.2213 56.2828 72.3321 56.2708C72.4428 56.2589 72.5476 56.2145 72.6331 56.1431C72.69 56.0957 72.737 56.0375 72.7714 55.9719C72.8058 55.9063 72.8268 55.8346 72.8334 55.7607C72.84 55.687 72.832 55.6127 72.8097 55.542C72.7876 55.4714 72.7516 55.4058 72.704 55.349Z" fill="#BFC1FF"/>
<path d="M86.1315 53.0663C86.0598 52.9808 85.965 52.9183 85.8576 52.8869C85.7509 52.8555 85.6374 52.8564 85.5307 52.8897C85.424 52.923 85.33 52.9871 85.2606 53.0739C85.1904 53.1607 85.1479 53.2663 85.1382 53.3772C85.1277 53.4883 85.1509 53.5998 85.2046 53.6975C85.2583 53.7954 85.3389 53.8751 85.4382 53.9268C85.5367 53.9784 85.6486 53.9995 85.7598 53.9876C85.8703 53.9756 85.9747 53.931 86.0606 53.8595C86.1173 53.8122 86.1643 53.754 86.1986 53.6885C86.2329 53.6229 86.2538 53.5513 86.2606 53.4776C86.2673 53.404 86.2591 53.3297 86.2367 53.2591C86.215 53.1885 86.1792 53.123 86.1315 53.0663Z" fill="#BFC1FF"/>
<path d="M96.7905 59.631C96.7435 59.5741 96.6853 59.5271 96.6196 59.4927C96.554 59.4584 96.4823 59.4373 96.4084 59.4307C96.3346 59.4241 96.2599 59.4321 96.1898 59.4544C96.1189 59.4766 96.0532 59.5125 95.9965 59.5601C95.9383 59.6068 95.8906 59.6646 95.8555 59.7303C95.8204 59.7959 95.7988 59.8679 95.7928 59.942C95.7861 60.0161 95.7943 60.0908 95.8174 60.1616C95.8398 60.2325 95.8771 60.2979 95.9256 60.3541C95.9734 60.4109 96.0316 60.4578 96.0973 60.4921C96.1629 60.5264 96.2346 60.5475 96.3077 60.554C96.3816 60.5606 96.4562 60.5526 96.5264 60.5304C96.5972 60.5084 96.6629 60.4725 96.7196 60.425C96.7763 60.3775 96.8234 60.3193 96.8577 60.2537C96.892 60.1881 96.9129 60.1164 96.9196 60.0427C96.9263 59.969 96.9181 59.8946 96.8957 59.824C96.8741 59.7534 96.8383 59.6878 96.7905 59.631Z" fill="#BFC1FF"/>
<path d="M120.913 62.4526C120.984 62.538 121.079 62.6004 121.187 62.6317C121.293 62.663 121.407 62.662 121.513 62.6286C121.619 62.5953 121.713 62.5312 121.784 62.4444C121.854 62.3577 121.896 62.2521 121.906 62.1411C121.916 62.0301 121.892 61.9187 121.839 61.821C121.786 61.7232 121.704 61.6434 121.606 61.5918C121.507 61.5402 121.395 61.5189 121.284 61.5308C121.174 61.5427 121.069 61.5872 120.984 61.6586C120.927 61.706 120.88 61.7642 120.845 61.8298C120.811 61.8954 120.79 61.9671 120.784 62.0409C120.777 62.1146 120.785 62.189 120.807 62.2596C120.829 62.3303 120.865 62.3959 120.913 62.4526Z" fill="#BFC1FF"/>
<path d="M137.729 58.2698C137.8 58.3553 137.895 58.4176 138.002 58.4489C138.109 58.4803 138.223 58.4792 138.329 58.4459C138.435 58.4125 138.529 58.3484 138.599 58.2616C138.67 58.1749 138.712 58.0693 138.722 57.9584C138.732 57.8474 138.708 57.736 138.655 57.6382C138.602 57.5404 138.52 57.4607 138.422 57.4091C138.323 57.3574 138.211 57.3361 138.1 57.3481C137.99 57.36 137.885 57.4044 137.799 57.4758C137.743 57.5232 137.696 57.5814 137.661 57.647C137.627 57.7126 137.605 57.7843 137.599 57.8581C137.593 57.9319 137.601 58.0063 137.623 58.0769C137.645 58.1475 137.681 58.2131 137.729 58.2698Z" fill="#BFC1FF"/>
<path d="M106.166 65.983C106.119 65.9262 106.061 65.8792 105.995 65.8448C105.929 65.8104 105.858 65.7894 105.784 65.7827C105.71 65.7762 105.636 65.7842 105.565 65.8064C105.495 65.8286 105.429 65.8645 105.373 65.9121C105.315 65.9588 105.267 66.0166 105.232 66.0822C105.197 66.1479 105.175 66.2199 105.168 66.2941C105.162 66.3682 105.17 66.4429 105.193 66.5137C105.216 66.5845 105.253 66.6499 105.302 66.7061C105.349 66.7636 105.407 66.8111 105.473 66.8461C105.538 66.8809 105.611 66.9024 105.685 66.9093C105.759 66.9163 105.834 66.9085 105.905 66.8863C105.976 66.8642 106.041 66.8282 106.099 66.7805C106.156 66.7327 106.203 66.6741 106.237 66.6081C106.271 66.5421 106.292 66.4699 106.299 66.3958C106.305 66.3216 106.297 66.247 106.273 66.1762C106.251 66.1053 106.215 66.0397 106.166 65.983Z" fill="#BFC1FF"/>
<path d="M109.2 67.1174C109.272 67.2028 109.367 67.2651 109.474 67.2965C109.581 67.3278 109.694 67.3267 109.801 67.2934C109.907 67.2601 110.001 67.196 110.071 67.1092C110.141 67.0224 110.184 66.9169 110.193 66.8059C110.203 66.6949 110.18 66.5835 110.127 66.4858C110.073 66.3879 109.992 66.3082 109.894 66.2566C109.795 66.2049 109.683 66.1837 109.572 66.1956C109.461 66.2075 109.357 66.252 109.271 66.3234C109.214 66.3708 109.167 66.429 109.133 66.4946C109.099 66.5602 109.077 66.6319 109.071 66.7057C109.064 66.7794 109.073 66.8537 109.094 66.9244C109.117 66.9951 109.152 67.0607 109.2 67.1174Z" fill="#BFC1FF"/>
<path d="M114.477 76.603C114.549 76.6881 114.644 76.7507 114.751 76.7821C114.858 76.8134 114.972 76.8127 115.078 76.7791C115.184 76.7455 115.278 76.6813 115.348 76.5948C115.418 76.5082 115.461 76.4022 115.47 76.2918C115.48 76.1806 115.457 76.0694 115.404 75.9717C115.35 75.8739 115.269 75.7941 115.17 75.7418C115.072 75.6903 114.96 75.6694 114.849 75.6814C114.738 75.6933 114.634 75.7373 114.548 75.809C114.491 75.8567 114.444 75.9142 114.41 75.9799C114.376 76.0455 114.354 76.1172 114.348 76.1911C114.341 76.2649 114.349 76.3396 114.371 76.4097C114.394 76.4806 114.429 76.5463 114.477 76.603Z" fill="#BFC1FF"/>
<path d="M99.9995 75.2276C100.071 75.3127 100.167 75.3754 100.273 75.4067C100.38 75.4381 100.494 75.4373 100.6 75.4037C100.707 75.3702 100.801 75.306 100.87 75.2194C100.941 75.1328 100.983 75.0269 100.993 74.9161C101.003 74.8052 100.979 74.6937 100.926 74.596C100.873 74.4982 100.791 74.4185 100.693 74.3668C100.594 74.3152 100.482 74.2939 100.372 74.3058C100.261 74.3177 100.156 74.3622 100.07 74.4336C100.014 74.481 99.9667 74.5392 99.9324 74.6048C99.8981 74.6704 99.8772 74.7421 99.8704 74.8159C99.8637 74.8896 99.8719 74.964 99.8936 75.0343C99.916 75.1052 99.9518 75.1709 99.9995 75.2276Z" fill="#BFC1FF"/>
<path d="M115.522 44.1896C114.983 41.4964 114.501 38.7024 112.402 36.9301C111.055 38.0494 108.644 40.177 107.567 42.9426C110.445 38.0076 112.076 41.8926 111.792 44.0053C111.778 44.3888 111.991 44.4873 112.613 44.0911C113.918 43.2403 114.712 45.4515 112.287 46.3597C111.975 46.4731 111.252 48.0895 111.437 49.9327C111.172 47.3798 115.522 44.1896 115.522 44.1896Z" fill="#BFC1FF"/>
<path d="M133.929 44.2612C133.857 44.1757 133.762 44.1134 133.655 44.0821C133.548 44.0507 133.434 44.0518 133.328 44.0851C133.222 44.1185 133.128 44.1826 133.058 44.2694C132.988 44.3562 132.945 44.4617 132.935 44.5726C132.926 44.6836 132.949 44.795 133.002 44.8928C133.055 44.9906 133.137 45.0703 133.235 45.122C133.334 45.1736 133.446 45.1949 133.557 45.1829C133.667 45.1711 133.772 45.1266 133.858 45.0552C133.914 45.0079 133.962 44.9496 133.996 44.8841C134.031 44.8185 134.052 44.7467 134.058 44.6729C134.065 44.5991 134.057 44.5247 134.034 44.4541C134.012 44.3834 133.976 44.3179 133.929 44.2612Z" fill="#BFC1FF"/>
<path d="M48.515 100.069C46.0479 101.969 41.6092 105.259 40.0503 106.934C42.0211 107.375 48.1747 105.97 51.7194 105.97C52.8542 105.972 53.9838 105.819 55.0775 105.516C55.7581 104.765 56.5096 103.83 57.2894 102.964C54.2143 102.534 51.2419 101.554 48.515 100.069Z" fill="#BFC1FF"/>
<path d="M78.177 131.646C77.4114 134.666 75.9509 139.997 75.7524 142.265C77.5673 141.401 81.5523 136.481 84.3343 134.297C85.2261 133.596 86.0216 132.78 86.7022 131.872C86.7731 130.866 86.7872 129.661 86.8723 128.498C84.1821 130.052 81.2381 131.117 78.177 131.646Z" fill="#BFC1FF"/>
<path d="M113.979 101.132L116.217 120.246C119.203 119.914 122.072 118.894 124.598 117.268C127.124 115.642 129.24 113.454 130.779 110.873L113.979 101.132Z" fill="#BFC1FF"/>
<path d="M117.212 64.6927L119.594 64.9196L118.956 67.2591L117.212 64.6927Z" fill="#BFC1FF"/>
<path d="M61.3439 53.517C61.4122 53.4313 61.5113 53.3757 61.62 53.3618C59.3641 52.9439 57.2791 52.9625 56.141 52.6155L31.7551 51.0947C31.7057 51.0934 31.6576 51.1112 31.621 51.1444C31.5843 51.1776 31.5618 51.2236 31.5581 51.2729C31.5545 51.3223 31.57 51.3711 31.6014 51.4093C31.6328 51.4476 31.6776 51.4722 31.7267 51.4782L61.426 54.105C61.2618 53.8386 61.223 53.67 61.3439 53.517Z" fill="#BFC1FF"/>
<mask id="path-20-outside-1_1625_4205" maskUnits="userSpaceOnUse" x="15.7446" y="14.0007" width="114" height="114" fill="black">
<rect fill="white" x="15.7446" y="14.0007" width="114" height="114"/>
<path d="M128.541 55.2497L113.541 21.5886C112.343 18.8984 110.126 16.7943 107.376 15.7388C104.627 14.6832 101.571 14.7627 98.8804 15.9596L23.333 49.5924C20.6426 50.7905 18.5381 53.0081 17.4825 55.7576C16.4269 58.507 16.5066 61.5632 17.7041 64.254L42.8154 120.629C44.0134 123.32 46.231 125.424 48.9802 126.479C51.7296 127.535 54.7855 127.455 57.4762 126.258L78.8578 116.744"/>
</mask>
<path d="M128.084 55.4532C128.197 55.7054 128.492 55.8188 128.744 55.7064C128.997 55.594 129.11 55.2984 128.998 55.0462L128.084 55.4532ZM113.541 21.5886L113.084 21.7921L113.085 21.7921L113.541 21.5886ZM98.8804 15.9596L98.6772 15.5028L98.677 15.5029L98.8804 15.9596ZM23.333 49.5924L23.1297 49.1356L23.1296 49.1356L23.333 49.5924ZM17.4825 55.7576L17.0157 55.5784L17.0157 55.5784L17.4825 55.7576ZM17.7041 64.254L17.2473 64.4572L17.2473 64.4574L17.7041 64.254ZM42.8154 120.629L43.2721 120.426L43.2721 120.426L42.8154 120.629ZM48.9802 126.479L49.1595 126.013L49.1594 126.012L48.9802 126.479ZM57.4762 126.258L57.6794 126.715L57.6795 126.715L57.4762 126.258ZM79.061 117.201C79.3133 117.089 79.4268 116.793 79.3146 116.541C79.2023 116.289 78.9068 116.175 78.6545 116.288L79.061 117.201ZM128.998 55.0462L113.998 21.3851L113.085 21.7921L128.084 55.4532L128.998 55.0462ZM113.998 21.3851C112.746 18.5739 110.429 16.3751 107.556 15.272L107.197 16.2055C109.823 17.2136 111.94 19.223 113.084 21.7921L113.998 21.3851ZM107.556 15.272C104.683 14.1689 101.489 14.2519 98.6772 15.5028L99.0836 16.4165C101.653 15.2734 104.572 15.1975 107.197 16.2055L107.556 15.272ZM98.677 15.5029L23.1297 49.1356L23.5364 50.0492L99.0837 16.4164L98.677 15.5029ZM23.1296 49.1356C20.3181 50.3877 18.1189 52.7051 17.0157 55.5784L17.9493 55.9368C18.9574 53.3111 20.9671 51.1933 23.5364 50.0491L23.1296 49.1356ZM17.0157 55.5784C15.9126 58.4516 15.9959 61.6454 17.2473 64.4572L18.1609 64.0507C17.0173 61.481 16.9412 58.5624 17.9493 55.9368L17.0157 55.5784ZM17.2473 64.4574L42.3586 120.833L43.2721 120.426L18.1608 64.0505L17.2473 64.4574ZM42.3586 120.833C43.6106 123.644 45.928 125.843 48.8011 126.946L49.1594 126.012C46.534 125.005 44.4162 122.995 43.2721 120.426L42.3586 120.833ZM48.801 126.946C51.6741 128.05 54.8677 127.966 57.6794 126.715L57.273 125.802C54.7034 126.945 51.785 127.021 49.1595 126.013L48.801 126.946ZM57.6795 126.715L79.061 117.201L78.6545 116.288L57.2729 125.802L57.6795 126.715Z" fill="#8C9199" mask="url(#path-20-outside-1_1625_4205)"/>
<mask id="path-22-outside-2_1625_4205" maskUnits="userSpaceOnUse" x="91.7671" y="64.2316" width="49" height="47" fill="black">
<rect fill="white" x="91.7671" y="64.2316" width="49" height="47"/>
<path d="M92.7671 110.547L133.021 92.6249C135.712 91.4272 137.816 89.2093 138.871 86.4601C139.927 83.711 139.847 80.6551 138.65 77.9641L132.979 65.2316"/>
</mask>
<path d="M92.5637 110.09C92.3115 110.202 92.198 110.498 92.3103 110.75C92.4226 111.002 92.7182 111.116 92.9705 111.004L92.5637 110.09ZM133.021 92.6249L132.818 92.1681V92.1681L133.021 92.6249ZM138.871 86.4601L138.404 86.2809L138.404 86.281L138.871 86.4601ZM138.65 77.9641L139.107 77.7609L139.107 77.7606L138.65 77.9641ZM133.436 65.0281C133.323 64.7759 133.028 64.6625 132.775 64.7748C132.523 64.8872 132.41 65.1828 132.522 65.435L133.436 65.0281ZM92.9705 111.004L133.225 93.0817L132.818 92.1681L92.5637 110.09L92.9705 111.004ZM133.225 93.0817C136.036 91.83 138.235 89.5123 139.338 86.6393L138.404 86.281C137.397 88.9064 135.387 91.0244 132.818 92.1681L133.225 93.0817ZM139.338 86.6394C140.441 83.7664 140.358 80.5729 139.107 77.7609L138.193 78.1673C139.337 80.7372 139.413 83.6555 138.404 86.2809L139.338 86.6394ZM139.107 77.7606L133.436 65.0281L132.522 65.435L138.194 78.1675L139.107 77.7606Z" fill="#8C9199" mask="url(#path-22-outside-2_1625_4205)"/>
<mask id="path-24-outside-3_1625_4205" maskUnits="userSpaceOnUse" x="29.4409" y="55.6436" width="29" height="46" fill="black">
<rect fill="white" x="29.4409" y="55.6436" width="29" height="46"/>
<path d="M57.0904 91.1787L42.4751 58.3549C42.3222 58.0088 42.1025 57.6963 41.8285 57.4354C41.5544 57.1745 41.2315 56.9704 40.8783 56.8346C40.5251 56.6989 40.1487 56.6343 39.7704 56.6446C39.3922 56.6548 39.0197 56.7398 38.6744 56.8945L32.1522 59.7869C31.8062 59.9398 31.4937 60.1594 31.2328 60.4334C30.9719 60.7073 30.7678 61.0301 30.632 61.3832C30.4963 61.7364 30.4317 62.1128 30.442 62.491C30.4523 62.8692 30.5371 63.2416 30.6918 63.5868L47.3384 100.974"/>
</mask>
<path d="M56.6336 91.3821C56.746 91.6343 57.0415 91.7478 57.2938 91.6354C57.5461 91.5231 57.6595 91.2276 57.5472 90.9753L56.6336 91.3821ZM42.4751 58.3549L42.0177 58.5569L42.0183 58.5583L42.4751 58.3549ZM41.8285 57.4354L42.1732 57.0733L42.1732 57.0732L41.8285 57.4354ZM40.8783 56.8346L41.0577 56.3679L41.0576 56.3679L40.8783 56.8346ZM39.7704 56.6446L39.7839 57.1444L39.784 57.1444L39.7704 56.6446ZM38.6744 56.8945L38.8772 57.3515L38.8789 57.3508L38.6744 56.8945ZM32.1522 59.7869L32.3542 60.2443L32.3549 60.244L32.1522 59.7869ZM31.2328 60.4334L31.5948 60.7782L31.5949 60.7782L31.2328 60.4334ZM30.442 62.491L29.9422 62.5045L29.9422 62.5047L30.442 62.491ZM30.6918 63.5868L31.1486 63.3835L31.1481 63.3824L30.6918 63.5868ZM46.8816 101.177C46.994 101.43 47.2895 101.543 47.5418 101.431C47.7941 101.318 47.9075 101.023 47.7952 100.771L46.8816 101.177ZM57.5472 90.9753L42.9319 58.1515L42.0183 58.5583L56.6336 91.3821L57.5472 90.9753ZM42.9325 58.1528C42.753 57.7465 42.495 57.3796 42.1732 57.0733L41.4837 57.7975C41.71 58.013 41.8914 58.271 42.0177 58.5569L42.9325 58.1528ZM42.1732 57.0732C41.8514 56.767 41.4724 56.5273 41.0577 56.3679L40.699 57.3013C40.9907 57.4134 41.2573 57.5821 41.4838 57.7976L42.1732 57.0732ZM41.0576 56.3679C40.643 56.2086 40.201 56.1327 39.7568 56.1448L39.784 57.1444C40.0963 57.1359 40.4073 57.1893 40.6991 57.3014L41.0576 56.3679ZM39.7569 56.1448C39.3128 56.1568 38.8754 56.2565 38.47 56.4382L38.8789 57.3508C39.164 57.223 39.4716 57.1529 39.7839 57.1444L39.7569 56.1448ZM38.4717 56.4374L31.9495 59.3299L32.3549 60.244L38.8771 57.3515L38.4717 56.4374ZM31.9502 59.3295C31.544 59.509 31.177 59.7668 30.8706 60.0886L31.5949 60.7782C31.8103 60.552 32.0684 60.3706 32.3542 60.2443L31.9502 59.3295ZM30.8707 60.0886C30.5643 60.4103 30.3247 60.7892 30.1653 61.2038L31.0987 61.5626C31.2109 61.271 31.3794 61.0044 31.5948 60.7782L30.8707 60.0886ZM30.1653 61.2038C30.0059 61.6185 29.9301 62.0606 29.9422 62.5045L30.9418 62.4775C30.9333 62.1651 30.9867 61.8542 31.0987 61.5626L30.1653 61.2038ZM29.9422 62.5047C29.9542 62.9485 30.0539 63.3859 30.2355 63.7913L31.1481 63.3824C31.0204 63.0974 30.9503 62.7898 30.9418 62.4774L29.9422 62.5047ZM30.235 63.7902L46.8816 101.177L47.7952 100.771L31.1486 63.3835L30.235 63.7902Z" fill="#8C9199" mask="url(#path-24-outside-3_1625_4205)"/>
<mask id="path-26-outside-4_1625_4205" maskUnits="userSpaceOnUse" x="49.188" y="100.71" width="16" height="14" fill="black">
<rect fill="white" x="49.188" y="100.71" width="16" height="14"/>
<path d="M50.188 107.399L52.2723 112.078C52.425 112.424 52.6447 112.736 52.9187 112.997C53.1926 113.259 53.5154 113.462 53.8686 113.598C54.2217 113.734 54.5982 113.799 54.9763 113.789C55.3545 113.778 55.7269 113.693 56.0722 113.539L62.5944 110.628C62.9404 110.475 63.2529 110.256 63.5138 109.982C63.7747 109.708 63.9788 109.385 64.1146 109.032C64.2503 108.679 64.3149 108.302 64.3046 107.924C64.2944 107.546 64.2094 107.174 64.0548 106.828L61.7862 101.71"/>
</mask>
<path d="M50.6447 107.196C50.5324 106.943 50.2368 106.83 49.9845 106.942C49.7323 107.055 49.6189 107.35 49.7313 107.603L50.6447 107.196ZM52.2723 112.078L52.7297 111.876L52.729 111.875L52.2723 112.078ZM54.9763 113.789L54.9625 113.289H54.9625L54.9763 113.789ZM56.0722 113.539L55.8684 113.082L55.868 113.082L56.0722 113.539ZM62.5944 110.628L62.3922 110.171L62.3906 110.172L62.5944 110.628ZM64.1146 109.032L64.5813 109.211L64.5813 109.211L64.1146 109.032ZM64.3046 107.924L63.8048 107.937L63.8048 107.937L64.3046 107.924ZM64.0548 106.828L63.5977 107.031L63.5984 107.032L64.0548 106.828ZM62.2433 101.507C62.1314 101.255 61.8361 101.141 61.5836 101.253C61.3312 101.364 61.2172 101.66 61.3291 101.912L62.2433 101.507ZM49.7313 107.603L51.8155 112.282L52.729 111.875L50.6447 107.196L49.7313 107.603ZM51.8148 112.28C51.9943 112.687 52.2524 113.053 52.5736 113.359L53.2637 112.636C53.0371 112.42 52.8557 112.162 52.7297 111.876L51.8148 112.28ZM52.5736 113.359C52.8957 113.666 53.2748 113.906 53.6891 114.065L54.0481 113.132C53.756 113.019 53.4896 112.851 53.2637 112.636L52.5736 113.359ZM53.6891 114.065C54.1035 114.224 54.5457 114.301 54.9901 114.288L54.9625 113.289C54.6507 113.297 54.3399 113.244 54.0481 113.132L53.6891 114.065ZM54.9901 114.288C55.4342 114.276 55.8712 114.176 56.2764 113.995L55.868 113.082C55.5825 113.21 55.2748 113.28 54.9625 113.289L54.9901 114.288ZM56.2759 113.995L62.7981 111.085L62.3906 110.172L55.8684 113.082L56.2759 113.995ZM62.7966 111.085C63.2025 110.906 63.5694 110.648 63.8758 110.327L63.1517 109.637C62.9364 109.863 62.6783 110.044 62.3922 110.171L62.7966 111.085ZM63.8758 110.327C64.1823 110.005 64.4219 109.626 64.5813 109.211L63.6479 108.852C63.5357 109.144 63.3671 109.411 63.1517 109.637L63.8758 110.327ZM64.5813 109.211C64.7406 108.797 64.8165 108.354 64.8044 107.91L63.8048 107.937C63.8133 108.25 63.7599 108.561 63.6479 108.853L64.5813 109.211ZM64.8044 107.91C64.7924 107.467 64.6926 107.029 64.5112 106.624L63.5984 107.032C63.7262 107.318 63.7963 107.626 63.8048 107.937L64.8044 107.91ZM64.5119 106.626L62.2433 101.507L61.3291 101.912L63.5977 107.031L64.5119 106.626Z" fill="#8C9199" mask="url(#path-26-outside-4_1625_4205)"/>
<mask id="path-28-outside-5_1625_4205" maskUnits="userSpaceOnUse" x="68.457" y="94.6166" width="15" height="11" fill="black">
<rect fill="white" x="68.457" y="94.6166" width="15" height="11"/>
<path d="M69.457 95.6166L72.7181 102.961C72.871 103.307 73.0907 103.619 73.3646 103.881C73.6386 104.142 73.9614 104.345 74.3145 104.481C74.6676 104.617 75.0442 104.682 75.4226 104.672C75.8002 104.661 76.1725 104.576 76.518 104.422L82.3739 101.827"/>
</mask>
<path d="M69.914 95.4137C69.8019 95.1613 69.5065 95.0475 69.2541 95.1596C69.0017 95.2717 68.888 95.5671 69.0001 95.8195L69.914 95.4137ZM72.7181 102.961L73.1756 102.759L73.1751 102.758L72.7181 102.961ZM75.4226 104.672L75.4364 105.171L75.4364 105.171L75.4226 104.672ZM76.518 104.422L76.3155 103.964L76.314 103.965L76.518 104.422ZM82.5764 102.284C82.8289 102.172 82.9429 101.877 82.831 101.624C82.7191 101.372 82.4238 101.258 82.1713 101.37L82.5764 102.284ZM69.0001 95.8195L72.2612 103.164L73.1751 102.758L69.914 95.4137L69.0001 95.8195ZM72.2607 103.163C72.4403 103.57 72.6983 103.936 73.0196 104.242L73.7096 103.519C73.483 103.303 73.3017 103.045 73.1756 102.759L72.2607 103.163ZM73.0196 104.242C73.3416 104.549 73.7208 104.789 74.135 104.948L74.494 104.015C74.202 103.902 73.9355 103.734 73.7096 103.519L73.0196 104.242ZM74.135 104.948C74.5495 105.107 74.9917 105.184 75.4364 105.171L75.4088 104.172C75.0967 104.18 74.7858 104.127 74.494 104.015L74.135 104.948ZM75.4364 105.171C75.8799 105.159 76.3169 105.059 76.7221 104.878L76.314 103.965C76.0282 104.093 75.7204 104.163 75.4087 104.172L75.4364 105.171ZM76.7206 104.879L82.5764 102.284L82.1713 101.37L76.3155 103.964L76.7206 104.879Z" fill="#8C9199" mask="url(#path-28-outside-5_1625_4205)"/>
<path d="M81.0711 89.3896C81.0149 89.2635 80.8671 89.2069 80.741 89.2631C80.6149 89.3194 80.5582 89.4672 80.6144 89.5933L84.3576 97.9871C84.4139 98.1132 84.5617 98.1698 84.6878 98.1136C84.8139 98.0574 84.8705 97.9096 84.8143 97.7835L81.0711 89.3896Z" stroke="#8C9199" stroke-width="0.5" stroke-linecap="round" stroke-linejoin="round"/>
<mask id="path-31-outside-6_1625_4205" maskUnits="userSpaceOnUse" x="57.4019" y="63.4136" width="19" height="22" fill="black">
<rect fill="white" x="57.4019" y="63.4136" width="19" height="22"/>
<path d="M75.327 77.1134L70.4353 66.1249C70.2825 65.7788 70.0628 65.4663 69.7888 65.2054C69.5149 64.9445 69.192 64.7404 68.8389 64.6047C68.4859 64.469 68.1094 64.4044 67.7312 64.4146C67.3531 64.4249 66.9806 64.5098 66.6354 64.6645L60.1132 67.5569C59.767 67.7098 59.4546 67.9294 59.1937 68.2034C58.9328 68.4774 58.7287 68.8001 58.593 69.1532C58.4572 69.5064 58.3927 69.8828 58.4029 70.261C58.4132 70.6392 58.498 71.0116 58.6527 71.3568L64.6645 84.8692"/>
</mask>
<path d="M74.8702 77.3168C74.9825 77.569 75.278 77.6825 75.5303 77.5702C75.7826 77.4579 75.896 77.1623 75.7837 76.9101L74.8702 77.3168ZM70.4353 66.1249L69.9779 66.3269L69.9785 66.3282L70.4353 66.1249ZM69.7888 65.2054L69.444 65.5675L69.444 65.5676L69.7888 65.2054ZM68.8389 64.6047L68.6595 65.0714L68.6595 65.0714L68.8389 64.6047ZM67.7312 64.4146L67.7177 63.9148L67.7176 63.9148L67.7312 64.4146ZM66.6354 64.6645L66.8381 65.1215L66.8399 65.1208L66.6354 64.6645ZM60.1132 67.5569L60.3151 68.0143L60.3159 68.014L60.1132 67.5569ZM59.1937 68.2034L59.5558 68.5482L59.5558 68.5482L59.1937 68.2034ZM58.4029 70.261L57.9031 70.2746L57.9031 70.2747L58.4029 70.261ZM58.6527 71.3568L59.1096 71.1536L59.109 71.1524L58.6527 71.3568ZM64.2077 85.0724C64.32 85.3247 64.6155 85.4383 64.8678 85.326C65.1201 85.2138 65.2336 84.9182 65.1214 84.6659L64.2077 85.0724ZM75.7837 76.9101L70.8921 65.9215L69.9785 66.3282L74.8702 77.3168L75.7837 76.9101ZM70.8927 65.9229C70.7133 65.5166 70.4554 65.1497 70.1336 64.8433L69.444 65.5676C69.6703 65.7829 69.8517 66.041 69.9779 66.3269L70.8927 65.9229ZM70.1336 64.8433C69.8119 64.537 69.4329 64.2973 69.0183 64.138L68.6595 65.0714C68.9512 65.1835 69.2178 65.3521 69.444 65.5675L70.1336 64.8433ZM69.0183 64.138C68.6037 63.9786 68.1617 63.9028 67.7177 63.9148L67.7447 64.9144C68.0571 64.906 68.368 64.9593 68.6595 65.0714L69.0183 64.138ZM67.7176 63.9148C67.2737 63.9269 66.8363 64.0265 66.4309 64.2082L66.8399 65.1208C67.1249 64.993 67.4324 64.9229 67.7448 64.9144L67.7176 63.9148ZM66.4327 64.2074L59.9105 67.0999L60.3159 68.014L66.8381 65.1215L66.4327 64.2074ZM59.9112 67.0995C59.5049 67.279 59.138 67.5368 58.8316 67.8586L59.5558 68.5482C59.7712 68.3219 60.0292 68.1406 60.3151 68.0143L59.9112 67.0995ZM58.8316 67.8586C58.5253 68.1803 58.2856 68.5593 58.1263 68.9738L59.0597 69.3326C59.1718 69.041 59.3404 68.7744 59.5558 68.5482L58.8316 67.8586ZM58.1263 68.9738C57.9669 69.3885 57.8911 69.8306 57.9031 70.2746L58.9027 70.2475C58.8943 69.9351 58.9476 69.6242 59.0597 69.3326L58.1263 68.9738ZM57.9031 70.2747C57.9152 70.7186 58.0148 71.1559 58.1965 71.5613L59.109 71.1524C58.9813 70.8674 58.9112 70.5598 58.9027 70.2474L57.9031 70.2747ZM58.1959 71.5601L64.2077 85.0724L65.1214 84.6659L59.1096 71.1536L58.1959 71.5601Z" fill="#8C9199" mask="url(#path-31-outside-6_1625_4205)"/>
<mask id="path-33-outside-7_1625_4205" maskUnits="userSpaceOnUse" x="81.1123" y="61.5979" width="18" height="17" fill="black">
<rect fill="white" x="81.1123" y="61.5979" width="18" height="17"/>
<path d="M98.0593 73.115L94.1459 64.3092C93.9929 63.9631 93.7736 63.6506 93.4997 63.3898C93.2258 63.1289 92.9027 62.9247 92.5497 62.789C92.1967 62.6533 91.8199 62.5887 91.4415 62.5989C91.0639 62.6092 90.6915 62.6941 90.346 62.8488L83.8238 65.7554C83.4775 65.9082 83.1649 66.1279 82.9044 66.4018C82.6432 66.6758 82.4395 66.9986 82.3037 67.3517C82.1679 67.7049 82.1029 68.0814 82.1134 68.4595C82.1238 68.8377 82.2089 69.2101 82.3634 69.5553L85.9081 77.5402"/>
</mask>
<path d="M97.6024 73.318C97.7145 73.5704 98.01 73.684 98.2623 73.5719C98.5147 73.4597 98.6283 73.1643 98.5162 72.9119L97.6024 73.318ZM94.1459 64.3092L93.6886 64.5113L93.689 64.5123L94.1459 64.3092ZM92.5497 62.789L92.3702 63.2557L92.3703 63.2557L92.5497 62.789ZM91.4415 62.5989L91.428 62.0991L91.4279 62.0991L91.4415 62.5989ZM90.346 62.8488L90.5496 63.3055L90.5503 63.3051L90.346 62.8488ZM83.8238 65.7554L84.0256 66.2129L84.0273 66.2121L83.8238 65.7554ZM82.9044 66.4018L83.2663 66.7469L83.2668 66.7464L82.9044 66.4018ZM82.1134 68.4595L82.6132 68.4457L82.6132 68.4457L82.1134 68.4595ZM82.3634 69.5553L82.8204 69.3525L82.8198 69.3512L82.3634 69.5553ZM85.4511 77.7431C85.5631 77.9955 85.8586 78.1093 86.1109 77.9972C86.3633 77.8852 86.4771 77.5897 86.3651 77.3373L85.4511 77.7431ZM98.5162 72.9119L94.6028 64.1062L93.689 64.5123L97.6024 73.318L98.5162 72.9119ZM94.6032 64.1071C94.4238 63.701 94.1663 63.3342 93.8445 63.0277L93.1548 63.7518C93.3808 63.9671 93.5621 64.2252 93.6886 64.5113L94.6032 64.1071ZM93.8445 63.0277C93.5228 62.7213 93.1434 62.4816 92.7291 62.3223L92.3703 63.2557C92.6619 63.3678 92.9288 63.5365 93.1548 63.7518L93.8445 63.0277ZM92.7292 62.3223C92.3145 62.1629 91.8721 62.0871 91.428 62.0991L91.455 63.0988C91.7677 63.0903 92.0789 63.1437 92.3702 63.2557L92.7292 62.3223ZM91.4279 62.0991C90.9844 62.1112 90.5473 62.2109 90.1417 62.3925L90.5503 63.3051C90.8358 63.1773 91.1434 63.1073 91.4551 63.0988L91.4279 62.0991ZM90.1425 62.3921L83.6203 65.2987L84.0273 66.2121L90.5496 63.3055L90.1425 62.3921ZM83.622 65.298C83.2155 65.4773 82.8482 65.7353 82.542 66.0573L83.2668 66.7464C83.4815 66.5205 83.7396 66.3391 84.0256 66.2129L83.622 65.298ZM82.5425 66.0568C82.2355 66.3788 81.9963 66.758 81.837 67.1723L82.7704 67.5312C82.8827 67.2392 83.0509 66.9727 83.2663 66.7469L82.5425 66.0568ZM81.837 67.1723C81.6776 67.5867 81.6013 68.0288 81.6136 68.4733L82.6132 68.4457C82.6046 68.1339 82.6581 67.8231 82.7704 67.5312L81.837 67.1723ZM81.6136 68.4733C81.6258 68.9173 81.7257 69.3544 81.907 69.7595L82.8198 69.3512C82.6921 69.0657 82.6218 68.758 82.6132 68.4457L81.6136 68.4733ZM81.9064 69.7582L85.4511 77.7431L86.3651 77.3373L82.8204 69.3525L81.9064 69.7582Z" fill="#8C9199" mask="url(#path-33-outside-7_1625_4205)"/>
<mask id="path-35-outside-8_1625_4205" maskUnits="userSpaceOnUse" x="117.459" y="64.8413" width="9" height="22" fill="black">
<rect fill="white" x="117.459" y="64.8413" width="9" height="22"/>
<path d="M118.459 85.7625L123.947 83.3095C124.293 83.1565 124.606 82.9371 124.866 82.6633C125.127 82.3894 125.331 82.0663 125.467 81.7133C125.603 81.3603 125.667 80.9835 125.657 80.6051C125.647 80.2275 125.562 79.8551 125.407 79.5096L119.327 65.8413"/>
</mask>
<path d="M118.255 85.306C118.003 85.4187 117.89 85.7144 118.003 85.9665C118.116 86.2186 118.411 86.3316 118.664 86.2189L118.255 85.306ZM123.947 83.3095L123.745 82.8522L123.743 82.8531L123.947 83.3095ZM124.866 82.6633L124.504 82.3182L124.504 82.3187L124.866 82.6633ZM125.657 80.6051L126.157 80.5913L126.157 80.5913L125.657 80.6051ZM125.407 79.5096L124.95 79.7128L124.951 79.7137L125.407 79.5096ZM119.784 65.6381C119.672 65.3858 119.376 65.2722 119.124 65.3845C118.872 65.4967 118.758 65.7922 118.871 66.0445L119.784 65.6381ZM118.664 86.2189L124.151 83.766L123.743 82.8531L118.255 85.306L118.664 86.2189ZM124.149 83.7669C124.555 83.5875 124.922 83.3299 125.228 83.0078L124.504 82.3187C124.289 82.5444 124.031 82.7256 123.745 82.8522L124.149 83.7669ZM125.228 83.0083C125.535 82.6863 125.774 82.3068 125.933 81.8929L125 81.5337C124.888 81.8258 124.719 82.0925 124.504 82.3182L125.228 83.0083ZM125.933 81.8929C126.093 81.4785 126.169 81.0359 126.157 80.5913L125.157 80.6189C125.166 80.931 125.112 81.2422 125 81.5337L125.933 81.8929ZM126.157 80.5913C126.145 80.1478 126.045 79.7108 125.864 79.3055L124.951 79.7137C125.078 79.9995 125.149 80.3072 125.157 80.6189L126.157 80.5913ZM125.864 79.3064L119.784 65.6381L118.871 66.0445L124.95 79.7128L125.864 79.3064Z" fill="#8C9199" mask="url(#path-35-outside-8_1625_4205)"/>
<path d="M111.854 48.4556C111.798 48.3295 111.65 48.2728 111.524 48.329C111.398 48.3852 111.341 48.533 111.397 48.6591L113.949 54.3873C114.006 54.5135 114.153 54.5701 114.279 54.5139C114.406 54.4578 114.462 54.31 114.406 54.1838L111.854 48.4556Z" stroke="#8C9199" stroke-width="0.5" stroke-linecap="round" stroke-linejoin="round"/>
<mask id="path-38-outside-9_1625_4205" maskUnits="userSpaceOnUse" x="90.793" y="28.3181" width="19" height="26" fill="black">
<rect fill="white" x="90.793" y="28.3181" width="19" height="26"/>
<path d="M108.477 41.4933L103.826 31.0294C103.673 30.6833 103.454 30.3709 103.18 30.11C102.906 29.8491 102.583 29.6449 102.23 29.5092C101.877 29.3735 101.5 29.3089 101.123 29.3192C100.744 29.3295 100.372 29.4143 100.027 29.569L93.5043 32.4757C93.1581 32.6284 92.8461 32.8481 92.585 33.1221C92.3238 33.3961 92.12 33.7188 91.9842 34.072C91.8484 34.4251 91.7842 34.8016 91.7939 35.1798C91.8044 35.5579 91.8894 35.9303 92.0439 36.2756L99.4594 52.9363"/>
</mask>
<path d="M108.02 41.6964C108.132 41.9487 108.428 42.0624 108.68 41.9502C108.932 41.8381 109.046 41.5426 108.934 41.2903L108.02 41.6964ZM103.826 31.0294L103.369 31.2316L103.37 31.2325L103.826 31.0294ZM102.23 29.5092L102.051 29.9759L102.051 29.9759L102.23 29.5092ZM101.123 29.3192L101.109 28.8193L101.109 28.8193L101.123 29.3192ZM100.027 29.569L100.23 30.0257L100.231 30.0254L100.027 29.569ZM93.5043 32.4757L93.7061 32.9331L93.7079 32.9324L93.5043 32.4757ZM92.585 33.1221L92.2231 32.777L92.223 32.7771L92.585 33.1221ZM91.7939 35.1798L91.2941 35.1926L91.2941 35.1936L91.7939 35.1798ZM92.0439 36.2756L92.5007 36.0722L92.5003 36.0713L92.0439 36.2756ZM99.0026 53.1397C99.1149 53.3919 99.4104 53.5054 99.6627 53.3931C99.915 53.2808 100.028 52.9853 99.9162 52.733L99.0026 53.1397ZM108.934 41.2903L104.283 30.8263L103.37 31.2325L108.02 41.6964L108.934 41.2903ZM104.284 30.8273C104.104 30.4212 103.847 30.0544 103.525 29.7479L102.835 30.472C103.061 30.6873 103.243 30.9454 103.369 31.2316L104.284 30.8273ZM103.525 29.7479C103.203 29.4415 102.824 29.2018 102.41 29.0425L102.051 29.9759C102.342 30.088 102.609 30.2567 102.835 30.472L103.525 29.7479ZM102.41 29.0426C101.995 28.8831 101.553 28.8073 101.109 28.8193L101.136 29.819C101.448 29.8105 101.759 29.8639 102.051 29.9759L102.41 29.0426ZM101.109 28.8193C100.665 28.8314 100.228 28.9311 99.8222 29.1127L100.231 30.0254C100.516 29.8976 100.824 29.8275 101.136 29.819L101.109 28.8193ZM99.823 29.1123L93.3008 32.019L93.7079 32.9324L100.23 30.0257L99.823 29.1123ZM93.3025 32.0182C92.8956 32.1977 92.5294 32.4557 92.2231 32.777L92.9468 33.4671C93.1629 33.2405 93.4205 33.0591 93.7061 32.9331L93.3025 32.0182ZM92.223 32.7771C91.9161 33.0991 91.6769 33.4782 91.5175 33.8925L92.4509 34.2514C92.5632 33.9595 92.7315 33.693 92.9469 33.467L92.223 32.7771ZM91.5175 33.8925C91.3579 34.3075 91.2827 34.7494 91.2941 35.1926L92.2938 35.1669C92.2857 34.8537 92.3389 34.5427 92.4509 34.2514L91.5175 33.8925ZM91.2941 35.1936C91.3064 35.6375 91.4063 36.0747 91.5875 36.4798L92.5003 36.0713C92.3726 35.786 92.3024 35.4782 92.2937 35.166L91.2941 35.1936ZM91.5871 36.4789L99.0026 53.1397L99.9162 52.733L92.5007 36.0722L91.5871 36.4789Z" fill="#8C9199" mask="url(#path-38-outside-9_1625_4205)"/>
<mask id="path-40-outside-10_1625_4205" maskUnits="userSpaceOnUse" x="107.493" y="47.4335" width="3" height="3" fill="black">
<rect fill="white" x="107.493" y="47.4335" width="3" height="3"/>
<path d="M108.902 48.5156C109.245 48.517 109.587 48.4896 109.925 48.4335L108.493 49.7946"/>
</mask>
<path d="M108.905 48.0156C108.628 48.0144 108.404 48.2372 108.402 48.5134C108.401 48.7895 108.624 49.0143 108.9 49.0155L108.905 48.0156ZM109.925 48.4335L110.269 48.7959C110.428 48.6446 110.47 48.4071 110.372 48.2105C110.274 48.0139 110.06 47.9043 109.843 47.9402L109.925 48.4335ZM108.148 49.4322C107.948 49.6225 107.94 49.9389 108.13 50.1391C108.321 50.3393 108.637 50.3473 108.837 50.157L108.148 49.4322ZM108.9 49.0155C109.271 49.0172 109.641 48.9874 110.007 48.9267L109.843 47.9402C109.533 47.9917 109.219 48.0169 108.905 48.0156L108.9 49.0155ZM109.58 48.0711L108.148 49.4322L108.837 50.157L110.269 48.7959L109.58 48.0711Z" fill="#8C9199" mask="url(#path-40-outside-10_1625_4205)"/>
<mask id="path-42-outside-11_1625_4205" maskUnits="userSpaceOnUse" x="116.212" y="63.6927" width="4" height="5" fill="black">
<rect fill="white" x="116.212" y="63.6927" width="4" height="5"/>
<path d="M118.934 67.3046L117.212 64.6927L119.58 64.9278"/>
</mask>
<path d="M118.517 67.5799C118.669 67.8104 118.979 67.8741 119.21 67.722C119.44 67.57 119.504 67.2599 119.352 67.0294L118.517 67.5799ZM117.212 64.6927L117.261 64.1952C117.069 64.1761 116.884 64.2692 116.784 64.4342C116.684 64.5993 116.688 64.807 116.794 64.968L117.212 64.6927ZM119.53 65.4254C119.805 65.4527 120.05 65.252 120.077 64.9772C120.105 64.7024 119.904 64.4575 119.629 64.4303L119.53 65.4254ZM119.352 67.0294L117.629 64.4175L116.794 64.968L118.517 67.5799L119.352 67.0294ZM117.163 65.1903L119.53 65.4254L119.629 64.4303L117.261 64.1952L117.163 65.1903Z" fill="#8C9199" mask="url(#path-42-outside-11_1625_4205)"/>
<mask id="path-44-outside-12_1625_4205" maskUnits="userSpaceOnUse" x="54.3286" y="50.2969" width="12" height="5" fill="black">
<rect fill="white" x="54.3286" y="50.2969" width="12" height="5"/>
<path d="M62.5235 51.4185C60.6831 51.2929 58.8373 51.2646 56.9938 51.3335C55.079 51.4581 54.2424 52.5409 57.6744 52.8931C60.184 53.1498 62.8071 53.2901 65.1041 54.4953"/>
</mask>
<path d="M62.4895 51.9174C62.765 51.9362 63.0036 51.7281 63.0224 51.4526C63.0412 51.1771 62.8331 50.9385 62.5576 50.9197L62.4895 51.9174ZM56.9938 51.3335L56.9752 50.8336L56.9614 50.8345L56.9938 51.3335ZM57.6744 52.8931L57.6234 53.3905L57.6235 53.3905L57.6744 52.8931ZM64.8718 54.9381C65.1163 55.0664 65.4185 54.9722 65.5468 54.7276C65.6751 54.4831 65.5809 54.1809 65.3364 54.0526L64.8718 54.9381ZM62.5576 50.9197C60.6995 50.7929 58.8362 50.7643 56.9752 50.8338L57.0125 51.8331C58.8384 51.7649 60.6666 51.793 62.4895 51.9174L62.5576 50.9197ZM56.9614 50.8345C56.4442 50.8682 55.9744 50.9675 55.6147 51.1198C55.4361 51.1954 55.2626 51.2934 55.124 51.4211C54.9872 51.5471 54.8451 51.7404 54.8299 51.9985C54.814 52.2681 54.9429 52.4854 55.0968 52.6356C55.2457 52.7808 55.4436 52.892 55.6617 52.9812C56.1005 53.1606 56.7464 53.3005 57.6234 53.3905L57.7255 52.3957C56.8864 52.3096 56.3498 52.1821 56.0401 52.0555C55.8839 51.9917 55.8161 51.9403 55.7951 51.9198C55.7793 51.9043 55.8343 51.9529 55.8282 52.0574C55.8227 52.1504 55.7739 52.182 55.8015 52.1566C55.8273 52.1329 55.8892 52.0895 56.0047 52.0406C56.2332 51.9439 56.5861 51.8611 57.0263 51.8324L56.9614 50.8345ZM57.6235 53.3905C60.1768 53.6517 62.681 53.7886 64.8718 54.9381L65.3364 54.0526C62.9332 52.7916 60.1913 52.648 57.7253 52.3957L57.6235 53.3905Z" fill="#8C9199" mask="url(#path-44-outside-12_1625_4205)"/>
<path d="M60.6345 50.0643C60.6152 50.1542 60.6467 50.2475 60.7166 50.3071C60.7866 50.3668 60.8836 50.3833 60.9693 50.35L64.2588 49.0739C64.3669 49.032 64.4319 48.9213 64.416 48.8065C64.4 48.6916 64.3072 48.6028 64.1918 48.592C63.0402 48.4835 62.2242 48.5155 61.6582 48.7465C61.3675 48.8652 61.1408 49.0368 60.9708 49.2659C60.8028 49.4924 60.6996 49.7622 60.6345 50.0643Z" stroke="#8C9199" stroke-width="0.5" stroke-linecap="round" stroke-linejoin="round"/>
<path d="M59.7305 51.2279C59.7056 51.319 59.7342 51.4163 59.8043 51.4795C59.8744 51.5427 59.9742 51.561 60.0622 51.5268L63.2382 50.2933C63.3464 50.2513 63.4115 50.1403 63.3953 50.0254C63.3791 49.9105 63.2859 49.8218 63.1704 49.8113C62.0832 49.7124 61.3152 49.714 60.7738 49.9214C60.4928 50.029 60.2718 50.1917 60.0995 50.418C59.9304 50.6402 59.8166 50.9126 59.7305 51.2279Z" stroke="#8C9199" stroke-width="0.5" stroke-linecap="round" stroke-linejoin="round"/>
<mask id="path-48-outside-13_1625_4205" maskUnits="userSpaceOnUse" x="60.8428" y="46.6912" width="12" height="3" fill="black">
<rect fill="white" x="60.8428" y="46.6912" width="12" height="3"/>
<path d="M61.8428 48.926C62.1689 47.7917 62.9204 47.5872 65.1039 47.732C67.2976 47.9869 69.4751 48.3656 71.6261 48.8663"/>
</mask>
<path d="M61.3622 48.7879C61.2859 49.0532 61.4392 49.3302 61.7046 49.4065C61.97 49.4828 62.247 49.3296 62.3233 49.0642L61.3622 48.7879ZM65.1039 47.732L65.1616 47.2353C65.1534 47.2344 65.1452 47.2336 65.137 47.2331L65.1039 47.732ZM71.5128 49.3533C71.7817 49.4159 72.0505 49.2486 72.1131 48.9797C72.1757 48.7107 72.0084 48.4419 71.7395 48.3793L71.5128 49.3533ZM62.3233 49.0642C62.3924 48.8237 62.4736 48.6701 62.5633 48.565C62.6487 48.4649 62.7628 48.3837 62.9414 48.3215C63.3341 48.1846 63.9702 48.1579 65.0708 48.2309L65.137 47.2331C64.0541 47.1613 63.2227 47.1645 62.6122 47.3772C62.2893 47.4898 62.0179 47.6634 61.8024 47.9161C61.5912 48.1638 61.4562 48.4611 61.3622 48.7879L62.3233 49.0642ZM65.0462 48.2287C67.2211 48.4814 69.3801 48.8569 71.5128 49.3533L71.7395 48.3793C69.5701 47.8744 67.374 47.4924 65.1616 47.2353L65.0462 48.2287Z" fill="#8C9199" mask="url(#path-48-outside-13_1625_4205)"/>
<mask id="path-50-outside-14_1625_4205" maskUnits="userSpaceOnUse" x="60.3481" y="47.8693" width="12" height="10" fill="black">
<rect fill="white" x="60.3481" y="47.8693" width="12" height="10"/>
<path d="M71.6421 48.8693C70.3018 51.0881 69.7796 53.7058 70.166 56.2691C68.3046 56.6632 66.3738 56.5808 64.5527 56.0295C62.2394 55.4325 60.3409 53.2289 61.9409 53.4177C62.5916 53.5415 63.2316 53.7161 63.855 53.94"/>
</mask>
<path d="M72.0701 49.1278C72.2129 48.8914 72.137 48.5841 71.9006 48.4413C71.6643 48.2985 71.3569 48.3744 71.2141 48.6107L72.0701 49.1278ZM70.166 56.2691L70.2696 56.7582C70.5285 56.7034 70.6999 56.4563 70.6604 56.1945L70.166 56.2691ZM64.5527 56.0295L64.6976 55.551C64.691 55.549 64.6844 55.5471 64.6777 55.5454L64.5527 56.0295ZM61.9409 53.4177L62.0343 52.9265C62.0228 52.9243 62.0111 52.9225 61.9995 52.9211L61.9409 53.4177ZM63.686 54.4106C63.9458 54.5039 64.2322 54.369 64.3256 54.1091C64.4189 53.8492 64.2839 53.5628 64.024 53.4695L63.686 54.4106ZM71.2141 48.6107C69.8135 50.9294 69.2678 53.6649 69.6716 56.3436L70.6604 56.1945C70.2914 53.7466 70.7901 51.2467 72.0701 49.1278L71.2141 48.6107ZM70.0625 55.7799C68.2834 56.1566 66.4381 56.0778 64.6976 55.551L64.4079 56.5081C66.3095 57.0837 68.3258 57.1698 70.2696 56.7582L70.0625 55.7799ZM64.6777 55.5454C63.6169 55.2716 62.646 54.6229 62.1442 54.0871C62.021 53.9556 61.9378 53.8431 61.8894 53.7575C61.8347 53.6608 61.8505 53.6451 61.8478 53.6908C61.846 53.7225 61.8349 53.7729 61.7995 53.8237C61.7644 53.874 61.7237 53.8983 61.7034 53.9074C61.6783 53.9187 61.7165 53.8946 61.8823 53.9142L61.9995 52.9211C61.7652 52.8935 61.5127 52.897 61.2943 52.995C61.1773 53.0474 61.0643 53.1299 60.9796 53.2512C60.8946 53.3729 60.8567 53.5071 60.8495 53.6335C60.836 53.8685 60.9261 54.0857 61.019 54.2499C61.1181 54.425 61.2557 54.6013 61.4144 54.7707C62.0401 55.4388 63.1752 56.1904 64.4278 56.5137L64.6777 55.5454ZM61.8474 53.9088C62.4725 54.0278 63.0872 54.1955 63.686 54.4106L64.024 53.4695C63.376 53.2367 62.7107 53.0552 62.0343 52.9265L61.8474 53.9088Z" fill="#8C9199" mask="url(#path-50-outside-14_1625_4205)"/>
<mask id="path-52-outside-15_1625_4205" maskUnits="userSpaceOnUse" x="106.57" y="35.9301" width="10" height="15" fill="black">
<rect fill="white" x="106.57" y="35.9301" width="10" height="15"/>
<path d="M111.455 49.9185C111.177 47.4022 115.355 44.2866 115.519 44.1649C114.983 41.4784 114.497 38.6972 112.405 36.9301C110.408 38.5913 108.764 40.6356 107.57 42.9426"/>
</mask>
<path d="M110.958 49.9734C110.988 50.2478 111.235 50.4458 111.509 50.4155C111.784 50.3852 111.982 50.1382 111.952 49.8637L110.958 49.9734ZM115.519 44.1649L115.817 44.5667C115.973 44.4515 116.048 44.2568 116.01 44.067L115.519 44.1649ZM112.405 36.9301L112.728 36.5481C112.543 36.3916 112.272 36.3906 112.086 36.5457L112.405 36.9301ZM107.126 42.7128C106.999 42.958 107.095 43.2597 107.34 43.3866C107.586 43.5136 107.887 43.4177 108.014 43.1724L107.126 42.7128ZM111.952 49.8637C111.898 49.3786 112.057 48.8191 112.388 48.2155C112.716 47.6173 113.188 47.0221 113.688 46.4841C114.687 45.4089 115.744 44.621 115.817 44.5667L115.222 43.7632C115.131 43.8306 114.016 44.6613 112.955 45.8033C112.425 46.374 111.894 47.0371 111.511 47.7347C111.132 48.4267 110.872 49.2003 110.958 49.9734L111.952 49.8637ZM116.01 44.067C115.484 41.4342 114.98 38.4504 112.728 36.5481L112.083 37.312C114.014 38.9439 114.482 41.5227 115.029 44.2629L116.01 44.067ZM112.086 36.5457C110.037 38.2496 108.351 40.3465 107.126 42.7128L108.014 43.1724C109.178 40.9248 110.779 38.933 112.725 37.3144L112.086 36.5457Z" fill="#8C9199" mask="url(#path-52-outside-15_1625_4205)"/>
<path d="M91.289 91.8974C87.236 90.7144 83.0795 89.9187 78.8757 89.5213C72.2682 93.6463 66.0015 98.2933 60.1359 103.419C60.0445 103.499 59.9091 103.501 59.8146 103.425C56.9302 101.103 54.4694 98.2989 52.541 95.1371C52.4784 95.0345 52.4976 94.902 52.5868 94.8214C59.213 88.8317 66.1378 83.181 73.3346 77.8904C74.8203 76.7931 76.6561 76.2769 78.4958 76.4389M91.289 91.8974L78.474 76.6879L78.4959 76.4389C78.4959 76.4389 78.4958 76.4389 78.4958 76.4389M91.289 91.8974C89.4512 93.238 87.6725 94.6473 85.9541 96.1247L85.954 96.1248C84.0631 97.7525 82.6827 99.8907 81.9781 102.284L81.9776 102.286C79.8644 109.661 78.3171 117.187 77.3476 124.797C77.3327 124.914 77.4021 125.026 77.5139 125.065C81.3884 126.405 85.4431 127.151 89.5407 127.276C89.6705 127.28 89.7817 127.184 89.7967 127.055C90.6197 119.945 92.1614 112.938 94.3969 106.139L112.399 97.5894L112.399 97.5895L112.407 97.5852C117.38 94.9909 118.67 90.5642 118.72 86.822C118.745 84.9527 118.462 83.2469 118.174 82.0099C118.03 81.3909 117.884 80.8879 117.773 80.5389C117.718 80.3644 117.672 80.2282 117.64 80.1353C117.626 80.0967 117.615 80.0656 117.606 80.0422C117.983 73.804 118.497 69.394 119.76 65.1974C124.727 65.6248 129.718 65.6875 134.695 65.3848L134.695 65.3849L134.703 65.3842C136.136 65.2526 137.476 64.6177 138.486 63.592C139.495 62.5664 140.109 61.2163 140.218 59.7812L141.507 43.0356C141.516 42.9172 141.44 42.8088 141.326 42.7761C138.272 41.9001 135.077 41.6229 131.917 41.9596C131.798 41.9723 131.704 42.0683 131.694 42.1881L130.663 54.9609C122.337 55.0931 117.787 54.7711 115.264 54.2707C113.991 54.0182 113.255 53.7241 112.815 53.4349C112.387 53.1543 112.229 52.8736 112.128 52.6086C111.644 51.3367 111.63 49.8376 111.799 48.6252C111.883 48.0209 112.011 47.4972 112.144 47.119C112.21 46.9292 112.275 46.7827 112.332 46.683C112.361 46.633 112.385 46.6004 112.402 46.5815C112.405 46.578 112.407 46.5754 112.409 46.5734C113.675 46.0932 114.188 45.2329 114.114 44.5237C114.078 44.1736 113.89 43.8614 113.576 43.7158C113.257 43.5684 112.871 43.62 112.494 43.867L112.494 43.8671C112.378 43.9431 112.275 44.0026 112.187 44.042C112.131 44.0673 112.09 44.0804 112.061 44.0868C112.059 44.0612 112.059 44.0216 112.066 43.9637M91.289 91.8974L78.4958 76.4389M78.4958 76.4389C85.1902 77.0257 91.8363 78.0758 98.3851 79.582C97.6629 73.8556 97.4928 68.0729 97.8762 62.3138C87.6749 61.7799 80.6421 60.1013 70.2896 57.5483C70.1994 57.5261 70.129 57.4557 70.1067 57.3655C69.7239 55.813 69.6692 54.1977 69.9462 52.6228C70.2232 51.048 70.8259 49.5483 71.7156 48.2197C71.7741 48.1323 71.881 48.0909 71.9831 48.1161C83.4914 50.9506 91.7756 52.7484 103.685 52.8303C103.776 52.8309 103.864 52.8316 103.951 52.8322C105.147 52.8409 106.017 52.8473 106.63 52.7345C106.955 52.6749 107.18 52.5859 107.335 52.4661C107.483 52.3515 107.584 52.1956 107.637 51.962L107.637 51.9619C107.823 51.1368 108.08 50.2543 108.29 49.5801C108.395 49.2433 108.489 48.9575 108.556 48.7555C108.229 48.7358 107.876 48.6844 107.541 48.5753C107.082 48.4261 106.639 48.163 106.353 47.7093C106.065 47.2536 105.96 46.6428 106.103 45.8462C106.246 45.053 106.639 44.0603 107.367 42.8155M112.066 43.9637C112.066 43.9637 112.066 43.9638 112.066 43.9638L111.817 43.9358L112.066 43.9637ZM112.066 43.9637C112.129 43.397 112.069 42.7313 111.898 42.1288C111.728 41.5319 111.439 40.9597 111.015 40.617C110.799 40.4424 110.546 40.3252 110.258 40.3018C109.97 40.2784 109.668 40.3503 109.359 40.52C108.75 40.8546 108.086 41.5829 107.367 42.8155M107.367 42.8155L107.583 42.9418L107.367 42.8158C107.367 42.8157 107.367 42.8156 107.367 42.8155Z" stroke="#8C9199" stroke-width="0.5" stroke-linecap="round" stroke-linejoin="round"/>
<path d="M102.568 85.4646C102.683 85.3938 102.721 85.245 102.654 85.128C102.587 85.0111 102.44 84.968 102.32 85.0306C98.6311 86.9681 95.0824 89.1623 91.7007 91.5959C91.5914 91.6745 91.564 91.8256 91.6388 91.9376C91.7135 92.0496 91.8636 92.0823 91.9781 92.0114L102.568 85.4646Z" stroke="#8C9199" stroke-width="0.5" stroke-linecap="round" stroke-linejoin="round"/>
<path d="M117.345 80.3234C117.476 80.3356 117.594 80.2439 117.615 80.1139C117.635 79.9839 117.552 79.8601 117.423 79.8308C110.575 78.2681 104.165 77.5086 98.4701 78.0818C98.342 78.0947 98.2446 78.2028 98.2451 78.3315C98.2456 78.4603 98.3439 78.5676 98.4721 78.5795L117.345 80.3234Z" stroke="#8C9199" stroke-width="0.5" stroke-linecap="round" stroke-linejoin="round"/>
<mask id="path-57-outside-16_1625_4205" maskUnits="userSpaceOnUse" x="101.99" y="52.0803" width="16" height="15" fill="black">
<rect fill="white" x="101.99" y="52.0803" width="16" height="15"/>
<path d="M102.99 53.0803L107.655 65.7845L116.56 54.7534"/>
</mask>
<path d="M103.459 52.908C103.364 52.6488 103.077 52.5158 102.817 52.611C102.558 52.7061 102.425 52.9934 102.52 53.2527L103.459 52.908ZM107.655 65.7845L107.185 65.9568C107.247 66.1259 107.395 66.2485 107.573 66.2778C107.751 66.3071 107.931 66.2387 108.044 66.0986L107.655 65.7845ZM116.949 55.0675C117.122 54.8526 117.089 54.5378 116.874 54.3644C116.659 54.1909 116.344 54.2245 116.171 54.4393L116.949 55.0675ZM102.52 53.2527L107.185 65.9568L108.124 65.6121L103.459 52.908L102.52 53.2527ZM108.044 66.0986L116.949 55.0675L116.171 54.4393L107.266 65.4704L108.044 66.0986Z" fill="#8C9199" mask="url(#path-57-outside-16_1625_4205)"/>
<mask id="path-59-outside-17_1625_4205" maskUnits="userSpaceOnUse" x="106.428" y="51.726" width="7" height="3" fill="black">
<rect fill="white" x="106.428" y="51.726" width="7" height="3"/>
<path d="M107.428 52.726C108.078 53.2461 108.869 53.5582 109.699 53.6214C110.528 53.6847 111.358 53.4961 112.079 53.0804"/>
</mask>
<path d="M107.74 52.3356C107.525 52.163 107.21 52.1979 107.037 52.4135C106.865 52.6292 106.9 52.9438 107.115 53.1163L107.74 52.3356ZM109.699 53.6214L109.737 53.1228L109.737 53.1228L109.699 53.6214ZM112.329 53.5136C112.568 53.3756 112.65 53.0699 112.512 52.8307C112.374 52.5914 112.069 52.5093 111.829 52.6473L112.329 53.5136ZM107.115 53.1163C107.844 53.6992 108.73 54.0491 109.661 54.1199L109.737 53.1228C109.007 53.0673 108.312 52.7929 107.74 52.3356L107.115 53.1163ZM109.661 54.1199C110.591 54.1909 111.521 53.9795 112.329 53.5136L111.829 52.6473C111.196 53.0127 110.466 53.1785 109.737 53.1228L109.661 54.1199Z" fill="#8C9199" mask="url(#path-59-outside-17_1625_4205)"/>
<mask id="path-61-outside-18_1625_4205" maskUnits="userSpaceOnUse" x="103.677" y="52.0946" width="12" height="6" fill="black">
<rect fill="white" x="103.677" y="52.0946" width="12" height="6"/>
<path d="M104.677 53.0946L106.294 57.2348L109.626 53.6192L112.079 57.5893L114.717 54.4132"/>
</mask>
<path d="M105.143 52.9128C105.043 52.6555 104.753 52.5284 104.495 52.6288C104.238 52.7293 104.111 53.0192 104.211 53.2764L105.143 52.9128ZM106.294 57.2348L105.828 57.4166C105.891 57.5773 106.032 57.6942 106.201 57.7262C106.371 57.7581 106.544 57.7004 106.661 57.5736L106.294 57.2348ZM109.626 53.6192L110.051 53.3563C109.969 53.2233 109.829 53.1364 109.673 53.1215C109.518 53.1066 109.364 53.1654 109.258 53.2804L109.626 53.6192ZM112.079 57.5893L111.654 57.8521C111.739 57.989 111.884 58.0768 112.044 58.0881C112.205 58.0993 112.361 58.0325 112.464 57.9087L112.079 57.5893ZM115.101 54.7326C115.278 54.5202 115.248 54.205 115.036 54.0286C114.824 53.8521 114.508 53.8814 114.332 54.0938L115.101 54.7326ZM104.211 53.2764L105.828 57.4166L106.759 57.053L105.143 52.9128L104.211 53.2764ZM106.661 57.5736L109.993 53.9581L109.258 53.2804L105.926 56.896L106.661 57.5736ZM109.2 53.8821L111.654 57.8521L112.505 57.3264L110.051 53.3563L109.2 53.8821ZM112.464 57.9087L115.101 54.7326L114.332 54.0938L111.695 57.2698L112.464 57.9087Z" fill="#8C9199" mask="url(#path-61-outside-18_1625_4205)"/>
<path d="M109.875 53.6484C109.89 53.5178 109.802 53.3977 109.672 53.3734C109.543 53.3492 109.417 53.4291 109.384 53.5564C108.891 55.4593 108.109 60.1953 107.478 65.1735C106.847 70.1508 106.361 75.4051 106.466 78.3417C106.471 78.4722 106.575 78.5772 106.706 78.5825C106.836 78.5878 106.949 78.4917 106.964 78.3619L109.875 53.6484Z" stroke="#8C9199" stroke-width="0.5" stroke-linecap="round" stroke-linejoin="round"/>
<path d="M113.582 79.13C113.534 79.0313 113.426 78.9759 113.318 78.9934C113.209 79.011 113.125 79.0973 113.11 79.2062L113.358 79.2402C113.11 79.2062 113.11 79.2063 113.11 79.2065L113.11 79.2069L113.11 79.2081L113.109 79.2123L113.107 79.2273C113.106 79.2402 113.103 79.2588 113.101 79.2829C113.096 79.3311 113.088 79.4011 113.081 79.4903C113.067 79.6687 113.053 79.9244 113.051 80.2368C113.046 80.8607 113.093 81.7151 113.294 82.6339C113.698 84.4709 114.733 86.5963 117.263 87.6109C117.359 87.6494 117.469 87.6247 117.539 87.5488C117.61 87.4729 117.626 87.3615 117.58 87.2686L113.582 79.13Z" stroke="#8C9199" stroke-width="0.5" stroke-linecap="round" stroke-linejoin="round"/>
<mask id="path-65-outside-19_1625_4205" maskUnits="userSpaceOnUse" x="83.459" y="85.6415" width="34" height="42" fill="black">
<rect fill="white" x="83.459" y="85.6415" width="34" height="42"/>
<path d="M116.007 86.6415C108.093 90.5369 100.506 95.0652 93.3207 100.182C91.0051 101.852 89.3133 104.247 88.5141 106.988C86.7052 113.407 85.35 119.946 84.459 126.555"/>
</mask>
<path d="M116.228 87.0901C116.475 86.9681 116.577 86.6684 116.455 86.4207C116.333 86.1729 116.034 86.0709 115.786 86.1929L116.228 87.0901ZM93.3207 100.182L93.0306 99.7749L93.0282 99.7767L93.3207 100.182ZM88.5141 106.988L88.0341 106.848L88.0328 106.852L88.5141 106.988ZM83.9635 126.489C83.9266 126.762 84.1185 127.014 84.3922 127.051C84.6659 127.088 84.9176 126.896 84.9545 126.622L83.9635 126.489ZM115.786 86.1929C107.848 90.1002 100.237 94.6423 93.0307 99.7749L93.6108 100.589C100.774 95.488 108.338 90.9736 116.228 87.0901L115.786 86.1929ZM93.0282 99.7767C90.6223 101.512 88.8645 104 88.0341 106.848L88.9941 107.128C89.7621 104.494 91.3879 102.193 93.6132 100.588L93.0282 99.7767ZM88.0328 106.852C86.2176 113.294 84.8576 119.856 83.9635 126.489L84.9545 126.622C85.8424 120.036 87.1928 113.52 88.9954 107.124L88.0328 106.852Z" fill="#8C9199" mask="url(#path-65-outside-19_1625_4205)"/>
<mask id="path-67-outside-20_1625_4205" maskUnits="userSpaceOnUse" x="55.8096" y="84.0143" width="42" height="17" fill="black">
<rect fill="white" x="55.8096" y="84.0143" width="42" height="17"/>
<path d="M96.6093 88.6123C91.2945 87.1056 85.8917 85.931 80.4314 85.096C78.6172 84.8236 76.7665 85.2378 75.2419 86.2586C68.8012 90.5346 62.6442 95.2233 56.8096 100.296"/>
</mask>
<path d="M96.4729 89.0933C96.7386 89.1687 97.015 89.0143 97.0904 88.7487C97.1657 88.483 97.0114 88.2066 96.7457 88.1312L96.4729 89.0933ZM80.4314 85.096L80.507 84.6017L80.5056 84.6015L80.4314 85.096ZM75.2419 86.2586L75.5185 86.6752L75.5201 86.6741L75.2419 86.2586ZM56.4815 99.9182C56.2731 100.099 56.2511 100.415 56.4322 100.624C56.6134 100.832 56.9292 100.854 57.1376 100.673L56.4815 99.9182ZM96.7457 88.1312C91.411 86.6189 85.9878 85.4399 80.507 84.6017L80.3558 85.5902C85.7955 86.4221 91.1781 87.5923 96.4729 89.0933L96.7457 88.1312ZM80.5056 84.6015C78.5684 84.3106 76.592 84.7529 74.9638 85.8432L75.5201 86.6741C76.9411 85.7226 78.6661 85.3365 80.3571 85.5904L80.5056 84.6015ZM74.9654 85.8421C68.5067 90.13 62.3325 94.8318 56.4815 99.9182L57.1376 100.673C62.9559 95.6148 69.0957 90.9392 75.5185 86.6752L74.9654 85.8421Z" fill="#8C9199" mask="url(#path-67-outside-20_1625_4205)"/>
<path d="M58.5782 102.042C58.6312 101.995 58.6616 101.927 58.6619 101.856C58.6622 101.785 58.6323 101.718 58.5796 101.67C56.689 99.9594 55.0211 98.0172 53.6154 95.89C53.5743 95.8278 53.5076 95.7872 53.4335 95.7793C53.3594 95.7713 53.2856 95.7968 53.2323 95.8488C52.11 96.9431 50.25 98.4232 48.3621 99.8853C48.2952 99.937 48.2591 100.019 48.266 100.103C48.2728 100.188 48.3218 100.263 48.3962 100.303C51.1537 101.795 54.1528 102.79 57.2559 103.241C57.3404 103.253 57.4254 103.221 57.4811 103.157C57.8219 102.761 58.1883 102.389 58.5782 102.042Z" stroke="#8C9199" stroke-width="0.5" stroke-linecap="round" stroke-linejoin="round"/>
<path d="M39.8652 106.763C39.9261 106.696 40.0187 106.667 40.1071 106.688C40.5551 106.792 41.2728 106.793 42.1816 106.724C43.0821 106.656 44.1403 106.522 45.2545 106.373C45.486 106.342 45.72 106.311 45.9555 106.279C47.9757 106.006 50.1049 105.718 51.7044 105.717L51.7049 105.717C52.8171 105.719 53.9243 105.569 54.996 105.273C55.0999 105.244 55.2107 105.285 55.2706 105.375C55.3305 105.464 55.3261 105.582 55.2597 105.667C54.7924 106.265 54.2072 106.761 53.5402 107.123C53.5255 107.131 53.51 107.137 53.494 107.142C52.4593 107.458 51.3825 107.615 50.3007 107.607C48.9173 107.607 47.0654 107.857 45.2713 108.099C44.7572 108.168 44.2478 108.237 43.7556 108.299C42.6598 108.437 41.6469 108.542 40.8754 108.539C40.491 108.538 40.1504 108.51 39.8836 108.439C39.6282 108.371 39.3708 108.245 39.2657 107.991L39.8652 106.763ZM39.8652 106.763C39.6568 106.993 39.486 107.204 39.3764 107.387M39.8652 106.763L39.3764 107.387M39.3764 107.387C39.3216 107.479 39.2758 107.574 39.2514 107.67M39.3764 107.387L39.2514 107.67M39.2514 107.67C39.2269 107.766 39.2195 107.879 39.2657 107.991L39.2514 107.67Z" stroke="#8C9199" stroke-width="0.5" stroke-linecap="round" stroke-linejoin="round"/>
<path d="M51.7192 106.22C52.8765 106.221 54.0285 106.066 55.1441 105.757C55.1898 105.745 55.231 105.719 55.2628 105.684C55.6002 105.312 55.9542 104.895 56.317 104.468L56.3368 104.445C56.7075 104.008 57.088 103.561 57.4751 103.132C57.537 103.063 57.556 102.966 57.5243 102.879C57.4927 102.792 57.4156 102.729 57.324 102.717C54.2786 102.291 51.335 101.32 48.6346 99.8492C48.5476 99.8018 48.4409 99.8102 48.3625 99.8707C47.9615 100.179 47.5073 100.526 47.0212 100.897C46.0163 101.663 44.8754 102.533 43.7877 103.389C42.1775 104.656 40.6625 105.909 39.8673 106.764C39.8062 106.83 39.785 106.923 39.8115 107.008C39.8381 107.094 39.9084 107.159 39.9959 107.178C40.5287 107.297 41.3164 107.288 42.2257 107.218C43.1429 107.148 44.214 107.013 45.3276 106.865C45.5451 106.836 45.7642 106.807 45.984 106.777C48.0261 106.503 50.1382 106.22 51.7192 106.22ZM51.7192 106.22L51.7194 105.97M51.7192 106.22C51.7193 106.22 51.7193 106.22 51.7194 106.22V105.97M51.7194 105.97C50.1204 105.97 47.9905 106.256 45.9532 106.529C43.6819 106.834 41.5257 107.123 40.3482 106.984C40.3083 107.025 40.27 107.065 40.2333 107.105L40.0503 106.934L40.1047 106.69C40.1527 106.701 40.2037 106.71 40.2575 106.719C41.6806 105.284 44.7986 102.906 47.1704 101.097C47.6571 100.726 48.1123 100.379 48.515 100.069C51.154 101.506 54.0229 102.471 56.9924 102.921C57.0295 102.879 57.0666 102.838 57.1037 102.797L57.2894 102.964L57.2548 103.212C57.1996 103.204 57.1445 103.196 57.0894 103.188C56.7621 103.558 56.4405 103.936 56.1279 104.304C55.764 104.733 55.4122 105.147 55.0775 105.516C53.9838 105.819 52.8542 105.971 51.7194 105.97Z" stroke="#8C9199" stroke-width="0.5" stroke-linecap="round" stroke-linejoin="round"/>
<path d="M87.2992 126.924C87.311 126.855 87.2936 126.785 87.2511 126.729C87.2086 126.674 87.145 126.639 87.0756 126.633C84.5417 126.401 82.036 125.925 79.5942 125.21C79.5244 125.189 79.449 125.2 79.3879 125.24C79.3268 125.279 79.286 125.344 79.2762 125.416C79.0657 126.959 78.5164 129.271 77.9381 131.583C77.9176 131.665 77.9399 131.752 77.9975 131.813C78.055 131.875 78.14 131.904 78.2233 131.89C81.3119 131.356 84.2823 130.28 86.9972 128.712C87.069 128.671 87.1156 128.596 87.1216 128.514C87.1602 127.98 87.2162 127.408 87.2992 126.924Z" stroke="#8C9199" stroke-width="0.5" stroke-linecap="round" stroke-linejoin="round"/>
<path d="M75.6457 142.039C75.5658 142.077 75.5118 142.154 75.5036 142.242C75.4746 142.554 75.4694 142.827 75.498 143.041C75.5122 143.147 75.5364 143.251 75.5775 143.34C75.6186 143.43 75.6855 143.524 75.7948 143.58L75.795 143.58C76.0365 143.703 76.3149 143.64 76.5585 143.532C76.8128 143.42 77.0982 143.23 77.4017 142.992C78.0107 142.514 78.7409 141.806 79.5153 141.022C79.8517 140.682 80.1967 140.327 80.5451 139.968C81.8141 138.662 83.1274 137.311 84.2289 136.451C85.0839 135.789 85.8327 135.002 86.4501 134.114C86.4594 134.1 86.4673 134.086 86.4738 134.071C86.7795 133.374 86.9367 132.619 86.9344 131.858C86.934 131.75 86.8648 131.654 86.7625 131.621C86.6601 131.587 86.5478 131.623 86.4836 131.709C85.821 132.602 85.0398 133.402 84.1628 134.086L84.1624 134.086C82.8895 135.082 81.3786 136.646 79.9494 138.125C79.7978 138.282 79.6472 138.438 79.4979 138.592C78.7153 139.4 77.9672 140.162 77.3018 140.776C76.6303 141.395 76.0649 141.841 75.6457 142.039Z" stroke="#8C9199" stroke-width="0.5" stroke-linecap="round" stroke-linejoin="round"/>
<path d="M78.1345 131.399C78.0372 131.416 77.9589 131.488 77.9347 131.584C77.8048 132.096 77.6545 132.677 77.4936 133.298C77.1816 134.503 76.8297 135.862 76.5091 137.178C76.0243 139.169 75.6046 141.087 75.5034 142.244C75.4956 142.333 75.5362 142.42 75.6099 142.471C75.6836 142.522 75.779 142.53 75.86 142.491C76.3511 142.257 76.9648 141.764 77.6368 141.147C78.3149 140.525 79.0745 139.756 79.8597 138.951C80.0132 138.793 80.1676 138.634 80.3225 138.475C81.7608 136.997 83.248 135.468 84.4887 134.494L84.4889 134.494C85.3979 133.778 86.2086 132.947 86.9022 132.022C86.931 131.984 86.9482 131.938 86.9515 131.89C86.9852 131.412 87.0062 130.89 87.0277 130.354C87.029 130.32 87.0304 130.287 87.0317 130.254C87.0548 129.681 87.0794 129.093 87.1216 128.516C87.1284 128.424 87.0836 128.335 87.0051 128.286C86.9267 128.237 86.8275 128.235 86.7473 128.281C84.0826 129.82 81.1666 130.876 78.1345 131.399Z" stroke="#8C9199" stroke-width="0.5" stroke-linecap="round" stroke-linejoin="round"/>
<path d="M13.8734 82.2757C13.9289 82.4021 14.0763 82.4596 14.2028 82.4041C14.3292 82.3487 14.3867 82.2012 14.3312 82.0748L7.41203 66.308C7.35655 66.1816 7.20907 66.124 7.08264 66.1795C6.95621 66.235 6.8987 66.3825 6.95418 66.5089L13.8734 82.2757Z" stroke="#8C9199" stroke-width="0.5" stroke-linecap="round" stroke-linejoin="round"/>
<mask id="path-76-outside-21_1625_4205" maskUnits="userSpaceOnUse" x="3.10645" y="65.4084" width="13" height="10" fill="black">
<rect fill="white" x="3.10645" y="65.4084" width="13" height="10"/>
<path d="M4.10645 74.3202L7.18323 66.4084L15.095 69.4994"/>
</mask>
<path d="M3.64044 74.139C3.54036 74.3963 3.66786 74.6861 3.92522 74.7862C4.18259 74.8863 4.47236 74.7588 4.57245 74.5014L3.64044 74.139ZM7.18323 66.4084L7.36518 65.9427C7.24154 65.8944 7.10376 65.8973 6.98222 65.9506C6.86068 66.004 6.76534 66.1035 6.71723 66.2272L7.18323 66.4084ZM14.913 69.9651C15.1702 70.0656 15.4602 69.9386 15.5607 69.6814C15.6612 69.4242 15.5341 69.1342 15.2769 69.0337L14.913 69.9651ZM4.57245 74.5014L7.64924 66.5897L6.71723 66.2272L3.64044 74.139L4.57245 74.5014ZM7.00129 66.8742L14.913 69.9651L15.2769 69.0337L7.36518 65.9427L7.00129 66.8742Z" fill="#8C9199" mask="url(#path-76-outside-21_1625_4205)"/>
<path d="M135.634 112.536C135.64 112.955 135.773 113.362 136.011 113.706C136.25 114.049 136.585 114.315 136.975 114.468C137.364 114.621 137.791 114.655 138.199 114.566L138.2 114.566C138.608 114.477 138.982 114.269 139.273 113.966C139.563 113.665 139.757 113.284 139.831 112.872C139.905 112.46 139.855 112.035 139.687 111.652L139.687 111.652L139.687 111.651C139.46 111.139 139.041 110.738 138.521 110.534C138.001 110.329 137.421 110.337 136.907 110.558L136.907 110.558L136.906 110.559C136.522 110.725 136.196 111.002 135.97 111.354C135.743 111.706 135.626 112.118 135.634 112.536ZM135.634 112.536C135.634 112.536 135.634 112.536 135.634 112.536L135.884 112.532L135.634 112.536C135.634 112.536 135.634 112.536 135.634 112.536Z" stroke="#8C9199" stroke-width="0.5" stroke-linecap="round" stroke-linejoin="round"/>
<path d="M141.915 114.962C141.922 115.381 142.054 115.788 142.292 116.132C142.531 116.475 142.866 116.741 143.256 116.894C143.646 117.047 144.072 117.081 144.481 116.992L144.481 116.992C144.889 116.903 145.263 116.695 145.554 116.392C145.844 116.091 146.039 115.71 146.112 115.298C146.186 114.886 146.136 114.461 145.968 114.078L145.968 114.078L145.968 114.077C145.741 113.566 145.323 113.164 144.803 112.96C144.282 112.755 143.702 112.764 143.188 112.984L143.188 112.984L143.187 112.985C142.803 113.151 142.477 113.428 142.251 113.78C142.024 114.132 141.907 114.544 141.915 114.962ZM141.915 114.962C141.915 114.962 141.915 114.962 141.915 114.962L142.165 114.958L141.915 114.962C141.915 114.962 141.915 114.962 141.915 114.962Z" stroke="#8C9199" stroke-width="0.5" stroke-linecap="round" stroke-linejoin="round"/>
<path d="M138.431 119.176C138.381 119.304 138.444 119.449 138.572 119.5C138.701 119.551 138.846 119.488 138.897 119.359L143.32 108.143C143.371 108.015 143.308 107.869 143.18 107.819C143.051 107.768 142.906 107.831 142.855 107.96L138.431 119.176Z" stroke="#8C9199" stroke-width="0.5" stroke-linecap="round" stroke-linejoin="round"/>
<mask id="path-81-outside-22_1625_4205" maskUnits="userSpaceOnUse" x="133.514" y="31.4738" width="9" height="12" fill="black">
<rect fill="white" x="133.514" y="31.4738" width="9" height="12"/>
<path d="M139.274 42.5306C139.294 40.9145 139.474 39.3044 139.813 37.724C140.13 36.4326 140.591 35.181 141.188 33.9928C142.069 32.2495 141.946 31.9593 140.352 33.3689C139.737 33.9042 139.181 34.503 138.693 35.1554C137.029 37.2822 135.626 39.6003 134.514 42.0605"/>
</mask>
<path d="M138.774 42.5244C138.771 42.8005 138.992 43.0271 139.268 43.0306C139.544 43.034 139.771 42.813 139.774 42.5369L138.774 42.5244ZM139.813 37.724L139.327 37.6048C139.326 37.6096 139.325 37.6144 139.324 37.6192L139.813 37.724ZM141.188 33.9928L140.742 33.7673L140.741 33.7683L141.188 33.9928ZM140.352 33.3689L140.68 33.7459L140.683 33.7435L140.352 33.3689ZM138.693 35.1554L139.087 35.4636L139.093 35.4549L138.693 35.1554ZM134.058 41.8544C133.944 42.1061 134.056 42.4023 134.308 42.5161C134.559 42.6299 134.855 42.5181 134.969 42.2665L134.058 41.8544ZM139.774 42.5369C139.794 40.9537 139.97 39.3766 140.302 37.8288L139.324 37.6192C138.978 39.2322 138.795 40.8754 138.774 42.5244L139.774 42.5369ZM140.298 37.8433C140.607 36.5883 141.055 35.3719 141.635 34.2173L140.741 33.7683C140.127 34.9901 139.653 36.277 139.327 37.6048L140.298 37.8433ZM141.634 34.2182C141.856 33.7788 142.026 33.4095 142.125 33.1265C142.174 32.9878 142.215 32.843 142.228 32.7077C142.239 32.6067 142.254 32.3373 142.043 32.1366C141.807 31.9118 141.516 31.9748 141.404 32.0089C141.267 32.0505 141.131 32.1267 141.007 32.2069C140.752 32.372 140.422 32.639 140.02 32.9943L140.683 33.7435C140.878 33.5709 141.048 33.4268 141.194 33.3097C141.341 33.1919 141.459 33.1056 141.551 33.0462C141.596 33.0167 141.632 32.9961 141.659 32.9823C141.687 32.968 141.698 32.9647 141.695 32.9655C141.693 32.9661 141.684 32.9687 141.67 32.9708C141.655 32.9729 141.631 32.9751 141.6 32.9727C141.569 32.9703 141.528 32.9629 141.483 32.9446C141.437 32.9258 141.392 32.8977 141.353 32.8604C141.274 32.7849 141.247 32.7017 141.239 32.66C141.234 32.6386 141.234 32.623 141.233 32.6155C141.233 32.6077 141.234 32.6047 141.233 32.6075C141.233 32.614 141.23 32.633 141.221 32.6676C141.213 32.7012 141.2 32.744 141.181 32.7968C141.144 32.903 141.089 33.0372 141.015 33.2016C140.941 33.3651 140.85 33.5536 140.742 33.7673L141.634 34.2182ZM140.023 32.992C139.383 33.5503 138.802 34.175 138.292 34.8559L139.093 35.4549C139.56 34.831 140.092 34.2581 140.68 33.7458L140.023 32.992ZM138.299 34.8474C136.611 37.0056 135.187 39.358 134.058 41.8544L134.969 42.2665C136.065 39.8427 137.448 37.5588 139.087 35.4635L138.299 34.8474Z" fill="#8C9199" mask="url(#path-81-outside-22_1625_4205)"/>
<mask id="path-83-outside-23_1625_4205" maskUnits="userSpaceOnUse" x="132.915" y="31.8295" width="6" height="11" fill="black">
<rect fill="white" x="132.915" y="31.8295" width="6" height="11"/>
<path d="M137.487 36.8166C136.552 37.9225 136.183 35.0301 135.687 33.7965C135.275 32.7757 134.514 31.8682 134.567 34.9159C134.496 37.309 134.278 39.6955 133.915 42.062"/>
</mask>
<path d="M137.869 37.1396C138.047 36.9288 138.021 36.6133 137.81 36.4349C137.6 36.2565 137.284 36.2828 137.106 36.4936L137.869 37.1396ZM135.687 33.7965L136.151 33.6099L136.15 33.6097L135.687 33.7965ZM134.567 34.9159L135.067 34.9309C135.067 34.923 135.067 34.9151 135.067 34.9072L134.567 34.9159ZM133.421 41.9863C133.379 42.2592 133.566 42.5144 133.839 42.5562C134.112 42.5981 134.367 42.4107 134.409 42.1377L133.421 41.9863ZM137.106 36.4936C137.02 36.5948 136.997 36.5804 137.044 36.569C137.073 36.562 137.108 36.5615 137.142 36.5704C137.173 36.5786 137.189 36.5906 137.187 36.5897C137.178 36.5823 137.137 36.5419 137.075 36.4299C137.016 36.324 136.955 36.1839 136.892 36.0117C136.764 35.6651 136.648 35.2444 136.527 34.8103C136.411 34.3909 136.287 33.9494 136.151 33.6099L135.223 33.9831C135.334 34.2605 135.443 34.6431 135.564 35.0784C135.681 35.499 135.809 35.9636 135.953 36.3561C136.025 36.5534 136.107 36.7462 136.2 36.9147C136.29 37.077 136.41 37.2522 136.575 37.3798C136.755 37.5199 137.001 37.6083 137.279 37.5409C137.527 37.4809 137.721 37.3149 137.869 37.1396L137.106 36.4936ZM136.15 33.6097C136.04 33.3348 135.898 33.0476 135.739 32.823C135.66 32.712 135.562 32.5948 135.444 32.5034C135.332 32.4163 135.14 32.3062 134.897 32.3337C134.636 32.3631 134.465 32.5317 134.367 32.6856C134.273 32.8347 134.214 33.0169 134.173 33.2067C134.091 33.5909 134.054 34.1513 134.067 34.9246L135.067 34.9072C135.054 34.1567 135.093 33.6876 135.151 33.4167C135.165 33.3514 135.179 33.3034 135.191 33.2695C135.197 33.2528 135.202 33.2406 135.206 33.2323C135.21 33.224 135.212 33.2206 135.212 33.2209C135.212 33.2212 135.209 33.2264 135.201 33.2345C135.194 33.2427 135.182 33.2546 135.165 33.2675C135.127 33.2951 135.074 33.3201 135.009 33.3274C134.883 33.3416 134.816 33.2818 134.831 33.2936C134.841 33.3011 134.873 33.3314 134.923 33.4014C135.02 33.5387 135.128 33.7478 135.223 33.9833L136.15 33.6097ZM134.067 34.9009C133.996 37.2736 133.78 39.6399 133.421 41.9863L134.409 42.1377C134.775 39.7511 134.995 37.3443 135.067 34.9309L134.067 34.9009Z" fill="#8C9199" mask="url(#path-83-outside-23_1625_4205)"/>
<mask id="path-85-outside-24_1625_4205" maskUnits="userSpaceOnUse" x="138.374" y="30.533" width="7" height="11" fill="black">
<rect fill="white" x="138.374" y="30.533" width="7" height="11"/>
<path d="M140.905 34.5764C141.54 33.7678 142.252 33.0224 143.031 32.3503C144.556 31.1003 144.791 31.5861 144.619 31.854C143.948 32.9077 142.679 34.4913 142.082 35.4838C141.062 37.2036 140.158 38.9894 139.374 40.8292"/>
</mask>
<path d="M140.512 34.2673C140.341 34.4844 140.378 34.7987 140.596 34.9694C140.813 35.1401 141.127 35.1025 141.298 34.8854L140.512 34.2673ZM143.031 32.3503L142.714 31.9635L142.705 31.9717L143.031 32.3503ZM144.619 31.854L144.198 31.5843L144.198 31.5853L144.619 31.854ZM142.082 35.4838L141.654 35.2261L141.652 35.2287L142.082 35.4838ZM138.914 40.6333C138.806 40.8873 138.924 41.181 139.178 41.2892C139.432 41.3974 139.726 41.2792 139.834 41.0251L138.914 40.6333ZM141.298 34.8854C141.914 34.1021 142.603 33.3799 143.358 32.7289L142.705 31.9717C141.901 32.6648 141.167 33.4335 140.512 34.2673L141.298 34.8854ZM143.348 32.737C143.715 32.4367 143.988 32.2536 144.184 32.1478C144.391 32.0363 144.472 32.0329 144.464 32.033C144.455 32.033 144.401 32.0314 144.335 31.991C144.262 31.947 144.21 31.8783 144.185 31.8042C144.142 31.6785 144.189 31.5991 144.198 31.5843L145.04 32.1238C145.136 31.975 145.218 31.7344 145.131 31.4814C145.084 31.3436 144.991 31.2196 144.854 31.1365C144.723 31.057 144.582 31.0323 144.459 31.033C144.224 31.0343 143.97 31.1271 143.71 31.2677C143.438 31.414 143.11 31.6389 142.714 31.9636L143.348 32.737ZM144.198 31.5853C143.873 32.0954 143.399 32.7391 142.919 33.3971C142.447 34.0433 141.966 34.7068 141.654 35.2261L142.511 35.7415C142.795 35.2683 143.247 34.6438 143.727 33.9867C144.198 33.3413 144.695 32.6663 145.041 32.1228L144.198 31.5853ZM141.652 35.2287C140.621 36.9676 139.706 38.7732 138.914 40.6333L139.834 41.0251C140.609 39.2056 141.503 37.4396 142.512 35.7389L141.652 35.2287Z" fill="#8C9199" mask="url(#path-85-outside-24_1625_4205)"/>
<mask id="path-87-outside-25_1625_4205" maskUnits="userSpaceOnUse" x="138.838" y="31.9575" width="7" height="9" fill="black">
<rect fill="white" x="138.838" y="31.9575" width="7" height="9"/>
<path d="M143.116 33.9667C143.386 33.7682 143.429 33.7429 143.556 33.6548C145.201 32.5272 145.4 33.0459 145.197 33.3003C144.42 34.2951 143.114 35.6406 142.333 36.5189C141.343 37.4642 140.501 38.5542 139.838 39.7517"/>
</mask>
<path d="M142.82 33.5642C142.597 33.728 142.55 34.041 142.714 34.2633C142.877 34.4856 143.19 34.5331 143.413 34.3693L142.82 33.5642ZM143.556 33.6548L143.273 33.2423L143.271 33.2441L143.556 33.6548ZM145.197 33.3003L144.806 32.9892L144.804 32.9924L145.197 33.3003ZM142.333 36.5189L142.679 36.8806C142.688 36.8711 142.698 36.8613 142.707 36.8511L142.333 36.5189ZM139.401 39.5094C139.267 39.7509 139.354 40.0552 139.596 40.189C139.837 40.3229 140.141 40.2355 140.275 39.994L139.401 39.5094ZM143.413 34.3693C143.675 34.1762 143.709 34.1568 143.841 34.0656L143.271 33.2441C143.148 33.3289 143.096 33.3602 142.82 33.5642L143.413 34.3693ZM143.838 34.0673C144.234 33.7964 144.525 33.6362 144.732 33.5474C144.95 33.4538 145.032 33.4579 145.025 33.4573C145.015 33.4565 144.963 33.4498 144.901 33.4035C144.834 33.3533 144.789 33.2806 144.771 33.2055C144.741 33.0776 144.794 33.0038 144.806 32.9893L145.589 33.6114C145.702 33.4697 145.806 33.2356 145.744 32.9741C145.71 32.8322 145.629 32.6994 145.501 32.6032C145.377 32.511 145.239 32.4724 145.114 32.4613C144.877 32.4401 144.613 32.5102 144.338 32.6285C144.051 32.7516 143.701 32.9494 143.273 33.2424L143.838 34.0673ZM144.804 32.9924C144.038 33.9722 142.768 35.2775 141.96 36.1868L142.707 36.8511C143.46 36.0037 144.802 34.618 145.591 33.6083L144.804 32.9924ZM141.988 36.1572C140.961 37.1373 140.088 38.2675 139.401 39.5094L140.275 39.994C140.914 38.8408 141.725 37.791 142.679 36.8806L141.988 36.1572Z" fill="#8C9199" mask="url(#path-87-outside-25_1625_4205)"/>
<mask id="path-89-outside-26_1625_4205" maskUnits="userSpaceOnUse" x="28.189" y="29.7906" width="21" height="13" fill="black">
<rect fill="white" x="28.189" y="29.7906" width="21" height="13"/>
<path d="M47.7497 30.7906L41.3693 41.5381L29.189 38.7591"/>
</mask>
<path d="M48.1796 31.0459C48.3206 30.8084 48.2424 30.5017 48.0049 30.3607C47.7675 30.2197 47.4607 30.298 47.3198 30.5354L48.1796 31.0459ZM41.3693 41.5381L41.258 42.0256C41.4697 42.0739 41.6884 41.9801 41.7992 41.7934L41.3693 41.5381ZM29.3002 38.2716C29.031 38.2102 28.7629 38.3787 28.7015 38.6479C28.6401 38.9171 28.8085 39.1852 29.0777 39.2466L29.3002 38.2716ZM47.3198 30.5354L40.9393 41.2829L41.7992 41.7934L48.1796 31.0459L47.3198 30.5354ZM41.4805 41.0507L29.3002 38.2716L29.0777 39.2466L41.258 42.0256L41.4805 41.0507Z" fill="#8C9199" mask="url(#path-89-outside-26_1625_4205)"/>
<mask id="path-91-outside-27_1625_4205" maskUnits="userSpaceOnUse" x="27.8999" y="28.1088" width="26" height="19" fill="black">
<rect fill="white" x="27.8999" y="28.1088" width="26" height="19"/>
<path d="M52.7685 36.4054C51.3977 33.4117 48.9011 31.0798 45.8211 29.9159C42.741 28.752 39.3262 28.8501 36.318 30.1891C33.31 31.528 30.9515 33.9995 29.7549 37.067C28.5582 40.1344 28.6199 43.5501 29.9266 46.5723"/>
</mask>
<path d="M52.3139 36.6136C52.4289 36.8646 52.7256 36.975 52.9767 36.86C53.2278 36.745 53.3381 36.4483 53.2231 36.1972L52.3139 36.6136ZM45.8211 29.9159L45.9978 29.4482L45.9978 29.4481L45.8211 29.9159ZM36.318 30.1891L36.1147 29.7323L36.1147 29.7323L36.318 30.1891ZM29.4676 46.7707C29.5772 47.0242 29.8715 47.1408 30.125 47.0313C30.3785 46.9217 30.4951 46.6274 30.3855 46.3739L29.4676 46.7707ZM53.2231 36.1972C51.7974 33.0838 49.201 30.6586 45.9978 29.4482L45.6443 30.3836C48.6012 31.501 50.9979 33.7397 52.3139 36.6136L53.2231 36.1972ZM45.9978 29.4481C42.7946 28.2377 39.2432 28.3398 36.1147 29.7323L36.5214 30.6459C39.4092 29.3605 42.6875 29.2663 45.6444 30.3836L45.9978 29.4481ZM36.1147 29.7323C32.9864 31.1247 30.5336 33.6951 29.289 36.8852L30.2207 37.2487C31.3695 34.3039 33.6336 31.9312 36.5214 30.6459L36.1147 29.7323ZM29.289 36.8852C28.0445 40.0754 28.1087 43.6276 29.4676 46.7707L30.3855 46.3739C29.1311 43.4725 29.0718 40.1935 30.2207 37.2487L29.289 36.8852Z" fill="#8C9199" mask="url(#path-91-outside-27_1625_4205)"/>
<mask id="path-93-outside-28_1625_4205" maskUnits="userSpaceOnUse" x="120.536" y="16.5902" width="10" height="17" fill="black">
<rect fill="white" x="120.536" y="16.5902" width="10" height="17"/>
<path d="M128.37 32.9174L129.788 29.2593L126.144 27.884L127.562 24.2117L123.876 22.7229L125.294 19.0648L121.536 17.5902"/>
</mask>
<path d="M127.904 32.7367C127.804 32.9942 127.932 33.2838 128.19 33.3836C128.447 33.4834 128.737 33.3556 128.836 33.0981L127.904 32.7367ZM129.788 29.2593L130.254 29.44C130.303 29.3157 130.299 29.1772 130.245 29.0554C130.19 28.9336 130.09 28.8386 129.965 28.7915L129.788 29.2593ZM126.144 27.884L125.678 27.7039C125.63 27.8282 125.633 27.9665 125.688 28.0882C125.742 28.2098 125.843 28.3047 125.968 28.3518L126.144 27.884ZM127.562 24.2117L128.029 24.3918C128.127 24.137 128.003 23.8503 127.749 23.7481L127.562 24.2117ZM123.876 22.7229L123.409 22.5422C123.311 22.7971 123.435 23.0842 123.688 23.1865L123.876 22.7229ZM125.294 19.0648L125.76 19.2455C125.859 18.9888 125.732 18.6999 125.476 18.5994L125.294 19.0648ZM121.719 17.1248C121.462 17.0239 121.172 17.1505 121.071 17.4075C120.97 17.6646 121.096 17.9548 121.353 18.0556L121.719 17.1248ZM128.836 33.0981L130.254 29.44L129.322 29.0786L127.904 32.7367L128.836 33.0981ZM129.965 28.7915L126.321 27.4162L125.968 28.3518L129.612 29.7271L129.965 28.7915ZM126.611 28.0641L128.029 24.3918L127.096 24.0316L125.678 27.7039L126.611 28.0641ZM127.749 23.7481L124.063 22.2593L123.688 23.1865L127.375 24.6753L127.749 23.7481ZM124.342 22.9036L125.76 19.2455L124.827 18.8841L123.409 22.5422L124.342 22.9036ZM125.476 18.5994L121.719 17.1248L121.353 18.0556L125.111 19.5302L125.476 18.5994Z" fill="#8C9199" mask="url(#path-93-outside-28_1625_4205)"/>
<mask id="path-95-outside-29_1625_4205" maskUnits="userSpaceOnUse" x="122.082" y="10.4366" width="10" height="17" fill="black">
<rect fill="white" x="122.082" y="10.4366" width="10" height="17"/>
<path d="M129.916 26.7497L131.334 23.0916L127.704 21.7162L129.122 18.0439L125.422 16.5552L126.854 12.8971L123.082 11.4366"/>
</mask>
<path d="M129.45 26.569C129.35 26.8265 129.478 27.1161 129.735 27.2159C129.993 27.3157 130.283 27.1879 130.382 26.9304L129.45 26.569ZM131.334 23.0916L131.8 23.2723C131.848 23.148 131.845 23.0097 131.791 22.888C131.736 22.7662 131.636 22.6712 131.511 22.624L131.334 23.0916ZM127.704 21.7162L127.238 21.5361C127.19 21.6604 127.193 21.7986 127.248 21.9202C127.302 22.0417 127.403 22.1366 127.527 22.1838L127.704 21.7162ZM129.122 18.0439L129.589 18.224C129.687 17.969 129.562 17.6821 129.309 17.5801L129.122 18.0439ZM125.422 16.5552L124.956 16.3729C124.856 16.6283 124.98 16.9167 125.235 17.019L125.422 16.5552ZM126.854 12.8971L127.319 13.0793C127.368 12.9555 127.365 12.8176 127.311 12.6959C127.258 12.5742 127.158 12.4788 127.034 12.4308L126.854 12.8971ZM123.263 10.9704C123.005 10.8707 122.715 10.9986 122.616 11.2561C122.516 11.5136 122.644 11.8032 122.901 11.9029L123.263 10.9704ZM130.382 26.9304L131.8 23.2723L130.868 22.9109L129.45 26.569L130.382 26.9304ZM131.511 22.624L127.881 21.2487L127.527 22.1838L131.157 23.5591L131.511 22.624ZM128.171 21.8963L129.589 18.224L128.656 17.8639L127.238 21.5361L128.171 21.8963ZM129.309 17.5801L125.608 16.0913L125.235 17.019L128.936 18.5078L129.309 17.5801ZM125.887 16.7374L127.319 13.0793L126.388 12.7148L124.956 16.3729L125.887 16.7374ZM127.034 12.4308L123.263 10.9704L122.901 11.9029L126.673 13.3633L127.034 12.4308Z" fill="#8C9199" mask="url(#path-95-outside-29_1625_4205)"/>
<mask id="path-97-outside-30_1625_4205" maskUnits="userSpaceOnUse" x="95.2109" y="92.2085" width="39" height="29" fill="black">
<rect fill="white" x="95.2109" y="92.2085" width="39" height="29"/>
<path d="M131.715 93.2085C132.927 95.8472 133.519 98.7278 133.445 101.631C133.268 106.01 131.623 110.203 128.774 113.534C125.925 116.865 122.038 119.14 117.739 119.993C113.439 120.846 108.978 120.227 105.073 118.236C101.168 116.246 98.0467 112.999 96.2109 109.019"/>
</mask>
<path d="M132.17 92.9998C132.054 92.7489 131.758 92.6389 131.507 92.7541C131.256 92.8694 131.146 93.1662 131.261 93.4172L132.17 92.9998ZM133.445 101.631L133.945 101.651L133.945 101.643L133.445 101.631ZM128.774 113.534L129.154 113.859L129.154 113.859L128.774 113.534ZM117.739 119.993L117.836 120.483L117.836 120.483L117.739 119.993ZM105.073 118.236L105.3 117.791L105.3 117.791L105.073 118.236ZM96.665 108.809C96.5493 108.558 96.2523 108.449 96.0015 108.565C95.7508 108.68 95.6412 108.977 95.7569 109.228L96.665 108.809ZM131.261 93.4172C132.441 95.9866 133.017 98.7914 132.945 101.618L133.945 101.643C134.021 98.6642 133.413 95.7079 132.17 92.9998L131.261 93.4172ZM132.945 101.61C132.773 105.878 131.171 109.963 128.394 113.209L129.154 113.859C132.076 110.443 133.763 106.143 133.945 101.651L132.945 101.61ZM128.394 113.209C125.618 116.454 121.83 118.671 117.641 119.502L117.836 120.483C122.245 119.609 126.232 117.275 129.154 113.859L128.394 113.209ZM117.641 119.502C113.452 120.334 109.105 119.731 105.3 117.791L104.846 118.682C108.851 120.724 113.426 121.358 117.836 120.483L117.641 119.502ZM105.3 117.791C101.495 115.852 98.4538 112.688 96.665 108.809L95.7569 109.228C97.6397 113.31 100.84 116.64 104.846 118.682L105.3 117.791Z" fill="#8C9199" mask="url(#path-97-outside-30_1625_4205)"/>
<mask id="path-99-outside-31_1625_4205" maskUnits="userSpaceOnUse" x="112.979" y="100.146" width="19" height="21" fill="black">
<rect fill="white" x="112.979" y="100.146" width="19" height="21"/>
<path d="M130.781 110.873L113.979 101.146L116.219 120.246"/>
</mask>
<path d="M130.53 111.306C130.769 111.444 131.075 111.362 131.214 111.123C131.352 110.885 131.27 110.579 131.031 110.44L130.53 111.306ZM113.979 101.146L114.23 100.714C114.066 100.619 113.863 100.625 113.704 100.729C113.546 100.832 113.46 101.017 113.482 101.205L113.979 101.146ZM115.723 120.304C115.755 120.578 116.003 120.775 116.278 120.742C116.552 120.71 116.748 120.462 116.716 120.188L115.723 120.304ZM131.031 110.44L114.23 100.714L113.729 101.579L130.53 111.306L131.031 110.44ZM113.482 101.205L115.723 120.304L116.716 120.188L114.476 101.088L113.482 101.205Z" fill="#8C9199" mask="url(#path-99-outside-31_1625_4205)"/>
<path d="M114.141 101.337C114.246 101.248 114.259 101.09 114.17 100.985C114.08 100.879 113.923 100.866 113.817 100.956L99.0566 113.476C98.9513 113.565 98.9383 113.723 99.0276 113.828C99.1169 113.933 99.2747 113.946 99.38 113.857L114.141 101.337Z" stroke="#8C9199" stroke-width="0.5" stroke-linecap="round" stroke-linejoin="round"/>
<path d="M72.4914 6.49646C72.4333 6.37121 72.2847 6.31679 72.1594 6.37491C72.0342 6.43303 71.9798 6.58167 72.0379 6.70691L76.5184 16.3626C76.5765 16.4879 76.7251 16.5423 76.8504 16.4842C76.9756 16.4261 77.03 16.2774 76.9719 16.1522L72.4914 6.49646Z" stroke="#8C9199" stroke-width="0.5" stroke-linecap="round" stroke-linejoin="round"/>
<path d="M79.4448 9.40896C79.57 9.35076 79.6243 9.20208 79.5661 9.07688C79.5079 8.95167 79.3592 8.89735 79.234 8.95554L69.5641 13.4502C69.4389 13.5084 69.3845 13.6571 69.4427 13.7823C69.5009 13.9075 69.6496 13.9618 69.7748 13.9036L79.4448 9.40896Z" stroke="#8C9199" stroke-width="0.5" stroke-linecap="round" stroke-linejoin="round"/>
<path d="M33.008 112.791C33.0599 112.718 33.0691 112.623 33.0322 112.542C32.9953 112.461 32.9179 112.405 32.8291 112.396L28.0934 111.929C28.0045 111.92 27.9176 111.959 27.8656 112.032C27.8136 112.104 27.8043 112.199 27.8412 112.281L29.8121 116.62C29.849 116.702 29.9266 116.757 30.0155 116.766C30.1044 116.774 30.1912 116.735 30.2431 116.662L33.008 112.791Z" stroke="#8C9199" stroke-width="0.5" stroke-linecap="round" stroke-linejoin="round"/>
<path d="M98.7321 79.6622C98.5971 79.6332 98.4642 79.7192 98.4352 79.8542C98.4063 79.9892 98.4923 80.1221 98.6273 80.1511L99.8183 80.4063C99.9533 80.4352 100.086 80.3492 100.115 80.2142C100.144 80.0792 100.058 79.9463 99.9231 79.9174L98.7321 79.6622Z" stroke="#8C9199" stroke-width="0.5" stroke-linecap="round" stroke-linejoin="round"/>
</svg>
