<svg width="150" height="150" viewBox="0 0 150 150" fill="none" xmlns="http://www.w3.org/2000/svg">
<path d="M101.74 42.7964C101.342 40.2099 99.1532 37.5383 97.1069 36.245C96.8935 36.1033 96.6808 35.9749 96.4674 35.8473C91.8347 39.0562 83.364 44.2463 73.4157 45.8239C72.6486 45.9515 71.7106 45.7664 71.1277 46.2926C69.295 47.9268 68.9256 53.6401 64.3921 53.7677C63.766 55.3602 63.1981 56.8945 62.5869 58.202C63.3279 57.1639 68.7435 58.1482 70.1188 58.4579C71.468 58.7564 77.288 60.3422 77.0403 61.5847C78.0634 59.381 77.6656 57.1505 76.9977 54.8192C85.1125 53.2566 96.354 47.5149 101.74 42.7964Z" fill="#F9B1DC"/>
<path d="M30.7675 66.7719C29.3242 68.1592 27.5018 69.0874 25.5309 69.4391C23.5601 69.7907 21.5291 69.55 19.6951 68.7474C17.861 67.9449 16.3061 66.6164 15.2271 64.9301C14.148 63.2438 13.5932 61.2754 13.6328 59.2738C13.6725 57.2722 14.3048 55.3273 15.4499 53.6851C16.5949 52.0428 18.2012 50.777 20.0656 50.0477C21.93 49.3184 23.9689 49.1584 25.9243 49.5878C27.8797 50.0172 29.6638 51.0168 31.0511 52.4603C31.973 53.4182 32.6971 54.5484 33.1818 55.7864C33.6666 57.0243 33.9026 58.3457 33.8763 59.6749C33.8499 61.0041 33.5618 62.3151 33.0283 63.5329C32.4949 64.7506 31.7266 65.8513 30.7675 66.7719Z" fill="#F9B1DC"/>
<path d="M139.542 106.55C140.566 103.011 143.977 104.091 145.853 101.959C146.194 105.214 144.403 108.483 141.163 108.639L139.542 106.55Z" fill="#F9B1DC"/>
<path d="M62.416 113.556C61.1228 114.309 58.7072 112.746 56.064 109.761C56.1102 110.791 56.4023 111.795 56.9162 112.689C58.7072 116.043 58.6221 124.314 60.6116 123.734C61.1661 123.563 61.8198 120.749 62.4026 117.524C62.7042 115.965 63.103 114.427 63.5966 112.918C63.3496 113.045 62.6638 113.391 62.416 113.556Z" fill="#BFC1FF"/>
<path d="M70.6875 42.2852C70.9485 43.0439 71.3327 43.7544 71.8248 44.3881C73.0748 44.2038 74.4643 43.8247 74.7232 43.2515C74.7685 43.155 74.8067 43.0552 74.8374 42.9531C74.5105 43.9903 72.6203 43.2941 70.6875 42.2852Z" fill="#BFC1FF"/>
<path d="M72.364 34.6533C69.8484 32.0101 61.6486 34.0846 56.0921 38.1069C50.5071 42.1426 52.1131 45.9231 59.3465 44.1896C58.9204 44.3172 54.2869 45.7097 51.2601 49.1895C46.8117 54.3058 50.6773 56.2669 55.663 55.2438C61.6173 54.0215 66.7336 49.1328 68.4671 45.75C69.2634 43.757 69.8034 41.6709 70.0745 39.542C68 37.851 69.2649 36.3159 70.4014 37.4816C71.0126 38.1069 71.6947 37.8084 70.9417 35.7652C71.7006 35.2943 72.6118 35.1436 72.364 34.6533Z" fill="#BFC1FF"/>
<path d="M91.3369 117.28C91.0742 113.905 91.1122 110.514 91.4503 107.146C88.7541 107.907 85.8937 107.863 83.2221 107.019C83.2789 109.378 82.5401 110.572 83.1512 112.036C83.5184 112.857 84.0393 113.599 84.6855 114.224C87.3579 116.924 89.6459 124.882 91.3936 123.746C91.8771 123.432 91.6921 120.548 91.3369 117.28Z" fill="#BFC1FF"/>
<path d="M64.6046 57.7474C64.4768 58.407 64.2767 59.0505 64.0076 59.666C61.6913 58.5146 62.2316 57.7616 64.6046 57.7474Z" fill="#BFC1FF"/>
<path d="M77.0542 61.5676C76.9967 61.8377 76.6132 62.0086 75.9736 62.0899C76.2154 61.6496 76.4288 61.2511 76.6132 60.8534C76.94 61.1295 77.096 61.3713 77.0542 61.5676Z" fill="#BFC1FF"/>
<path d="M83.4207 83.3707L81.9282 87.6482C81.8715 85.9856 81.8147 84.3513 81.7856 82.7454L83.4207 83.3707Z" fill="#BFC1FF"/>
<path d="M32.3824 113.57C28.5661 107.037 23.5021 101.473 21.1096 102.395C17.8716 103.643 22.2648 113.648 24.7841 118.018C29.0191 125.352 34.1354 130.326 36.2696 129.178C39.3718 127.449 34.304 116.859 32.3824 113.57Z" fill="#BFC1FF"/>
<path d="M58.6218 98.1793C54.4152 90.9026 49.3131 85.9856 47.2094 87.2094C45.0923 88.431 46.7975 95.31 50.9899 102.586C55.1824 109.862 60.2987 114.765 62.4016 113.556C64.5194 112.334 62.8143 105.455 58.6218 98.1793Z" fill="#BFC1FF"/>
<mask id="path-13-outside-1_1625_4208" maskUnits="userSpaceOnUse" x="55.0635" y="108.759" width="10" height="16" fill="black">
<rect fill="white" x="55.0635" y="108.759" width="10" height="16"/>
<path d="M63.5961 112.916C63.104 114.425 62.7053 115.963 62.4021 117.521C61.826 120.748 61.1671 123.566 60.6111 123.732C58.6254 124.329 58.7 116.045 56.9157 112.687C56.4008 111.794 56.1085 110.789 56.0635 109.759"/>
</mask>
<path d="M64.0715 113.071C64.1571 112.809 64.0137 112.526 63.7512 112.441C63.4886 112.355 63.2064 112.499 63.1208 112.761L64.0715 113.071ZM62.4021 117.521L61.9113 117.426L61.9099 117.433L62.4021 117.521ZM60.6111 123.732L60.4683 123.252L60.4672 123.253L60.6111 123.732ZM56.9157 112.687L57.3572 112.452C57.3545 112.447 57.3518 112.442 57.3489 112.437L56.9157 112.687ZM56.563 109.737C56.551 109.461 56.3175 109.247 56.0417 109.259C55.7658 109.271 55.5519 109.505 55.564 109.781L56.563 109.737ZM63.1208 112.761C62.6222 114.29 62.2184 115.847 61.9113 117.426L62.8929 117.617C63.1921 116.079 63.5857 114.561 64.0715 113.071L63.1208 112.761ZM61.9099 117.433C61.6226 119.043 61.3169 120.537 61.0165 121.643C60.8657 122.199 60.7209 122.64 60.587 122.943C60.5196 123.096 60.4627 123.196 60.4201 123.255C60.3674 123.327 60.378 123.279 60.4683 123.252L60.7539 124.211C60.9833 124.142 61.136 123.97 61.2281 123.844C61.3301 123.704 61.4205 123.532 61.502 123.347C61.666 122.975 61.8262 122.478 61.9816 121.905C62.2937 120.755 62.6055 119.227 62.8943 117.609L61.9099 117.433ZM60.4672 123.253C60.4108 123.27 60.3738 123.272 60.2937 123.198C60.1847 123.098 60.0516 122.893 59.9107 122.543C59.632 121.851 59.4069 120.815 59.1793 119.6C58.9558 118.407 58.732 117.055 58.4547 115.805C58.1782 114.558 57.8368 113.355 57.3572 112.452L56.4742 112.922C56.8867 113.698 57.2051 114.79 57.4785 116.022C57.7511 117.251 57.9673 118.562 58.1964 119.785C58.4214 120.986 58.6615 122.119 58.9831 122.917C59.1423 123.312 59.3431 123.683 59.6171 123.934C59.92 124.213 60.315 124.343 60.7551 124.21L60.4672 123.253ZM57.3489 112.437C56.8741 111.614 56.6045 110.687 56.563 109.737L55.564 109.781C55.6125 110.891 55.9275 111.974 56.4825 112.937L57.3489 112.437Z" fill="#8C9199" mask="url(#path-13-outside-1_1625_4208)"/>
<path d="M108.503 57.6145L108.503 57.6145C109.054 57.4461 109.635 57.4008 110.206 57.4819C110.776 57.5631 111.321 57.7686 111.803 58.084C112.286 58.3995 112.692 58.817 112.995 59.3071C113.549 60.2018 113.661 61.1913 113.572 61.9922C113.527 62.3931 113.431 62.7536 113.31 63.0388C113.194 63.3102 113.037 63.5566 112.843 63.6744C112.842 63.6746 112.842 63.6747 112.842 63.6749L93.0044 75.8378C92.9807 75.8523 92.9548 75.8628 92.9277 75.8688C92.1431 76.042 91.3235 75.9654 90.5845 75.6493L90.5844 75.6493C89.8462 75.3333 89.2245 74.7934 88.8086 74.1059C88.5115 73.6175 88.3243 73.07 88.2612 72.5015C88.1975 71.933 88.2589 71.3575 88.4414 70.8152L88.6784 70.895M108.503 57.6145L92.7753 62.1199C92.2511 62.1956 91.7485 62.3755 91.2954 62.649L91.2954 62.649L91.2938 62.65C90.7819 62.9642 90.3499 63.3916 90.0296 63.8992C89.7091 64.407 89.5098 64.9815 89.4469 65.5785C89.3839 66.1754 89.4588 66.7789 89.6661 67.3424C89.8306 67.7913 90.076 68.2052 90.3885 68.5642C89.9885 68.7666 89.6255 69.0365 89.3157 69.3628C88.922 69.7774 88.6231 70.2732 88.4413 70.8155L88.6784 70.895M108.503 57.6145C108.071 57.7467 107.665 57.9523 107.304 58.2214M108.503 57.6145L107.304 58.2214M88.6784 70.895C88.8485 70.3874 89.1283 69.9232 89.497 69.5349C89.8037 69.2119 90.1661 68.9479 90.5663 68.7552L88.5097 72.4737C88.45 71.9415 88.5075 71.4027 88.6784 70.895ZM107.304 58.2214C107.128 57.7803 106.872 57.374 106.549 57.0233L106.549 57.0231C106.142 56.581 105.638 56.2388 105.077 56.0229V56.0229C104.516 55.807 103.913 55.7233 103.314 55.7782C102.715 55.8331 102.138 56.0253 101.626 56.3396L101.625 56.3399C101.182 56.6125 100.798 56.9699 100.493 57.3916C100.258 57.7163 100.075 58.0743 99.9485 58.4529C99.3826 58.1024 98.7352 57.9007 98.0665 57.8699C97.2781 57.8336 96.497 58.0363 95.8258 58.4514L95.8257 58.4514C95.1546 58.8667 94.6245 59.475 94.3048 60.1967C94.0349 60.8062 93.9264 61.4724 93.9855 62.1321C93.5857 62.0661 93.1775 62.0618 92.7754 62.1199L107.304 58.2214Z" stroke="#8C9199" stroke-width="0.5" stroke-linecap="round" stroke-linejoin="round"/>
<mask id="path-16-outside-2_1625_4208" maskUnits="userSpaceOnUse" x="93.8618" y="64.0801" width="6" height="7" fill="black">
<rect fill="white" x="93.8618" y="64.0801" width="6" height="7"/>
<path d="M97.7326 65.0801C98.2013 65.5218 98.5035 66.1115 98.5886 66.75C98.6737 67.3885 98.5364 68.0367 98.199 68.5857C97.8617 69.1346 97.3461 69.5506 96.7386 69.7638C96.1304 69.977 95.4678 69.9743 94.8618 69.7561"/>
</mask>
<path d="M98.0756 64.7162C97.8746 64.5268 97.5582 64.5362 97.3688 64.7371C97.1794 64.9381 97.1887 65.2545 97.3897 65.4439L98.0756 64.7162ZM96.7386 69.7638L96.904 70.2357L96.9042 70.2356L96.7386 69.7638ZM95.0312 69.2856C94.7714 69.1921 94.4849 69.3269 94.3914 69.5867C94.2978 69.8465 94.4326 70.1329 94.6924 70.2265L95.0312 69.2856ZM97.3897 65.4439C97.7747 65.8068 98.0231 66.2913 98.093 66.816L99.0842 66.6839C98.984 65.9316 98.6279 65.2367 98.0756 64.7162L97.3897 65.4439ZM98.093 66.816C98.1629 67.3406 98.05 67.8731 97.773 68.3239L98.625 68.8474C99.0227 68.2003 99.1845 67.4363 99.0842 66.6839L98.093 66.816ZM97.773 68.3239C97.4958 68.7751 97.072 69.1169 96.573 69.2921L96.9042 70.2356C97.6201 69.9844 98.2277 69.4941 98.625 68.8474L97.773 68.3239ZM96.5733 69.292C96.0734 69.4671 95.5289 69.4649 95.0312 69.2856L94.6924 70.2265C95.4066 70.4837 96.1875 70.4868 96.904 70.2357L96.5733 69.292Z" fill="#8C9199" mask="url(#path-16-outside-2_1625_4208)"/>
<mask id="path-18-outside-3_1625_4208" maskUnits="userSpaceOnUse" x="100.086" y="61.5795" width="7" height="4" fill="black">
<rect fill="white" x="100.086" y="61.5795" width="7" height="4"/>
<path d="M106.572 62.5795C106.493 63.1544 106.239 63.6909 105.843 64.1156C105.448 64.5403 104.931 64.8325 104.363 64.9523C103.796 65.0721 103.205 65.0134 102.671 64.7846C102.138 64.5556 101.689 64.1676 101.384 63.6735C101.255 63.4601 101.155 63.2308 101.086 62.9914"/>
</mask>
<path d="M107.067 62.6476C107.105 62.3741 106.913 62.1218 106.64 62.0841C106.366 62.0465 106.114 62.2377 106.076 62.5113L107.067 62.6476ZM105.843 64.1156L106.209 64.4564L106.209 64.4564L105.843 64.1156ZM104.363 64.9523L104.467 65.4416L104.467 65.4415L104.363 64.9523ZM102.671 64.7846L102.474 65.244L102.474 65.2441L102.671 64.7846ZM101.384 63.6735L100.957 63.9323L100.959 63.9358L101.384 63.6735ZM101.566 62.8522C101.489 62.587 101.212 62.4343 100.947 62.5112C100.681 62.5881 100.529 62.8654 100.606 63.1306L101.566 62.8522ZM106.076 62.5113C106.011 62.9847 105.802 63.4259 105.477 63.7749L106.209 64.4564C106.675 63.9558 106.974 63.324 107.067 62.6476L106.076 62.5113ZM105.477 63.7749C105.152 64.1242 104.727 64.3646 104.26 64.4631L104.467 65.4415C105.135 65.3005 105.744 64.9564 106.209 64.4564L105.477 63.7749ZM104.26 64.4631C103.793 64.5616 103.307 64.5134 102.868 64.3251L102.474 65.2441C103.102 65.5135 103.798 65.5826 104.467 65.4416L104.26 64.4631ZM102.868 64.3252C102.43 64.1369 102.061 63.8177 101.81 63.4112L100.959 63.9358C101.317 64.5174 101.846 64.9743 102.474 65.244L102.868 64.3252ZM101.812 63.4146C101.706 63.2392 101.624 63.0502 101.566 62.8522L100.606 63.1306C100.687 63.4114 100.805 63.681 100.957 63.9323L101.812 63.4146Z" fill="#8C9199" mask="url(#path-18-outside-3_1625_4208)"/>
<path d="M107.383 58.7922C107.461 58.6883 107.446 58.5422 107.35 58.4557C107.253 58.3693 107.106 58.3713 107.012 58.4603C106.609 58.8404 106.274 59.2868 106.022 59.78C105.963 59.8956 106.003 60.0371 106.113 60.1058C106.223 60.1745 106.367 60.1475 106.445 60.0436L107.383 58.7922Z" stroke="#8C9199" stroke-width="0.5" stroke-linecap="round" stroke-linejoin="round"/>
<path d="M92.1528 68.6534C92.2823 68.6294 92.3709 68.5092 92.3556 68.3785C92.3402 68.2477 92.2262 68.1513 92.0947 68.1579C91.6315 68.1812 91.1737 68.2661 90.7332 68.4103C90.6082 68.4513 90.5363 68.5822 90.5688 68.7097C90.6013 68.8372 90.7272 68.9177 90.8566 68.8937L92.1528 68.6534Z" stroke="#8C9199" stroke-width="0.5" stroke-linecap="round" stroke-linejoin="round"/>
<path d="M100.341 58.8637C100.345 58.7337 100.249 58.6222 100.12 58.6073C99.9909 58.5923 99.8718 58.6788 99.8462 58.8062C99.7474 59.2968 99.7316 59.8 99.798 60.2955C99.8152 60.4244 99.9284 60.5185 100.058 60.512C100.188 60.5054 100.291 60.4004 100.296 60.2704L100.341 58.8637Z" stroke="#8C9199" stroke-width="0.5" stroke-linecap="round" stroke-linejoin="round"/>
<path d="M95.581 63.3364C95.6983 63.3913 95.838 63.3476 95.9031 63.2357C95.9682 63.1238 95.9371 62.9808 95.8315 62.906C95.381 62.587 94.8769 62.3512 94.3429 62.2094C94.2178 62.1762 94.0881 62.244 94.0438 62.3657C93.9996 62.4873 94.0556 62.6226 94.1729 62.6775L95.581 63.3364Z" stroke="#8C9199" stroke-width="0.5" stroke-linecap="round" stroke-linejoin="round"/>
<path d="M96.6589 84.174L96.6585 84.174C96.0926 84.0903 95.5521 83.8838 95.0745 83.5681C95.0745 83.5681 95.0745 83.5681 95.0744 83.5681L95.2123 83.3595C94.7661 83.0648 94.3892 82.6752 94.1086 82.2193L96.6589 84.174ZM96.6589 84.174C97.2247 84.2569 97.8017 84.2155 98.35 84.0521L98.3501 84.0521C98.7798 83.9239 99.184 83.723 99.5447 83.4586C99.8185 84.149 100.285 84.7496 100.891 85.1869C101.598 85.6964 102.454 85.9547 103.324 85.922L103.325 85.922C104.195 85.8885 105.03 85.5656 105.696 85.0035C106.267 84.5218 106.686 83.8876 106.906 83.179C107.467 83.5301 108.11 83.7347 108.774 83.7703C109.563 83.8134 110.346 83.6164 111.021 83.206L111.021 83.2059C111.695 82.7954 112.23 82.1913 112.555 81.4715L112.555 81.4713C112.83 80.8618 112.944 80.194 112.888 79.5319C113.621 79.6467 114.374 79.5515 115.059 79.2538L115.059 79.2537C115.854 78.907 116.513 78.3061 116.93 77.5455L116.93 77.5454C117.346 76.7842 117.499 75.9065 117.362 75.0488L117.362 75.0488C117.246 74.3151 116.923 73.6322 116.436 73.078C116.839 72.8795 117.206 72.6128 117.52 72.2888L117.52 72.2886C117.92 71.8754 118.226 71.3789 118.413 70.8345L118.413 70.8341C118.6 70.2899 118.665 69.7111 118.603 69.1385C118.541 68.566 118.354 68.0144 118.055 67.5226C117.491 66.5938 116.631 66.0515 115.868 65.7783C115.486 65.6416 115.122 65.5699 114.822 65.5521C114.673 65.5433 114.534 65.5476 114.414 65.5664C114.304 65.5836 114.187 65.6164 114.093 65.6824L94.2493 77.8558L96.6589 84.174Z" stroke="#8C9199" stroke-width="0.5" stroke-linecap="round" stroke-linejoin="round"/>
<mask id="path-25-outside-4_1625_4208" maskUnits="userSpaceOnUse" x="99.4893" y="75.5111" width="7" height="4" fill="black">
<rect fill="white" x="99.4893" y="75.5111" width="7" height="4"/>
<path d="M105.975 78.5245C105.829 78.0298 105.55 77.585 105.167 77.2387C104.785 76.8925 104.316 76.6581 103.809 76.5611C103.303 76.4641 102.78 76.5089 102.297 76.6895C101.814 76.8708 101.39 77.1805 101.072 77.5865C100.761 77.9872 100.56 78.4626 100.489 78.9648"/>
</mask>
<path d="M105.495 78.6663C105.574 78.9311 105.852 79.0823 106.117 79.004C106.382 78.9257 106.533 78.6476 106.454 78.3828L105.495 78.6663ZM102.297 76.6895L102.122 76.2212L102.121 76.2214L102.297 76.6895ZM101.072 77.5865L100.678 77.2782L100.677 77.2798L101.072 77.5865ZM99.9942 78.8949C99.9556 79.1684 100.146 79.4213 100.419 79.4599C100.693 79.4985 100.946 79.3081 100.984 79.0347L99.9942 78.8949ZM106.454 78.3828C106.282 77.8002 105.953 77.2763 105.503 76.8682L104.832 77.6092C105.146 77.8937 105.375 78.2593 105.495 78.6663L106.454 78.3828ZM105.503 76.8682C105.053 76.4604 104.5 76.1843 103.903 76.0701L103.715 77.0522C104.132 77.132 104.518 77.3245 104.832 77.6092L105.503 76.8682ZM103.903 76.0701C103.306 75.9557 102.69 76.0085 102.122 76.2212L102.472 77.1578C102.869 77.0092 103.299 76.9725 103.715 77.0522L103.903 76.0701ZM102.121 76.2214C101.553 76.4348 101.053 76.7995 100.678 77.2782L101.466 77.8947C101.727 77.5616 102.075 77.3069 102.472 77.1576L102.121 76.2214ZM100.677 77.2798C100.312 77.7496 100.077 78.3066 99.9942 78.8949L100.984 79.0347C101.043 78.6186 101.209 78.2249 101.467 77.8931L100.677 77.2798Z" fill="#8C9199" mask="url(#path-25-outside-4_1625_4208)"/>
<mask id="path-27-outside-5_1625_4208" maskUnits="userSpaceOnUse" x="107.48" y="70.6371" width="6" height="7" fill="black">
<rect fill="white" x="107.48" y="70.6371" width="6" height="7"/>
<path d="M112.214 71.7911C111.667 71.6023 111.075 71.5867 110.518 71.7465C109.962 71.9064 109.468 72.2339 109.105 72.6845C108.741 73.1351 108.525 73.6867 108.487 74.2644C108.448 74.842 108.588 75.4179 108.888 75.9127C109.017 76.1276 109.175 76.3239 109.358 76.4955"/>
</mask>
<path d="M112.051 72.2638C112.312 72.3539 112.597 72.2154 112.687 71.9543C112.777 71.6933 112.639 71.4087 112.378 71.3185L112.051 72.2638ZM110.518 71.7465L110.38 71.2659L110.38 71.266L110.518 71.7465ZM108.487 74.2644L108.986 74.2979L108.986 74.2972L108.487 74.2644ZM108.888 75.9127L109.318 75.6563L109.316 75.6534L108.888 75.9127ZM109.015 76.86C109.217 77.049 109.533 77.039 109.722 76.8377C109.911 76.6364 109.901 76.32 109.7 76.131L109.015 76.86ZM112.378 71.3185C111.733 71.0961 111.036 71.0777 110.38 71.2659L110.656 72.2271C111.114 72.0956 111.601 72.1085 112.051 72.2638L112.378 71.3185ZM110.38 71.266C109.725 71.4543 109.144 71.8398 108.716 72.3706L109.494 72.9984C109.793 72.628 110.199 72.3586 110.656 72.227L110.38 71.266ZM108.716 72.3706C108.288 72.9009 108.033 73.5505 107.988 74.2315L108.986 74.2972C109.017 73.8229 109.195 73.3693 109.494 72.9984L108.716 72.3706ZM107.988 74.2309C107.942 74.9111 108.107 75.5892 108.461 76.1719L109.316 75.6534C109.069 75.2467 108.954 74.773 108.986 74.2979L107.988 74.2309ZM108.459 76.1691C108.611 76.4242 108.799 76.6568 109.015 76.86L109.7 76.131C109.551 75.991 109.422 75.831 109.318 75.6563L108.459 76.1691Z" fill="#8C9199" mask="url(#path-27-outside-5_1625_4208)"/>
<path d="M116.095 73.2308C116.216 73.1859 116.284 73.0554 116.249 72.9304C116.215 72.8053 116.091 72.7272 115.963 72.7504L114.4 73.0347C114.273 73.0579 114.184 73.1747 114.196 73.3038C114.208 73.4329 114.317 73.5314 114.446 73.5307C115.009 73.5274 115.567 73.426 116.095 73.2308Z" stroke="#8C9199" stroke-width="0.5" stroke-linecap="round" stroke-linejoin="round"/>
<path d="M100.67 82.1371C100.734 82.0226 100.699 81.8779 100.589 81.8058C100.479 81.7337 100.332 81.7588 100.253 81.8632L99.4662 82.8953C99.3866 82.9998 99.4014 83.148 99.5001 83.2347C99.5987 83.3213 99.7476 83.3169 99.841 83.2245C100.166 82.9023 100.445 82.5367 100.67 82.1371Z" stroke="#8C9199" stroke-width="0.5" stroke-linecap="round" stroke-linejoin="round"/>
<path d="M112.529 79.4611C112.654 79.4971 112.786 79.431 112.832 79.3092C112.878 79.1874 112.822 79.0507 112.705 78.995L111.424 78.3875C111.306 78.3317 111.165 78.3756 111.1 78.4883C111.035 78.6009 111.067 78.7448 111.174 78.8189C111.587 79.1053 112.045 79.3223 112.529 79.4611Z" stroke="#8C9199" stroke-width="0.5" stroke-linecap="round" stroke-linejoin="round"/>
<path d="M107.045 81.2181C107.028 81.089 106.914 80.9947 106.784 81.0017C106.654 81.0087 106.551 81.1144 106.547 81.2447L106.507 82.7671C106.503 82.8974 106.601 83.0085 106.73 83.0223C106.86 83.0361 106.979 82.9479 107.003 82.8197C107.101 82.2916 107.116 81.7515 107.045 81.2181Z" stroke="#8C9199" stroke-width="0.5" stroke-linecap="round" stroke-linejoin="round"/>
<path d="M94.5071 78.2841C94.6253 78.2127 94.6632 78.059 94.5919 77.9408C94.5205 77.8226 94.3668 77.7847 94.2486 77.8561L92.1315 79.1344C92.0133 79.2058 91.9754 79.3594 92.0467 79.4776C92.1181 79.5958 92.2718 79.6338 92.39 79.5624L94.5071 78.2841Z" stroke="#8C9199" stroke-width="0.5" stroke-linecap="round" stroke-linejoin="round"/>
<path d="M93.0017 75.8392C93.1198 75.7677 93.1576 75.614 93.0861 75.4959C93.0146 75.3778 92.8609 75.34 92.7427 75.4115L90.6532 76.6764C90.5351 76.7479 90.4973 76.9016 90.5688 77.0197C90.6404 77.1378 90.7941 77.1756 90.9122 77.1041L93.0017 75.8392Z" stroke="#8C9199" stroke-width="0.5" stroke-linecap="round" stroke-linejoin="round"/>
<path d="M81.9879 85.8866C82.1059 85.8149 82.1435 85.6612 82.0718 85.5431C82.0002 85.4251 81.8464 85.3875 81.7284 85.4591L59.1603 99.1588C59.0423 99.2305 59.0047 99.3842 59.0763 99.5022C59.148 99.6203 59.3017 99.6579 59.4198 99.5862L81.9879 85.8866Z" stroke="#8C9199" stroke-width="0.5" stroke-linecap="round" stroke-linejoin="round"/>
<path d="M81.533 82.8023C81.651 82.7306 81.6885 82.5768 81.6168 82.4588C81.5451 82.3408 81.3913 82.3033 81.2733 82.375L57.7247 96.6866C57.6067 96.7583 57.5691 96.9121 57.6409 97.03C57.7126 97.148 57.8663 97.1856 57.9843 97.1138L81.533 82.8023Z" stroke="#8C9199" stroke-width="0.5" stroke-linecap="round" stroke-linejoin="round"/>
<mask id="path-37-outside-6_1625_4208" maskUnits="userSpaceOnUse" x="91.957" y="41.9403" width="40" height="59" fill="black">
<rect fill="white" x="91.957" y="41.9403" width="40" height="59"/>
<path d="M101.441 43.0523C106.495 42.5848 111.577 43.5875 116.075 45.9398C120.573 48.2921 124.296 51.8938 126.795 56.3117C134.344 69.2852 130.39 86.0408 117.969 93.7309C110.2 98.5412 108.044 95.998 92.957 100.298"/>
</mask>
<path d="M101.395 42.5544C101.12 42.5799 100.918 42.8234 100.943 43.0984C100.969 43.3733 101.212 43.5756 101.487 43.5502L101.395 42.5544ZM116.075 45.9398L115.843 46.3829L115.843 46.3829L116.075 45.9398ZM126.795 56.3117L126.36 56.5579L126.363 56.5631L126.795 56.3117ZM117.969 93.7309L117.706 93.3058L117.706 93.3058L117.969 93.7309ZM92.82 99.817C92.5544 99.8927 92.4005 100.169 92.4762 100.435C92.5519 100.7 92.8285 100.854 93.0941 100.779L92.82 99.817ZM101.487 43.5502C106.446 43.0915 111.431 44.0752 115.843 46.3829L116.307 45.4968C111.724 43.0998 106.545 42.078 101.395 42.5544L101.487 43.5502ZM115.843 46.3829C120.256 48.6905 123.908 52.2239 126.36 56.5579L127.23 56.0655C124.684 51.5637 120.89 47.8937 116.307 45.4968L115.843 46.3829ZM126.363 56.5631C133.782 69.3132 129.886 85.7646 117.706 93.3058L118.232 94.156C130.893 86.317 134.906 69.2573 127.227 56.0602L126.363 56.5631ZM117.706 93.3058C113.896 95.6645 111.486 96.2148 108.134 96.7112C104.744 97.2132 100.4 97.6565 92.82 99.817L93.0941 100.779C100.601 98.6393 104.878 98.2043 108.28 97.7004C111.721 97.1909 114.273 96.6076 118.232 94.156L117.706 93.3058Z" fill="#8C9199" mask="url(#path-37-outside-6_1625_4208)"/>
<path d="M62.4489 113.224C62.3278 113.287 62.2798 113.435 62.3409 113.557C62.4021 113.679 62.5498 113.73 62.6728 113.671L82.094 104.331C82.2157 104.272 82.2689 104.127 82.2141 104.004C82.1592 103.88 82.0162 103.823 81.8911 103.874C75.527 106.473 69.35 109.625 62.4489 113.224Z" stroke="#8C9199" stroke-width="0.5" stroke-linecap="round" stroke-linejoin="round"/>
<path d="M63.5107 75.2943C63.6172 75.209 63.6356 75.054 63.552 74.9462C63.4684 74.8383 63.3138 74.8173 63.2045 74.8991L47.0474 86.9925L47.046 86.9936C46.9357 87.0761 46.913 87.2323 46.9951 87.3428C47.0773 87.4534 47.2334 87.4767 47.3442 87.3949C48.8082 86.3148 50.2224 85.2788 51.5926 84.2752C55.951 81.0827 59.8634 78.2169 63.5107 75.2943Z" stroke="#8C9199" stroke-width="0.5" stroke-linecap="round" stroke-linejoin="round"/>
<path d="M84.1409 52.9256C84.2151 52.8139 84.1881 52.6636 84.0796 52.5848C83.9711 52.506 83.8198 52.5269 83.7366 52.632L73.7458 65.2661C73.6626 65.3712 73.6772 65.5233 73.7789 65.6107C73.8806 65.6981 74.0331 65.6897 74.1246 65.5918C77.8048 61.6512 81.155 57.4149 84.1409 52.9256Z" stroke="#8C9199" stroke-width="0.5" stroke-linecap="round" stroke-linejoin="round"/>
<path d="M77.267 61.69C78.2915 59.4842 77.9375 57.2612 77.312 55.012C81.3427 54.1979 86.0908 52.3935 90.5025 50.2154C95.0116 47.9893 99.1891 45.363 101.904 42.9844C101.969 42.9279 102 42.8424 101.987 42.7577C101.758 41.2961 101.012 39.8606 100.027 38.6244C99.066 37.4173 97.866 36.3864 96.6653 35.6945C96.6634 35.692 96.6614 35.6895 96.6593 35.687C96.5763 35.5877 96.4313 35.5681 96.325 35.6418C91.7025 38.8466 83.2627 43.969 73.3756 45.5771L73.4157 45.8239L73.3759 45.5771C73.1917 45.6068 72.9973 45.6197 72.7921 45.6296C72.7495 45.6316 72.7062 45.6336 72.6624 45.6355C72.4999 45.6428 72.3311 45.6503 72.1678 45.6655C71.7533 45.7039 71.3134 45.7951 70.9623 46.1051L70.9622 46.1052C70.4593 46.5496 70.0732 47.2563 69.7105 48.0215C69.5874 48.2814 69.4667 48.5485 69.3443 48.8193C69.0975 49.3654 68.8439 49.9266 68.5497 50.4737C67.6766 52.097 66.5155 53.4579 64.3851 53.5178C64.2849 53.5207 64.1961 53.583 64.1594 53.6763C64.0274 54.0124 63.8982 54.3451 63.7708 54.6731C63.2922 55.9055 62.8397 57.0709 62.3604 58.0961C62.3057 58.2131 62.3492 58.3526 62.4608 58.4178C62.5723 58.483 62.7152 58.4524 62.7903 58.3473C62.8366 58.2825 62.9413 58.2073 63.141 58.1428C63.3357 58.0799 63.5907 58.0369 63.8962 58.0134C64.5064 57.9664 65.2772 57.9997 66.0799 58.0759C67.6832 58.2282 69.3718 58.5472 70.0643 58.7019L70.0644 58.7019C70.7731 58.8601 72.5542 59.3286 74.1234 59.9104C74.9098 60.202 75.6295 60.5171 76.1331 60.83C76.386 60.9871 76.5699 61.1349 76.6812 61.2677C76.7934 61.4017 76.805 61.4862 76.7951 61.5358C76.7703 61.6599 76.8423 61.783 76.9626 61.8223C77.0829 61.8617 77.2137 61.8048 77.267 61.69Z" stroke="#8C9199" stroke-width="0.5" stroke-linecap="round" stroke-linejoin="round"/>
<path d="M63.3964 60.4817C63.2716 60.4837 63.1674 60.5774 63.1522 60.7013C63.1371 60.8252 63.2156 60.9413 63.3362 60.9733L74.912 64.0478C75.0327 64.0799 75.1584 64.018 75.2067 63.903C75.255 63.7879 75.2111 63.6548 75.1037 63.5912C71.5637 61.4926 67.5112 60.4163 63.3964 60.4817Z" stroke="#8C9199" stroke-width="0.5" stroke-linecap="round" stroke-linejoin="round"/>
<mask id="path-44-outside-7_1625_4208" maskUnits="userSpaceOnUse" x="69.6875" y="41.2837" width="6" height="4" fill="black">
<rect fill="white" x="69.6875" y="41.2837" width="6" height="4"/>
<path d="M74.7717 43.1046C74.3083 43.915 72.5173 43.2404 70.6875 42.2837C70.9482 43.0425 71.3326 43.7531 71.8248 44.3866"/>
</mask>
<path d="M75.2058 43.3528C75.3429 43.113 75.2596 42.8076 75.0199 42.6705C74.7802 42.5334 74.4748 42.6167 74.3377 42.8564L75.2058 43.3528ZM70.6875 42.2837L70.9192 41.8406C70.7377 41.7457 70.5168 41.7711 70.3616 41.9045C70.2063 42.038 70.1481 42.2526 70.2146 42.4462L70.6875 42.2837ZM71.4299 44.6934C71.5994 44.9114 71.9135 44.9509 72.1315 44.7815C72.3496 44.612 72.389 44.2979 72.2196 44.0799L71.4299 44.6934ZM74.3377 42.8564C74.3197 42.8878 74.2823 42.9362 74.1277 42.9573C73.9581 42.9805 73.7056 42.9589 73.3653 42.8723C72.6896 42.7003 71.8267 42.3151 70.9192 41.8406L70.4558 42.7268C71.3781 43.209 72.3256 43.6395 73.1187 43.8413C73.5129 43.9417 73.9094 43.9965 74.2631 43.9481C74.6318 43.8977 74.9921 43.7265 75.2058 43.3528L74.3377 42.8564ZM70.2146 42.4462C70.4933 43.257 70.904 44.0164 71.4299 44.6934L72.2196 44.0799C71.7612 43.4898 71.4032 42.8279 71.1604 42.1212L70.2146 42.4462Z" fill="#8C9199" mask="url(#path-44-outside-7_1625_4208)"/>
<mask id="path-46-outside-8_1625_4208" maskUnits="userSpaceOnUse" x="70.8247" y="33.6533" width="5" height="13" fill="black">
<rect fill="white" x="70.8247" y="33.6533" width="5" height="13"/>
<path d="M72.8889 45.8769C71.8986 45.6336 72.1635 45.1516 71.8247 44.3882C74.4963 43.9934 74.959 43.5016 74.8493 42.1628C74.6888 40.2181 73.5471 35.9809 72.3642 34.6533"/>
</mask>
<path d="M72.7696 46.3625C73.0377 46.4284 73.3085 46.2644 73.3744 45.9962C73.4403 45.728 73.2763 45.4572 73.0081 45.3914L72.7696 46.3625ZM71.8247 44.3882L71.7516 43.8935C71.597 43.9164 71.462 44.0101 71.3867 44.147C71.3113 44.2839 71.3043 44.4482 71.3677 44.591L71.8247 44.3882ZM74.8493 42.1628L75.3476 42.122L75.3476 42.1217L74.8493 42.1628ZM72.7376 34.3207C72.5539 34.1145 72.2378 34.0963 72.0316 34.28C71.8255 34.4637 71.8072 34.7798 71.9909 34.9859L72.7376 34.3207ZM73.0081 45.3914C72.7984 45.3398 72.7013 45.2863 72.6557 45.2515C72.6204 45.2246 72.599 45.1969 72.5758 45.1397C72.5435 45.06 72.5248 44.9713 72.4803 44.7897C72.4397 44.6239 72.3844 44.4168 72.2817 44.1853L71.3677 44.591C71.4344 44.7412 71.473 44.8807 71.509 45.0275C71.5411 45.1587 71.5815 45.3488 71.6491 45.5155C71.7258 45.7047 71.8451 45.8908 72.0492 46.0465C72.243 46.1944 72.4842 46.2924 72.7696 46.3625L73.0081 45.3914ZM71.8978 44.8828C72.5752 44.7827 73.131 44.6739 73.5806 44.5419C74.0277 44.4107 74.3995 44.2481 74.6873 44.0239C74.9876 43.7899 75.1796 43.5016 75.2789 43.159C75.3734 42.8327 75.3769 42.4803 75.3476 42.122L74.3509 42.2037C74.3764 42.5147 74.3632 42.7259 74.3184 42.8807C74.2783 43.0191 74.2083 43.1294 74.0727 43.2351C73.9245 43.3505 73.6866 43.4686 73.2989 43.5824C72.9138 43.6955 72.41 43.7962 71.7516 43.8935L71.8978 44.8828ZM75.3476 42.1217C75.2634 41.1011 74.9276 39.518 74.4679 38.0291C74.2371 37.2816 73.9716 36.5465 73.6851 35.9084C73.4023 35.2788 73.0843 34.7099 72.7376 34.3207L71.9909 34.9859C72.2356 35.2606 72.5038 35.7191 72.7728 36.3181C73.0381 36.9087 73.2898 37.6034 73.5124 38.3241C73.9594 39.7719 74.2747 41.2799 74.351 42.2039L75.3476 42.1217Z" fill="#8C9199" mask="url(#path-46-outside-8_1625_4208)"/>
<path d="M77.0445 55.0648C77.178 55.0394 77.2668 54.912 77.2444 54.7779C77.222 54.6439 77.0965 54.5523 76.962 54.5718L74.6023 54.9136C74.468 54.933 74.3737 55.0562 74.39 55.191C74.4063 55.3258 74.5272 55.4229 74.6623 55.4098C75.4098 55.3374 76.2128 55.2229 77.0445 55.0648Z" stroke="#8C9199" stroke-width="0.5" stroke-linecap="round" stroke-linejoin="round"/>
<path d="M55.9489 37.9035C54.5365 38.925 53.5606 39.9425 53.0152 40.8779C52.4714 41.8108 52.3366 42.7009 52.6921 43.4223C53.0464 44.1414 53.8448 44.6045 54.9649 44.7844C55.5313 44.8754 56.191 44.8963 56.9398 44.8388C55.2114 45.6222 52.8683 46.9614 51.0748 49.0247C49.949 50.3186 49.3254 51.4388 49.1273 52.3858C48.9261 53.3475 49.1658 54.1305 49.7509 54.6976C50.3224 55.2517 51.1956 55.573 52.2179 55.6963C53.2448 55.8202 54.4495 55.7478 55.7166 55.4879L55.7166 55.4879C58.7423 54.8667 61.5455 53.3168 63.8077 51.5012C66.0684 49.6869 67.8066 47.5929 68.693 45.8632C68.6965 45.8563 68.6998 45.8492 68.7027 45.8419C69.5064 43.8284 70.0513 41.7211 70.3244 39.5704C70.3353 39.4847 70.3012 39.3995 70.2342 39.345C69.2237 38.5232 69.1361 37.8297 69.2641 37.5403C69.325 37.4025 69.4392 37.3257 69.5875 37.3217C69.7442 37.3174 69.9731 37.3957 70.2244 37.6532L70.2246 37.6534C70.3959 37.8284 70.596 37.9656 70.8027 38.0081C70.9096 38.03 71.0253 38.0277 71.1364 37.983C71.2492 37.9376 71.3378 37.8561 71.4003 37.7527C71.5189 37.5566 71.5466 37.2801 71.5119 36.9554C71.4809 36.6654 71.3969 36.3072 71.2488 35.8745C71.3675 35.8103 71.4905 35.7509 71.6139 35.6932C71.6512 35.6757 71.689 35.6583 71.7268 35.6408C71.8707 35.5742 72.0153 35.5073 72.139 35.4401C72.2904 35.3578 72.4521 35.2541 72.5528 35.1126C72.6067 35.0368 72.6465 34.9457 72.6545 34.8403C72.6625 34.7352 72.6374 34.6346 72.5916 34.5418C72.5804 34.5192 72.5659 34.4984 72.5485 34.4801C71.8614 33.7582 70.8087 33.3799 69.5688 33.2628C68.3252 33.1454 66.8631 33.2873 65.3172 33.6367C62.2254 34.3355 58.7552 35.8738 55.9489 37.9035ZM55.9489 37.9035L56.0954 38.1061M55.9489 37.9035L56.0954 38.1061M56.0954 38.1061C50.9577 41.8217 51.9061 45.3175 57.726 44.5013L72.3674 34.6525C69.8518 32.0093 61.6535 34.0861 56.0954 38.1061Z" stroke="#8C9199" stroke-width="0.5" stroke-linecap="round" stroke-linejoin="round"/>
<mask id="path-50-outside-9_1625_4208" maskUnits="userSpaceOnUse" x="63.3921" y="44.7814" width="6" height="10" fill="black">
<rect fill="white" x="63.3921" y="44.7814" width="6" height="10"/>
<path d="M64.3921 53.7677C65.1427 51.7369 66.11 49.7929 67.2771 47.9694C67.7385 47.279 68.1333 46.5464 68.4562 45.7814"/>
</mask>
<path d="M63.9231 53.5944C63.8274 53.8534 63.9597 54.141 64.2188 54.2367C64.4778 54.3325 64.7654 54.2001 64.8611 53.9411L63.9231 53.5944ZM67.2771 47.9694L66.8613 47.6915L66.856 47.6998L67.2771 47.9694ZM68.9168 45.9758C69.0242 45.7214 68.905 45.4281 68.6506 45.3207C68.3962 45.2133 68.1029 45.3326 67.9955 45.587L68.9168 45.9758ZM64.8611 53.9411C65.5992 51.9439 66.5504 50.0322 67.6982 48.2389L66.856 47.6998C65.6695 49.5536 64.6861 51.5299 63.9231 53.5944L64.8611 53.9411ZM67.6928 48.2472C68.1718 47.5305 68.5817 46.7699 68.9168 45.9758L67.9955 45.587C67.685 46.3228 67.3052 47.0275 66.8614 47.6915L67.6928 48.2472Z" fill="#8C9199" mask="url(#path-50-outside-9_1625_4208)"/>
<path d="M73.7482 65.2724C73.68 65.3887 73.7164 65.5381 73.8304 65.6101C73.9444 65.6821 74.0949 65.6507 74.1707 65.5392C75.1625 64.0788 76.0556 62.5539 76.8449 60.9748C76.9052 60.8542 76.8589 60.7075 76.7404 60.6433C76.6219 60.579 76.4737 60.6203 76.4056 60.7367L73.7482 65.2724Z" stroke="#8C9199" stroke-width="0.5" stroke-linecap="round" stroke-linejoin="round"/>
<mask id="path-53-outside-10_1625_4208" maskUnits="userSpaceOnUse" x="103.838" y="34.0225" width="6" height="4" fill="black">
<rect fill="white" x="103.838" y="34.0225" width="6" height="4"/>
<path d="M104.838 35.1653C106.984 34.6533 108.75 35.6205 108.604 36.4443C108.571 36.6095 108.503 36.7657 108.405 36.9028C108.307 37.04 108.182 37.1548 108.036 37.2398"/>
</mask>
<path d="M104.722 34.6789C104.454 34.743 104.288 35.0127 104.352 35.2813C104.416 35.5499 104.686 35.7157 104.954 35.6516L104.722 34.6789ZM108.604 36.4443L109.094 36.5418L109.096 36.5317L108.604 36.4443ZM108.405 36.9028L108.812 37.1945L108.813 37.1931L108.405 36.9028ZM107.784 36.8082C107.545 36.9475 107.465 37.2538 107.604 37.4922C107.744 37.7306 108.05 37.8108 108.288 37.6715L107.784 36.8082ZM104.954 35.6516C105.931 35.4185 106.803 35.5276 107.392 35.7671C107.689 35.8877 107.893 36.0321 108.007 36.1593C108.123 36.2879 108.112 36.3532 108.112 36.3569L109.096 36.5317C109.169 36.1235 108.992 35.759 108.751 35.4906C108.508 35.2207 108.163 35.0008 107.769 34.8406C106.976 34.5186 105.891 34.4001 104.722 34.6789L104.954 35.6516ZM108.114 36.3468C108.095 36.4418 108.055 36.5325 107.998 36.6125L108.813 37.1931C108.951 36.999 109.048 36.7771 109.094 36.5418L108.114 36.3468ZM107.999 36.6112C107.941 36.6922 107.868 36.759 107.784 36.8082L108.288 37.6715C108.495 37.5505 108.673 37.3877 108.812 37.1945L107.999 36.6112Z" fill="#8C9199" mask="url(#path-53-outside-10_1625_4208)"/>
<path d="M104.581 33.6147C104.479 33.6391 104.403 33.7245 104.391 33.8287C104.379 33.9328 104.433 34.0335 104.526 34.0809L108.065 35.8719C108.17 35.9251 108.298 35.8977 108.372 35.8061C108.662 35.4484 108.732 35.0578 108.581 34.6938C108.44 34.3504 108.12 34.0768 107.731 33.8799C106.949 33.4838 105.761 33.3326 104.581 33.6147Z" stroke="#8C9199" stroke-width="0.5" stroke-linecap="round" stroke-linejoin="round"/>
<path d="M101.31 41.6085C101.227 41.7029 101.227 41.8439 101.31 41.9382C101.393 42.0325 101.533 42.0508 101.637 41.9811L106.611 38.6558C106.716 38.5861 106.752 38.4499 106.697 38.3374C106.641 38.2249 106.511 38.1709 106.392 38.2113C104.429 38.8774 102.676 40.0491 101.31 41.6085Z" stroke="#8C9199" stroke-width="0.5" stroke-linecap="round" stroke-linejoin="round"/>
<mask id="path-57-outside-11_1625_4208" maskUnits="userSpaceOnUse" x="103.369" y="35.5833" width="6" height="5" fill="black">
<rect fill="white" x="103.369" y="35.5833" width="6" height="5"/>
<path d="M104.752 36.6994C106.842 36.2733 108.218 37.0972 108.135 37.9076C108.033 38.9024 106.045 40.409 104.369 39.4427"/>
</mask>
<path d="M104.652 36.2095C104.382 36.2647 104.207 36.5288 104.262 36.7993C104.317 37.0699 104.582 37.2445 104.852 37.1894L104.652 36.2095ZM108.135 37.9076L108.632 37.9587L108.632 37.9585L108.135 37.9076ZM104.618 39.0094C104.379 38.8716 104.073 38.9537 103.935 39.193C103.798 39.4322 103.88 39.738 104.119 39.8759L104.618 39.0094ZM104.852 37.1894C105.819 36.9922 106.579 37.0934 107.062 37.2997C107.581 37.5212 107.645 37.7797 107.638 37.8568L108.632 37.9585C108.707 37.2251 108.126 36.6665 107.455 36.38C106.748 36.0782 105.775 35.9806 104.652 36.2095L104.852 37.1894ZM107.638 37.8565C107.626 37.9666 107.55 38.1546 107.359 38.3786C107.175 38.5943 106.915 38.8066 106.609 38.9685C105.993 39.2939 105.266 39.3827 104.618 39.0094L104.119 39.8759C105.148 40.469 106.253 40.2876 107.076 39.8526C107.489 39.6343 107.85 39.3438 108.12 39.0275C108.382 38.7194 108.593 38.346 108.632 37.9587L107.638 37.8565Z" fill="#8C9199" mask="url(#path-57-outside-11_1625_4208)"/>
<mask id="path-59-outside-12_1625_4208" maskUnits="userSpaceOnUse" x="96.1353" y="30.4645" width="8" height="7" fill="black">
<rect fill="white" x="96.1353" y="30.4645" width="8" height="7"/>
<path d="M102.99 33.1041C103.019 33.0757 103.886 31.8683 103.502 31.4839C103.175 31.1571 98.4569 35.0368 97.1353 36.2734"/>
</mask>
<path d="M102.637 32.7505C102.442 32.9458 102.442 33.2623 102.637 33.4576C102.832 33.6529 103.149 33.6529 103.344 33.4576L102.637 32.7505ZM103.502 31.4839L103.856 31.1307L103.856 31.1304L103.502 31.4839ZM96.7936 35.9083C96.592 36.0969 96.5815 36.4133 96.7701 36.615C96.9588 36.8166 97.2752 36.8272 97.4769 36.6385L96.7936 35.9083ZM103.344 33.4576C103.361 33.4405 103.373 33.4254 103.376 33.4224C103.381 33.4164 103.385 33.411 103.388 33.4071C103.395 33.3993 103.401 33.3913 103.406 33.384C103.417 33.3691 103.43 33.3508 103.445 33.3298C103.475 33.2878 103.513 33.231 103.557 33.1636C103.643 33.0299 103.753 32.8465 103.85 32.6467C103.945 32.4527 104.042 32.2145 104.081 31.977C104.118 31.7555 104.125 31.3997 103.856 31.1307L103.148 31.8372C103.072 31.7604 103.114 31.6997 103.095 31.8135C103.079 31.9114 103.029 32.0488 102.951 32.2083C102.876 32.3619 102.788 32.5098 102.716 32.6224C102.68 32.6781 102.649 32.7234 102.627 32.7543C102.616 32.7698 102.608 32.7807 102.604 32.7868C102.586 32.8104 102.607 32.7808 102.637 32.7505L103.344 33.4576ZM103.856 31.1304C103.639 30.9138 103.36 30.9665 103.292 30.9803C103.18 31.0031 103.069 31.0485 102.975 31.0934C102.779 31.1861 102.539 31.3315 102.279 31.5036C101.754 31.8517 101.08 32.3542 100.384 32.8985C98.9915 33.9873 97.4691 35.2763 96.7936 35.9083L97.4769 36.6385C98.123 36.0339 99.6207 34.7648 101 33.6863C101.689 33.147 102.339 32.6635 102.831 32.3374C103.08 32.1725 103.273 32.0587 103.403 31.997C103.472 31.9646 103.497 31.959 103.491 31.9602C103.488 31.9609 103.453 31.9683 103.4 31.9619C103.344 31.9552 103.24 31.9293 103.149 31.8375L103.856 31.1304Z" fill="#8C9199" mask="url(#path-59-outside-12_1625_4208)"/>
<mask id="path-61-outside-13_1625_4208" maskUnits="userSpaceOnUse" x="96.1211" y="29.0853" width="15" height="8" fill="black">
<rect fill="white" x="96.1211" y="29.0853" width="15" height="8"/>
<path d="M105.704 33.7152C109.457 31.9108 110.464 29.734 109.755 30.1332C107.389 31.3175 104.96 32.3708 102.478 33.2884C100.558 34.0192 98.7531 35.0246 97.1211 36.2734"/>
</mask>
<path d="M105.488 33.2646C105.239 33.3843 105.134 33.683 105.254 33.9319C105.374 34.1808 105.672 34.2855 105.921 34.1658L105.488 33.2646ZM109.755 30.1332L109.979 30.5803C109.986 30.5767 109.993 30.5729 110 30.5689L109.755 30.1332ZM102.478 33.2884L102.305 32.8194L102.301 32.821L102.478 33.2884ZM96.8173 35.8763C96.5979 36.0441 96.5562 36.3579 96.724 36.5772C96.8918 36.7965 97.2056 36.8382 97.4249 36.6704L96.8173 35.8763ZM105.921 34.1658C107.85 33.2383 109.096 32.2044 109.778 31.4278C110.107 31.0535 110.342 30.6968 110.427 30.4157C110.45 30.3422 110.472 30.2412 110.465 30.1295C110.458 30.0168 110.414 29.8309 110.239 29.6991C110.069 29.5705 109.883 29.577 109.779 29.5958C109.672 29.6151 109.579 29.6583 109.51 29.6975L110 30.5689C110.019 30.5582 110.002 30.5716 109.957 30.5798C109.914 30.5876 109.775 30.6016 109.638 30.4979C109.496 30.3909 109.471 30.2471 109.467 30.1923C109.464 30.1384 109.475 30.1112 109.47 30.1257C109.449 30.1968 109.331 30.4223 109.027 30.7679C108.445 31.4309 107.311 32.3876 105.488 33.2646L105.921 34.1658ZM109.531 29.6861C107.182 30.8622 104.769 31.9081 102.305 32.8194L102.652 33.7573C105.15 32.8334 107.597 31.7728 109.979 30.5803L109.531 29.6861ZM102.301 32.821C100.335 33.569 98.4877 34.5981 96.8173 35.8763L97.4249 36.6704C99.0186 35.451 100.781 34.4693 102.656 33.7557L102.301 32.821Z" fill="#8C9199" mask="url(#path-61-outside-13_1625_4208)"/>
<mask id="path-63-outside-14_1625_4208" maskUnits="userSpaceOnUse" x="81.9077" y="106.007" width="11" height="19" fill="black">
<rect fill="white" x="81.9077" y="106.007" width="11" height="19"/>
<path d="M91.4506 107.146C91.1155 110.514 91.0774 113.905 91.3371 117.28C91.6991 120.547 91.8767 123.432 91.3938 123.746C89.6446 124.881 87.3529 116.93 84.6858 114.224C84.0381 113.6 83.5172 112.857 83.1515 112.036C82.5388 110.569 83.2814 109.374 83.2217 107.007"/>
</mask>
<path d="M91.9481 107.196C91.9754 106.921 91.7748 106.676 91.5001 106.649C91.2253 106.621 90.9803 106.822 90.953 107.097L91.9481 107.196ZM91.3371 117.28L90.8386 117.318C90.839 117.324 90.8395 117.329 90.8402 117.335L91.3371 117.28ZM91.3938 123.746L91.666 124.165L91.6661 124.165L91.3938 123.746ZM84.6858 114.224L85.042 113.873L85.0327 113.864L84.6858 114.224ZM83.1515 112.036L82.69 112.229L82.6948 112.239L83.1515 112.036ZM83.7215 106.994C83.7145 106.718 83.4851 106.5 83.209 106.507C82.933 106.514 82.7149 106.743 82.7218 107.019L83.7215 106.994ZM90.953 107.097C90.615 110.494 90.5767 113.914 90.8386 117.318L91.8357 117.241C91.5782 113.896 91.6159 110.534 91.9481 107.196L90.953 107.097ZM90.8402 117.335C91.0207 118.965 91.1537 120.486 91.1824 121.633C91.1969 122.209 91.1844 122.672 91.1434 123.001C91.1228 123.167 91.0972 123.278 91.0733 123.346C91.0437 123.43 91.0407 123.379 91.1216 123.326L91.6661 124.165C91.8677 124.034 91.9648 123.825 92.0164 123.678C92.0739 123.515 92.1108 123.325 92.1357 123.125C92.1859 122.722 92.197 122.201 92.1821 121.608C92.1523 120.417 92.0154 118.862 91.8341 117.225L90.8402 117.335ZM91.1217 123.326C91.0696 123.36 91.0311 123.372 90.9309 123.324C90.7962 123.258 90.609 123.1 90.3732 122.805C89.9068 122.222 89.3941 121.294 88.8285 120.196C88.2732 119.118 87.6724 117.887 87.0499 116.769C86.4291 115.655 85.7588 114.6 85.0419 113.873L84.3297 114.575C84.9463 115.2 85.5627 116.154 86.1763 117.256C86.7884 118.355 87.3699 119.548 87.9395 120.654C88.4989 121.74 89.0539 122.757 89.5924 123.43C89.8591 123.763 90.1588 124.061 90.4946 124.223C90.865 124.403 91.2808 124.415 91.666 124.165L91.1217 123.326ZM85.0327 113.864C84.4314 113.284 83.9477 112.594 83.6082 111.832L82.6948 112.239C83.0866 113.119 83.6448 113.915 84.3389 114.584L85.0327 113.864ZM83.6129 111.843C83.3593 111.236 83.3762 110.681 83.475 109.924C83.5731 109.172 83.7526 108.228 83.7215 106.994L82.7218 107.019C82.7504 108.153 82.5885 108.989 82.4834 109.794C82.3791 110.593 82.331 111.369 82.6902 112.228L83.6129 111.843Z" fill="#8C9199" mask="url(#path-63-outside-14_1625_4208)"/>
<path d="M62.5263 113.769C63.1648 113.403 63.4698 112.637 63.545 111.68C63.6208 110.712 63.4693 109.481 63.1237 108.077C62.4314 105.267 60.9458 101.705 58.8387 98.0544C56.7297 94.4003 54.3919 91.3309 52.3072 89.3244C51.266 88.3224 50.2774 87.5751 49.4026 87.1564C48.5363 86.7418 47.7216 86.6228 47.0845 86.9916C46.4477 87.3602 46.1436 88.126 46.0691 89.0844C45.9939 90.0521 46.1459 91.2827 46.4918 92.6859C47.1843 95.4957 48.6692 99.0551 50.7736 102.707C52.8783 106.359 55.2196 109.425 57.307 111.43C58.3495 112.431 59.3393 113.178 60.2137 113.597C61.0791 114.012 61.8924 114.134 62.5263 113.769Z" stroke="#8C9199" stroke-width="0.5" stroke-linecap="round" stroke-linejoin="round"/>
<path d="M37.2987 125.132L37.2987 125.132C36.7603 121.782 34.8807 117.346 32.4957 113.26C30.1113 109.175 27.1984 105.398 24.5674 103.382C23.8854 102.854 23.2408 102.472 22.6558 102.257C22.0728 102.043 21.526 101.987 21.0584 102.146C20.581 102.308 20.2302 102.679 20.0184 103.225C19.8093 103.763 19.7311 104.479 19.7871 105.368L19.7871 105.368C19.999 108.729 21.9659 113.607 24.5476 118.094C27.1295 122.581 30.3634 126.741 33.156 128.643L33.156 128.643C33.9332 129.172 34.622 129.484 35.2155 129.577C35.818 129.671 36.3323 129.538 36.7162 129.171C37.0901 128.813 37.3064 128.264 37.3959 127.591C37.4858 126.914 37.4518 126.085 37.2987 125.132Z" stroke="#8C9199" stroke-width="0.5" stroke-linecap="round" stroke-linejoin="round"/>
<mask id="path-67-outside-15_1625_4208" maskUnits="userSpaceOnUse" x="19.998" y="92.3456" width="33" height="38" fill="black">
<rect fill="white" x="19.998" y="92.3456" width="33" height="38"/>
<path d="M36.4111 129.103L40.6304 126.662C41.0369 126.343 41.3132 125.888 41.4075 125.38C41.5017 124.873 41.4074 124.348 41.1423 123.905C42.8214 126.434 46.1161 123.823 44.7945 121.631C46.0206 123.72 49.8757 122.371 48.2906 119.201C48.6499 119.667 49.1619 119.99 49.7364 120.115C50.3108 120.24 50.911 120.158 51.4309 119.883C53.1472 118.788 52.5107 116.657 51.4458 113.189C49.4539 107.234 46.2941 101.734 42.1513 97.0144C41.1556 95.8286 40.0157 94.7711 38.7581 93.8682C36.7693 92.6346 34.532 93.5592 35.3014 96.9151C34.6686 95.8607 33.9261 95.1711 32.6716 95.5077C32.3549 95.5957 32.0629 95.7562 31.8185 95.9756C31.5741 96.1957 31.3838 96.4689 31.2628 96.7748C31.1417 97.08 31.093 97.4099 31.1206 97.7375C31.1482 98.0651 31.2512 98.3815 31.4217 98.6628C31.4217 98.6628 29.9493 96.8017 28.2807 98.1233C27.8663 98.4464 27.5871 98.9121 27.4977 99.4292C27.4083 99.9471 27.515 100.479 27.7971 100.922C27.6628 100.685 27.4828 100.478 27.2676 100.311C27.0524 100.143 26.8063 100.021 26.5433 99.9494C26.2804 99.8777 26.006 99.8598 25.7358 99.8949C25.4657 99.93 25.2053 100.019 24.9696 100.155L20.998 102.44"/>
</mask>
<path d="M36.1607 128.67C35.9217 128.809 35.84 129.114 35.9783 129.353C36.1166 129.593 36.4225 129.674 36.6615 129.536L36.1607 128.67ZM40.6304 126.662L40.8808 127.095C40.901 127.083 40.9204 127.07 40.9389 127.056L40.6304 126.662ZM41.1423 123.905L41.5589 123.628C41.4087 123.402 41.1054 123.337 40.8757 123.482C40.646 123.627 40.5738 123.928 40.7132 124.161L41.1423 123.905ZM44.7945 121.631L45.2226 121.373C45.0807 121.137 44.7752 121.061 44.5388 121.201C44.3025 121.342 44.2241 121.647 44.3632 121.884L44.7945 121.631ZM48.2906 119.201L48.6865 118.896C48.5293 118.692 48.243 118.641 48.0249 118.778C47.8068 118.914 47.7283 119.194 47.8434 119.425L48.2906 119.201ZM49.7364 120.115L49.843 119.626L49.8424 119.626L49.7364 120.115ZM51.4309 119.883L51.6644 120.325C51.6765 120.319 51.6883 120.312 51.6999 120.305L51.4309 119.883ZM51.4458 113.189L51.9239 113.043L51.92 113.031L51.4458 113.189ZM42.1513 97.0144L41.7682 97.336L41.7755 97.3442L42.1513 97.0144ZM38.7581 93.8682L39.0497 93.462C39.0405 93.4555 39.0312 93.4492 39.0216 93.4433L38.7581 93.8682ZM35.3014 96.9151L34.8727 97.1724C34.9992 97.3832 35.2602 97.4708 35.4882 97.3789C35.7163 97.287 35.8437 97.043 35.7888 96.8034L35.3014 96.9151ZM32.6716 95.5077L32.5421 95.0247L32.5377 95.026L32.6716 95.5077ZM31.8185 95.9756L31.4845 95.6035L31.4839 95.604L31.8185 95.9756ZM31.2628 96.7748L31.7275 96.9592L31.7277 96.9588L31.2628 96.7748ZM31.1206 97.7375L31.6189 97.6956L31.6189 97.6955L31.1206 97.7375ZM31.4217 98.6628L31.0295 98.9731C31.1934 99.1801 31.49 99.2241 31.7069 99.0735C31.9238 98.9229 31.9861 98.6296 31.8493 98.4038L31.4217 98.6628ZM28.2807 98.1233L28.5882 98.5176L28.5911 98.5152L28.2807 98.1233ZM27.4977 99.4292L27.005 99.3441L27.005 99.3442L27.4977 99.4292ZM27.7971 100.922L27.3753 101.191C27.5209 101.42 27.8222 101.491 28.0546 101.351C28.287 101.211 28.3658 100.912 28.2323 100.676L27.7971 100.922ZM26.5433 99.9494L26.4118 100.432L26.4119 100.432L26.5433 99.9494ZM24.9696 100.155L25.2189 100.589L25.2202 100.588L24.9696 100.155ZM20.7487 102.007C20.5093 102.145 20.4269 102.45 20.5647 102.69C20.7024 102.929 21.008 103.011 21.2474 102.874L20.7487 102.007ZM36.6615 129.536L40.8808 127.095L40.38 126.229L36.1607 128.67L36.6615 129.536ZM40.9389 127.056C41.4411 126.662 41.7826 126.099 41.8991 125.471L40.9159 125.289C40.8439 125.676 40.6327 126.025 40.3219 126.269L40.9389 127.056ZM41.8991 125.471C42.0156 124.844 41.8989 124.196 41.5714 123.648L40.7132 124.161C40.9158 124.5 40.9879 124.901 40.9159 125.289L41.8991 125.471ZM40.7258 124.181C41.2135 124.916 41.852 125.32 42.5349 125.419C43.2062 125.517 43.8608 125.313 44.3813 124.947C45.4061 124.226 46.053 122.75 45.2226 121.373L44.3663 121.889C44.8576 122.704 44.5179 123.629 43.806 124.129C43.4582 124.374 43.0568 124.485 42.6795 124.43C42.3136 124.376 41.9107 124.158 41.5589 123.628L40.7258 124.181ZM44.3632 121.884C45.1354 123.2 46.7168 123.403 47.8253 122.833C48.3924 122.542 48.865 122.038 49.0654 121.352C49.2661 120.665 49.177 119.856 48.7379 118.978L47.8434 119.425C48.1968 120.131 48.2202 120.679 48.1055 121.072C47.9906 121.465 47.7199 121.763 47.3681 121.944C46.6388 122.319 45.6796 122.151 45.2257 121.378L44.3632 121.884ZM47.8948 119.507C48.3262 120.066 48.9409 120.454 49.6304 120.603L49.8424 119.626C49.3829 119.526 48.9736 119.268 48.6865 118.896L47.8948 119.507ZM49.6297 120.603C50.3197 120.754 51.0403 120.655 51.6644 120.325L51.1973 119.441C50.7816 119.661 50.302 119.726 49.843 119.626L49.6297 120.603ZM51.6999 120.305C52.2092 119.98 52.5634 119.562 52.7706 119.05C52.9738 118.548 53.0221 117.987 52.9801 117.391C52.8974 116.217 52.4495 114.755 51.9238 113.043L50.9678 113.336C51.507 115.092 51.9098 116.428 51.9825 117.461C52.0182 117.967 51.9704 118.362 51.8435 118.675C51.7206 118.979 51.5107 119.239 51.1619 119.462L51.6999 120.305ZM51.92 113.031C49.907 107.012 46.7137 101.455 42.527 96.6845L41.7755 97.3442C45.8744 102.014 49.0008 107.455 50.9716 113.348L51.92 113.031ZM42.5342 96.6928C41.5118 95.4752 40.3413 94.3894 39.0497 93.462L38.4664 94.2743C39.6901 95.1529 40.7994 96.1819 41.7683 97.3359L42.5342 96.6928ZM39.0216 93.4433C37.9294 92.7658 36.6446 92.6082 35.7094 93.2605C34.7547 93.9264 34.4087 95.2589 34.8141 97.0269L35.7888 96.8034C35.4247 95.2155 35.8127 94.4077 36.2815 94.0807C36.7697 93.7402 37.5979 93.737 38.4945 94.2931L39.0216 93.4433ZM35.7301 96.6578C35.4004 96.1084 35.0067 95.5904 34.4837 95.2652C33.9351 94.924 33.2916 94.8237 32.5421 95.0248L32.8012 95.9906C33.3061 95.8551 33.6611 95.9313 33.9556 96.1144C34.2756 96.3134 34.5696 96.6674 34.8727 97.1724L35.7301 96.6578ZM32.5377 95.026C32.1464 95.1348 31.786 95.3329 31.4845 95.6035L32.1525 96.3477C32.3398 96.1795 32.5634 96.0567 32.8056 95.9894L32.5377 95.026ZM31.4839 95.604C31.1824 95.8756 30.9474 96.2128 30.7979 96.5909L31.7277 96.9588C31.8202 96.7249 31.9657 96.5159 32.1531 96.3471L31.4839 95.604ZM30.798 96.5904C30.6483 96.9677 30.5883 97.375 30.6224 97.7795L31.6189 97.6955C31.5977 97.4447 31.635 97.1924 31.7275 96.9592L30.798 96.5904ZM30.6224 97.7794C30.6564 98.1841 30.7837 98.5748 30.994 98.9219L31.8493 98.4038C31.7187 98.1882 31.6399 97.9461 31.6189 97.6956L30.6224 97.7794ZM31.4217 98.6628C31.8138 98.3526 31.8137 98.3524 31.8135 98.3523C31.8135 98.3522 31.8133 98.352 31.8132 98.3518C31.813 98.3516 31.8127 98.3512 31.8124 98.3509C31.8119 98.3502 31.8112 98.3494 31.8105 98.3485C31.809 98.3467 31.8072 98.3444 31.805 98.3417C31.8006 98.3363 31.7947 98.3291 31.7874 98.3205C31.7728 98.3031 31.7525 98.2795 31.7266 98.2508C31.6751 98.1936 31.6012 98.1158 31.5075 98.0279C31.3219 97.8539 31.0487 97.6313 30.7077 97.4539C30.3662 97.2762 29.9407 97.1356 29.4602 97.1503C28.9723 97.1652 28.4654 97.3392 27.9703 97.7313L28.5911 98.5152C28.9303 98.2466 29.2332 98.1577 29.4907 98.1498C29.7555 98.1417 30.011 98.2186 30.2461 98.341C30.4818 98.4637 30.681 98.6238 30.8236 98.7575C30.8939 98.8234 30.9481 98.8807 30.9836 98.9201C31.0014 98.9398 31.0143 98.9548 31.022 98.9641C31.0259 98.9687 31.0285 98.9718 31.0298 98.9734C31.0304 98.9742 31.0307 98.9745 31.0307 98.9745C31.0307 98.9745 31.0306 98.9743 31.0304 98.9741C31.0303 98.974 31.0302 98.9738 31.03 98.9737C31.0299 98.9736 31.0298 98.9734 31.0298 98.9734C31.0297 98.9732 31.0295 98.9731 31.4217 98.6628ZM27.9732 97.729C27.461 98.1285 27.1156 98.7043 27.005 99.3441L27.9904 99.5144C28.0586 99.1199 28.2717 98.7644 28.5882 98.5176L27.9732 97.729ZM27.005 99.3442C26.8945 99.9846 27.0265 100.643 27.3753 101.191L28.219 100.654C28.0036 100.316 27.9222 99.9096 27.9904 99.5143L27.005 99.3442ZM28.2323 100.676C28.0651 100.381 27.8412 100.123 27.5743 99.9157L26.9609 100.705C27.1244 100.832 27.2606 100.99 27.362 101.169L28.2323 100.676ZM27.5743 99.9157C27.3065 99.7077 27.0007 99.5558 26.6747 99.4669L26.4119 100.432C26.6118 100.486 26.7982 100.579 26.9609 100.705L27.5743 99.9157ZM26.6747 99.467C26.347 99.3777 26.006 99.3556 25.6715 99.3991L25.8002 100.391C26.006 100.364 26.2138 100.378 26.4118 100.432L26.6747 99.467ZM25.6715 99.3991C25.3351 99.4427 25.0115 99.5532 24.719 99.7227L25.2202 100.588C25.3991 100.484 25.5963 100.417 25.8002 100.391L25.6715 99.3991ZM24.7202 99.7219L20.7487 102.007L21.2474 102.874L25.2189 100.589L24.7202 99.7219Z" fill="#8C9199" mask="url(#path-67-outside-15_1625_4208)"/>
<mask id="path-69-outside-16_1625_4208" maskUnits="userSpaceOnUse" x="124.801" y="105.55" width="17" height="14" fill="black">
<rect fill="white" x="124.801" y="105.55" width="17" height="14"/>
<path d="M139.543 106.55C137.79 107.518 136.109 108.61 134.512 109.819C129.821 113.442 125.246 117.99 125.856 118.786C126.465 119.582 132.011 116.315 136.713 112.689C138.289 111.451 139.771 110.097 141.147 108.639"/>
</mask>
<path d="M139.784 106.988C140.026 106.854 140.114 106.55 139.98 106.308C139.847 106.067 139.543 105.979 139.301 106.112L139.784 106.988ZM134.512 109.819L134.21 109.42L134.206 109.423L134.512 109.819ZM136.713 112.689L137.018 113.085L137.022 113.082L136.713 112.689ZM141.511 108.982C141.7 108.781 141.691 108.465 141.49 108.275C141.289 108.086 140.973 108.095 140.783 108.296L141.511 108.982ZM139.301 106.112C137.527 107.092 135.826 108.197 134.21 109.42L134.814 110.217C136.392 109.023 138.052 107.944 139.784 106.988L139.301 106.112ZM134.206 109.423C131.846 111.246 129.512 113.304 127.839 115.013C127.005 115.865 126.321 116.644 125.882 117.272C125.664 117.583 125.488 117.881 125.391 118.149C125.306 118.381 125.214 118.77 125.459 119.09L126.253 118.482C126.345 118.603 126.263 118.676 126.33 118.493C126.384 118.345 126.502 118.129 126.701 117.845C127.094 117.283 127.733 116.55 128.553 115.712C130.189 114.042 132.487 112.014 134.818 110.214L134.206 109.423ZM125.459 119.09C125.704 119.411 126.104 119.422 126.35 119.399C126.634 119.373 126.966 119.28 127.321 119.148C128.039 118.883 128.964 118.421 129.997 117.83C132.071 116.647 134.652 114.91 137.018 113.085L136.407 112.293C134.071 114.095 131.529 115.805 129.502 116.962C128.485 117.542 127.616 117.974 126.975 118.21C126.651 118.33 126.413 118.389 126.258 118.404C126.066 118.421 126.159 118.36 126.253 118.482L125.459 119.09ZM137.022 113.082C138.617 111.828 140.118 110.458 141.511 108.982L140.783 108.296C139.424 109.736 137.961 111.073 136.404 112.296L137.022 113.082Z" fill="#8C9199" mask="url(#path-69-outside-16_1625_4208)"/>
<path d="M139.302 106.48C139.28 106.557 139.296 106.64 139.345 106.703L140.965 108.792C141.015 108.856 141.093 108.892 141.175 108.888C142.886 108.806 144.212 107.899 145.06 106.597C145.905 105.301 146.277 103.611 146.101 101.933C146.091 101.834 146.023 101.751 145.929 101.721C145.834 101.691 145.731 101.719 145.665 101.794C145.229 102.289 144.701 102.603 144.122 102.848C143.751 103.005 143.379 103.127 142.998 103.252C142.767 103.328 142.533 103.405 142.293 103.492C141.675 103.715 141.06 103.991 140.532 104.451C140 104.915 139.57 105.553 139.302 106.48Z" stroke="#8C9199" stroke-width="0.5" stroke-linecap="round" stroke-linejoin="round"/>
<path d="M135.3 109.22C135.215 109.111 135.058 109.091 134.949 109.175C134.84 109.259 134.819 109.416 134.904 109.526L137.099 112.373C137.183 112.482 137.34 112.502 137.45 112.418C137.559 112.334 137.579 112.177 137.495 112.067L135.3 109.22Z" stroke="#8C9199" stroke-width="0.5" stroke-linecap="round" stroke-linejoin="round"/>
<mask id="path-73-outside-17_1625_4208" maskUnits="userSpaceOnUse" x="140.021" y="37.4763" width="5" height="10" fill="black">
<rect fill="white" x="140.021" y="37.4763" width="5" height="10"/>
<path d="M142.883 38.4763L141.021 42.6471H144.431L142.555 46.8186"/>
</mask>
<path d="M143.339 38.6801C143.452 38.428 143.339 38.1323 143.087 38.0197C142.835 37.9072 142.539 38.0203 142.426 38.2725L143.339 38.6801ZM141.021 42.6471L140.564 42.4433C140.495 42.598 140.509 42.7771 140.602 42.9192C140.694 43.0613 140.852 43.1471 141.021 43.1471V42.6471ZM144.431 42.6471L144.887 42.8522C144.957 42.6975 144.943 42.518 144.851 42.3756C144.759 42.2331 144.601 42.1471 144.431 42.1471V42.6471ZM142.099 46.6136C141.986 46.8654 142.098 47.1614 142.35 47.2747C142.602 47.3879 142.898 47.2756 143.011 47.0237L142.099 46.6136ZM142.426 38.2725L140.564 42.4433L141.478 42.8509L143.339 38.6801L142.426 38.2725ZM141.021 43.1471H144.431V42.1471H141.021V43.1471ZM143.975 42.442L142.099 46.6136L143.011 47.0237L144.887 42.8522L143.975 42.442Z" fill="#8C9199" mask="url(#path-73-outside-17_1625_4208)"/>
<path d="M76.621 141.746C76.759 141.742 76.8675 141.627 76.8634 141.489C76.8592 141.351 76.744 141.242 76.606 141.246L69.0457 141.473C68.9077 141.477 68.7992 141.592 68.8033 141.73C68.8075 141.868 68.9227 141.977 69.0607 141.973L76.621 141.746Z" stroke="#8C9199" stroke-width="0.5" stroke-linecap="round" stroke-linejoin="round"/>
<path d="M72.6974 145.398C72.7016 145.536 72.8168 145.644 72.9549 145.64C73.0929 145.636 73.2014 145.521 73.1972 145.383L72.9696 137.822C72.9655 137.684 72.8502 137.575 72.7122 137.579C72.5742 137.583 72.4657 137.699 72.4698 137.837L72.6974 145.398Z" stroke="#8C9199" stroke-width="0.5" stroke-linecap="round" stroke-linejoin="round"/>
<path d="M64.8506 57.795C64.8648 57.7215 64.8453 57.6454 64.7975 57.5878C64.7497 57.5302 64.6785 57.497 64.6036 57.4974C64.0004 57.501 63.4985 57.5514 63.122 57.6493C62.9338 57.6983 62.7672 57.7616 62.6326 57.8436C62.4985 57.9253 62.3808 58.0351 62.3181 58.1823C62.1822 58.5016 62.3622 58.8134 62.6157 59.0612C62.8815 59.3211 63.3094 59.5979 63.8968 59.8899C63.9581 59.9204 64.0292 59.9244 64.0936 59.901C64.1579 59.8776 64.2098 59.8289 64.2372 59.7661C64.5136 59.1336 64.7192 58.4726 64.8506 57.795Z" stroke="#8C9199" stroke-width="0.5" stroke-linecap="round" stroke-linejoin="round"/>
<path d="M77.282 61.6491C77.3072 61.5547 77.275 61.4542 77.1996 61.3919C77.1242 61.3297 77.0195 61.3171 76.9315 61.3597L75.8808 61.8687C75.7702 61.9222 75.7149 62.0482 75.7504 62.1658C75.7859 62.2835 75.9015 62.3579 76.0233 62.3414C76.3436 62.298 76.6181 62.2306 76.8286 62.1299C77.0369 62.0304 77.2208 61.8788 77.282 61.6491Z" stroke="#8C9199" stroke-width="0.5" stroke-linecap="round" stroke-linejoin="round"/>
<mask id="path-79-outside-18_1625_4208" maskUnits="userSpaceOnUse" x="56.855" y="56.7474" width="9" height="21" fill="black">
<rect fill="white" x="56.855" y="56.7474" width="9" height="21"/>
<path d="M64.6047 57.7474C64.3719 59.3619 63.5523 60.8341 62.3025 61.8824C56.7176 66.3166 56.631 72.5269 60.7108 77.1746"/>
</mask>
<path d="M65.0996 57.8188C65.139 57.5455 64.9494 57.292 64.6761 57.2526C64.4028 57.2131 64.1493 57.4028 64.1098 57.6761L65.0996 57.8188ZM62.3025 61.8824L62.6136 62.2741L62.6239 62.2655L62.3025 61.8824ZM60.335 77.5044C60.5172 77.7119 60.8331 77.7325 61.0406 77.5503C61.2482 77.3682 61.2687 77.0522 61.0866 76.8447L60.335 77.5044ZM64.1098 57.6761C63.8946 59.1689 63.1367 60.53 61.9812 61.4993L62.6239 62.2655C63.9678 61.1381 64.8492 59.555 65.0996 57.8188L64.1098 57.6761ZM61.9916 61.4908C59.108 63.7803 57.6062 66.5623 57.3839 69.4095C57.162 72.2527 58.221 75.0962 60.335 77.5044L61.0866 76.8447C59.1208 74.6053 58.1832 72.0198 58.3809 69.4874C58.5782 66.959 59.9122 64.4187 62.6135 62.274L61.9916 61.4908Z" fill="#8C9199" mask="url(#path-79-outside-18_1625_4208)"/>
<path d="M20.8728 102.813C20.9929 102.745 21.0351 102.592 20.967 102.472C20.8989 102.352 20.7463 102.31 20.6262 102.378L14.3293 105.948C14.2092 106.016 14.1671 106.169 14.2352 106.289C14.3033 106.409 14.4558 106.451 14.5759 106.383L20.8728 102.813Z" stroke="#8C9199" stroke-width="0.5" stroke-linecap="round" stroke-linejoin="round"/>
<path d="M36.2481 129.475C36.3673 129.406 36.4076 129.252 36.338 129.133C36.2685 129.014 36.1154 128.974 35.9961 129.043L30.3433 132.341C30.224 132.41 30.1837 132.564 30.2533 132.683C30.3229 132.802 30.4759 132.842 30.5952 132.773L36.2481 129.475Z" stroke="#8C9199" stroke-width="0.5" stroke-linecap="round" stroke-linejoin="round"/>
<path d="M27.8662 134.492C27.9855 134.423 28.0258 134.269 27.9562 134.15C27.8867 134.031 27.7336 133.991 27.6143 134.06L23.4219 136.505C23.3026 136.574 23.2623 136.728 23.3319 136.847C23.4014 136.966 23.5545 137.006 23.6738 136.937L27.8662 134.492Z" stroke="#8C9199" stroke-width="0.5" stroke-linecap="round" stroke-linejoin="round"/>
<path d="M11.6486 108.217C11.7686 108.148 11.8107 107.996 11.7424 107.876C11.6742 107.756 11.5216 107.714 11.4016 107.782L7.12405 110.212C7.00401 110.281 6.96199 110.433 7.0302 110.553C7.09841 110.673 7.25102 110.715 7.37107 110.647L11.6486 108.217Z" stroke="#8C9199" stroke-width="0.5" stroke-linecap="round" stroke-linejoin="round"/>
<path d="M24.9259 118.234C25.0447 118.163 25.0841 118.01 25.0138 117.891C24.9436 117.772 24.7902 117.733 24.6714 117.803L10.9001 125.946C10.7812 126.016 10.7419 126.17 10.8121 126.289C10.8824 126.407 11.0357 126.447 11.1546 126.377L24.9259 118.234Z" stroke="#8C9199" stroke-width="0.5" stroke-linecap="round" stroke-linejoin="round"/>
<path d="M8.41038 128.098C8.52973 128.028 8.57022 127.875 8.50081 127.756C8.4314 127.637 8.27838 127.596 8.15902 127.665L3.98077 130.095C3.86141 130.165 3.82092 130.318 3.89033 130.437C3.95974 130.556 4.11277 130.597 4.23212 130.527L8.41038 128.098Z" stroke="#8C9199" stroke-width="0.5" stroke-linecap="round" stroke-linejoin="round"/>
<path d="M13.3829 59.2689L13.3829 59.2688C13.4236 57.2178 14.0715 55.2248 15.2448 53.5421C16.4181 51.8592 18.064 50.5622 19.9745 49.8149C21.885 49.0675 23.9742 48.9036 25.9779 49.3436L25.9779 49.3436C27.9815 49.7837 29.8097 50.8079 31.2312 52.287L13.3829 59.2689ZM13.3829 59.2689C13.3423 61.3199 13.9108 63.3369 15.0165 65.0648C16.1222 66.7928 17.7155 68.1541 19.5949 68.9765C21.4742 69.7989 23.5553 70.0455 25.5748 69.6852C27.5944 69.3249 29.4618 68.3738 30.9407 66.9521M13.3829 59.2689L30.9407 66.9521M30.9407 66.9521C31.9235 66.0088 32.7107 64.881 33.2573 63.6332C33.804 62.3853 34.0992 61.0419 34.1262 59.6799C34.1532 58.3178 33.9114 56.9637 33.4146 55.6952C32.9179 54.4267 32.1759 53.2686 31.2313 52.287L30.9407 66.9521Z" stroke="#8C9199" stroke-width="0.5" stroke-linecap="round" stroke-linejoin="round"/>
<mask id="path-88-outside-19_1625_4208" maskUnits="userSpaceOnUse" x="7.67188" y="53.3251" width="32" height="12" fill="black">
<rect fill="white" x="7.67188" y="53.3251" width="32" height="12"/>
<path d="M33.8654 60.075C37.0063 61.5675 38.8652 62.9854 38.5981 63.8809C38.1197 65.498 31.0513 64.8756 22.7948 62.4876C14.5382 60.0996 8.22571 56.8512 8.6966 55.2318C8.96525 54.3072 11.354 54.1087 14.8905 54.5498"/>
</mask>
<path d="M34.08 59.6234C33.8305 59.5049 33.5323 59.611 33.4138 59.8604C33.2952 60.1098 33.4014 60.4081 33.6508 60.5266L34.08 59.6234ZM38.5981 63.8809L38.119 63.7379L38.1186 63.739L38.5981 63.8809ZM8.6966 55.2318L9.17671 55.3714L9.17674 55.3713L8.6966 55.2318ZM14.8286 55.0459C15.1026 55.0801 15.3525 54.8856 15.3866 54.6116C15.4208 54.3376 15.2264 54.0878 14.9523 54.0536L14.8286 55.0459ZM33.6508 60.5266C35.2068 61.266 36.4182 61.9747 37.1992 62.5937C37.5917 62.9047 37.8512 63.1742 37.9954 63.3932C38.1425 63.6166 38.1255 63.7159 38.119 63.7379L39.0772 64.0238C39.2042 63.5981 39.0551 63.1843 38.8306 62.8433C38.6033 62.4981 38.2518 62.1519 37.8203 61.8099C36.9535 61.123 35.6649 60.3765 34.08 59.6234L33.6508 60.5266ZM38.1186 63.739C38.1112 63.7641 38.076 63.8424 37.8891 63.9399C37.702 64.0375 37.4144 64.1253 37.0123 64.187C36.211 64.3099 35.0703 64.3126 33.6571 64.1881C30.839 63.9397 27.0406 63.1951 22.9337 62.0073L22.6558 62.9679C26.8054 64.1681 30.6695 64.9287 33.5693 65.1842C35.0151 65.3116 36.2473 65.316 37.1639 65.1754C37.6207 65.1054 38.0283 64.9951 38.3516 64.8266C38.675 64.6579 38.9654 64.4019 39.0776 64.0227L38.1186 63.739ZM22.9337 62.0073C18.8267 60.8195 15.2165 59.4211 12.7017 58.1269C11.4406 57.4779 10.4783 56.8668 9.86792 56.3357C9.56153 56.0691 9.36638 55.8419 9.26138 55.6603C9.15668 55.4792 9.16966 55.3957 9.17671 55.3714L8.21648 55.0922C8.10581 55.4728 8.21305 55.845 8.39569 56.1609C8.57803 56.4762 8.86329 56.7871 9.2115 57.0901C9.91025 57.6981 10.9539 58.3521 12.2441 59.0161C14.832 60.3479 18.5063 61.7678 22.6558 62.9679L22.9337 62.0073ZM9.17674 55.3713C9.18556 55.341 9.23196 55.2425 9.48451 55.1296C9.7326 55.0187 10.1075 54.9286 10.6191 54.8761C11.6375 54.7716 13.0761 54.8273 14.8286 55.0459L14.9523 54.0536C13.1684 53.8311 11.6443 53.7656 10.5171 53.8813C9.95584 53.9389 9.46218 54.0442 9.07631 54.2167C8.6949 54.3873 8.34196 54.6604 8.21645 55.0923L9.17674 55.3713Z" fill="#8C9199" mask="url(#path-88-outside-19_1625_4208)"/>
<mask id="path-90-outside-20_1625_4208" maskUnits="userSpaceOnUse" x="60.269" y="62.9294" width="34" height="46" fill="black">
<rect fill="white" x="60.269" y="62.9294" width="34" height="46"/>
<path d="M61.269 70.6367C61.681 73.2232 63.1347 75.5948 65.0921 76.2082C71.2046 78.1201 81.7902 82.7596 81.7902 82.7596C81.9223 90.0788 82.5849 98.1323 81.876 106.55C85.2655 107.977 89.0698 108.063 92.5205 106.791C93.1175 98.8472 93.5003 91.2295 93.3585 84.1946C93.3265 82.4439 92.9212 80.7208 92.169 79.1395C91.4161 77.559 90.3347 76.1568 88.996 75.0284C83.473 70.4625 77.3149 66.7237 70.7158 63.9294"/>
</mask>
<path d="M61.7628 70.5581C61.7194 70.2854 61.4631 70.0995 61.1904 70.143C60.9177 70.1864 60.7318 70.4427 60.7753 70.7154L61.7628 70.5581ZM65.0921 76.2082L64.9426 76.6854L64.9428 76.6854L65.0921 76.2082ZM81.7902 82.7596L82.2901 82.7505C82.2866 82.5553 82.1697 82.38 81.9909 82.3016L81.7902 82.7596ZM81.876 106.55L81.3778 106.508C81.3596 106.724 81.4824 106.927 81.682 107.011L81.876 106.55ZM92.5205 106.791L92.6934 107.26C92.8771 107.193 93.0044 107.024 93.0191 106.829L92.5205 106.791ZM93.3585 84.1946L92.8586 84.2038L92.8586 84.2047L93.3585 84.1946ZM92.169 79.1395L92.6205 78.9247L92.6204 78.9245L92.169 79.1395ZM88.996 75.0284L89.3182 74.6461L89.3145 74.6431L88.996 75.0284ZM70.9108 63.469C70.6565 63.3613 70.3631 63.4802 70.2554 63.7345C70.1477 63.9888 70.2666 64.2822 70.5209 64.3899L70.9108 63.469ZM60.7753 70.7154C60.9913 72.0716 61.4811 73.3802 62.1845 74.4391C62.8858 75.4947 63.8222 76.3343 64.9426 76.6854L65.2416 75.7311C64.4045 75.4688 63.6354 74.8158 63.0175 73.8857C62.4017 72.9588 61.9588 71.7884 61.7628 70.5581L60.7753 70.7154ZM64.9428 76.6854C67.9767 77.6344 72.1339 79.2649 75.5436 80.6635C77.246 81.3618 78.758 82.0005 79.8442 82.4646C80.3873 82.6966 80.8239 82.885 81.1246 83.0153C81.2749 83.0804 81.3913 83.131 81.47 83.1653C81.5094 83.1825 81.5393 83.1956 81.5594 83.2043C81.5694 83.2087 81.5769 83.212 81.582 83.2142C81.5845 83.2153 81.5864 83.2162 81.5876 83.2167C81.5883 83.217 81.5887 83.2172 81.589 83.2173C81.5892 83.2174 81.5893 83.2174 81.5894 83.2175C81.5894 83.2175 81.5895 83.2175 81.7902 82.7596C81.9909 82.3016 81.9908 82.3016 81.9907 82.3016C81.9906 82.3015 81.9905 82.3015 81.9903 82.3014C81.99 82.3012 81.9895 82.301 81.9888 82.3007C81.9875 82.3001 81.9856 82.2993 81.983 82.2982C81.9778 82.2959 81.9701 82.2925 81.9599 82.2881C81.9395 82.2792 81.9093 82.2659 81.8696 82.2487C81.7903 82.2141 81.6732 82.1632 81.5222 82.0977C81.2201 81.9668 80.7819 81.7778 80.2371 81.545C79.1476 81.0795 77.6311 80.4388 75.9231 79.7383C72.5119 78.3391 68.32 76.694 65.2413 75.731L64.9428 76.6854ZM81.2903 82.7686C81.4231 90.1293 82.0838 98.1241 81.3778 106.508L82.3742 106.592C83.086 98.1405 82.4214 90.0283 82.2901 82.7505L81.2903 82.7686ZM81.682 107.011C85.1883 108.487 89.1238 108.576 92.6934 107.26L92.3476 106.322C89.0158 107.55 85.3426 107.467 82.07 106.089L81.682 107.011ZM93.0191 106.829C93.6165 98.8787 94.0007 91.2428 93.8584 84.1845L92.8586 84.2047C93 91.2163 92.6185 98.8158 92.0219 106.754L93.0191 106.829ZM93.8585 84.1854C93.8251 82.3636 93.4034 80.5704 92.6205 78.9247L91.7175 79.3543C92.4391 80.8712 92.8278 82.5242 92.8586 84.2038L93.8585 84.1854ZM92.6204 78.9245C91.8369 77.2798 90.7116 75.8205 89.3182 74.6461L88.6737 75.4107C89.9579 76.493 90.9952 77.8381 91.7176 79.3546L92.6204 78.9245ZM89.3145 74.6431C83.7542 70.0462 77.5545 66.2822 70.9108 63.469L70.5209 64.3899C77.0753 67.1652 83.1917 70.8787 88.6774 75.4138L89.3145 74.6431Z" fill="#8C9199" mask="url(#path-90-outside-20_1625_4208)"/>
<mask id="path-92-outside-21_1625_4208" maskUnits="userSpaceOnUse" x="80.7866" y="81.7595" width="4" height="7" fill="black">
<rect fill="white" x="80.7866" y="81.7595" width="4" height="7"/>
<path d="M81.7866 82.7595L83.4209 83.3707L81.9292 87.6482"/>
</mask>
<path d="M81.9618 82.2912C81.7031 82.1945 81.415 82.3257 81.3183 82.5844C81.2216 82.843 81.3528 83.1311 81.6115 83.2278L81.9618 82.2912ZM83.4209 83.3707L83.893 83.5353C83.9825 83.2787 83.8506 82.9976 83.596 82.9024L83.4209 83.3707ZM81.457 87.4836C81.3661 87.7443 81.5038 88.0294 81.7645 88.1203C82.0253 88.2113 82.3103 88.0736 82.4013 87.8129L81.457 87.4836ZM81.6115 83.2278L83.2458 83.839L83.596 82.9024L81.9618 82.2912L81.6115 83.2278ZM82.9488 83.2061L81.457 87.4836L82.4013 87.8129L83.893 83.5353L82.9488 83.2061Z" fill="#8C9199" mask="url(#path-92-outside-21_1625_4208)"/>
<path d="M82.1831 100.686C82.0588 100.68 81.9489 100.766 81.9254 100.889C81.9019 101.011 81.972 101.132 82.0897 101.172C85.5896 102.374 89.3578 102.558 92.9581 101.705C93.0793 101.677 93.1608 101.563 93.1494 101.439C93.138 101.315 93.0371 101.218 92.9127 101.212L82.1831 100.686Z" stroke="#8C9199" stroke-width="0.5" stroke-linecap="round" stroke-linejoin="round"/>
<path d="M79.2939 4.60999C79.2939 4.47191 79.182 4.35999 79.0439 4.35999C78.9059 4.35999 78.7939 4.47191 78.7939 4.60999V6.98381C78.7939 7.12188 78.9059 7.23381 79.0439 7.23381C79.182 7.23381 79.2939 7.12188 79.2939 6.98381V4.60999Z" stroke="#8C9199" stroke-width="0.5" stroke-linecap="round" stroke-linejoin="round"/>
<path d="M83.6629 9.47852C83.801 9.47852 83.9129 9.36659 83.9129 9.22852C83.9129 9.09044 83.801 8.97852 83.6629 8.97852H81.2891C81.151 8.97852 81.0391 9.09044 81.0391 9.22852C81.0391 9.36659 81.151 9.47852 81.2891 9.47852H83.6629Z" stroke="#8C9199" stroke-width="0.5" stroke-linecap="round" stroke-linejoin="round"/>
<path d="M78.7939 13.8478C78.7939 13.9859 78.9059 14.0978 79.0439 14.0978C79.182 14.0978 79.2939 13.9859 79.2939 13.8478V11.474C79.2939 11.3359 79.182 11.224 79.0439 11.224C78.9059 11.224 78.7939 11.3359 78.7939 11.474V13.8478Z" stroke="#8C9199" stroke-width="0.5" stroke-linecap="round" stroke-linejoin="round"/>
<path d="M74.4258 8.97852C74.2877 8.97852 74.1758 9.09044 74.1758 9.22852C74.1758 9.36659 74.2877 9.47852 74.4258 9.47852H76.8004C76.9384 9.47852 77.0504 9.36659 77.0504 9.22852C77.0504 9.09044 76.9384 8.97852 76.8004 8.97852H74.4258Z" stroke="#8C9199" stroke-width="0.5" stroke-linecap="round" stroke-linejoin="round"/>
<path d="M81.539 9.22852C81.539 9.36634 81.4274 9.47814 81.2896 9.47849C81.2856 9.4785 81.2815 9.4785 81.2775 9.47849C81.0194 9.47918 80.7633 9.53024 80.5239 9.62894L81.539 9.22852ZM81.539 9.22852C81.539 9.09071 81.4275 8.97888 81.2897 8.97849C81.2855 8.97848 81.2813 8.97848 81.2772 8.97849M81.539 9.22852L81.2772 8.97849M81.2772 8.97849C81.019 8.97769 80.7631 8.92666 80.5248 8.82819L80.5245 8.82809C80.282 8.72814 80.062 8.58129 79.8772 8.39614L79.8768 8.39583C79.6914 8.21076 79.5449 7.99076 79.4447 7.74822L79.4447 7.74819C79.346 7.50938 79.295 7.25356 79.2943 6.99508C79.2943 6.99109 79.2943 6.98711 79.2943 6.98313C79.2939 6.84531 79.1821 6.73376 79.0443 6.73376C78.9064 6.73376 78.7946 6.84531 78.7943 6.98313C78.7943 6.98711 78.7943 6.99109 78.7943 6.99508C78.7935 7.25349 78.7425 7.50924 78.6438 7.74803L78.6436 7.74859C78.5444 7.99024 78.3974 8.2102 78.2123 8.39576C78.0266 8.58111 77.8064 8.72796 77.5645 8.82798C77.3255 8.92668 77.0691 8.97783 76.8105 8.97849C76.8069 8.97848 76.8033 8.97848 76.7997 8.97849C76.6619 8.97881 76.5503 9.09064 76.5503 9.22849C76.5503 9.36634 76.6619 9.47818 76.7997 9.47849C76.8033 9.4785 76.8069 9.4785 76.8105 9.47849C77.0691 9.47915 77.3256 9.53031 77.5645 9.62907L77.5647 9.62917C77.8073 9.7292 78.0273 9.87605 78.2121 10.0613L78.2121 10.0613C78.3972 10.2468 78.5444 10.467 78.6445 10.7092C78.7426 10.9483 78.7935 11.2042 78.7943 11.4626C78.7943 11.4666 78.7943 11.4706 78.7943 11.4746C78.7946 11.6124 78.9064 11.724 79.0443 11.724C79.1821 11.724 79.2939 11.6124 79.2943 11.4746C79.2943 11.4706 79.2943 11.4666 79.2943 11.4626C79.295 11.2041 79.346 10.9482 79.4447 10.7092L79.4449 10.7087C79.5442 10.4669 79.6912 10.2467 79.8763 10.0612L81.2772 8.97849Z" stroke="#8C9199" stroke-width="0.5" stroke-linecap="round" stroke-linejoin="round"/>
</svg>
