<svg width="150" height="150" viewBox="0 0 150 150" fill="none" xmlns="http://www.w3.org/2000/svg">
<path d="M126.927 54.0654C126.927 54.0654 117.486 61.0257 113.446 67.533C111.33 65.2566 109.567 62.6763 108.215 59.8779C103.749 50.7625 98.0933 50.6244 95.5978 49.8834C93.9964 51.8983 90.9771 53.796 88.298 54.9579C86.4622 61.9824 85.2847 69.1629 84.7817 76.4059C84.6869 77.7178 84.978 79.0282 85.6182 80.1767L97.8097 101.669C100.766 100.848 103.533 99.4613 105.961 97.586C102.961 89.1392 100.464 81.3259 95.8322 75.8559C96.756 74.0612 98.0366 71.7112 99.5537 68.5389C101.552 71.8971 104.912 75.2306 109.08 78.3491C110.407 79.3379 112.057 79.7916 113.703 79.6207C115.35 79.4499 116.872 78.667 117.968 77.4275L133.405 59.9914C131.625 57.6377 129.43 55.6293 126.927 54.0654Z" fill="#F9B1DC"/>
<path d="M35.8327 58.2332C35.8328 59.5007 35.4572 60.7397 34.7531 61.7935C34.0491 62.8474 33.0483 63.6689 31.8774 64.154C30.7065 64.6391 29.4181 64.7661 28.175 64.519C26.9318 64.2718 25.79 63.6615 24.8938 62.7654C23.9974 61.8693 23.3871 60.7274 23.1398 59.4844C22.8925 58.2414 23.0193 56.9528 23.5043 55.7819C23.9893 54.6109 24.8106 53.6101 25.8644 52.9059C26.9183 52.2017 28.1572 51.8259 29.4246 51.8259C31.1238 51.8267 32.7531 52.502 33.9547 53.7034C35.1562 54.9048 35.8317 56.5341 35.8327 58.2332Z" fill="#F9B1DC"/>
<path d="M49.6116 31.5541L56.3025 29.1586L49.0445 15.0396L35.0247 20.0581L36.6328 27.5601L26.5331 24.0125L25.8667 25.5863L37.4903 31.5563L38.3597 35.598L39.4656 35.2017C39.1111 34.8182 39.6634 34.5495 41.2939 34.5353L48.637 31.9123C48.3497 31.072 48.2788 30.4347 49.6116 31.5541Z" fill="#F9B1DC"/>
<path fill-rule="evenodd" clip-rule="evenodd" d="M45.9846 77.0828C48.2008 75.3291 49.8796 72.9875 50.8299 70.3255C51.187 69.0686 51.3785 67.7771 51.4044 66.4831C51.9399 66.3197 52.4931 66.2101 53.056 66.1577C55.2437 65.9568 57.4216 66.632 59.1118 68.0354C60.8021 69.4387 61.8666 71.4553 62.0714 73.6426C62.2223 75.2739 61.8861 76.9127 61.1055 78.3529C60.3247 79.7932 59.1346 80.9693 57.6855 81.7334C56.2363 82.4969 54.5932 82.814 52.9639 82.6439C51.3347 82.4745 49.7924 81.8252 48.532 80.779C47.3573 79.8036 46.4767 78.5238 45.9846 77.0828ZM45.9415 76.9537C45.8035 76.456 45.6915 75.9523 45.6055 75.4455C45.6617 75.8903 45.7543 76.3321 45.8831 76.7657C45.9019 76.8284 45.9214 76.891 45.9415 76.9537Z" fill="#F9B1DC"/>
<path d="M38.0609 123.273C36.9263 121.465 35.3115 120.006 33.3968 119.062C33.1881 121.198 33.6544 123.345 34.7303 125.201C35.8061 127.058 37.4371 128.53 39.3937 129.411C39.533 127.28 39.0712 125.153 38.0609 123.273Z" fill="#BFC1FF"/>
<path d="M50.8301 70.3256C49.8791 72.9897 48.1983 75.3329 45.9795 77.0874C45.1991 74.3688 45.1962 71.486 45.9713 68.7659C46.9214 66.1014 48.6024 63.7581 50.8219 62.0042C51.6002 64.723 51.603 67.6053 50.8301 70.3256Z" fill="#BFC1FF"/>
<path d="M26.0934 50.1813C25.2136 49.2695 24.605 48.1308 24.3359 46.8926C25.5828 47.1158 26.7419 47.6846 27.6814 48.5343C28.5608 49.4464 29.1692 50.5851 29.4388 51.8231C28.1919 51.5998 27.0327 51.0311 26.0934 50.1813Z" fill="#BFC1FF"/>
<path d="M35.4638 94.6264C33.3838 93.0168 31.4656 91.2079 29.7363 89.2258C29.1965 91.1273 28.9996 93.1093 29.155 95.0802C29.5884 98.5569 30.9882 101.843 33.1952 104.564C34.8532 101.524 35.6384 98.0846 35.4638 94.6264Z" fill="#BFC1FF"/>
<path d="M80.8271 35.7361C80.9115 36.4308 81.4786 36.8137 82.7547 37.0405C82.954 36.6152 83.1383 36.1898 83.3077 35.7644C82.06 36.1473 80.9831 36.2891 80.8271 35.7361Z" fill="#BFC1FF"/>
<path d="M91.7709 35.7928C91.7709 35.7928 93.9679 31.9661 90.5374 29.9102C83.9316 25.955 82.4854 30.69 82.4854 30.69C82.851 30.6457 83.2226 30.6746 83.5771 30.7751C83.3077 31.5116 83.2786 32.5183 83.7331 32.0079C84.5413 31.1288 85.4054 32.4474 83.8465 33.525C84.6054 37.8795 86.3726 41.9962 89.0061 45.5463C89.7396 46.6191 90.7754 47.4503 91.9814 47.9348C93.1873 48.4192 94.5097 48.5351 95.782 48.2679C96.6469 48.1254 97.4596 47.762 98.1432 47.2129C98.826 46.6638 99.3558 45.9476 99.6804 45.1337C102.417 38.104 91.7709 35.7928 91.7709 35.7928Z" fill="#BFC1FF"/>
<path d="M80.2597 47.3746C79.8545 47.7028 79.4322 48.0098 78.9956 48.2948C78.9956 48.2948 80.4717 49.7126 82.4851 51.2872L80.2597 47.3746Z" fill="#BFC1FF"/>
<path d="M107.676 103.029C106.599 101.484 105.959 100.663 105.437 99.8412C103.648 100.605 101.95 101.565 100.373 102.704L101.167 104.107C102.627 111.776 104.03 114.639 106.2 118.042C107.477 114.795 108.172 105.864 107.676 103.029Z" fill="#BFC1FF"/>
<path d="M131.208 50.9186C130.102 52.4357 129.506 53.2999 128.912 54.0529C130.206 55.5002 131.656 56.8014 133.235 57.9333L134.341 56.7289C141.118 52.8611 143.385 50.6067 145.894 47.4635C142.407 47.3038 133.73 49.5298 131.208 50.9186Z" fill="#BFC1FF"/>
<path d="M62.5139 20.4744C62.3904 20.4658 62.2793 20.5489 62.2525 20.6697C62.2257 20.7906 62.2914 20.9128 62.407 20.9571L84.4505 29.4204C84.566 29.4647 84.6966 29.4179 84.7576 29.3102C84.8186 29.2025 84.7916 29.0663 84.6941 28.9901C78.3169 24.0005 70.5917 21.0346 62.5139 20.4744Z" stroke="#8C9199" stroke-width="0.5" stroke-linecap="round" stroke-linejoin="round"/>
<mask id="path-15-outside-1_1625_4204" maskUnits="userSpaceOnUse" x="18.6294" y="29.3615" width="73" height="75" fill="black">
<rect fill="white" x="18.6294" y="29.3615" width="73" height="75"/>
<path d="M91.0051 89.6615C86.6172 94.539 81.1218 98.2904 74.9813 100.6C68.8407 102.91 62.235 103.71 55.7206 102.933C49.2062 102.156 42.9739 99.8247 37.5487 96.136C32.1235 92.4473 27.6644 87.5086 24.5469 81.7356C21.4293 75.9634 19.7448 69.526 19.6351 62.9663C19.5254 56.4067 20.9938 49.9167 23.9166 44.0432C26.5593 38.7325 30.321 34.0664 34.9344 30.3615"/>
</mask>
<path d="M91.3768 89.9959C91.5615 89.7906 91.5448 89.4745 91.3395 89.2898C91.1342 89.1051 90.8181 89.1218 90.6334 89.3271L91.3768 89.9959ZM74.9813 100.6L75.1574 101.068H75.1574L74.9813 100.6ZM37.5487 96.136L37.2676 96.5495H37.2676L37.5487 96.136ZM24.5469 81.7356L24.9868 81.498L24.9868 81.498L24.5469 81.7356ZM19.6351 62.9663L20.135 62.9579L19.6351 62.9663ZM23.9166 44.0432L23.4689 43.8204L23.9166 44.0432ZM35.2475 30.7513C35.4628 30.5784 35.4972 30.2637 35.3243 30.0484C35.1514 29.8331 34.8367 29.7987 34.6214 29.9716L35.2475 30.7513ZM90.6334 89.3271C86.299 94.1451 80.8708 97.8506 74.8053 100.132L75.1574 101.068C81.3728 98.7302 86.9353 94.933 91.3768 89.9959L90.6334 89.3271ZM74.8053 100.132C68.7397 102.414 62.2147 103.204 55.7798 102.436L55.6614 103.429C62.2554 104.216 68.9418 103.406 75.1574 101.068L74.8053 100.132ZM55.7798 102.436C49.345 101.669 43.1888 99.3662 37.8298 95.7225L37.2676 96.5495C42.7591 100.283 49.0675 102.643 55.6614 103.429L55.7798 102.436ZM37.8298 95.7225C32.4709 92.0789 28.0663 87.2005 24.9868 81.498L24.1069 81.9732C27.2625 87.8167 31.7761 92.8157 37.2676 96.5495L37.8298 95.7225ZM24.9868 81.498C21.9073 75.7963 20.2434 69.4375 20.135 62.9579L19.1352 62.9747C19.2462 69.6145 20.9513 76.1305 24.1069 81.9732L24.9868 81.498ZM20.135 62.9579C20.0267 56.4784 21.4772 50.0677 24.3642 44.266L23.4689 43.8204C20.5105 49.7657 19.0242 56.3349 19.1352 62.9747L20.135 62.9579ZM24.3642 44.266C26.9746 39.0201 30.6904 34.411 35.2475 30.7513L34.6214 29.9716C29.9516 33.7218 26.1439 38.4449 23.4689 43.8204L24.3642 44.266Z" fill="#8C9199" mask="url(#path-15-outside-1_1625_4204)"/>
<path d="M100.96 70.3174C100.986 70.1872 100.906 70.0596 100.777 70.0266C100.649 69.9937 100.517 70.0669 100.477 70.1934L97.7553 78.7984C97.7153 78.9249 97.7811 79.0607 97.9052 79.1076C98.0293 79.1546 98.1685 79.0964 98.2222 78.9751C99.4521 76.1993 100.37 73.2956 100.96 70.3174Z" stroke="#8C9199" stroke-width="0.5" stroke-linecap="round" stroke-linejoin="round"/>
<path d="M98.7497 46.8269C98.6988 46.7014 98.5573 46.6393 98.4305 46.6868C98.3036 46.7342 98.2376 46.874 98.2816 47.0021L99.7271 51.2124C99.7711 51.3405 99.909 51.4103 100.038 51.3698C100.168 51.3293 100.241 51.1933 100.204 51.063C99.7964 49.6257 99.3114 48.2116 98.7497 46.8269Z" stroke="#8C9199" stroke-width="0.5" stroke-linecap="round" stroke-linejoin="round"/>
<mask id="path-19-outside-2_1625_4204" maskUnits="userSpaceOnUse" x="65.7354" y="37.734" width="23" height="10" fill="black">
<rect fill="white" x="65.7354" y="37.734" width="23" height="10"/>
<path d="M66.7354 46.3112C76.3754 38.6995 80.826 37.8629 83.1529 39.3368C85.1603 40.6099 86.5058 43.2643 87.8774 43.8546"/>
</mask>
<path d="M66.4255 45.9188C66.2088 46.0899 66.1718 46.4043 66.3429 46.6211C66.5141 46.8378 66.8285 46.8748 67.0452 46.7036L66.4255 45.9188ZM83.1529 39.3368L83.4206 38.9145L83.4204 38.9144L83.1529 39.3368ZM87.6797 44.3138C87.9334 44.423 88.2275 44.3059 88.3366 44.0522C88.4458 43.7986 88.3287 43.5045 88.075 43.3953L87.6797 44.3138ZM67.0452 46.7036C71.8507 42.9092 75.3254 40.8346 77.8618 39.8852C80.3938 38.9374 81.9067 39.1393 82.8853 39.7592L83.4204 38.9144C82.0722 38.0604 80.1963 37.9436 77.5113 38.9486C74.8307 39.952 71.26 42.1015 66.4255 45.9188L67.0452 46.7036ZM82.8851 39.759C83.8133 40.3477 84.6039 41.2673 85.3719 42.1747C85.7469 42.6179 86.1208 43.0623 86.4886 43.4315C86.8531 43.7975 87.2484 44.1282 87.6797 44.3138L88.075 43.3953C87.8205 43.2858 87.5333 43.0634 87.197 42.7258C86.8641 42.3915 86.5189 41.9821 86.1352 41.5287C85.3857 40.6431 84.4999 39.599 83.4206 38.9145L82.8851 39.759Z" fill="#8C9199" mask="url(#path-19-outside-2_1625_4204)"/>
<path d="M94.0889 48.2206C93.9867 48.1322 93.8326 48.141 93.7412 48.2405C93.6497 48.3401 93.654 48.4943 93.7508 48.5887C94.2907 49.1149 94.8616 49.6088 95.4596 50.0677C95.5669 50.15 95.7202 50.1321 95.8056 50.0273C95.891 49.9225 95.8777 49.7688 95.7754 49.6803L94.0889 48.2206Z" stroke="#8C9199" stroke-width="0.5" stroke-linecap="round" stroke-linejoin="round"/>
<path d="M82.2458 30.6169L82.4849 30.6899C82.2458 30.6169 82.2458 30.6167 82.2459 30.6165L82.246 30.616L82.2465 30.6146L82.2477 30.6106L82.252 30.5976C82.2556 30.5868 82.2608 30.5716 82.2676 30.5526C82.2814 30.5146 82.302 30.461 82.3303 30.3952C82.3869 30.2638 82.4749 30.0827 82.602 29.8792C82.8559 29.4729 83.27 28.9707 83.9081 28.6001C85.2042 27.8474 87.3197 27.6917 90.6653 29.6956L82.2458 30.6169ZM82.2458 30.6169C82.2211 30.6977 82.2389 30.7854 82.293 30.8502C82.3471 30.915 82.4303 30.9481 82.5141 30.9382C82.7619 30.909 83.012 30.9162 83.2568 30.9593M82.2458 30.6169L83.2568 30.9593M83.2568 30.9593C83.1673 31.282 83.1191 31.6222 83.1329 31.8731C83.1374 31.9551 83.1491 32.0396 83.1745 32.1157C83.1982 32.1863 83.2462 32.2868 83.3493 32.3486C83.4684 32.4199 83.5949 32.4025 83.6891 32.3589C83.7756 32.3188 83.8519 32.251 83.9188 32.177L83.9189 32.1768C84.086 31.9918 84.2183 31.9636 84.2836 31.9699C84.342 31.9756 84.4038 32.0137 84.4384 32.1135C84.5087 32.3162 84.4398 32.8126 83.7046 33.3208C83.6244 33.3762 83.5837 33.4733 83.6005 33.5694C84.3673 37.9604 86.1483 42.1118 88.8027 45.6928C89.564 46.805 90.6373 47.6668 91.8877 48.1691L91.8878 48.1692C93.1386 48.6714 94.5093 48.7917 95.8285 48.5151C96.7338 48.3647 97.5844 47.9837 98.2992 47.4089C99.0165 46.8328 99.5715 46.0815 99.9129 45.2279L99.9138 45.2254C100.619 43.4036 100.465 41.8659 99.8173 40.5938C99.1749 39.3322 98.0596 38.3545 96.8805 37.6139C95.6993 36.8719 94.4355 36.3563 93.4705 36.0266C92.9872 35.8614 92.577 35.7422 92.2871 35.6642C92.2321 35.6494 92.1814 35.6361 92.1353 35.6242C92.1823 35.5231 92.2369 35.3981 92.2933 35.2534C92.4513 34.8485 92.6265 34.2829 92.6897 33.6466C92.753 33.0099 92.7051 32.2942 92.4078 31.5978C92.1091 30.8983 91.5657 30.2344 90.6654 29.6956L83.2568 30.9593Z" stroke="#8C9199" stroke-width="0.5" stroke-linecap="round" stroke-linejoin="round"/>
<path d="M82.7104 37.2866C82.7851 37.3 82.8618 37.2787 82.9189 37.2288C82.9761 37.1789 83.0075 37.1057 83.0043 37.0299L82.7349 30.6793C82.7299 30.5619 82.6437 30.4638 82.5279 30.4436C82.4121 30.4235 82.2979 30.4868 82.2536 30.5957C82.0763 31.031 81.9064 31.4393 81.7475 31.8212C81.5058 32.4022 81.2895 32.9219 81.1117 33.382C80.8177 34.1428 80.6135 34.7774 80.5685 35.3001C80.5223 35.8374 80.6429 36.2868 81.0245 36.629C81.3856 36.9528 81.9494 37.1502 82.7104 37.2866Z" stroke="#8C9199" stroke-width="0.5" stroke-linecap="round" stroke-linejoin="round"/>
<mask id="path-24-outside-3_1625_4204" maskUnits="userSpaceOnUse" x="79.812" y="34.7241" width="4" height="5" fill="black">
<rect fill="white" x="79.812" y="34.7241" width="4" height="5"/>
<path d="M81.8329 38.8263C82.403 37.8482 82.8911 36.8249 83.2933 35.7667C82.0456 36.1495 80.968 36.289 80.812 35.7241"/>
</mask>
<path d="M81.4009 38.5745C81.2618 38.813 81.3425 39.1192 81.5811 39.2582C81.8196 39.3973 82.1258 39.3167 82.2648 39.0781L81.4009 38.5745ZM83.2933 35.7667L83.7607 35.9443C83.8285 35.7658 83.7888 35.5642 83.6582 35.4249C83.5277 35.2855 83.3292 35.2326 83.1466 35.2886L83.2933 35.7667ZM81.294 35.5911C81.2205 35.3249 80.9451 35.1687 80.6789 35.2422C80.4128 35.3156 80.2566 35.591 80.33 35.8572L81.294 35.5911ZM82.2648 39.0781C82.8489 38.0762 83.3487 37.0281 83.7607 35.9443L82.8259 35.589C82.4334 36.6218 81.9572 37.6203 81.4009 38.5745L82.2648 39.0781ZM83.1466 35.2886C82.534 35.4766 82.0051 35.5907 81.6296 35.601C81.44 35.6061 81.3335 35.583 81.2852 35.5626C81.2563 35.5504 81.2851 35.559 81.294 35.5911L80.33 35.8572C80.4169 36.1717 80.6388 36.3747 80.8949 36.4833C81.1315 36.5836 81.4016 36.6076 81.6569 36.6006C82.1711 36.5866 82.8048 36.4395 83.44 36.2447L83.1466 35.2886Z" fill="#8C9199" mask="url(#path-24-outside-3_1625_4204)"/>
<mask id="path-26-outside-4_1625_4204" maskUnits="userSpaceOnUse" x="58.438" y="21.5244" width="24" height="20" fill="black">
<rect fill="white" x="58.438" y="21.5244" width="24" height="20"/>
<path d="M76.1943 40.0456C71.6422 37.636 59.438 28.7474 59.438 28.7474C60.2178 25.8557 61.6767 23.7572 63.8752 22.5244C63.8752 22.5244 74.6772 30.3779 81.2121 33.8368"/>
</mask>
<path d="M75.9604 40.4875C76.2044 40.6167 76.507 40.5236 76.6362 40.2795C76.7654 40.0355 76.6723 39.7329 76.4282 39.6037L75.9604 40.4875ZM59.438 28.7474L58.9552 28.6172C58.9013 28.8171 58.9762 29.0296 59.1436 29.1516L59.438 28.7474ZM63.8752 22.5244L64.1692 22.12C64.0113 22.0052 63.801 21.9928 63.6306 22.0883L63.8752 22.5244ZM80.9782 34.2787C81.2222 34.4079 81.5248 34.3148 81.654 34.0707C81.7832 33.8267 81.69 33.5241 81.446 33.3949L80.9782 34.2787ZM76.4282 39.6037C74.1844 38.416 70.0217 35.6107 66.395 33.0827C64.5873 31.8226 62.9214 30.6376 61.7073 29.7675C61.1003 29.3325 60.6064 28.9763 60.2643 28.7289C60.0932 28.6052 59.9601 28.5087 59.8699 28.4432C59.8247 28.4104 59.7903 28.3854 59.7672 28.3686C59.7556 28.3602 59.7469 28.3538 59.7411 28.3496C59.7381 28.3474 59.736 28.3458 59.7345 28.3448C59.7338 28.3443 59.7332 28.3439 59.7329 28.3436C59.7327 28.3435 59.7326 28.3434 59.7325 28.3433C59.7324 28.3433 59.7324 28.3432 59.438 28.7474C59.1436 29.1516 59.1437 29.1516 59.1438 29.1517C59.1439 29.1517 59.144 29.1519 59.1442 29.152C59.1446 29.1523 59.1452 29.1527 59.1459 29.1532C59.1474 29.1543 59.1497 29.156 59.1526 29.1581C59.1586 29.1624 59.1674 29.1689 59.1791 29.1774C59.2024 29.1943 59.2371 29.2195 59.2824 29.2524C59.3732 29.3183 59.5067 29.4151 59.6783 29.5392C60.0214 29.7873 60.5165 30.1443 61.1248 30.5803C62.3412 31.4521 64.0109 32.6398 65.8232 33.9031C69.4366 36.4218 73.652 39.2656 75.9604 40.4875L76.4282 39.6037ZM59.9207 28.8776C60.6745 26.0825 62.0655 24.1124 64.1197 22.9605L63.6306 22.0883C61.2879 23.402 59.7611 25.6288 58.9552 28.6172L59.9207 28.8776ZM63.8752 22.5244C63.5812 22.9288 63.5812 22.9289 63.5813 22.9289C63.5814 22.929 63.5815 22.9291 63.5817 22.9292C63.5821 22.9295 63.5826 22.9299 63.5833 22.9303C63.5846 22.9313 63.5866 22.9328 63.5893 22.9347C63.5946 22.9386 63.6025 22.9443 63.6129 22.9518C63.6337 22.9669 63.6646 22.9893 63.7051 23.0186C63.7862 23.0772 63.9058 23.1636 64.0603 23.2746C64.3692 23.4967 64.8176 23.8176 65.3759 24.2135C66.4926 25.0051 68.0497 26.0967 69.8116 27.2968C73.3298 29.6931 77.6839 32.5351 80.9782 34.2787L81.446 33.3949C78.2053 31.6796 73.891 28.8655 70.3745 26.4703C68.619 25.2746 67.0672 24.1867 65.9543 23.3977C65.3979 23.0032 64.9513 22.6836 64.644 22.4626C64.4903 22.3522 64.3714 22.2664 64.2911 22.2083C64.2509 22.1792 64.2204 22.1571 64.1999 22.1423C64.1897 22.1348 64.182 22.1293 64.1768 22.1255C64.1743 22.1237 64.1723 22.1223 64.1711 22.1213C64.1704 22.1209 64.17 22.1205 64.1697 22.1203C64.1695 22.1202 64.1694 22.1201 64.1693 22.1201C64.1692 22.12 64.1692 22.12 63.8752 22.5244Z" fill="#8C9199" mask="url(#path-26-outside-4_1625_4204)"/>
<mask id="path-28-outside-5_1625_4204" maskUnits="userSpaceOnUse" x="98.5669" y="53.0513" width="36" height="28" fill="black">
<rect fill="white" x="98.5669" y="53.0513" width="36" height="28"/>
<path d="M99.5669 68.5248C101.566 71.8829 104.925 75.2172 109.094 78.335C110.421 79.3238 112.071 79.7775 113.717 79.6066C115.364 79.4357 116.885 78.6529 117.981 77.4134L133.405 59.9914C131.614 57.6433 129.421 55.6321 126.927 54.0513C126.927 54.0513 114.381 63.2943 112.014 70.4389"/>
</mask>
<path d="M99.9965 68.269C99.8553 68.0317 99.5484 67.9539 99.3111 68.0952C99.0738 68.2364 98.996 68.5433 99.1373 68.7806L99.9965 68.269ZM109.094 78.335L108.794 78.7354L108.795 78.736L109.094 78.335ZM117.981 77.4134L117.607 77.0819L117.607 77.0821L117.981 77.4134ZM133.405 59.9914L133.779 60.3229C133.938 60.144 133.947 59.8781 133.802 59.6882L133.405 59.9914ZM126.927 54.0513L127.194 53.629C127.02 53.5186 126.796 53.5264 126.63 53.6487L126.927 54.0513ZM111.54 70.2817C111.453 70.5438 111.595 70.8267 111.857 70.9136C112.119 71.0004 112.402 70.8583 112.489 70.5961L111.54 70.2817ZM99.1373 68.7806C101.183 72.2172 104.599 75.5976 108.794 78.7354L109.393 77.9346C105.251 74.8368 101.949 71.5487 99.9965 68.269L99.1373 68.7806ZM108.795 78.736C110.223 79.7997 111.998 80.2878 113.769 80.1039L113.666 79.1093C112.144 79.2672 110.619 78.8479 109.392 77.934L108.795 78.736ZM113.769 80.1039C115.54 79.9201 117.177 79.078 118.356 77.7446L117.607 77.0821C116.594 78.2278 115.187 78.9513 113.666 79.1093L113.769 80.1039ZM118.356 77.7448L133.779 60.3229L133.03 59.66L117.607 77.0819L118.356 77.7448ZM133.802 59.6882C131.976 57.2931 129.738 55.2415 127.194 53.629L126.659 54.4736C129.103 56.0227 131.252 57.9936 133.007 60.2947L133.802 59.6882ZM126.927 54.0513C126.63 53.6487 126.63 53.6488 126.63 53.6489C126.63 53.649 126.63 53.6491 126.629 53.6493C126.629 53.6496 126.628 53.6501 126.627 53.6507C126.626 53.652 126.623 53.6538 126.62 53.6561C126.614 53.6608 126.604 53.6677 126.592 53.6768C126.568 53.6949 126.532 53.7218 126.485 53.757C126.391 53.8274 126.254 53.9312 126.079 54.0657C125.728 54.3345 125.226 54.726 124.616 55.2179C123.396 56.2014 121.744 57.588 120.017 59.2004C118.29 60.8117 116.482 62.6545 114.953 64.5504C113.43 66.4402 112.159 68.4123 111.54 70.2817L112.489 70.5961C113.053 68.8933 114.238 67.0307 115.732 65.1781C117.221 63.3314 118.993 61.5239 120.699 59.9314C122.404 58.3399 124.037 56.9692 125.243 55.9964C125.846 55.5101 126.342 55.1236 126.687 54.8591C126.86 54.7269 126.994 54.6251 127.085 54.5566C127.131 54.5224 127.166 54.4965 127.189 54.4792C127.201 54.4706 127.209 54.4641 127.215 54.4599C127.218 54.4578 127.22 54.4562 127.221 54.4552C127.222 54.4547 127.223 54.4543 127.223 54.4541C127.223 54.454 127.223 54.4539 127.223 54.4538C127.223 54.4538 127.223 54.4538 126.927 54.0513Z" fill="#8C9199" mask="url(#path-28-outside-5_1625_4204)"/>
<mask id="path-30-outside-6_1625_4204" maskUnits="userSpaceOnUse" x="83.7637" y="48.87" width="31" height="54" fill="black">
<rect fill="white" x="83.7637" y="48.87" width="31" height="54"/>
<path d="M95.8242 75.9387C100.474 81.411 102.955 89.1086 105.961 97.5718C103.533 99.4471 100.765 100.834 97.8093 101.655L85.6178 80.1774C84.9767 79.029 84.6865 77.7185 84.7812 76.4066C85.2835 69.1589 86.4603 61.9738 88.2968 54.9445C90.9766 53.7818 93.9959 51.8849 95.5974 49.87C98.0928 50.6073 103.749 50.7491 108.214 59.8645C109.564 62.6602 111.325 65.2381 113.438 67.5128"/>
</mask>
<path d="M96.2053 75.615C96.0264 75.4045 95.7109 75.3789 95.5005 75.5577C95.29 75.7365 95.2644 76.0521 95.4432 76.2625L96.2053 75.615ZM105.961 97.5718L106.266 97.9675C106.437 97.8353 106.504 97.6082 106.432 97.4045L105.961 97.5718ZM97.8093 101.655L97.3744 101.901C97.4877 102.101 97.7221 102.198 97.9431 102.136L97.8093 101.655ZM85.6178 80.1774L85.1812 80.4211L85.1829 80.4243L85.6178 80.1774ZM84.7812 76.4066L85.2799 76.4427L85.28 76.4412L84.7812 76.4066ZM88.2968 54.9445L88.0978 54.4858C87.9569 54.5469 87.8519 54.6695 87.8131 54.8181L88.2968 54.9445ZM95.5974 49.87L95.7391 49.3905C95.5436 49.3328 95.3327 49.3994 95.206 49.5589L95.5974 49.87ZM108.214 59.8645L108.664 59.6471L108.663 59.6446L108.214 59.8645ZM113.072 67.8531C113.26 68.0554 113.576 68.0671 113.778 67.8792C113.981 67.6913 113.992 67.3749 113.804 67.1726L113.072 67.8531ZM95.4432 76.2625C100.019 81.6475 102.47 89.2352 105.489 97.7391L106.432 97.4045C103.441 88.9819 100.929 81.1744 96.2053 75.615L95.4432 76.2625ZM105.655 97.1761C103.278 99.0119 100.569 100.369 97.6755 101.173L97.9431 102.136C100.961 101.298 103.788 99.8823 106.266 97.9675L105.655 97.1761ZM98.2441 101.408L86.0526 79.9306L85.1829 80.4243L97.3744 101.901L98.2441 101.408ZM86.0544 79.9338C85.461 78.8706 85.1922 77.6574 85.2799 76.4427L84.2825 76.3706C84.1807 77.7796 84.4925 79.1873 85.1812 80.4211L86.0544 79.9338ZM85.28 76.4412C85.7801 69.2245 86.9519 62.0701 88.7806 55.0709L87.8131 54.8181C85.9687 61.8775 84.7868 69.0933 84.2824 76.3721L85.28 76.4412ZM88.4958 55.4032C91.2084 54.2263 94.3137 52.2887 95.9888 50.1811L95.206 49.5589C93.6782 51.4811 90.7448 53.3374 88.0978 54.4858L88.4958 55.4032ZM95.4557 50.3495C96.8019 50.7472 98.7034 50.9306 100.924 52.1627C103.108 53.3741 105.572 55.6068 107.765 60.0845L108.663 59.6446C106.391 55.0068 103.794 52.6109 101.41 51.2882C99.0625 49.9863 96.8884 49.7301 95.7391 49.3905L95.4557 50.3495ZM107.764 60.0819C109.136 62.9226 110.925 65.5419 113.072 67.8531L113.804 67.1726C111.726 64.9344 109.993 62.3978 108.664 59.6471L107.764 60.0819Z" fill="#8C9199" mask="url(#path-30-outside-6_1625_4204)"/>
<mask id="path-32-outside-7_1625_4204" maskUnits="userSpaceOnUse" x="93.8325" y="54.0863" width="9" height="25" fill="black">
<rect fill="white" x="93.8325" y="54.0863" width="9" height="25"/>
<path d="M94.8325 77.9521C95.6116 76.1373 97.4877 72.8508 99.0861 69.5598C104.416 58.5802 101.325 56.2206 100.429 55.0863"/>
</mask>
<path d="M94.3731 77.7549C94.2641 78.0087 94.3815 78.3027 94.6353 78.4116C94.889 78.5205 95.183 78.4031 95.292 78.1494L94.3731 77.7549ZM99.0861 69.5598L99.5359 69.7783L99.536 69.7782L99.0861 69.5598ZM100.822 54.7765C100.651 54.5597 100.336 54.5228 100.12 54.6939C99.9028 54.865 99.8658 55.1794 100.037 55.3961L100.822 54.7765ZM95.292 78.1494C95.6721 77.2638 96.3253 76.008 97.0948 74.5419C97.8598 73.0843 98.7325 71.4323 99.5359 69.7783L98.6364 69.3414C97.8413 70.9783 96.9767 72.615 96.2093 74.0772C95.4464 75.5307 94.772 76.8256 94.3731 77.7549L95.292 78.1494ZM99.536 69.7782C102.217 64.2541 102.822 60.8189 102.59 58.5794C102.472 57.4515 102.144 56.637 101.775 56.0245C101.422 55.4377 101.002 55.005 100.822 54.7765L100.037 55.3961C100.304 55.7348 100.607 56.0223 100.918 56.5402C101.215 57.0322 101.494 57.7066 101.595 58.6827C101.799 60.6515 101.285 63.8859 98.6363 69.3415L99.536 69.7782Z" fill="#8C9199" mask="url(#path-32-outside-7_1625_4204)"/>
<mask id="path-34-outside-8_1625_4204" maskUnits="userSpaceOnUse" x="77.9956" y="46.3746" width="5" height="6" fill="black">
<rect fill="white" x="77.9956" y="46.3746" width="5" height="6"/>
<path d="M78.9956 48.2948C79.4322 48.0098 79.8545 47.7028 80.2597 47.3746L82.4851 51.2872"/>
</mask>
<path d="M78.7223 47.876C78.4911 48.027 78.426 48.3368 78.5769 48.568C78.7278 48.7993 79.0376 48.8644 79.2689 48.7135L78.7223 47.876ZM80.2597 47.3746L80.6944 47.1274C80.6218 46.9998 80.4967 46.9105 80.3525 46.8833C80.2082 46.8561 80.0592 46.8937 79.9451 46.9861L80.2597 47.3746ZM82.0504 51.5344C82.187 51.7745 82.4922 51.8584 82.7323 51.7218C82.9723 51.5853 83.0562 51.2801 82.9197 51.04L82.0504 51.5344ZM79.2689 48.7135C79.7195 48.4194 80.1557 48.1023 80.5744 47.7632L79.9451 46.9861C79.5534 47.3033 79.1448 47.6003 78.7223 47.876L79.2689 48.7135ZM79.8251 47.6218L82.0504 51.5344L82.9197 51.04L80.6944 47.1274L79.8251 47.6218Z" fill="#8C9199" mask="url(#path-34-outside-8_1625_4204)"/>
<mask id="path-36-outside-9_1625_4204" maskUnits="userSpaceOnUse" x="51.7866" y="35.8315" width="38" height="20" fill="black">
<rect fill="white" x="51.7866" y="35.8315" width="38" height="20"/>
<path d="M88.3111 54.9445C85.347 53.711 81.3284 50.5327 78.9957 48.2947C76.5263 49.9831 73.9615 51.5279 71.3145 52.9214C67.9833 54.5087 66.0863 53.4438 62.5961 50.9506C58.5589 48.0686 52.7866 43.8911 52.7866 43.8911C52.9816 42.4154 53.5226 41.0067 54.3656 39.7798C55.2086 38.553 56.3296 37.5428 57.6372 36.8315C64.7766 41.6195 69.0302 44.5254 69.0302 44.5254"/>
</mask>
<path d="M88.119 55.4061C88.3739 55.5122 88.6666 55.3916 88.7727 55.1366C88.8788 54.8817 88.7582 54.589 88.5032 54.4829L88.119 55.4061ZM78.9957 48.2947L79.3418 47.9339C79.171 47.7701 78.9088 47.7484 78.7135 47.8819L78.9957 48.2947ZM71.3145 52.9214L71.5296 53.3728C71.5356 53.37 71.5415 53.367 71.5474 53.3639L71.3145 52.9214ZM62.5961 50.9506L62.8867 50.5437L62.8866 50.5436L62.5961 50.9506ZM52.7866 43.8911L52.2909 43.8256C52.2669 44.0077 52.3446 44.1884 52.4935 44.2961L52.7866 43.8911ZM57.6372 36.8315L57.9157 36.4163C57.7612 36.3126 57.5618 36.3034 57.3983 36.3923L57.6372 36.8315ZM68.7482 44.9382C68.9762 45.094 69.2873 45.0354 69.4431 44.8074C69.5989 44.5794 69.5403 44.2683 69.3123 44.1125L68.7482 44.9382ZM88.5032 54.4829C85.6259 53.2855 81.6612 50.159 79.3418 47.9339L78.6495 48.6555C80.9957 50.9063 85.0681 54.1365 88.119 55.4061L88.5032 54.4829ZM78.7135 47.8819C76.26 49.5595 73.7116 51.0944 71.0816 52.479L71.5474 53.3639C74.2114 51.9614 76.7927 50.4067 79.2779 48.7074L78.7135 47.8819ZM71.0994 52.4701C69.519 53.2231 68.3381 53.3246 67.1524 52.9855C65.9217 52.6335 64.6428 51.7982 62.8867 50.5437L62.3054 51.3574C64.0395 52.5962 65.4543 53.54 66.8774 53.9469C68.3455 54.3668 69.7788 54.207 71.5296 53.3728L71.0994 52.4701ZM62.8866 50.5436C60.869 49.1034 58.4174 47.339 56.4699 45.9345C55.4962 45.2323 54.6486 44.6202 54.0445 44.1836C53.7424 43.9653 53.5012 43.7909 53.3356 43.6711C53.2527 43.6111 53.1888 43.5649 53.1455 43.5336C53.1239 43.518 53.1075 43.5061 53.0964 43.4981C53.0909 43.4941 53.0867 43.4911 53.084 43.489C53.0826 43.488 53.0815 43.4873 53.0808 43.4868C53.0805 43.4865 53.0802 43.4863 53.08 43.4862C53.0799 43.4861 53.0799 43.4861 53.0798 43.4861C53.0798 43.486 53.0798 43.486 52.7866 43.8911C52.4935 44.2961 52.4935 44.2961 52.4935 44.2962C52.4936 44.2962 52.4937 44.2962 52.4937 44.2963C52.4939 44.2964 52.4942 44.2966 52.4945 44.2969C52.4952 44.2974 52.4963 44.2982 52.4977 44.2992C52.5005 44.3012 52.5047 44.3042 52.5102 44.3082C52.5212 44.3162 52.5377 44.3281 52.5593 44.3438C52.6026 44.3751 52.6666 44.4214 52.7495 44.4813C52.9153 44.6012 53.1566 44.7757 53.4587 44.9941C54.0631 45.4308 54.9109 46.0432 55.8849 46.7456C57.8328 48.1504 60.286 49.9158 62.3056 51.3575L62.8866 50.5436ZM53.2823 43.9566C53.467 42.559 53.9794 41.2249 54.7777 40.063L53.9535 39.4967C53.0659 40.7885 52.4962 42.2717 52.2909 43.8256L53.2823 43.9566ZM54.7777 40.063C55.576 38.9011 56.6377 37.9444 57.8761 37.2708L57.3983 36.3923C56.0215 37.1412 54.8411 38.2049 53.9535 39.4967L54.7777 40.063ZM57.3588 37.2468C60.9277 39.6403 63.7753 41.5633 65.7306 42.8879C66.7082 43.5502 67.4627 44.0628 67.9728 44.4099C68.2278 44.5834 68.4217 44.7156 68.5519 44.8043C68.6169 44.8486 68.666 44.8822 68.6989 44.9046C68.7153 44.9158 68.7276 44.9242 68.7359 44.9298C68.74 44.9326 68.7431 44.9347 68.7451 44.9361C68.7462 44.9368 68.7469 44.9374 68.7474 44.9377C68.7477 44.9379 68.7479 44.938 68.748 44.9381C68.7481 44.9382 68.7481 44.9382 68.7482 44.9382C68.7482 44.9382 68.7482 44.9382 69.0302 44.5254C69.3123 44.1125 69.3123 44.1125 69.3122 44.1125C69.3122 44.1125 69.3122 44.1124 69.3121 44.1124C69.312 44.1123 69.3118 44.1122 69.3115 44.112C69.311 44.1116 69.3102 44.1111 69.3091 44.1104C69.307 44.1089 69.3039 44.1068 69.2998 44.104C69.2915 44.0983 69.2791 44.0898 69.2626 44.0786C69.2296 44.0561 69.1804 44.0225 69.1152 43.9781C68.9848 43.8892 68.7906 43.7569 68.5353 43.5831C68.0247 43.2357 67.2696 42.7227 66.2914 42.06C64.335 40.7346 61.4861 38.8107 57.9157 36.4163L57.3588 37.2468Z" fill="#8C9199" mask="url(#path-36-outside-9_1625_4204)"/>
<path d="M56.9353 22.3627L56.9351 22.3625C56.6721 22.104 56.413 21.8565 56.1673 21.6218C56.0295 21.4901 55.8958 21.3624 55.768 21.2391C55.4173 20.9005 55.1095 20.5934 54.904 20.3439L54.8962 20.3344L54.8964 20.3342C54.7242 20.1028 54.649 19.8133 54.6868 19.5273C54.7247 19.2413 54.8725 18.9814 55.099 18.8027L56.9353 22.3627ZM56.9353 22.3627C57.4676 22.8847 58.1205 22.8613 58.5161 22.4896C58.9106 22.119 58.974 21.4707 58.4871 20.9259M56.9353 22.3627L57.1104 22.1842C58.0059 23.0625 59.1103 21.9984 58.3006 21.0924M58.3006 21.0924L58.4871 20.9259M58.3006 21.0924L58.487 20.9258C58.4871 20.9259 58.4871 20.9259 58.4871 20.9259M58.3006 21.0924L58.4871 20.9259M58.4871 20.9259C57.8774 20.2429 57.1246 19.4646 56.6294 18.9544C56.4448 18.7374 56.1835 18.5997 55.8998 18.5704L58.4871 20.9259ZM55.8997 18.5704C55.6128 18.5406 55.3256 18.6238 55.0991 18.8026L55.8997 18.5704Z" stroke="#8C9199" stroke-width="0.5" stroke-linecap="round" stroke-linejoin="round"/>
<mask id="path-39-outside-10_1625_4204" maskUnits="userSpaceOnUse" x="56.7412" y="15.4952" width="4" height="4" fill="black">
<rect fill="white" x="56.7412" y="15.4952" width="4" height="4"/>
<path d="M60.0752 17.7753C59.7767 17.4208 59.5528 17.1626 59.267 16.8253C59.131 16.6499 58.9319 16.5344 58.7121 16.5035C58.4922 16.4726 58.269 16.5288 58.0899 16.6599C57.9108 16.7911 57.7899 16.987 57.753 17.2058C57.7162 17.4248 57.7662 17.6494 57.8924 17.832C58.204 18.2375 58.5415 18.6224 58.9028 18.9842"/>
</mask>
<path d="M59.6927 18.0974C59.8706 18.3086 60.186 18.3356 60.3972 18.1577C60.6084 17.9799 60.6355 17.6645 60.4576 17.4532L59.6927 18.0974ZM59.267 16.8253L58.8718 17.1316C58.8762 17.1374 58.8808 17.143 58.8855 17.1486L59.267 16.8253ZM58.0899 16.6599L57.7946 16.2564L57.7944 16.2565L58.0899 16.6599ZM57.753 17.2058L57.26 17.1228L57.26 17.1228L57.753 17.2058ZM57.8924 17.832L57.481 18.1163C57.4858 18.1232 57.4908 18.13 57.4959 18.1367L57.8924 17.832ZM58.549 19.3375C58.7441 19.5329 59.0606 19.5332 59.2561 19.3381C59.4515 19.143 59.4517 18.8264 59.2566 18.631L58.549 19.3375ZM60.4576 17.4532C60.1607 17.1006 59.9279 16.8319 59.6484 16.5021L58.8855 17.1486C59.1777 17.4934 59.3926 17.741 59.6927 18.0974L60.4576 17.4532ZM59.6622 16.519C59.4464 16.2406 59.1304 16.0574 58.7816 16.0084L58.6425 16.9987C58.7334 17.0114 58.8156 17.0592 58.8718 17.1316L59.6622 16.519ZM58.7816 16.0084C58.4328 15.9594 58.0787 16.0484 57.7946 16.2564L58.3853 17.0633C58.4593 17.0091 58.5516 16.9859 58.6425 16.9987L58.7816 16.0084ZM57.7944 16.2565C57.5103 16.4646 57.3185 16.7754 57.26 17.1228L58.2461 17.2889C58.2613 17.1985 58.3113 17.1175 58.3854 17.0632L57.7944 16.2565ZM57.26 17.1228C57.2015 17.4702 57.2808 17.8266 57.481 18.1163L58.3037 17.5478C58.2515 17.4723 58.2309 17.3794 58.2461 17.2888L57.26 17.1228ZM57.4959 18.1367C57.8207 18.5593 58.1725 18.9604 58.549 19.3375L59.2566 18.631C58.9106 18.2843 58.5873 17.9157 58.2888 17.5273L57.4959 18.1367Z" fill="#8C9199" mask="url(#path-39-outside-10_1625_4204)"/>
<mask id="path-41-outside-11_1625_4204" maskUnits="userSpaceOnUse" x="54.9546" y="16.2506" width="6" height="6" fill="black">
<rect fill="white" x="54.9546" y="16.2506" width="6" height="6"/>
<path d="M58.8676 19.023C58.5557 18.6827 57.8176 17.932 57.5072 17.5909C57.368 17.4086 57.1621 17.2889 56.9348 17.2583C56.7074 17.2277 56.4773 17.2887 56.2949 17.4279C56.1125 17.567 55.9929 17.7729 55.9623 18.0003C55.9317 18.2276 55.9928 18.4578 56.1319 18.6402C56.5117 19.1245 57.4408 20.0245 58.2579 20.8655C58.943 21.5707 59.7042 20.8371 59.6333 20.1707"/>
</mask>
<path d="M58.499 19.3609C58.6856 19.5644 59.0019 19.5782 59.2055 19.3916C59.409 19.205 59.4228 18.8887 59.2362 18.6851L58.499 19.3609ZM57.5072 17.5909L57.1097 17.8943C57.1185 17.9057 57.1277 17.9168 57.1375 17.9275L57.5072 17.5909ZM56.9348 17.2583L57.0015 16.7628L57.0015 16.7628L56.9348 17.2583ZM56.2949 17.4279L56.5981 17.8255L56.5982 17.8254L56.2949 17.4279ZM55.9623 18.0003L56.4578 18.067L56.4578 18.0669L55.9623 18.0003ZM56.1319 18.6402L55.7343 18.9434L55.7384 18.9487L56.1319 18.6402ZM58.2579 20.8655L58.6166 20.5171L58.6165 20.5171L58.2579 20.8655ZM60.1305 20.1178C60.1013 19.8432 59.855 19.6443 59.5804 19.6735C59.3058 19.7027 59.1069 19.949 59.1361 20.2236L60.1305 20.1178ZM59.2362 18.6851C59.0751 18.5094 58.8073 18.2312 58.5473 17.9607C58.2828 17.6856 58.0265 17.4186 57.877 17.2544L57.1375 17.9275C57.2984 18.1043 57.5663 18.3832 57.8264 18.6538C58.091 18.929 58.3482 19.1963 58.499 19.3609L59.2362 18.6851ZM57.9047 17.2876C57.6851 16.9999 57.3602 16.8111 57.0015 16.7628L56.8681 17.7539C56.9641 17.7668 57.051 17.8173 57.1097 17.8943L57.9047 17.2876ZM57.0015 16.7628C56.6427 16.7145 56.2795 16.8107 55.9916 17.0304L56.5982 17.8254C56.6752 17.7667 56.7722 17.741 56.8682 17.7539L57.0015 16.7628ZM55.9917 17.0303C55.7038 17.2499 55.5151 17.5748 55.4668 17.9336L56.4578 18.0669C56.4708 17.9709 56.5213 17.8841 56.5981 17.8255L55.9917 17.0303ZM55.4668 17.9336C55.4185 18.2924 55.5149 18.6557 55.7343 18.9434L56.5294 18.337C56.4707 18.2599 56.445 18.1627 56.4578 18.067L55.4668 17.9336ZM55.7384 18.9487C56.14 19.4608 57.1097 20.4012 57.8993 21.2139L58.6165 20.5171C57.7719 19.6477 56.8834 18.7882 56.5253 18.3316L55.7384 18.9487ZM57.8993 21.2139C58.1341 21.4556 58.4108 21.6084 58.7122 21.6446C59.0131 21.6807 59.2882 21.5944 59.507 21.4481C59.9243 21.1691 60.1861 20.6408 60.1305 20.1178L59.1361 20.2236C59.1513 20.367 59.068 20.5387 58.9512 20.6168C58.9029 20.6491 58.8637 20.6556 58.8314 20.6517C58.7996 20.6479 58.7243 20.628 58.6166 20.5171L57.8993 21.2139Z" fill="#8C9199" mask="url(#path-41-outside-11_1625_4204)"/>
<path d="M55.0268 22.1864C54.9612 22.1141 54.8596 22.0866 54.7665 22.1159C54.6734 22.1452 54.6059 22.226 54.5936 22.3228L54.8416 22.3544C54.5936 22.3228 54.5935 22.3232 54.5935 22.3235L54.5934 22.3242L54.5932 22.3257L54.5928 22.3293L54.5919 22.3391C54.5912 22.3467 54.5905 22.3564 54.59 22.3683C54.5888 22.3921 54.5883 22.4244 54.5897 22.4649C54.5927 22.546 54.6036 22.6594 54.6339 22.8026C54.6945 23.0894 54.832 23.4924 55.1343 23.9914C55.738 24.9882 56.9967 26.3645 59.6091 27.9695C59.7151 28.0346 59.8529 28.0119 59.9324 27.9161C60.0118 27.8203 60.0088 27.6807 59.9252 27.5885L55.0268 22.1864Z" stroke="#8C9199" stroke-width="0.5" stroke-linecap="round" stroke-linejoin="round"/>
<mask id="path-44-outside-12_1625_4204" maskUnits="userSpaceOnUse" x="49.7471" y="13.7898" width="11" height="6" fill="black">
<rect fill="white" x="49.7471" y="13.7898" width="11" height="6"/>
<path d="M50.7471 18.7111C52.15 16.1873 55.4156 13.6948 58.3163 15.2948C58.7735 15.554 59.1664 15.9128 59.4659 16.3448C59.7654 16.7766 59.9636 17.2704 60.0461 17.7895"/>
</mask>
<path d="M50.3101 18.4682C50.1759 18.7096 50.2628 19.014 50.5041 19.1481C50.7455 19.2823 51.0499 19.1954 51.1841 18.9541L50.3101 18.4682ZM58.3163 15.2948L58.5629 14.8598L58.5578 14.857L58.3163 15.2948ZM59.4659 16.3448L59.055 16.6297L59.055 16.6297L59.4659 16.3448ZM59.5523 17.868C59.5956 18.1407 59.8518 18.3266 60.1245 18.2833C60.3973 18.24 60.5832 17.9838 60.5399 17.7111L59.5523 17.868ZM51.1841 18.9541C51.8456 17.764 52.9484 16.5832 54.2094 15.8955C55.4617 15.2126 56.8163 15.0384 58.0748 15.7326L58.5578 14.857C56.9156 13.9512 55.187 14.2233 53.7306 15.0176C52.2829 15.8071 51.0515 17.1344 50.3101 18.4682L51.1841 18.9541ZM58.0697 15.7298C58.4616 15.9519 58.7983 16.2595 59.055 16.6297L59.8768 16.0599C59.5345 15.5662 59.0854 15.156 58.5628 14.8598L58.0697 15.7298ZM59.055 16.6297C59.3117 16.9998 59.4816 17.423 59.5523 17.868L60.5399 17.7111C60.4457 17.1178 60.2191 16.5535 59.8768 16.0598L59.055 16.6297Z" fill="#8C9199" mask="url(#path-44-outside-12_1625_4204)"/>
<mask id="path-46-outside-13_1625_4204" maskUnits="userSpaceOnUse" x="24.8662" y="23.0125" width="14" height="10" fill="black">
<rect fill="white" x="24.8662" y="23.0125" width="14" height="10"/>
<path d="M37.4764 31.5257L25.8662 25.5863L26.5326 24.0125L36.6256 27.5422"/>
</mask>
<path d="M37.2487 31.9708C37.4945 32.0966 37.7957 31.9993 37.9215 31.7534C38.0473 31.5076 37.9499 31.2063 37.7041 31.0806L37.2487 31.9708ZM25.8662 25.5863L25.4058 25.3913C25.3036 25.6327 25.4051 25.912 25.6385 26.0314L25.8662 25.5863ZM26.5326 24.0125L26.6977 23.5405C26.4487 23.4534 26.175 23.5747 26.0722 23.8175L26.5326 24.0125ZM36.4606 28.0142C36.7212 28.1053 37.0065 27.9679 37.0976 27.7073C37.1888 27.4466 37.0514 27.1614 36.7907 27.0702L36.4606 28.0142ZM37.7041 31.0806L26.0939 25.1412L25.6385 26.0314L37.2487 31.9708L37.7041 31.0806ZM26.3266 25.7812L26.993 24.2074L26.0722 23.8175L25.4058 25.3913L26.3266 25.7812ZM26.3676 24.4844L36.4606 28.0142L36.7907 27.0702L26.6977 23.5405L26.3676 24.4844Z" fill="#8C9199" mask="url(#path-46-outside-13_1625_4204)"/>
<path d="M41.2059 34.2962C41.0759 34.3427 41.0082 34.4858 41.0546 34.6158C41.1011 34.7458 41.2441 34.8136 41.3741 34.7671L48.7046 32.1485C48.8346 32.1021 48.9023 31.959 48.8559 31.829C48.8094 31.699 48.6664 31.6312 48.5364 31.6777L41.2059 34.2962Z" stroke="#8C9199" stroke-width="0.5" stroke-linecap="round" stroke-linejoin="round"/>
<mask id="path-49-outside-14_1625_4204" maskUnits="userSpaceOnUse" x="34.0103" y="14.0396" width="23" height="23" fill="black">
<rect fill="white" x="34.0103" y="14.0396" width="23" height="23"/>
<path d="M49.6114 31.5541L56.3023 29.1728L49.0442 15.0396L35.0103 20.0573L38.3557 35.5801L39.4475 35.1973"/>
</mask>
<path d="M49.4437 31.083C49.1836 31.1756 49.0477 31.4616 49.1403 31.7217C49.2329 31.9819 49.5189 32.1177 49.779 32.0251L49.4437 31.083ZM56.3023 29.1728L56.4699 29.6438C56.6057 29.5955 56.714 29.4909 56.7671 29.3569C56.8202 29.223 56.8129 29.0726 56.747 28.9444L56.3023 29.1728ZM49.0442 15.0396L49.489 14.8111C49.3744 14.588 49.1121 14.4843 48.8759 14.5687L49.0442 15.0396ZM35.0103 20.0573L34.8419 19.5865C34.6057 19.671 34.4686 19.9174 34.5215 20.1627L35.0103 20.0573ZM38.3557 35.5801L37.8669 35.6854C37.8971 35.8257 37.9862 35.9462 38.1113 36.0163C38.2365 36.0864 38.3858 36.0994 38.5211 36.0519L38.3557 35.5801ZM39.6129 35.6691C39.8735 35.5777 40.0107 35.2924 39.9193 35.0318C39.8279 34.7712 39.5426 34.634 39.282 34.7254L39.6129 35.6691ZM49.779 32.0251L56.4699 29.6438L56.1346 28.7017L49.4437 31.083L49.779 32.0251ZM56.747 28.9444L49.489 14.8111L48.5995 15.268L55.8575 29.4012L56.747 28.9444ZM48.8759 14.5687L34.8419 19.5865L35.1786 20.5281L49.2126 15.5104L48.8759 14.5687ZM34.5215 20.1627L37.8669 35.6854L38.8445 35.4747L35.499 19.952L34.5215 20.1627ZM38.5211 36.0519L39.6129 35.6691L39.282 34.7254L38.1902 35.1082L38.5211 36.0519Z" fill="#8C9199" mask="url(#path-49-outside-14_1625_4204)"/>
<mask id="path-51-outside-15_1625_4204" maskUnits="userSpaceOnUse" x="3.10645" y="30.1429" width="15" height="18" fill="black">
<rect fill="white" x="3.10645" y="30.1429" width="15" height="18"/>
<path d="M4.10645 47.3321L6.54444 42.2151L14.4263 39.592L17.0494 31.1429"/>
</mask>
<path d="M3.65506 47.117C3.53628 47.3663 3.64209 47.6647 3.89138 47.7835C4.14068 47.9023 4.43906 47.7964 4.55783 47.5472L3.65506 47.117ZM6.54444 42.2151L6.38656 41.7406C6.25753 41.7836 6.15155 41.8772 6.09306 42L6.54444 42.2151ZM14.4263 39.592L14.5842 40.0664C14.7371 40.0155 14.8561 39.8941 14.9039 39.7402L14.4263 39.592ZM17.5269 31.2912C17.6088 31.0275 17.4614 30.7473 17.1977 30.6654C16.9339 30.5836 16.6538 30.731 16.5719 30.9947L17.5269 31.2912ZM4.55783 47.5472L6.99583 42.4301L6.09306 42L3.65506 47.117L4.55783 47.5472ZM6.70233 42.6895L14.5842 40.0664L14.2685 39.1176L6.38656 41.7406L6.70233 42.6895ZM14.9039 39.7402L17.5269 31.2912L16.5719 30.9947L13.9488 39.4437L14.9039 39.7402Z" fill="#8C9199" mask="url(#path-51-outside-15_1625_4204)"/>
<mask id="path-53-outside-16_1625_4204" maskUnits="userSpaceOnUse" x="13.1001" y="30.1011" width="6" height="5" fill="black">
<rect fill="white" x="13.1001" y="30.1011" width="6" height="5"/>
<path d="M14.1001 32.8727L17.0635 31.1011L18.5515 34.2055"/>
</mask>
<path d="M13.8435 32.4435C13.6065 32.5852 13.5292 32.8922 13.6709 33.1292C13.8126 33.3663 14.1196 33.4435 14.3567 33.3018L13.8435 32.4435ZM17.0635 31.1011L17.5143 30.885C17.4536 30.7582 17.3422 30.6628 17.2076 30.6223C17.073 30.5818 16.9276 30.5998 16.8069 30.6719L17.0635 31.1011ZM18.1006 34.4216C18.22 34.6706 18.5186 34.7757 18.7676 34.6564C19.0166 34.537 19.1217 34.2384 19.0024 33.9894L18.1006 34.4216ZM14.3567 33.3018L17.32 31.5302L16.8069 30.6719L13.8435 32.4435L14.3567 33.3018ZM16.6126 31.3172L18.1006 34.4216L19.0024 33.9894L17.5143 30.885L16.6126 31.3172Z" fill="#8C9199" mask="url(#path-53-outside-16_1625_4204)"/>
<mask id="path-55-outside-17_1625_4204" maskUnits="userSpaceOnUse" x="98.4673" y="97.5069" width="10" height="22" fill="black">
<rect fill="white" x="98.4673" y="97.5069" width="10" height="22"/>
<path d="M99.4673 101.158L101.169 104.107C102.629 111.776 104.032 114.639 106.201 118.041C107.477 114.809 108.172 105.864 107.675 103.029C106.578 101.575 105.557 100.067 104.616 98.5069"/>
</mask>
<path d="M99.9004 100.908C99.7623 100.669 99.4566 100.587 99.2174 100.725C98.9782 100.863 98.8962 101.169 99.0342 101.408L99.9004 100.908ZM101.169 104.107L101.66 104.013C101.649 103.958 101.63 103.905 101.602 103.857L101.169 104.107ZM106.201 118.041L105.78 118.31C105.881 118.469 106.062 118.557 106.249 118.539C106.436 118.521 106.598 118.4 106.667 118.225L106.201 118.041ZM107.675 103.029L108.168 102.943C108.154 102.865 108.122 102.791 108.074 102.728L107.675 103.029ZM105.044 98.2486C104.901 98.0122 104.594 97.9361 104.357 98.0788C104.121 98.2214 104.045 98.5288 104.188 98.7652L105.044 98.2486ZM99.0342 101.408L100.736 104.357L101.602 103.857L99.9004 100.908L99.0342 101.408ZM100.678 104.2C102.148 111.924 103.572 114.848 105.78 118.31L106.623 117.773C104.492 114.431 103.11 111.628 101.66 104.013L100.678 104.2ZM106.667 118.225C107.333 116.536 107.83 113.427 108.101 110.432C108.372 107.436 108.428 104.432 108.168 102.943L107.183 103.115C107.418 104.461 107.376 107.348 107.105 110.341C106.834 113.335 106.345 116.315 105.736 117.858L106.667 118.225ZM108.074 102.728C106.987 101.288 105.976 99.7934 105.044 98.2486L104.188 98.7652C105.138 100.34 106.168 101.863 107.276 103.33L108.074 102.728Z" fill="#8C9199" mask="url(#path-55-outside-17_1625_4204)"/>
<path d="M105.556 100.059C105.671 99.9933 105.716 99.8492 105.657 99.7303C105.598 99.6114 105.456 99.5592 105.335 99.6113C103.526 100.384 101.81 101.356 100.218 102.51C100.11 102.587 100.082 102.736 100.154 102.847C100.226 102.959 100.372 102.995 100.487 102.93L105.556 100.059Z" stroke="#8C9199" stroke-width="0.5" stroke-linecap="round" stroke-linejoin="round"/>
<path d="M131.316 57.5708C131.412 57.4718 131.41 57.3135 131.311 57.2173C131.212 57.1212 131.054 57.1235 130.957 57.2226L123.033 65.3881C122.937 65.4872 122.939 65.6454 123.038 65.7416C123.137 65.8378 123.296 65.8354 123.392 65.7363L131.316 57.5708Z" stroke="#8C9199" stroke-width="0.5" stroke-linecap="round" stroke-linejoin="round"/>
<path d="M129.05 53.8647C128.951 53.7763 128.8 53.7808 128.706 53.875C128.612 53.9691 128.609 54.1201 128.698 54.2187C130.015 55.6798 131.487 56.9931 133.09 58.1353C133.198 58.2124 133.347 58.1915 133.43 58.0878C133.513 57.984 133.5 57.8336 133.401 57.7452L129.05 53.8647Z" stroke="#8C9199" stroke-width="0.5" stroke-linecap="round" stroke-linejoin="round"/>
<mask id="path-60-outside-18_1625_4204" maskUnits="userSpaceOnUse" x="127.174" y="46.4661" width="20" height="13" fill="black">
<rect fill="white" x="127.174" y="46.4661" width="20" height="13"/>
<path d="M132.441 58.8146L134.312 56.7311C141.088 52.8752 143.357 50.6208 145.866 47.4738C142.378 47.3179 133.702 49.5439 131.179 50.9327C130.25 52.3092 129.247 53.6343 128.174 54.902"/>
</mask>
<path d="M132.069 58.4805C131.885 58.686 131.902 59.0021 132.107 59.1866C132.313 59.3711 132.629 59.3541 132.813 59.1487L132.069 58.4805ZM134.312 56.7311L134.065 56.2965C134.018 56.3231 133.976 56.357 133.94 56.397L134.312 56.7311ZM145.866 47.4738L146.257 47.7855C146.374 47.6385 146.399 47.4382 146.321 47.267C146.243 47.0958 146.076 46.9827 145.888 46.9743L145.866 47.4738ZM131.179 50.9327L130.938 50.4947C130.869 50.533 130.809 50.5872 130.765 50.653L131.179 50.9327ZM127.793 54.579C127.614 54.7897 127.641 55.1052 127.851 55.2836C128.062 55.4621 128.378 55.4358 128.556 55.2251L127.793 54.579ZM132.813 59.1487L134.684 57.0651L133.94 56.397L132.069 58.4805L132.813 59.1487ZM134.56 57.1656C141.383 53.2829 143.703 50.9889 146.257 47.7855L145.475 47.1621C143.011 50.2527 140.794 52.4675 134.065 56.2965L134.56 57.1656ZM145.888 46.9743C144.066 46.8929 140.964 47.4272 138.043 48.1382C135.121 48.849 132.263 49.7651 130.938 50.4947L131.421 51.3707C132.618 50.7115 135.359 49.8202 138.279 49.1098C141.198 48.3995 144.178 47.8988 145.843 47.9733L145.888 46.9743ZM130.765 50.653C129.846 52.0145 128.854 53.3251 127.793 54.579L128.556 55.2251C129.641 53.9434 130.655 52.6039 131.594 51.2124L130.765 50.653Z" fill="#8C9199" mask="url(#path-60-outside-18_1625_4204)"/>
<path d="M101.75 100.179C101.814 100.302 101.965 100.349 102.087 100.285C102.21 100.221 102.257 100.07 102.193 99.9477L95.6215 87.3764C95.5575 87.254 95.4064 87.2067 95.2841 87.2706C95.1617 87.3346 95.1144 87.4856 95.1783 87.608L101.75 100.179Z" stroke="#8C9199" stroke-width="0.5" stroke-linecap="round" stroke-linejoin="round"/>
<mask id="path-63-outside-19_1625_4204" maskUnits="userSpaceOnUse" x="38.3447" y="33.5302" width="16" height="10" fill="black">
<rect fill="white" x="38.3447" y="33.5302" width="16" height="10"/>
<path d="M52.9991 42.8367C51.118 41.1487 49.0873 39.6353 46.9321 38.3152C45.2074 37.3664 43.3813 36.6155 41.4882 36.0764C38.7114 35.2906 38.4972 34.4906 41.6442 34.5317C44.9875 34.8002 48.2784 35.5251 51.4253 36.6861"/>
</mask>
<path d="M52.6652 43.2088C52.8707 43.3932 53.1868 43.3761 53.3712 43.1706C53.5557 42.9651 53.5386 42.649 53.333 42.4645L52.6652 43.2088ZM46.9321 38.3152L47.1933 37.8888C47.1866 37.8847 47.1799 37.8808 47.1731 37.8771L46.9321 38.3152ZM41.4882 36.0764L41.6251 35.5955L41.6243 35.5953L41.4882 36.0764ZM41.6442 34.5317L41.6842 34.0333C41.673 34.0324 41.6619 34.0319 41.6507 34.0317L41.6442 34.5317ZM51.2522 37.1552C51.5113 37.2508 51.7988 37.1182 51.8944 36.8591C51.9899 36.6001 51.8574 36.3126 51.5983 36.217L51.2522 37.1552ZM53.333 42.4645C51.4294 40.7563 49.3743 39.2247 47.1933 37.8888L46.6709 38.7415C48.8003 40.0458 50.8067 41.541 52.6652 43.2088L53.333 42.4645ZM47.1731 37.8771C45.4155 36.9102 43.5544 36.1449 41.6251 35.5955L41.3513 36.5573C43.2082 37.0861 44.9994 37.8227 46.6911 38.7532L47.1731 37.8771ZM41.6243 35.5953C40.9444 35.4029 40.4458 35.2161 40.1263 35.0526C39.9646 34.9699 39.8707 34.9042 39.8242 34.8618C39.7637 34.8068 39.8413 34.8475 39.8446 34.9816C39.849 35.156 39.7303 35.2284 39.748 35.2171C39.7672 35.2049 39.8405 35.1698 40.0068 35.134C40.3311 35.0643 40.8637 35.0215 41.6376 35.0316L41.6507 34.0317C40.8512 34.0213 40.2305 34.0631 39.7966 34.1564C39.5838 34.2021 39.3768 34.2681 39.2115 34.3733C39.0446 34.4794 38.837 34.6854 38.8449 35.0064C38.8519 35.2869 39.0257 35.4872 39.1509 35.6012C39.29 35.7279 39.4711 35.8407 39.6709 35.9429C40.0741 36.1492 40.6436 36.357 41.352 36.5575L41.6243 35.5953ZM41.6041 35.0301C44.902 35.295 48.1481 36.01 51.2522 37.1552L51.5983 36.217C48.4087 35.0403 45.073 34.3055 41.6842 34.0333L41.6041 35.0301Z" fill="#8C9199" mask="url(#path-63-outside-19_1625_4204)"/>
<mask id="path-65-outside-20_1625_4204" maskUnits="userSpaceOnUse" x="47.4482" y="29.9526" width="10" height="8" fill="black">
<rect fill="white" x="47.4482" y="29.9526" width="10" height="8"/>
<path d="M49.7673 36.0905C51.3971 36.1614 49.1129 33.2279 48.789 32.3764C48.3472 31.2153 47.9144 29.9056 50.3912 32.2772C52.4453 34.0804 54.6077 35.7563 56.8664 37.2957"/>
</mask>
<path d="M49.7891 35.591C49.5132 35.579 49.2798 35.7929 49.2678 36.0688C49.2558 36.3447 49.4697 36.578 49.7456 36.59L49.7891 35.591ZM48.789 32.3764L49.2563 32.1987L49.2563 32.1986L48.789 32.3764ZM50.3912 32.2772L50.0454 32.6383C50.0506 32.6433 50.0559 32.6482 50.0613 32.6529L50.3912 32.2772ZM56.5848 37.7089C56.813 37.8644 57.1241 37.8055 57.2796 37.5773C57.4351 37.3491 57.3762 37.0381 57.148 36.8825L56.5848 37.7089ZM49.7456 36.59C50.0098 36.6015 50.2944 36.5581 50.5209 36.375C50.7609 36.181 50.8389 35.9102 50.8473 35.6778C50.8553 35.4542 50.8027 35.2238 50.7347 35.0156C50.6648 34.8019 50.5673 34.5784 50.4597 34.3591C50.2452 33.922 49.9691 33.4596 49.7374 33.0703C49.4907 32.6556 49.3177 32.3601 49.2563 32.1987L48.3217 32.5542C48.4222 32.8185 48.6563 33.209 48.878 33.5816C49.1148 33.9796 49.3686 34.4057 49.5619 34.7997C49.6582 34.9958 49.7341 35.1734 49.7842 35.3264C49.836 35.4851 49.8499 35.5872 49.8479 35.6419C49.8463 35.6879 49.8379 35.6413 49.8922 35.5974C49.9329 35.5645 49.9324 35.5972 49.7891 35.591L49.7456 36.59ZM49.2563 32.1986C49.145 31.906 49.045 31.6312 48.9889 31.4131C48.9606 31.3029 48.9499 31.2307 48.9484 31.1909C48.9461 31.1289 48.9665 31.2176 48.8804 31.3214C48.753 31.4748 48.5877 31.4519 48.5754 31.4493C48.5749 31.4492 48.6306 31.4645 48.7642 31.55C49.0222 31.7151 49.4308 32.0498 50.0454 32.6383L50.737 31.916C50.1132 31.3188 49.6471 30.9278 49.3034 30.7078C49.1362 30.6007 48.9594 30.5086 48.7832 30.4711C48.5953 30.4312 48.3113 30.4412 48.1109 30.6827C47.9517 30.8745 47.9446 31.1064 47.9491 31.2279C47.9544 31.3717 47.9847 31.5232 48.0204 31.662C48.0924 31.942 48.2121 32.2663 48.3217 32.5542L49.2563 32.1986ZM50.0613 32.6529C52.1308 34.4696 54.3093 36.158 56.5848 37.7089L57.148 36.8825C54.9062 35.3547 52.7599 33.6912 50.7211 31.9014L50.0613 32.6529Z" fill="#8C9199" mask="url(#path-65-outside-20_1625_4204)"/>
<mask id="path-67-outside-21_1625_4204" maskUnits="userSpaceOnUse" x="38.6538" y="35.9395" width="13" height="6" fill="black">
<rect fill="white" x="38.6538" y="35.9395" width="13" height="6"/>
<path d="M44.0254 36.9412C43.3023 36.9271 41.8001 37.0009 41.3606 37.0263C39.3629 37.1405 39.5308 37.6815 39.8434 37.7636C41.074 38.0867 43.1172 38.3606 44.2523 38.6845C46.0791 39.2024 49.6537 40.0882 50.929 41.1516"/>
</mask>
<path d="M44.0156 37.4411C44.2917 37.4466 44.5199 37.2271 44.5253 36.951C44.5308 36.675 44.3113 36.4468 44.0352 36.4413L44.0156 37.4411ZM41.3606 37.0263L41.3891 37.5255L41.3894 37.5255L41.3606 37.0263ZM39.8434 37.7636L39.9704 37.28L39.9704 37.28L39.8434 37.7636ZM44.2523 38.6845L44.1151 39.1653L44.1159 39.1655L44.2523 38.6845ZM50.6088 41.5356C50.8209 41.7124 51.1362 41.6839 51.313 41.4718C51.4899 41.2597 51.4613 40.9444 51.2492 40.7676L50.6088 41.5356ZM44.0352 36.4413C43.2897 36.4267 41.7683 36.5019 41.3318 36.5271L41.3894 37.5255C41.8319 37.4999 43.315 37.4274 44.0156 37.4411L44.0352 36.4413ZM41.332 36.5271C40.8128 36.5568 40.4133 36.6152 40.1103 36.6944C39.8188 36.7706 39.5662 36.8787 39.3917 37.044C39.2997 37.1312 39.2154 37.248 39.1761 37.3961C39.1353 37.5496 39.1526 37.7021 39.2108 37.8331C39.3187 38.0754 39.5393 38.2007 39.7165 38.2472L39.9704 37.28C39.9912 37.2855 40.0737 37.3123 40.1245 37.4266C40.1542 37.4935 40.1633 37.5745 40.1426 37.6526C40.1233 37.7253 40.0872 37.7627 40.0795 37.77C40.0736 37.7755 40.1341 37.7218 40.3633 37.6619C40.5808 37.605 40.9095 37.5529 41.3891 37.5255L41.332 36.5271ZM39.7165 38.2472C40.3539 38.4146 41.1942 38.5676 41.9927 38.7154C42.8068 38.8662 43.5753 39.0113 44.1151 39.1653L44.3895 38.2037C43.7942 38.0338 42.9736 37.88 42.1747 37.7321C41.3602 37.5813 40.5636 37.4358 39.9704 37.28L39.7165 38.2472ZM44.1159 39.1655C45.0441 39.4287 46.3732 39.7737 47.642 40.1887C48.9333 40.611 50.0552 41.074 50.6088 41.5356L51.2492 40.7676C50.5275 40.1658 49.2244 39.6541 47.9529 39.2382C46.6589 38.815 45.2873 38.4582 44.3887 38.2034L44.1159 39.1655Z" fill="#8C9199" mask="url(#path-67-outside-21_1625_4204)"/>
<mask id="path-69-outside-22_1625_4204" maskUnits="userSpaceOnUse" x="40.771" y="37.6472" width="11" height="4" fill="black">
<rect fill="white" x="40.771" y="37.6472" width="11" height="4"/>
<path d="M44.1166 38.6472C43.7868 38.7159 43.5263 38.7711 43.3704 38.8121C41.4145 39.2375 41.6697 39.7636 41.9958 39.7905C43.2711 39.8957 45.327 39.8449 46.5039 39.9748C47.9239 40.1651 49.323 40.4879 50.6829 40.939"/>
</mask>
<path d="M44.2185 39.1367C44.4889 39.0805 44.6624 38.8157 44.6061 38.5453C44.5499 38.275 44.2851 38.1014 44.0147 38.1577L44.2185 39.1367ZM43.3704 38.8121L43.4766 39.3007C43.4837 39.2992 43.4907 39.2975 43.4976 39.2957L43.3704 38.8121ZM41.9958 39.7905L42.0369 39.2922L42.0368 39.2922L41.9958 39.7905ZM46.5039 39.9748L46.5703 39.4791L46.5587 39.4778L46.5039 39.9748ZM50.5255 41.4135C50.7876 41.5005 51.0705 41.3585 51.1575 41.0964C51.2444 40.8343 51.1024 40.5513 50.8403 40.4644L50.5255 41.4135ZM44.0147 38.1577C43.69 38.2253 43.4146 38.2835 43.2431 38.3286L43.4976 39.2957C43.638 39.2587 43.8835 39.2064 44.2185 39.1367L44.0147 38.1577ZM43.2641 38.3236C42.755 38.4343 42.3688 38.5558 42.0812 38.6839C41.8043 38.8072 41.5714 38.9571 41.4262 39.1523C41.3497 39.2551 41.2871 39.385 41.2736 39.5372C41.2597 39.6943 41.3016 39.8411 41.38 39.9605C41.526 40.183 41.7656 40.2732 41.9547 40.2888L42.0368 39.2922C42.063 39.2943 42.1483 39.3087 42.2159 39.4117C42.2551 39.4713 42.2766 39.5474 42.2697 39.6253C42.2633 39.6983 42.235 39.7404 42.2285 39.7492C42.2232 39.7563 42.2728 39.6933 42.488 39.5974C42.6924 39.5064 43.0078 39.4027 43.4766 39.3007L43.2641 38.3236ZM41.9547 40.2888C42.6117 40.343 43.4639 40.3568 44.2766 40.3733C45.1036 40.3901 45.8874 40.4098 46.449 40.4718L46.5587 39.4778C45.9435 39.4099 45.1109 39.3901 44.2969 39.3735C43.4686 39.3566 42.6552 39.3432 42.0369 39.2922L41.9547 40.2888ZM46.4375 40.4704C47.8266 40.6565 49.1952 40.9723 50.5255 41.4135L50.8403 40.4644C49.4508 40.0035 48.0213 39.6737 46.5703 39.4792L46.4375 40.4704Z" fill="#8C9199" mask="url(#path-69-outside-22_1625_4204)"/>
<path d="M36.0827 58.2332V58.2331C36.0817 56.4677 35.3798 54.7749 34.1314 53.5266C32.883 52.2783 31.1901 51.5767 29.4247 51.5759H29.4246C28.1077 51.5759 26.8205 51.9664 25.7255 52.698L25.7255 52.698C24.6306 53.4297 23.7773 54.4696 23.2734 55.6862C22.7694 56.9028 22.6376 58.2416 22.8946 59.5332C23.1515 60.8247 23.7857 62.0111 24.7169 62.9422L24.7169 62.9422C25.6481 63.8733 26.8346 64.5074 28.1262 64.7642C29.4178 65.021 30.7565 64.889 31.9731 64.3849C33.1896 63.881 34.2295 63.0274 34.961 61.9324C35.6924 60.8374 36.0828 59.5501 36.0827 58.2332Z" stroke="#8C9199" stroke-width="0.5" stroke-linecap="round" stroke-linejoin="round"/>
<mask id="path-72-outside-23_1625_4204" maskUnits="userSpaceOnUse" x="44.9858" y="65.1229" width="18" height="19" fill="black">
<rect fill="white" x="44.9858" y="65.1229" width="18" height="19"/>
<path d="M51.4529 66.4685C51.9733 66.3131 52.5101 66.2085 53.056 66.1577C55.2437 65.9568 57.4217 66.632 59.1119 68.0354C60.8022 69.4387 61.8666 71.4553 62.0715 73.6426C62.2224 75.2739 61.8862 76.9127 61.1055 78.3529C60.3248 79.7932 59.1347 80.9693 57.6855 81.7334C56.2364 82.4969 54.5933 82.814 52.964 82.6439C51.3347 82.4745 49.7925 81.8252 48.5321 80.779C47.3583 79.8044 46.4781 78.5261 45.9858 77.0866"/>
</mask>
<path d="M51.3099 65.9894C51.0453 66.0684 50.8948 66.3469 50.9738 66.6115C51.0528 66.8761 51.3314 67.0266 51.596 66.9476L51.3099 65.9894ZM53.056 66.1577L53.0103 65.6598L53.0098 65.6599L53.056 66.1577ZM62.0715 73.6426L62.5694 73.5966L62.5693 73.596L62.0715 73.6426ZM61.1055 78.3529L61.5451 78.5912L61.5451 78.5912L61.1055 78.3529ZM57.6855 81.7334L57.9186 82.1758L57.9188 82.1757L57.6855 81.7334ZM52.964 82.6439L53.016 82.1466L53.0157 82.1466L52.964 82.6439ZM48.5321 80.779L48.2127 81.1637L48.2128 81.1637L48.5321 80.779ZM46.4589 76.9248C46.3696 76.6635 46.0853 76.5241 45.824 76.6135C45.5628 76.7028 45.4234 76.9871 45.5127 77.2483L46.4589 76.9248ZM51.596 66.9476C52.085 66.8016 52.5894 66.7033 53.1023 66.6556L53.0098 65.6599C52.4308 65.7137 51.8616 65.8246 51.3099 65.9894L51.596 66.9476ZM53.1018 66.6556C55.1575 66.4668 57.2042 67.1013 58.7925 68.4201L59.4313 67.6507C57.6392 66.1627 55.3298 65.4467 53.0103 65.6598L53.1018 66.6556ZM58.7925 68.4201C60.3809 69.7388 61.3812 71.6338 61.5737 73.6892L62.5693 73.596C62.3521 71.2768 61.2235 69.1386 59.4313 67.6507L58.7925 68.4201ZM61.5736 73.6887C61.7154 75.2215 61.3995 76.7613 60.666 78.1147L61.5451 78.5912C62.3729 77.064 62.7294 75.3263 62.5694 73.5966L61.5736 73.6887ZM60.666 78.1147C59.9324 79.468 58.8141 80.5731 57.4523 81.2912L57.9188 82.1757C59.4553 81.3655 60.7172 80.1184 61.5451 78.5912L60.666 78.1147ZM57.4525 81.2911C56.0908 82.0085 54.5468 82.3064 53.016 82.1466L52.9121 83.1412C54.6398 83.3216 56.3821 82.9853 57.9186 82.1758L57.4525 81.2911ZM53.0157 82.1466C51.4849 81.9874 50.0358 81.3774 48.8515 80.3943L48.2128 81.1637C49.5492 82.2731 51.1846 82.9616 52.9123 83.1412L53.0157 82.1466ZM48.8515 80.3943C47.7486 79.4785 46.9215 78.2774 46.4589 76.9248L45.5127 77.2483C46.0348 78.7748 46.9681 80.1303 48.2127 81.1637L48.8515 80.3943Z" fill="#8C9199" mask="url(#path-72-outside-23_1625_4204)"/>
<path d="M25.2408 97.8805C25.2358 97.8784 25.2307 97.8764 25.2256 97.8746C21.8741 96.7033 18.2614 96.493 14.7969 97.2697C14.7155 97.2879 14.6486 97.3455 14.6185 97.4232C14.5883 97.5009 14.5989 97.5886 14.6467 97.6569C16.6822 100.568 19.4947 102.847 22.7633 104.236C22.7683 104.238 22.7734 104.24 22.7786 104.242C26.1302 105.413 29.7427 105.623 33.2072 104.847C33.2886 104.829 33.3555 104.771 33.3857 104.693C33.4158 104.616 33.4053 104.528 33.3575 104.46C31.3224 101.549 28.5098 99.2689 25.2408 97.8805Z" stroke="#8C9199" stroke-width="0.5" stroke-linecap="round" stroke-linejoin="round"/>
<path d="M38.281 123.154C38.2784 123.149 38.2756 123.145 38.2728 123.14C37.1153 121.291 35.4649 119.801 33.5071 118.838C33.4335 118.802 33.3468 118.804 33.2752 118.844C33.2035 118.884 33.156 118.956 33.148 119.038C32.9342 121.226 33.4119 123.425 34.5139 125.326C35.616 127.228 37.2867 128.736 39.2911 129.639C39.3657 129.672 39.4521 129.667 39.5223 129.625C39.5926 129.583 39.6377 129.509 39.6431 129.427C39.7879 127.25 39.3157 125.075 38.281 123.154Z" stroke="#8C9199" stroke-width="0.5" stroke-linecap="round" stroke-linejoin="round"/>
<path d="M62.8906 78.4932C62.8944 78.4893 62.898 78.4852 62.9015 78.4809C64.7407 76.2766 65.9283 73.6035 66.3309 70.7613C66.3424 70.6801 66.3134 70.5985 66.2532 70.5428C66.1931 70.4871 66.1095 70.4644 66.0294 70.4821C63.2067 71.1061 60.6513 72.601 58.7239 74.7556L58.7239 74.7556C56.7966 76.9104 55.5948 79.616 55.288 82.4904C55.2793 82.5718 55.311 82.6523 55.3729 82.7059C55.4347 82.7595 55.5189 82.7794 55.5982 82.7592C58.3818 82.0514 60.9093 80.5727 62.8906 78.4932Z" stroke="#8C9199" stroke-width="0.5" stroke-linecap="round" stroke-linejoin="round"/>
<path d="M51.0656 70.4095C51.0674 70.4043 51.0691 70.3991 51.0706 70.3938C51.8563 67.6287 51.8534 64.6988 51.0623 61.9352C51.0393 61.8551 50.9779 61.7916 50.8986 61.7661C50.8192 61.7405 50.7323 61.7562 50.6669 61.8079C48.4106 63.591 46.7017 65.9731 45.7358 68.6818C45.734 68.6869 45.7324 68.6921 45.7309 68.6973C44.943 71.4623 44.9459 74.3928 45.7392 77.1562C45.7622 77.2363 45.8236 77.2997 45.903 77.3252C45.9823 77.3507 46.0692 77.335 46.1346 77.2833C48.3902 75.4998 50.0988 73.1178 51.0656 70.4095Z" stroke="#8C9199" stroke-width="0.5" stroke-linecap="round" stroke-linejoin="round"/>
<path d="M25.9134 50.3548C25.9174 50.3588 25.9214 50.3628 25.9257 50.3666C26.8998 51.2477 28.1018 51.8376 29.3947 52.069C29.4769 52.0837 29.5609 52.0565 29.6188 51.9964C29.6767 51.9363 29.7008 51.8513 29.6831 51.7697C29.4037 50.4865 28.773 49.3061 27.8613 48.3607C27.8574 48.3566 27.8533 48.3526 27.8491 48.3488C26.8749 47.4677 25.673 46.8778 24.38 46.6464C24.2979 46.6317 24.2138 46.6589 24.1559 46.719C24.098 46.779 24.0739 46.864 24.0916 46.9456C24.3707 48.2291 25.0015 49.4095 25.9134 50.3548Z" stroke="#8C9199" stroke-width="0.5" stroke-linecap="round" stroke-linejoin="round"/>
<mask id="path-79-outside-24_1625_4204" maskUnits="userSpaceOnUse" x="29.3042" y="63.5809" width="15" height="64" fill="black">
<rect fill="white" x="29.3042" y="63.5809" width="15" height="64"/>
<path d="M30.3042 64.5809C30.7855 72.5419 31.2997 77.8306 39.7584 90.9086C47.3082 102.587 39.0764 113.409 39.2816 126.912"/>
</mask>
<path d="M30.8033 64.5508C30.7866 64.2751 30.5497 64.0652 30.274 64.0818C29.9984 64.0985 29.7884 64.3355 29.8051 64.6111L30.8033 64.5508ZM39.7584 90.9086L40.1783 90.6372L40.1783 90.6371L39.7584 90.9086ZM38.7816 126.92C38.7858 127.196 39.0131 127.416 39.2892 127.412C39.5653 127.408 39.7857 127.181 39.7815 126.905L38.7816 126.92ZM29.8051 64.6111C30.046 68.5945 30.2969 71.9607 31.5629 75.9762C32.8277 79.9876 35.0966 84.6216 39.3386 91.1802L40.1783 90.6371C35.9616 84.1176 33.744 79.5682 32.5166 75.6755C31.2906 71.787 31.0438 68.5283 30.8033 64.5508L29.8051 64.6111ZM39.3385 91.1801C43.0121 96.8627 42.8615 102.334 41.7827 108.135C41.5125 109.587 41.1849 111.056 40.8453 112.555C40.5063 114.051 40.155 115.578 39.8411 117.133C39.2129 120.245 38.7296 123.493 38.7816 126.92L39.7815 126.905C39.731 123.58 40.1996 120.411 40.8213 117.331C41.1323 115.79 41.4804 114.277 41.8206 112.776C42.1602 111.278 42.4917 109.792 42.7658 108.318C43.8641 102.412 44.0546 96.6334 40.1783 90.6372L39.3385 91.1801Z" fill="#8C9199" mask="url(#path-79-outside-24_1625_4204)"/>
<path d="M49.8464 81.652C49.8862 81.5419 49.8442 81.4188 49.7454 81.356C49.6465 81.2932 49.5173 81.3074 49.4345 81.3902L49.6113 81.567C49.4345 81.3902 49.4344 81.3903 49.4343 81.3905L49.4339 81.3909L49.4327 81.3921L49.4285 81.3963L49.4132 81.4119C49.4 81.4255 49.3808 81.4455 49.356 81.4718C49.3063 81.5244 49.2343 81.6024 49.143 81.7056C48.9604 81.9118 48.7008 82.2185 48.3893 82.6238C47.7665 83.4343 46.9361 84.6393 46.1006 86.2231C44.4293 89.3911 42.7372 94.0749 42.645 100.145C42.6432 100.267 42.7299 100.373 42.85 100.395C42.9702 100.417 43.0886 100.348 43.1301 100.234L49.8464 81.652Z" stroke="#8C9199" stroke-width="0.5" stroke-linecap="round" stroke-linejoin="round"/>
<path d="M33.1953 104.56L33.3208 104.344C33.2286 104.291 33.1124 104.302 33.0317 104.371C32.951 104.441 32.9236 104.555 32.9633 104.654L39.4699 120.856C39.5133 120.964 39.6259 121.028 39.7412 121.01C39.8564 120.992 39.9436 120.896 39.9513 120.78C40.3521 114.741 38.7095 110.635 36.9535 108.035C36.0767 106.737 35.1736 105.818 34.4877 105.221C34.1446 104.923 33.8557 104.705 33.6513 104.561C33.549 104.49 33.4678 104.436 33.4115 104.4C33.3833 104.382 33.3614 104.369 33.3461 104.359L33.3283 104.349L33.3232 104.346L33.3217 104.345L33.3212 104.344C33.321 104.344 33.3208 104.344 33.1953 104.56Z" stroke="#8C9199" stroke-width="0.5" stroke-linecap="round" stroke-linejoin="round"/>
<path d="M49.6256 128.778L49.6258 128.779C49.7701 129.316 49.6953 129.889 49.4178 130.372C49.1403 130.854 48.6827 131.208 48.1453 131.353L48.1445 131.354L33.0052 135.408C33.0051 135.408 33.0049 135.408 33.0048 135.408C32.7385 135.48 32.4607 135.498 32.1874 135.463C31.9139 135.427 31.65 135.338 31.4106 135.2C31.1717 135.063 30.9622 134.88 30.794 134.661L30.7937 134.661C30.6258 134.442 30.5022 134.193 30.4304 133.926C30.4304 133.926 30.4303 133.926 30.4303 133.926L30.6717 133.861C30.6084 133.627 30.592 133.382 30.6234 133.141C30.6547 132.9 30.7332 132.668 30.8543 132.458L49.6256 128.778ZM49.6256 128.778C49.4799 128.241 49.1271 127.783 48.6443 127.506C48.1616 127.228 47.5885 127.153 47.0509 127.298C47.0508 127.298 47.0508 127.298 47.0507 127.298L31.9119 131.352L31.9113 131.352C31.645 131.424 31.3957 131.548 31.1773 131.715L31.1769 131.716C30.9586 131.884 30.7753 132.093 30.6376 132.333L49.6256 128.778Z" stroke="#8C9199" stroke-width="0.5" stroke-linecap="round" stroke-linejoin="round"/>
<mask id="path-84-outside-25_1625_4204" maskUnits="userSpaceOnUse" x="26.3223" y="54.5229" width="6" height="7" fill="black">
<rect fill="white" x="26.3223" y="54.5229" width="6" height="7"/>
<path d="M31.2698 55.5229L28.4057 55.7782C28.0854 55.8254 27.7953 55.9933 27.5948 56.2475C27.3944 56.5017 27.2986 56.8229 27.3272 57.1454C27.3558 57.4678 27.5066 57.7671 27.7488 57.9821C27.9909 58.1969 28.306 58.3112 28.6296 58.3012L30.2318 58.1595C30.5565 58.1479 30.8733 58.2612 31.1168 58.4762C31.3603 58.6913 31.5121 58.9916 31.5408 59.3152C31.5695 59.6388 31.4729 59.9611 31.2711 60.2157C31.0691 60.4702 30.7773 60.6376 30.4557 60.6833L27.5923 60.9527"/>
</mask>
<path d="M31.3142 56.021C31.5892 55.9965 31.7923 55.7536 31.7678 55.4786C31.7433 55.2035 31.5005 55.0004 31.2254 55.0249L31.3142 56.021ZM28.4057 55.7782L28.3613 55.2801C28.3518 55.281 28.3422 55.2821 28.3328 55.2835L28.4057 55.7782ZM27.5948 56.2475L27.2023 55.9378L27.2022 55.9379L27.5948 56.2475ZM27.7488 57.9821L27.4169 58.356L27.4169 58.356L27.7488 57.9821ZM28.6296 58.3012L28.6449 58.801C28.6545 58.8007 28.6641 58.8001 28.6737 58.7993L28.6296 58.3012ZM30.2318 58.1595L30.214 57.6598C30.2052 57.6601 30.1964 57.6606 30.1877 57.6614L30.2318 58.1595ZM31.1168 58.4762L31.4477 58.1014L31.4477 58.1014L31.1168 58.4762ZM31.5408 59.3152L31.0427 59.3593L31.0427 59.3594L31.5408 59.3152ZM31.2711 60.2157L31.6628 60.5264L31.6628 60.5263L31.2711 60.2157ZM30.4557 60.6833L30.5025 61.1811C30.5103 61.1803 30.5182 61.1794 30.5259 61.1783L30.4557 60.6833ZM27.5455 60.4549C27.2705 60.4807 27.0686 60.7246 27.0945 60.9995C27.1204 61.2744 27.3642 61.4763 27.6391 61.4505L27.5455 60.4549ZM31.2254 55.0249L28.3613 55.2801L28.4501 56.2762L31.3142 56.021L31.2254 55.0249ZM28.3328 55.2835C27.8862 55.3494 27.4818 55.5835 27.2023 55.9378L27.9874 56.5572C28.1089 56.4031 28.2846 56.3014 28.4787 56.2728L28.3328 55.2835ZM27.2022 55.9379C26.9228 56.2922 26.7893 56.74 26.8292 57.1895L27.8253 57.1012C27.8079 56.9058 27.866 56.7111 27.9874 56.5571L27.2022 55.9379ZM26.8292 57.1895C26.869 57.6391 27.0793 58.0564 27.4169 58.356L28.0807 57.6081C27.9339 57.4779 27.8426 57.2965 27.8253 57.1012L26.8292 57.1895ZM27.4169 58.356C27.7544 58.6555 28.1937 58.8148 28.6449 58.801L28.6143 57.8015C28.4183 57.8075 28.2274 57.7383 28.0807 57.6081L27.4169 58.356ZM28.6737 58.7993L30.2759 58.6575L30.1877 57.6614L28.5855 57.8032L28.6737 58.7993ZM30.2496 58.6591C30.4464 58.6521 30.6384 58.7208 30.7858 58.851L31.4477 58.1014C31.1081 57.8016 30.6665 57.6436 30.214 57.6598L30.2496 58.6591ZM30.7858 58.851C30.9334 58.9814 31.0254 59.1633 31.0427 59.3593L32.0388 59.2711C31.9989 58.8199 31.7872 58.4012 31.4477 58.1014L30.7858 58.851ZM31.0427 59.3594C31.0601 59.5554 31.0016 59.7507 30.8793 59.905L31.6628 60.5263C31.9442 60.1715 32.0789 59.7222 32.0388 59.271L31.0427 59.3594ZM30.8794 59.9049C30.757 60.0592 30.5802 60.1606 30.3854 60.1882L30.5259 61.1783C30.9744 61.1146 31.3813 60.8812 31.6628 60.5264L30.8794 59.9049ZM30.4088 60.1855L27.5455 60.4549L27.6391 61.4505L30.5025 61.1811L30.4088 60.1855Z" fill="#8C9199" mask="url(#path-84-outside-25_1625_4204)"/>
<path d="M29.3613 54.7374C29.3486 54.5999 29.2269 54.4987 29.0894 54.5113C28.9519 54.5239 28.8507 54.6456 28.8634 54.7831L29.5014 61.7292C29.514 61.8667 29.6357 61.9679 29.7732 61.9553C29.9107 61.9427 30.0119 61.821 29.9993 61.6835L29.3613 54.7374Z" stroke="#8C9199" stroke-width="0.5" stroke-linecap="round" stroke-linejoin="round"/>
<mask id="path-87-outside-26_1625_4204" maskUnits="userSpaceOnUse" x="49.0674" y="70.0139" width="9" height="9" fill="black">
<rect fill="white" x="49.0674" y="70.0139" width="9" height="9"/>
<path d="M57.5642 72.962L54.5158 71.2187C54.1568 71.0139 53.731 70.9601 53.3324 71.0691C52.9337 71.1781 52.5946 71.441 52.3897 71.8001C52.1849 72.1591 52.1311 72.5848 52.24 72.9835C52.349 73.3822 52.612 73.7213 52.971 73.9261L54.6717 74.9045C54.8495 75.006 55.0055 75.141 55.131 75.303C55.2564 75.4649 55.3487 75.65 55.4027 75.847C55.4567 76.0447 55.4713 76.2507 55.4456 76.4537C55.4199 76.6567 55.3545 76.8529 55.2531 77.0305C55.1517 77.2081 55.0162 77.3641 54.8544 77.4895C54.6927 77.6149 54.5079 77.7074 54.3104 77.7619C54.113 77.8156 53.9069 77.8298 53.7039 77.8044C53.5008 77.779 53.3048 77.7134 53.127 77.6119L50.0674 75.8686"/>
</mask>
<path d="M57.316 73.396C57.5557 73.5331 57.8612 73.4499 57.9983 73.2102C58.1353 72.9705 58.0521 72.665 57.8124 72.5279L57.316 73.396ZM54.5158 71.2187L54.764 70.7847L54.7636 70.7845L54.5158 71.2187ZM53.3324 71.0691L53.4643 71.5514L53.4643 71.5514L53.3324 71.0691ZM52.24 72.9835L51.7577 73.1153L51.7577 73.1154L52.24 72.9835ZM52.971 73.9261L53.2204 73.4927L53.2188 73.4919L52.971 73.9261ZM54.6717 74.9045L54.4224 75.3379L54.4238 75.3387L54.6717 74.9045ZM55.4027 75.847L55.885 75.7152L55.8849 75.7149L55.4027 75.847ZM54.8544 77.4895L54.5482 77.0943L54.5481 77.0943L54.8544 77.4895ZM54.3104 77.7619L54.4417 78.2443L54.4434 78.2439L54.3104 77.7619ZM53.127 77.6119L53.3749 77.1777L53.3745 77.1774L53.127 77.6119ZM50.3149 75.4342C50.075 75.2975 49.7697 75.3812 49.6329 75.6211C49.4962 75.861 49.5799 76.1664 49.8199 76.3031L50.3149 75.4342ZM57.8124 72.5279L54.764 70.7847L54.2676 71.6528L57.316 73.396L57.8124 72.5279ZM54.7636 70.7845C54.2893 70.5139 53.727 70.4428 53.2005 70.5868L53.4643 71.5514C53.735 71.4774 54.0242 71.5139 54.268 71.653L54.7636 70.7845ZM53.2005 70.5868C52.6739 70.7308 52.226 71.078 51.9554 71.5523L52.824 72.0479C52.9631 71.8041 53.1934 71.6255 53.4643 71.5514L53.2005 70.5868ZM51.9554 71.5523C51.6849 72.0265 51.6138 72.5888 51.7577 73.1153L52.7223 72.8517C52.6483 72.5809 52.6849 72.2917 52.824 72.0479L51.9554 71.5523ZM51.7577 73.1154C51.9017 73.642 52.2491 74.0899 52.7233 74.3604L53.2188 73.4919C52.975 73.3527 52.7964 73.1224 52.7223 72.8516L51.7577 73.1154ZM52.7217 74.3595L54.4224 75.3379L54.9211 74.4711L53.2204 73.4927L52.7217 74.3595ZM54.4238 75.3387C54.545 75.4079 54.6509 75.4996 54.7357 75.6092L55.5263 74.9968C55.3602 74.7824 55.154 74.604 54.9197 74.4703L54.4238 75.3387ZM54.7357 75.6092C54.821 75.7192 54.8838 75.8451 54.9205 75.9791L55.8849 75.7149C55.8137 75.4548 55.6919 75.2106 55.5263 74.9968L54.7357 75.6092ZM54.9204 75.9788C54.9571 76.1133 54.967 76.2532 54.9496 76.391L55.9417 76.5164C55.9756 76.2482 55.9563 75.9762 55.885 75.7152L54.9204 75.9788ZM54.9496 76.391C54.9321 76.5289 54.8876 76.6622 54.8189 76.7826L55.6873 77.2785C55.8214 77.0436 55.9078 76.7844 55.9417 76.5164L54.9496 76.391ZM54.8189 76.7826C54.75 76.9032 54.658 77.0091 54.5482 77.0943L55.1607 77.8847C55.3744 77.7191 55.5533 77.5131 55.6873 77.2785L54.8189 76.7826ZM54.5481 77.0943C54.438 77.1796 54.3121 77.2427 54.1774 77.2799L54.4434 78.2439C54.7037 78.1721 54.9474 78.0501 55.1608 77.8846L54.5481 77.0943ZM54.1791 77.2794C54.0453 77.3158 53.9049 77.3256 53.7659 77.3083L53.6419 78.3005C53.9089 78.3339 54.1807 78.3154 54.4417 78.2443L54.1791 77.2794ZM53.7659 77.3083C53.6288 77.2911 53.4959 77.2467 53.3749 77.1777L52.8791 78.0461C53.1136 78.18 53.3728 78.2669 53.6419 78.3005L53.7659 77.3083ZM53.3745 77.1774L50.3149 75.4342L49.8199 76.3031L52.8795 78.0463L53.3745 77.1774Z" fill="#8C9199" mask="url(#path-87-outside-26_1625_4204)"/>
<path d="M56.1508 70.8177C56.2191 70.6977 56.1771 70.545 56.0571 70.4768C55.9371 70.4085 55.7845 70.4505 55.7162 70.5705L51.4917 77.9987C51.4234 78.1187 51.4654 78.2713 51.5854 78.3396C51.7054 78.4078 51.858 78.3659 51.9263 78.2459L56.1508 70.8177Z" stroke="#8C9199" stroke-width="0.5" stroke-linecap="round" stroke-linejoin="round"/>
<path d="M56.723 118.383L56.7231 118.382L47.2815 114.087L47.2736 114.083L47.2736 114.083C46.7852 113.84 46.4106 113.417 46.2292 112.902L56.723 118.383ZM56.723 118.383L56.7298 118.385M56.723 118.383L56.7298 118.385M56.7298 118.385C57.2318 118.596 57.7963 118.604 58.3039 118.407M56.7298 118.385L58.4834 114.573M58.4834 114.573L58.4833 114.573C58.9703 114.817 59.3435 115.241 59.5239 115.755C59.7044 116.269 59.6779 116.833 59.4503 117.327C59.2227 117.822 58.8117 118.209 58.3039 118.407M58.4834 114.573L58.4749 114.569M58.4834 114.573L58.4749 114.569M58.3039 118.407L58.2134 118.174M58.3039 118.407C58.304 118.407 58.304 118.407 58.304 118.407L58.2134 118.174M58.2134 118.174C57.7662 118.347 57.2689 118.341 56.8266 118.155L59.288 115.838C59.447 116.29 59.4237 116.787 59.2232 117.223C59.0227 117.659 58.6606 118 58.2134 118.174ZM58.4749 114.569L49.0341 110.274L49.0341 110.274M58.4749 114.569L49.0341 110.274M49.0341 110.274L49.028 110.271M49.0341 110.274L49.028 110.271M49.028 110.271C48.5258 110.059 47.9602 110.049 47.4512 110.247M49.028 110.271L47.4512 110.247M47.4512 110.247C46.9422 110.443 46.5302 110.831 46.3022 111.327C46.074 111.822 46.0478 112.387 46.2292 112.901L47.4512 110.247Z" stroke="#8C9199" stroke-width="0.5" stroke-linecap="round" stroke-linejoin="round"/>
<path d="M78.1559 106.901L78.1559 106.901C78.1851 107.498 78.0363 108.091 77.728 108.605L78.1559 106.901ZM78.1559 106.901C78.1363 106.504 78.0396 106.116 77.8695 105.756C77.7003 105.397 77.4619 105.075 77.1673 104.808C76.8731 104.541 76.5299 104.335 76.1555 104.201L76.1551 104.2M78.1559 106.901L76.1551 104.2M76.1551 104.2C75.7813 104.067 75.3852 104.008 74.988 104.027L76.1551 104.2ZM74.6897 110.04C75.2811 110.128 75.8855 110.038 76.4264 109.783C76.9673 109.527 77.4204 109.117 77.7279 108.605L72.2006 107.781C72.3457 108.362 72.6596 108.886 73.1026 109.288C73.5455 109.69 74.0978 109.952 74.6897 110.04ZM74.6897 110.04L74.7264 109.792L74.6897 110.04C74.6897 110.04 74.6897 110.04 74.6897 110.04ZM72.2877 106.028C72.0858 106.591 72.0556 107.201 72.2006 107.781L74.988 104.027C74.3907 104.056 73.8152 104.261 73.3344 104.618C72.8538 104.974 72.4895 105.465 72.2877 106.028Z" stroke="#8C9199" stroke-width="0.5" stroke-linecap="round" stroke-linejoin="round"/>
<path d="M83.5711 111.126C83.9144 111.248 84.23 111.438 84.5002 111.683C84.7696 111.927 84.989 112.224 85.1442 112.553C85.2994 112.883 85.3882 113.24 85.4054 113.604M83.5711 111.126L83.6555 110.891C83.6554 110.891 83.6553 110.891 83.6552 110.891M83.5711 111.126L83.655 110.891C83.6551 110.891 83.6552 110.891 83.6552 110.891M83.5711 111.126C83.2278 111.003 82.8636 110.949 82.4995 110.968M83.6552 110.891C84.0297 111.024 84.3737 111.231 84.668 111.497L84.6683 111.498C84.9619 111.764 85.201 112.087 85.3703 112.446L85.3704 112.446C85.5396 112.806 85.6364 113.196 85.6551 113.592M83.6552 110.891C83.281 110.756 82.884 110.698 82.4869 110.718M85.6551 113.592C85.6551 113.592 85.6551 113.592 85.6551 113.592L85.4054 113.604M85.6551 113.592C85.6551 113.592 85.6551 113.592 85.6551 113.593L85.4054 113.604M85.6551 113.592C85.6843 114.19 85.5354 114.782 85.2272 115.296L85.0128 115.167C85.2957 114.696 85.4322 114.153 85.4054 113.604M82.4869 110.718C81.8902 110.747 81.3143 110.952 80.8335 111.309C80.3526 111.665 79.9891 112.156 79.7867 112.718L79.7866 112.718C79.5848 113.281 79.5547 113.892 79.6995 114.472L79.6996 114.473C79.8451 115.053 80.1583 115.577 80.6018 115.979C81.045 116.381 81.5973 116.643 82.1889 116.731C82.78 116.818 83.3844 116.73 83.9256 116.474L82.4869 110.718ZM82.4869 110.718C82.487 110.718 82.4871 110.718 82.4872 110.718L82.4995 110.968M82.4869 110.718C82.4869 110.718 82.4868 110.718 82.4867 110.718L82.4995 110.968M82.4869 110.718L80.0219 112.803C80.2077 112.286 80.5413 111.836 80.9823 111.51C81.4234 111.183 81.9517 110.995 82.4995 110.968M83.9256 116.474C84.4665 116.218 84.9196 115.808 85.2271 115.296L83.9256 116.474Z" stroke="#8C9199" stroke-width="0.5" stroke-linecap="round" stroke-linejoin="round"/>
<path d="M72.6605 116.824C72.5677 116.927 72.5755 117.085 72.6778 117.177C72.7801 117.27 72.9382 117.262 73.0309 117.16L85.0941 103.849C85.1868 103.747 85.179 103.589 85.0767 103.496C84.9744 103.403 84.8163 103.411 84.7236 103.514L72.6605 116.824Z" stroke="#8C9199" stroke-width="0.5" stroke-linecap="round" stroke-linejoin="round"/>
<path d="M115.155 40.374C115.148 40.2361 115.031 40.1296 114.893 40.1363C114.755 40.1429 114.649 40.2601 114.656 40.398L114.982 47.174C114.988 47.3119 115.105 47.4183 115.243 47.4116C115.381 47.405 115.488 47.2878 115.481 47.1499L115.155 40.374Z" stroke="#8C9199" stroke-width="0.5" stroke-linecap="round" stroke-linejoin="round"/>
<path d="M118.476 43.8534C118.614 43.8465 118.72 43.7291 118.713 43.5912C118.706 43.4533 118.589 43.3472 118.451 43.3541L111.661 43.6944C111.523 43.7013 111.417 43.8187 111.424 43.9566C111.431 44.0945 111.548 44.2006 111.686 44.1937L118.476 43.8534Z" stroke="#8C9199" stroke-width="0.5" stroke-linecap="round" stroke-linejoin="round"/>
<mask id="path-96-outside-27_1625_4204" maskUnits="userSpaceOnUse" x="57.2979" y="16.4539" width="7" height="8" fill="black">
<rect fill="white" x="57.2979" y="16.4539" width="7" height="8"/>
<path d="M63.1915 22.9641C62.1848 21.6596 62.7266 19.347 61.8027 18.2575C60.6572 16.9082 60.4923 17.2179 58.4446 19.491C57.9476 20.0425 58.7282 21.0783 60.5572 19.5761C59.9473 19.9861 59.4954 20.5917 59.2758 21.2931C59.0564 21.9945 59.0824 22.7497 59.3498 23.4342"/>
</mask>
<path d="M62.7957 23.2695C62.9644 23.4881 63.2784 23.5286 63.497 23.3599C63.7156 23.1912 63.756 22.8772 63.5873 22.6586L62.7957 23.2695ZM61.8027 18.2575L62.1841 17.9341L62.1839 17.9339L61.8027 18.2575ZM58.4446 19.491L58.816 19.8257L58.8161 19.8257L58.4446 19.491ZM60.5572 19.5761L60.8746 19.9625C61.0808 19.7931 61.1176 19.4917 60.9584 19.2776C60.7991 19.0635 60.4997 19.0123 60.2783 19.1611L60.5572 19.5761ZM59.2758 21.2931L58.7987 21.1437L58.7987 21.1437L59.2758 21.2931ZM58.8841 23.6161C58.9845 23.8733 59.2745 24.0004 59.5317 23.8999C59.7889 23.7995 59.916 23.5095 59.8155 23.2523L58.8841 23.6161ZM63.5873 22.6586C63.1833 22.135 63.0722 21.3802 62.9624 20.4703C62.9106 20.0405 62.8571 19.5762 62.7538 19.151C62.65 18.7239 62.4861 18.2903 62.1841 17.9341L61.4214 18.5808C61.5813 18.7694 61.6961 19.0334 61.782 19.3871C61.8684 19.7428 61.9156 20.1425 61.9696 20.5901C62.0716 21.435 62.193 22.4886 62.7957 23.2695L63.5873 22.6586ZM62.1839 17.9339C61.9015 17.6012 61.6283 17.3057 61.34 17.1327C61.1855 17.0399 61.011 16.972 60.8149 16.957C60.6174 16.9418 60.4323 16.983 60.2614 17.0579C59.9439 17.197 59.6365 17.4718 59.3151 17.7995C58.9841 18.137 58.5787 18.5951 58.0731 19.1563L58.8161 19.8257C59.3343 19.2504 59.7175 18.8173 60.0291 18.4997C60.3503 18.1722 60.5397 18.0277 60.6626 17.9739C60.7119 17.9523 60.7329 17.9536 60.7386 17.954C60.7456 17.9546 60.7714 17.9576 60.8254 17.99C60.9542 18.0674 61.1312 18.2391 61.4216 18.5811L62.1839 17.9339ZM58.0732 19.1563C57.8517 19.402 57.7508 19.73 57.8186 20.0513C57.8876 20.3789 58.1202 20.6429 58.448 20.7699C59.0754 21.013 59.9265 20.7411 60.8746 19.9625L60.2399 19.1897C59.3588 19.9133 58.9052 19.8746 58.8093 19.8374C58.7754 19.8243 58.7918 19.8199 58.7971 19.8451C58.8011 19.864 58.789 19.8557 58.816 19.8257L58.0732 19.1563ZM60.2783 19.1611C59.574 19.6346 59.0522 20.3339 58.7987 21.1437L59.753 21.4424C59.9386 20.8495 60.3206 20.3376 60.8362 19.991L60.2783 19.1611ZM58.7987 21.1437C58.5452 21.9536 58.5753 22.8256 58.8841 23.6161L59.8155 23.2523C59.5895 22.6737 59.5675 22.0353 59.753 21.4424L58.7987 21.1437Z" fill="#8C9199" mask="url(#path-96-outside-27_1625_4204)"/>
<path d="M54.0745 25.1361C53.9746 25.2314 53.9709 25.3896 54.0662 25.4895C54.1616 25.5894 54.3198 25.5931 54.4197 25.4977L56.2905 23.712C56.3904 23.6166 56.3941 23.4584 56.2988 23.3585C56.2034 23.2586 56.0452 23.255 55.9453 23.3503L54.0745 25.1361Z" stroke="#8C9199" stroke-width="0.5" stroke-linecap="round" stroke-linejoin="round"/>
<path d="M55.9507 23.7151L55.9505 23.7149C55.6641 23.4504 55.4205 23.2339 55.2061 23.0434C55.1121 22.9599 55.0238 22.8814 54.9399 22.806C54.6672 22.5609 54.4424 22.3496 54.2445 22.121L54.237 22.1123L54.2372 22.1121C54.0631 21.891 53.982 21.6109 54.0112 21.331C54.0404 21.051 54.1778 20.7936 54.3939 20.6134L55.9507 23.7151ZM55.9507 23.7151C56.4825 24.205 57.1191 24.1678 57.4979 23.7997C57.6814 23.6213 57.7939 23.3718 57.7925 23.0963C57.7911 22.8192 57.675 22.5351 57.4366 22.2824C57.0014 21.8195 56.6406 21.4637 56.2879 21.1158C56.1556 20.9853 56.0244 20.8559 55.8909 20.7224C55.7052 20.515 55.4464 20.3872 55.1686 20.3658L55.1685 20.3658M55.9507 23.7151L55.1685 20.3658M55.1685 20.3658C54.8881 20.3444 54.6101 20.4331 54.3939 20.6134L55.1685 20.3658Z" stroke="#8C9199" stroke-width="0.5" stroke-linecap="round" stroke-linejoin="round"/>
<path d="M35.6592 94.0819C35.6588 94.077 35.6582 94.072 35.6575 94.0671C35.154 90.6894 33.7542 87.509 31.6038 84.8565C31.5513 84.7918 31.47 84.7574 31.3871 84.7649C31.3041 84.7724 31.2303 84.8208 31.1903 84.8939C29.4844 88.0097 28.6925 91.5437 28.9056 95.0891C28.9059 95.0944 28.9064 95.0997 28.9071 95.105C29.3463 98.6282 30.7647 101.958 33.0012 104.716C33.0535 104.78 33.1345 104.815 33.2172 104.807C33.3 104.8 33.3737 104.752 33.414 104.679C35.2035 101.45 35.9855 97.7591 35.6592 94.0819Z" stroke="#8C9199" stroke-width="0.5" stroke-linecap="round" stroke-linejoin="round"/>
<path d="M55.3191 45.8698C55.2973 45.988 55.3629 46.105 55.475 46.1482C55.5872 46.1915 55.7143 46.1487 55.7775 46.0465L60.3565 38.6467C60.4198 38.5445 60.4013 38.4117 60.3126 38.3306C60.2238 38.2495 60.0899 38.243 59.9938 38.3152C57.5418 40.1567 55.8728 42.8538 55.3191 45.8698Z" stroke="#8C9199" stroke-width="0.5" stroke-linecap="round" stroke-linejoin="round"/>
<path d="M61.6633 30.4488C61.6263 30.5667 61.6811 30.6939 61.7922 30.7482C61.9032 30.8024 62.0372 30.7673 62.1075 30.6657L66.4589 24.371C66.5292 24.2694 66.5146 24.1316 66.4247 24.0469C66.3347 23.9622 66.1963 23.9559 66.0991 24.0321C64.0051 25.6727 62.4583 27.9103 61.6633 30.4488Z" stroke="#8C9199" stroke-width="0.5" stroke-linecap="round" stroke-linejoin="round"/>
</svg>
