<svg width="150" height="150" viewBox="0 0 150 150" fill="none" xmlns="http://www.w3.org/2000/svg">
<path d="M104.179 75.1813C102.789 72.1754 100.691 67.7091 99.6842 65.8666C98.091 62.9637 96.8149 62.8868 95.4873 61.6413C94.3888 61.5352 93.3262 61.1969 92.3687 60.6488C92.2351 60.7246 92.0934 60.7842 91.9463 60.8264C92.2859 61.3488 91.5113 62.0137 90.7904 62.2002C91.1635 62.4711 90.7837 63.2898 90.0442 63.4136C89.6763 63.4136 89.2501 63.4614 87.492 63.4704C87.0106 64.6457 86.386 64.6539 85.9122 63.8778C84.8846 62.1965 85.0122 56.7653 86.4853 56.381L76.5467 57.2019C75.5609 57.286 74.6313 57.6951 73.9035 58.365C73.1756 59.0349 72.6909 59.9275 72.5253 60.9028C72.3598 61.878 72.523 62.8807 72.989 63.7532C73.4551 64.6257 74.1978 65.3187 75.1005 65.7233L81.6929 68.6717L80.8847 72.6268L93.2344 78.4685L96.7925 70.7694V75.3633L98.3663 78.1842L94.3717 89.1787C96.3492 90.6092 98.7089 91.4189 101.148 91.504L104.523 81.1968C105.174 79.2207 105.051 77.0708 104.179 75.1813ZM82.3481 65.5972L76.0535 65.2576L82.5182 64.7472L82.3481 65.5972Z" fill="#F9B1DC"/>
<path d="M48.1794 76.8969L40.4662 72.303C40.2649 72.1858 40.0264 72.1503 39.7998 72.2037L27.3516 73.8455L40.5236 78.4849C40.7023 78.5468 40.8518 78.6722 40.9435 78.8371C41.035 79.0028 41.0623 79.1961 41.0199 79.3804C40.9932 79.4789 40.9464 79.5714 40.8826 79.6513C40.8187 79.7311 40.7391 79.7968 40.6487 79.8453C40.5582 79.8931 40.459 79.9214 40.357 79.9296C40.255 79.9371 40.1524 79.9244 40.0557 79.8908L26.9829 74.6566L35.3745 84.1557C35.5132 84.34 35.7153 84.4661 35.9416 84.5101L44.7772 86.0556C44.9863 86.0892 45.2007 86.0504 45.3841 85.9444C45.5675 85.8384 45.7088 85.672 45.7839 85.4743L48.563 77.9886C48.6362 77.7901 48.638 77.573 48.568 77.3737C48.498 77.1745 48.3605 77.0058 48.1794 76.8969Z" fill="#F9B1DC"/>
<path d="M126.456 95.045L128.866 90.6921L131.191 91.9824L128.781 96.3345L126.456 95.045Z" fill="#F9B1DC"/>
<path d="M136.707 86.396L136.608 81.4193L139.273 81.3625L139.372 86.3393L136.707 86.396Z" fill="#F9B1DC"/>
<path d="M133.304 86.4668L133.191 81.4901L135.857 81.4333L135.956 86.4101L133.304 86.4668Z" fill="#F9B1DC"/>
<path d="M127.051 28.7481C122.614 25.9124 116.914 26.8907 114.32 30.9317C113.413 32.3493 112.973 34.0147 113.059 35.695L109.626 38.2472L113.858 39.0262C114.67 40.8243 115.988 42.3469 117.651 43.4082C122.089 46.244 127.788 45.2656 130.383 41.2247C132.977 37.1838 131.492 31.5839 127.051 28.7481Z" fill="#F9B1DC"/>
<path d="M114.206 99.8934L109.768 111.845L105.062 110.088L109.499 98.1494L114.206 99.8934Z" fill="#BFC1FF"/>
<path d="M102.705 55.7512C102.568 55.6246 102.422 55.5081 102.268 55.4027C103.797 56.1587 103.844 54.4423 102.197 53.2908C99.6075 51.1133 97.5777 51.0312 96.2345 51.4446C97.8717 51.3021 98.1934 52.8222 97.7023 54.3677C97.5434 54.7259 97.9098 54.7408 98.2993 54.6796C99.462 54.5236 99.2777 56.3213 97.777 56.0975C97.7023 56.1975 96.2643 58.0974 96.2031 58.1817C96.4315 57.9236 96.7218 57.7279 97.0471 57.613C97.3718 57.4981 97.721 57.4679 98.0605 57.525C99.3142 57.8033 100.479 58.3896 101.449 59.231C102.13 59.8832 102.942 60.1526 103.264 59.828C103.587 59.5033 103.292 58.6937 102.612 58.0414C102.498 57.9332 102.366 57.7989 102.234 57.6683C103.402 58.0847 103.914 56.9094 102.705 55.7512Z" fill="#BFC1FF"/>
<path d="M74.2524 80.4841L75.1173 82.4117L82.2201 80.1147L74.2524 80.4841Z" fill="#BFC1FF"/>
<path d="M96.8094 70.7717V75.3656L95.6475 73.2821L96.8094 70.7717Z" fill="#BFC1FF"/>
<path d="M87.5087 63.4705C87.0124 64.704 86.261 64.7607 85.7222 63.4988C86.2042 63.4988 86.8565 63.4846 87.5087 63.4705Z" fill="#BFC1FF"/>
<path d="M87.523 57.3452C86.9043 57.4498 86.279 57.5066 85.6514 57.5154C86.1334 56.14 86.9401 55.9273 87.523 57.3452Z" fill="#BFC1FF"/>
<path d="M82.518 64.7465L82.3478 65.5964L76.0532 65.2569L82.518 64.7465Z" fill="#BFC1FF"/>
<path d="M6.25484 93.6697C6.14827 93.8689 5.98507 94.0316 5.78586 94.1383C5.58664 94.2443 5.36037 94.289 5.13566 94.2667C4.91094 94.245 4.69787 94.1562 4.52339 94.0129C4.34891 93.8696 4.22087 93.6779 4.15543 93.4614C4.09 93.2458 4.09012 93.0152 4.15578 92.7988C4.22145 92.5824 4.34971 92.3913 4.52434 92.248C4.69898 92.1048 4.91214 92.0167 5.13688 91.9943C5.36162 91.9727 5.58784 92.0175 5.78694 92.1242C6.05336 92.2675 6.25213 92.5107 6.33981 92.8003C6.42749 93.0898 6.39694 93.4025 6.25484 93.6697Z" fill="#BFC1FF"/>
<path d="M48.4912 56.6505C48.3846 56.8495 48.2214 57.0125 48.0222 57.1189C47.823 57.2252 47.5967 57.2701 47.372 57.2478C47.1473 57.2256 46.9342 57.1372 46.7597 56.9938C46.5853 56.8505 46.4572 56.6586 46.3918 56.4425C46.3263 56.2264 46.3265 55.9956 46.3921 55.7796C46.4578 55.5636 46.5861 55.3718 46.7607 55.2286C46.9353 55.0855 47.1485 54.9973 47.3732 54.9753C47.598 54.9533 47.8242 54.9984 48.0233 55.105C48.2897 55.2484 48.4885 55.4915 48.5762 55.7812C48.6639 56.0708 48.6333 56.3833 48.4912 56.6505Z" fill="#BFC1FF"/>
<path d="M139.726 60.9891C142.363 59.6459 143.611 62.251 145.894 62.1831C144.164 64.1681 141.257 64.9054 139.386 63.0905L139.726 60.9891Z" fill="#BFC1FF"/>
<path d="M121.508 39.1404C121.467 39.2532 121.382 39.345 121.273 39.3955C121.164 39.446 121.039 39.4512 120.926 39.4098C120.814 39.3684 120.722 39.2839 120.671 39.1749C120.621 39.0659 120.616 38.9413 120.657 38.8285C120.698 38.7157 120.783 38.6239 120.892 38.5734C121.001 38.5228 121.126 38.5177 121.238 38.5591C121.351 38.6004 121.443 38.6849 121.494 38.794C121.544 38.903 121.549 39.0276 121.508 39.1404Z" fill="#BFC1FF"/>
<path d="M55.9485 69.7367C54.162 70.0628 52.4038 70.1904 51.0718 70.4315C48.2502 70.9419 45.7689 71.5232 45.5704 72.062C44.8757 73.962 51.9927 74.0187 54.6866 75.7933C56.8716 77.2238 57.6612 77.4193 59.6492 76.2753C57.8783 74.447 56.6043 72.1961 55.9485 69.7367Z" fill="#BFC1FF"/>
<path d="M65.4334 107.462C64.9971 108.651 64.37 109.763 63.5768 110.751C63.003 111.357 62.3004 111.827 61.5208 112.126C58.2635 113.469 53.8539 119.837 52.5599 118.038C52.1927 117.527 53.1994 114.948 54.474 112.083C55.3822 110.042 57.1821 106.966 58.6425 104.257C60.6503 105.8 62.9663 106.893 65.4334 107.462Z" fill="#BFC1FF"/>
<path d="M84.9423 88.3668C84.9371 88.5004 84.8803 88.6272 84.7841 88.7205C84.6878 88.813 84.5587 88.8653 84.4251 88.8653C84.2908 88.8653 84.1617 88.813 84.0654 88.7205C83.9692 88.6272 83.9125 88.5004 83.9072 88.3668C83.9125 88.2332 83.9692 88.1063 84.0654 88.0131C84.1617 87.9205 84.2908 87.8683 84.4251 87.8683C84.5587 87.8683 84.6878 87.9205 84.7841 88.0131C84.8803 88.1063 84.9371 88.2332 84.9423 88.3668Z" fill="#BFC1FF"/>
<path d="M89.7348 79.1372C89.7295 79.2707 89.6728 79.3976 89.5765 79.4909C89.4803 79.5834 89.3512 79.6357 89.2169 79.6357C89.0833 79.6357 88.9542 79.5834 88.8579 79.4909C88.7616 79.3976 88.7049 79.2707 88.6997 79.1372C88.7049 79.0036 88.7616 78.8767 88.8579 78.7834C88.9542 78.6909 89.0833 78.6387 89.2169 78.6387C89.3512 78.6387 89.4803 78.6909 89.5765 78.7834C89.6728 78.8767 89.7295 79.0036 89.7348 79.1372Z" fill="#BFC1FF"/>
<path d="M77.0897 77.5372C77.0845 77.6708 77.0278 77.7976 76.9315 77.8909C76.8353 77.9834 76.7062 78.0357 76.5718 78.0357C76.4383 78.0357 76.3092 77.9834 76.2129 77.8909C76.1166 77.7976 76.0599 77.6708 76.0547 77.5372C76.0599 77.4036 76.1166 77.2768 76.2129 77.1835C76.3092 77.0909 76.4383 77.0387 76.5718 77.0387C76.7062 77.0387 76.8353 77.0909 76.9315 77.1835C77.0278 77.2768 77.0845 77.4036 77.0897 77.5372Z" fill="#BFC1FF"/>
<path d="M77.9389 68.7314C77.9336 68.8652 77.8769 68.9919 77.7806 69.0849C77.6844 69.1778 77.5553 69.2296 77.421 69.2296C77.2874 69.2296 77.1583 69.1778 77.062 69.0849C76.9657 68.9919 76.909 68.8652 76.9038 68.7314C76.909 68.5975 76.9657 68.4708 77.062 68.378C77.1583 68.2851 77.2874 68.2332 77.421 68.2332C77.5553 68.2332 77.6844 68.2851 77.7806 68.378C77.8769 68.4708 77.9336 68.5975 77.9389 68.7314Z" fill="#BFC1FF"/>
<path d="M70.098 64.151C70.093 64.2848 70.0362 64.4115 69.9397 64.5044C69.8432 64.5973 69.7145 64.6492 69.5805 64.6492C69.4466 64.6492 69.3178 64.5973 69.2213 64.5044C69.1249 64.4115 69.0681 64.2848 69.063 64.151C69.0681 64.0171 69.1249 63.8904 69.2213 63.7975C69.3178 63.7046 69.4466 63.6527 69.5805 63.6527C69.7145 63.6527 69.8432 63.7046 69.9397 63.7975C70.0362 63.8904 70.093 64.0171 70.098 64.151Z" fill="#BFC1FF"/>
<path d="M58.7982 69.7225C58.7932 69.8563 58.7364 69.983 58.6399 70.0759C58.5434 70.1688 58.4147 70.2207 58.2807 70.2207C58.1468 70.2207 58.018 70.1688 57.9215 70.0759C57.8251 69.983 57.7683 69.8563 57.7632 69.7225C57.7683 69.5886 57.8251 69.462 57.9215 69.3691C58.018 69.2762 58.1468 69.2242 58.2807 69.2242C58.4147 69.2242 58.5434 69.2762 58.6399 69.3691C58.7364 69.462 58.7932 69.5886 58.7982 69.7225Z" fill="#BFC1FF"/>
<path d="M66.5819 70.7717C66.5768 70.9056 66.5201 71.0322 66.4236 71.1251C66.3271 71.218 66.1984 71.2699 66.0644 71.2699C65.9304 71.2699 65.8017 71.218 65.7052 71.1251C65.6087 71.0322 65.5519 70.9056 65.5469 70.7717C65.5519 70.6378 65.6087 70.5112 65.7052 70.4183C65.8017 70.3254 65.9304 70.2734 66.0644 70.2734C66.1984 70.2734 66.3271 70.3254 66.4236 70.4183C66.5201 70.5112 66.5768 70.6378 66.5819 70.7717Z" fill="#BFC1FF"/>
<path d="M70.7929 93.2017C70.7878 93.3353 70.731 93.4622 70.6345 93.5555C70.538 93.648 70.4093 93.7002 70.2753 93.7002C70.1414 93.7002 70.0127 93.648 69.9162 93.5555C69.8197 93.4622 69.7629 93.3353 69.7578 93.2017C69.7629 93.0682 69.8197 92.9413 69.9162 92.848C70.0127 92.7555 70.1414 92.7032 70.2753 92.7032C70.4093 92.7032 70.538 92.7555 70.6345 92.848C70.731 92.9413 70.7878 93.0682 70.7929 93.2017Z" fill="#BFC1FF"/>
<path d="M76.4501 83.9714C76.4449 84.105 76.3881 84.2318 76.2919 84.3251C76.1956 84.4176 76.0665 84.4699 75.9322 84.4699C75.7986 84.4699 75.6695 84.4176 75.5732 84.3251C75.477 84.2318 75.4203 84.105 75.415 83.9714C75.4203 83.8378 75.477 83.7109 75.5732 83.6177C75.6695 83.5251 75.7986 83.4729 75.9322 83.4729C76.0665 83.4729 76.1956 83.5251 76.2919 83.6177C76.3881 83.7109 76.4449 83.8378 76.4501 83.9714Z" fill="#BFC1FF"/>
<path d="M61.6483 100.007C61.6433 100.14 61.5865 100.267 61.49 100.361C61.3935 100.453 61.2648 100.505 61.1308 100.505C60.9969 100.505 60.8681 100.453 60.7716 100.361C60.6751 100.267 60.6184 100.14 60.6133 100.007C60.6184 99.8732 60.6751 99.7463 60.7716 99.6531C60.8681 99.5605 60.9969 99.5083 61.1308 99.5083C61.2648 99.5083 61.3935 99.5605 61.49 99.6531C61.5865 99.7463 61.6433 99.8732 61.6483 100.007Z" fill="#BFC1FF"/>
<path d="M139.613 60.7663C139.542 60.8025 139.492 60.8704 139.479 60.9491L139.139 63.0506C139.126 63.1312 139.153 63.2132 139.212 63.27C140.213 64.2407 141.491 64.5255 142.736 64.3081C143.975 64.0916 145.184 63.3783 146.082 62.3474C146.148 62.2725 146.162 62.166 146.12 62.0762C146.077 61.9864 145.986 61.9303 145.886 61.9332C145.366 61.9487 144.899 61.8127 144.44 61.608C144.145 61.4765 143.872 61.3263 143.59 61.1713C143.418 61.0767 143.242 60.9804 143.057 60.8854C142.584 60.6431 142.077 60.4289 141.507 60.3699C140.932 60.3102 140.311 60.4104 139.613 60.7663Z" stroke="#8C9199" stroke-width="0.5" stroke-linejoin="round"/>
<mask id="path-31-outside-1_1625_4203" maskUnits="userSpaceOnUse" x="43.3794" y="73.5009" width="31" height="23" fill="black">
<rect fill="white" x="43.3794" y="73.5009" width="31" height="23"/>
<path d="M61.8327 95.5973L44.3794 89.1183L49.8099 74.5009L72.9764 83.1065"/>
</mask>
<path d="M61.6587 96.066C61.9176 96.1621 62.2053 96.0302 62.3014 95.7713C62.3975 95.5124 62.2656 95.2246 62.0067 95.1285L61.6587 96.066ZM44.3794 89.1183L43.9107 88.9442C43.8645 89.0685 43.8696 89.2061 43.9249 89.3267C43.9801 89.4472 44.081 89.5409 44.2054 89.5871L44.3794 89.1183ZM49.8099 74.5009L49.984 74.0321C49.7251 73.936 49.4373 74.0679 49.3412 74.3267L49.8099 74.5009ZM72.8023 83.5752C73.0612 83.6714 73.349 83.5395 73.4451 83.2806C73.5413 83.0218 73.4094 82.734 73.1506 82.6378L72.8023 83.5752ZM62.0067 95.1285L44.5534 88.6496L44.2054 89.5871L61.6587 96.066L62.0067 95.1285ZM44.8481 89.2924L50.2786 74.675L49.3412 74.3267L43.9107 88.9442L44.8481 89.2924ZM49.6357 74.9696L72.8023 83.5752L73.1506 82.6378L49.984 74.0321L49.6357 74.9696Z" fill="#8C9199" mask="url(#path-31-outside-1_1625_4203)"/>
<mask id="path-33-outside-2_1625_4203" maskUnits="userSpaceOnUse" x="69.2681" y="92.1025" width="42" height="20" fill="black">
<rect fill="white" x="69.2681" y="92.1025" width="42" height="20"/>
<path d="M99.886 93.1025L109.981 96.8592L104.551 111.463L70.2681 98.7308"/>
</mask>
<path d="M100.06 92.6339C99.8016 92.5376 99.5137 92.6693 99.4174 92.9282C99.3211 93.187 99.4528 93.4748 99.7116 93.5711L100.06 92.6339ZM109.981 96.8592L110.449 97.0334C110.545 96.7746 110.414 96.4868 110.155 96.3906L109.981 96.8592ZM104.551 111.463L104.377 111.931C104.636 112.027 104.923 111.896 105.019 111.637L104.551 111.463ZM70.4421 98.262C70.1833 98.1659 69.8955 98.2978 69.7993 98.5567C69.7032 98.8156 69.8351 99.1033 70.094 99.1995L70.4421 98.262ZM99.7116 93.5711L109.806 97.3278L110.155 96.3906L100.06 92.6339L99.7116 93.5711ZM109.512 96.6849L104.082 111.288L105.019 111.637L110.449 97.0334L109.512 96.6849ZM104.725 110.994L70.4421 98.262L70.094 99.1995L104.377 111.931L104.725 110.994Z" fill="#8C9199" mask="url(#path-33-outside-2_1625_4203)"/>
<path d="M88.8858 88.7563C88.7564 88.7083 88.6125 88.7743 88.5644 88.9037C88.5164 89.0332 88.5824 89.1771 88.7119 89.2251L93.8237 91.1221C93.9531 91.1701 94.097 91.1041 94.145 90.9747C94.1931 90.8452 94.1271 90.7013 93.9976 90.6533L88.8858 88.7563Z" stroke="#8C9199" stroke-width="0.5" stroke-linecap="round" stroke-linejoin="round"/>
<path d="M114.44 99.9804C114.464 99.9182 114.461 99.8494 114.433 99.7891C114.406 99.7288 114.355 99.682 114.293 99.659L109.586 97.915C109.456 97.8671 109.312 97.933 109.264 98.0623L104.827 110.001C104.779 110.13 104.845 110.274 104.974 110.322L109.681 112.08C109.743 112.103 109.812 112.1 109.872 112.073C109.932 112.045 109.979 111.995 110.002 111.932L114.44 99.9804Z" stroke="#8C9199" stroke-width="0.5" stroke-linecap="round" stroke-linejoin="round"/>
<path d="M40.7907 79.3197C40.8178 79.1969 40.799 79.0687 40.7383 78.9593L40.7381 78.959C40.6765 78.8476 40.5758 78.7631 40.4551 78.7212L40.4541 78.7209L27.2686 74.0844C27.1594 74.046 27.0909 73.9377 27.1029 73.8226C27.1149 73.7075 27.2044 73.6157 27.3191 73.6007L39.7697 71.9717C40.0547 71.9079 40.3534 71.9541 40.6061 72.1012L40.6085 72.1026L40.6085 72.1026L48.2507 76.6681L40.7907 79.3197ZM40.7907 79.3197C40.7727 79.3837 40.742 79.4437 40.7008 79.4952C40.6578 79.5489 40.6048 79.593 40.5454 79.6243C40.4859 79.6557 40.42 79.6748 40.3512 79.6805C40.284 79.6853 40.2178 79.6771 40.1562 79.6565L27.0902 74.4128C26.9827 74.3697 26.8597 74.406 26.7928 74.5006C26.726 74.5952 26.733 74.7233 26.8096 74.8102L35.181 84.3001C35.3567 84.5295 35.6104 84.6863 35.8939 84.7415L35.8939 84.7415L35.8987 84.7423L44.6745 86.2736L44.677 86.2741C44.943 86.3177 45.2159 86.2684 45.4496 86.1346L45.4502 86.1343C45.6838 85.9997 45.864 85.789 45.9601 85.5364L45.9607 85.5347L48.7428 78.0618L48.7431 78.0609C48.8362 77.8078 48.8382 77.5299 48.7483 77.2756C48.6585 77.0215 48.4825 76.8064 48.2509 76.6682L40.7907 79.3197Z" stroke="#8C9199" stroke-width="0.5" stroke-linecap="round" stroke-linejoin="round"/>
<path d="M47.2086 81.4588C47.0792 81.4107 46.9353 81.4767 46.8872 81.6061C46.8392 81.7355 46.9051 81.8794 47.0346 81.9275L65.0065 88.6012C65.1359 88.6493 65.2798 88.5833 65.3279 88.4539C65.3759 88.3244 65.31 88.1805 65.1805 88.1325L47.2086 81.4588Z" stroke="#8C9199" stroke-width="0.5" stroke-linecap="round" stroke-linejoin="round"/>
<path d="M95.1667 99.2621C95.0373 99.2139 94.8934 99.2798 94.8453 99.4092C94.7971 99.5387 94.863 99.6826 94.9924 99.7307L107.229 104.282C107.358 104.33 107.502 104.264 107.55 104.135C107.598 104.006 107.532 103.862 107.403 103.813L95.1667 99.2621Z" stroke="#8C9199" stroke-width="0.5" stroke-linecap="round" stroke-linejoin="round"/>
<path d="M93.6814 98.7102C93.5526 98.6605 93.4079 98.7245 93.3581 98.8533C93.3083 98.9821 93.3724 99.1269 93.5012 99.1766L94.1251 99.4177C94.2539 99.4674 94.3986 99.4033 94.4484 99.2746C94.4981 99.1458 94.4341 99.001 94.3053 98.9513L93.6814 98.7102Z" stroke="#8C9199" stroke-width="0.5" stroke-linecap="round" stroke-linejoin="round"/>
<path d="M91.6504 97.9574C91.5208 97.9096 91.3771 97.976 91.3294 98.1055C91.2816 98.2351 91.348 98.3788 91.4775 98.4265L92.5551 98.8235C92.6847 98.8713 92.8284 98.8049 92.8761 98.6754C92.9239 98.5458 92.8575 98.4021 92.728 98.3544L91.6504 97.9574Z" stroke="#8C9199" stroke-width="0.5" stroke-linecap="round" stroke-linejoin="round"/>
<path d="M76.0264 92.1591C75.8969 92.1112 75.753 92.1772 75.705 92.3067C75.657 92.4361 75.7231 92.58 75.8526 92.628L91.2641 98.3413C91.3936 98.3892 91.5374 98.3232 91.5854 98.1937C91.6334 98.0643 91.5674 97.9204 91.4379 97.8724L76.0264 92.1591Z" stroke="#8C9199" stroke-width="0.5" stroke-linecap="round" stroke-linejoin="round"/>
<mask id="path-43-outside-3_1625_4203" maskUnits="userSpaceOnUse" x="67.6094" y="74.8903" width="55" height="54" fill="black">
<rect fill="white" x="67.6094" y="74.8903" width="55" height="54"/>
<path d="M104.466 75.8903C108.987 77.5551 112.974 80.4133 116.001 84.1617C119.028 87.9101 120.984 92.4085 121.66 97.1785C122.336 101.949 121.708 106.814 119.842 111.256C117.975 115.698 114.94 119.551 111.059 122.407C107.179 125.263 102.597 127.014 97.8004 127.475C93.0043 127.935 88.1731 127.088 83.8194 125.024C79.4658 122.959 75.7532 119.754 73.0751 115.749C70.397 111.743 68.8538 107.087 68.6094 102.275"/>
</mask>
<path d="M104.639 75.4211C104.38 75.3256 104.092 75.4584 103.997 75.7175C103.901 75.9766 104.034 76.264 104.293 76.3595L104.639 75.4211ZM116.001 84.1617L116.39 83.8476L116.39 83.8475L116.001 84.1617ZM121.66 97.1785L122.155 97.1084V97.1084L121.66 97.1785ZM119.842 111.256L119.381 111.062L119.381 111.062L119.842 111.256ZM111.059 122.407L110.763 122.004L110.763 122.004L111.059 122.407ZM97.8004 127.475L97.8482 127.973L97.8483 127.972L97.8004 127.475ZM83.8194 125.024L83.6052 125.476L83.6052 125.476L83.8194 125.024ZM73.0751 115.749L72.6594 116.027L72.6594 116.027L73.0751 115.749ZM69.1087 102.25C69.0947 101.974 68.8598 101.762 68.584 101.776C68.3082 101.79 68.096 102.025 68.11 102.301L69.1087 102.25ZM104.293 76.3595C108.73 77.9932 112.642 80.7977 115.613 84.4759L116.39 83.8475C113.306 80.0288 109.245 77.1171 104.639 75.4211L104.293 76.3595ZM115.612 84.4758C118.583 88.154 120.502 92.5681 121.165 97.2487L122.155 97.1084C121.467 92.2489 119.474 87.6662 116.39 83.8476L115.612 84.4758ZM121.165 97.2487C121.829 101.93 121.212 106.704 119.381 111.062L120.303 111.449C122.204 106.925 122.844 101.969 122.155 97.1084L121.165 97.2487ZM119.381 111.062C117.549 115.421 114.571 119.202 110.763 122.004L111.355 122.81C115.309 119.9 118.401 115.975 120.303 111.449L119.381 111.062ZM110.763 122.004C106.955 124.807 102.459 126.525 97.7526 126.977L97.8483 127.972C102.734 127.503 107.402 125.719 111.355 122.81L110.763 122.004ZM97.7527 126.977C93.0464 127.429 88.3057 126.598 84.0336 124.572L83.6052 125.476C88.0404 127.579 92.9622 128.442 97.8482 127.973L97.7527 126.977ZM84.0337 124.572C79.7617 122.546 76.1187 119.401 73.4907 115.471L72.6594 116.027C75.3878 120.107 79.17 123.372 83.6052 125.476L84.0337 124.572ZM73.4907 115.471C70.8629 111.54 69.3485 106.972 69.1087 102.25L68.11 102.301C68.359 107.203 69.9312 111.946 72.6594 116.027L73.4907 115.471Z" fill="#8C9199" mask="url(#path-43-outside-3_1625_4203)"/>
<mask id="path-45-outside-4_1625_4203" maskUnits="userSpaceOnUse" x="71.4648" y="55.3826" width="16" height="18" fill="black">
<rect fill="white" x="71.4648" y="55.3826" width="16" height="18"/>
<path d="M80.9013 72.6292L81.7094 68.674L75.1171 65.7256C74.2105 65.3237 73.4638 64.6311 72.9948 63.7573C72.5259 62.8834 72.3617 61.8783 72.528 60.9007C72.6944 59.9231 73.1818 59.0288 73.9133 58.3592C74.6448 57.6896 75.5783 57.2829 76.567 57.2034L86.581 56.3826"/>
</mask>
<path d="M80.4114 72.5291C80.3561 72.7996 80.5306 73.0638 80.8012 73.1191C81.0717 73.1743 81.3359 72.9998 81.3911 72.7293L80.4114 72.5291ZM81.7094 68.674L82.1993 68.7742C82.2462 68.5446 82.1275 68.3133 81.9136 68.2176L81.7094 68.674ZM75.1171 65.7256L75.3212 65.2692L75.3197 65.2685L75.1171 65.7256ZM72.9948 63.7573L72.5542 63.9937L72.5543 63.9937L72.9948 63.7573ZM72.528 60.9007L72.0351 60.8168L72.0351 60.8168L72.528 60.9007ZM73.9133 58.3592L73.5757 57.9903L73.5757 57.9904L73.9133 58.3592ZM76.567 57.2034L76.6071 57.7018L76.6079 57.7018L76.567 57.2034ZM86.6218 56.8809C86.897 56.8583 87.1019 56.6169 87.0793 56.3417C87.0567 56.0665 86.8153 55.8617 86.5401 55.8842L86.6218 56.8809ZM81.3911 72.7293L82.1993 68.7742L81.2196 68.5739L80.4114 72.5291L81.3911 72.7293ZM81.9136 68.2176L75.3212 65.2692L74.9129 66.182L81.5053 69.1305L81.9136 68.2176ZM75.3197 65.2685C74.5148 64.9117 73.8518 64.2967 73.4354 63.5209L72.5543 63.9937C73.0758 64.9655 73.9062 65.7357 74.9144 66.1827L75.3197 65.2685ZM73.4354 63.5209C73.0191 62.745 72.8733 61.8526 73.021 60.9845L72.0351 60.8168C71.8501 61.9041 72.0328 63.0219 72.5542 63.9937L73.4354 63.5209ZM73.021 60.9845C73.1686 60.1166 73.6014 59.3225 74.2509 58.728L73.5757 57.9904C72.7622 58.735 72.2201 59.7296 72.0351 60.8168L73.021 60.9845ZM74.2509 58.728C74.9004 58.1335 75.7292 57.7724 76.6071 57.7018L76.527 56.705C75.4273 56.7934 74.3892 57.2458 73.5757 57.9903L74.2509 58.728ZM76.6079 57.7018L86.6218 56.8809L86.5401 55.8842L76.5262 56.7051L76.6079 57.7018Z" fill="#8C9199" mask="url(#path-45-outside-4_1625_4203)"/>
<mask id="path-47-outside-5_1625_4203" maskUnits="userSpaceOnUse" x="91.3721" y="59.6488" width="15" height="33" fill="black">
<rect fill="white" x="91.3721" y="59.6488" width="15" height="33"/>
<path d="M92.3721 60.6488C93.3295 61.1969 94.3922 61.5353 95.4906 61.6413C95.96 62.06 96.4645 62.4377 96.9981 62.7704C98.1458 63.5537 99.0712 64.6203 99.6846 65.8666C100.694 67.7083 102.819 72.1612 104.179 75.1813C105.07 77.0641 105.196 79.2185 104.534 81.1923L101.159 91.5003C98.7144 91.4174 96.3503 90.6078 94.3683 89.175L98.3801 78.1872L95.6474 73.2836L93.2512 78.4722"/>
</mask>
<path d="M92.6205 60.2149C92.3808 60.0777 92.0753 60.1607 91.9381 60.4004C91.801 60.64 91.884 60.9455 92.1237 61.0827L92.6205 60.2149ZM95.4906 61.6413L95.8235 61.2682C95.7442 61.1975 95.6444 61.1538 95.5387 61.1436L95.4906 61.6413ZM96.9981 62.7704L97.2799 62.3574C97.2742 62.3535 97.2685 62.3498 97.2626 62.3461L96.9981 62.7704ZM99.6846 65.8666L99.236 66.0874C99.2392 66.0939 99.2426 66.1004 99.2461 66.1068L99.6846 65.8666ZM104.179 75.1813L103.723 75.3867L103.727 75.395L104.179 75.1813ZM104.534 81.1923L104.06 81.0332L104.059 81.0368L104.534 81.1923ZM101.159 91.5003L101.142 92C101.365 92.0075 101.565 91.8672 101.634 91.6558L101.159 91.5003ZM94.3683 89.175L93.8986 89.0035C93.8219 89.2136 93.8941 89.4491 94.0754 89.5802L94.3683 89.175ZM98.3801 78.1872L98.8498 78.3587C98.8996 78.2221 98.8876 78.0707 98.8169 77.9438L98.3801 78.1872ZM95.6474 73.2836L96.0841 73.0402C95.9925 72.8758 95.8164 72.7768 95.6284 72.7839C95.4404 72.791 95.2723 72.9031 95.1934 73.0739L95.6474 73.2836ZM92.7972 78.2626C92.6814 78.5133 92.7908 78.8104 93.0415 78.9262C93.2922 79.0419 93.5893 78.9326 93.7051 78.6819L92.7972 78.2626ZM92.1237 61.0827C93.1426 61.666 94.2735 62.0261 95.4426 62.139L95.5387 61.1436C94.5108 61.0444 93.5164 60.7278 92.6205 60.2149L92.1237 61.0827ZM95.1578 62.0145C95.6485 62.4521 96.1758 62.847 96.7335 63.1947L97.2626 62.3461C96.7532 62.0285 96.2715 61.6678 95.8235 61.2682L95.1578 62.0145ZM96.7162 63.1834C97.7927 63.9181 98.6606 64.9184 99.236 66.0874L100.133 65.6458C99.4817 64.3221 98.4989 63.1894 97.2799 62.3574L96.7162 63.1834ZM99.2461 66.1068C100.245 67.9304 102.364 72.3684 103.723 75.3866L104.635 74.9759C103.274 71.954 101.142 67.4862 100.123 65.6264L99.2461 66.1068ZM103.727 75.395C104.562 77.161 104.681 79.1818 104.06 81.0332L105.008 81.3515C105.711 79.2552 105.577 76.9671 104.631 74.9675L103.727 75.395ZM104.059 81.0368L100.684 91.3447L101.634 91.6558L105.009 81.3479L104.059 81.0368ZM101.176 91.0006C98.8307 90.9211 96.5627 90.1443 94.6612 88.7697L94.0754 89.5802C96.1379 91.0712 98.5982 91.9138 101.142 92L101.176 91.0006ZM94.838 89.3464L98.8498 78.3587L97.9105 78.0157L93.8986 89.0035L94.838 89.3464ZM98.8169 77.9438L96.0841 73.0402L95.2106 73.527L97.9434 78.4306L98.8169 77.9438ZM95.1934 73.0739L92.7972 78.2626L93.7051 78.6819L96.1013 73.4932L95.1934 73.0739Z" fill="#8C9199" mask="url(#path-47-outside-5_1625_4203)"/>
<path d="M82.3344 65.8461C82.4584 65.8528 82.5686 65.7673 82.593 65.6455L82.7631 64.7955C82.7785 64.7187 82.757 64.6391 82.7049 64.5805C82.6529 64.5219 82.5764 64.4911 82.4983 64.4972L76.0335 65.0077C75.9023 65.018 75.8016 65.1284 75.8032 65.26C75.8049 65.3916 75.9083 65.4994 76.0398 65.5065L82.3344 65.8461Z" stroke="#8C9199" stroke-width="0.5" stroke-linecap="round" stroke-linejoin="round"/>
<mask id="path-50-outside-6_1625_4203" maskUnits="userSpaceOnUse" x="91.2163" y="50.4272" width="9" height="12" fill="black">
<rect fill="white" x="91.2163" y="50.4272" width="9" height="12"/>
<path d="M92.2163 55.7004C92.6596 54.6077 93.3215 53.6172 94.1618 52.7901C96.7431 50.173 98.549 51.6759 97.7027 54.3423C97.5535 54.7154 97.9266 54.7273 98.2997 54.6684C99.4587 54.4855 99.2781 56.3101 97.7774 56.0862C96.8945 57.163 96.1028 58.3112 95.4095 59.519C95.2543 59.8549 95.1804 60.2229 95.1953 60.5927C95.2103 60.9625 95.3125 61.3235 95.4946 61.6458"/>
</mask>
<path d="M91.753 55.5125C91.6492 55.7684 91.7725 56.06 92.0284 56.1638C92.2842 56.2676 92.5758 56.1443 92.6796 55.8884L91.753 55.5125ZM94.1618 52.7901L94.5126 53.1464L94.5178 53.1412L94.1618 52.7901ZM97.7027 54.3423L98.167 54.528C98.1715 54.5166 98.1756 54.5051 98.1793 54.4935L97.7027 54.3423ZM98.2997 54.6684L98.2218 54.1745L98.2217 54.1745L98.2997 54.6684ZM97.7774 56.0862L97.8511 55.5917C97.6771 55.5658 97.5023 55.6332 97.3907 55.7692L97.7774 56.0862ZM95.4095 59.519L94.9759 59.2701C94.9686 59.2828 94.9618 59.2959 94.9556 59.3093L95.4095 59.519ZM95.0593 61.8918C95.1951 62.1322 95.5001 62.217 95.7405 62.0811C95.9809 61.9453 96.0657 61.6403 95.9299 61.3999L95.0593 61.8918ZM92.6796 55.8884C93.0973 54.8588 93.7209 53.9256 94.5125 53.1464L93.811 52.4337C92.9221 53.3088 92.2219 54.3566 91.753 55.5125L92.6796 55.8884ZM94.5178 53.1412C95.1301 52.5204 95.6654 52.1766 96.0913 52.0244C96.5132 51.8737 96.7951 51.9193 96.9695 52.019C97.1454 52.1195 97.3075 52.3293 97.3783 52.7006C97.4496 53.0739 97.4196 53.5816 97.2262 54.191L98.1793 54.4935C98.409 53.7698 98.4706 53.0897 98.3606 52.5131C98.2502 51.9345 97.9581 51.4322 97.4656 51.1507C96.9717 50.8685 96.371 50.8625 95.7548 51.0827C95.1425 51.3015 94.4841 51.7512 93.8058 52.439L94.5178 53.1412ZM97.2385 54.1566C97.1791 54.305 97.1302 54.5161 97.2126 54.735C97.3016 54.9716 97.4931 55.088 97.6408 55.1395C97.7812 55.1884 97.9251 55.1964 98.0359 55.1947C98.153 55.1929 98.2714 55.1791 98.3778 55.1623L98.2217 54.1745C98.1415 54.1872 98.0734 54.194 98.0202 54.1948C97.9608 54.1958 97.9508 54.1885 97.9699 54.1952C97.9964 54.2044 98.0992 54.2516 98.1485 54.3828C98.1913 54.4964 98.1517 54.5661 98.167 54.528L97.2385 54.1566ZM98.3777 55.1623C98.4606 55.1492 98.5057 55.1581 98.5235 55.1636C98.5325 55.1663 98.5367 55.1689 98.5379 55.1697C98.5392 55.1705 98.5395 55.1709 98.5398 55.1712C98.54 55.1715 98.5459 55.1783 98.55 55.1978C98.5542 55.218 98.5555 55.2486 98.5473 55.2868C98.5307 55.3631 98.4797 55.4509 98.3821 55.5145C98.2891 55.5751 98.1235 55.6324 97.8511 55.5917L97.7036 56.5808C98.6896 56.7279 99.3757 56.1854 99.5246 55.4986C99.5946 55.1757 99.5422 54.8017 99.2964 54.5173C99.0369 54.2171 98.6428 54.1081 98.2218 54.1745L98.3777 55.1623ZM97.3907 55.7692C96.4903 56.8674 95.6829 58.0384 94.9759 59.2701L95.8432 59.7679C96.5227 58.584 97.2988 57.4586 98.164 56.4033L97.3907 55.7692ZM94.9556 59.3093C94.7674 59.7165 94.6776 60.1632 94.6957 60.6129L95.6949 60.5725C95.6832 60.2825 95.7411 59.9933 95.8634 59.7287L94.9556 59.3093ZM94.6957 60.6129C94.7139 61.0616 94.8379 61.5 95.0593 61.8918L95.9299 61.3999C95.7871 61.147 95.7067 60.8635 95.6949 60.5725L94.6957 60.6129Z" fill="#8C9199" mask="url(#path-50-outside-6_1625_4203)"/>
<path d="M92.0992 57.9743C92.1694 58.0708 92.2981 58.1042 92.4064 58.054C92.5147 58.0039 92.5725 57.8841 92.5442 57.7681L92.242 56.5263C92.2138 56.4103 92.1074 56.3304 91.9881 56.3357C91.8688 56.341 91.7698 56.4299 91.7519 56.5479C91.6757 57.0504 91.7999 57.5629 92.0992 57.9743Z" stroke="#8C9199" stroke-width="0.5" stroke-linecap="round" stroke-linejoin="round"/>
<mask id="path-53-outside-7_1625_4203" maskUnits="userSpaceOnUse" x="95.0513" y="50.2347" width="9" height="11" fill="black">
<rect fill="white" x="95.0513" y="50.2347" width="9" height="11"/>
<path d="M96.0513 51.5065C98.399 50.655 100.827 51.9274 102.637 53.6162C103.891 54.7855 103.587 56.0266 102.268 55.3743C103.894 56.5355 103.575 58.5086 101.843 57.3594C102.403 57.6399 103.858 59.2145 103.275 59.8265C102.956 60.1593 102.126 59.8832 101.446 59.2295C101.432 59.2153 98.0206 56.2616 96.2587 58.1168"/>
</mask>
<path d="M95.8808 51.0365C95.6212 51.1306 95.4871 51.4174 95.5812 51.677C95.6754 51.9366 95.9621 52.0707 96.2217 51.9766L95.8808 51.0365ZM102.637 53.6162L102.296 53.9817L102.296 53.9819L102.637 53.6162ZM102.268 55.3743L102.49 54.9262C102.256 54.8106 101.973 54.8938 101.839 55.1173C101.705 55.3408 101.766 55.6297 101.978 55.7812L102.268 55.3743ZM101.843 57.3594L102.067 56.9123C101.83 56.7939 101.543 56.88 101.41 57.1087C101.278 57.3375 101.346 57.6298 101.566 57.776L101.843 57.3594ZM103.275 59.8265L103.636 60.1722L103.637 60.1713L103.275 59.8265ZM101.446 59.2295L101.092 59.5831L101.1 59.5901L101.446 59.2295ZM95.8962 57.7725C95.706 57.9727 95.7142 58.2892 95.9144 58.4793C96.1146 58.6695 96.4311 58.6614 96.6213 58.4611L95.8962 57.7725ZM96.2217 51.9766C98.2924 51.2256 100.522 52.3267 102.296 53.9817L102.978 53.2506C101.132 51.5281 98.5055 50.0845 95.8808 51.0365L96.2217 51.9766ZM102.296 53.9819C102.572 54.2389 102.746 54.4855 102.842 54.6887C102.941 54.9003 102.939 55.0274 102.93 55.0689C102.926 55.0845 102.925 55.0768 102.938 55.0631C102.952 55.0485 102.963 55.0484 102.951 55.051C102.914 55.0592 102.77 55.0646 102.49 54.9262L102.047 55.8225C102.426 56.0101 102.815 56.1051 103.166 56.0275C103.559 55.9407 103.823 55.6552 103.905 55.2878C103.98 54.9544 103.901 54.5927 103.746 54.2631C103.587 53.9251 103.329 53.5781 102.978 53.2504L102.296 53.9819ZM101.978 55.7812C102.324 56.0286 102.554 56.3106 102.687 56.5665C102.825 56.8308 102.843 57.0353 102.823 57.1409C102.809 57.2183 102.793 57.203 102.786 57.2042C102.722 57.215 102.51 57.2016 102.119 56.9427L101.566 57.776C102.042 58.0917 102.52 58.2627 102.951 58.1905C103.44 58.1086 103.728 57.743 103.806 57.3256C103.879 56.9364 103.781 56.5018 103.575 56.1054C103.364 55.7007 103.025 55.3007 102.559 54.9675L101.978 55.7812ZM101.619 57.8064C101.692 57.8431 101.846 57.9534 102.04 58.1389C102.226 58.3164 102.421 58.5351 102.581 58.7592C102.745 58.9893 102.852 59.1956 102.893 59.3505C102.912 59.4253 102.911 59.4675 102.909 59.484C102.908 59.4911 102.907 59.4917 102.908 59.4885C102.909 59.4871 102.91 59.4855 102.911 59.484C102.912 59.4833 102.912 59.4827 102.912 59.4823C102.913 59.4818 102.913 59.4816 102.913 59.4816L103.637 60.1713C103.953 59.8395 103.944 59.4147 103.859 59.0941C103.774 58.7728 103.591 58.4532 103.395 58.1781C103.194 57.897 102.956 57.6312 102.73 57.4154C102.512 57.2076 102.274 57.0159 102.067 56.9123L101.619 57.8064ZM102.914 59.4807C102.965 59.4269 102.941 59.5176 102.652 59.4229C102.404 59.3415 102.09 59.1545 101.792 58.8689L101.1 59.5901C101.483 59.9581 101.923 60.236 102.34 60.373C102.717 60.4965 103.266 60.5588 103.636 60.1722L102.914 59.4807ZM101.799 58.8759C101.765 58.8419 101.522 58.6351 101.168 58.3821C100.804 58.1216 100.295 57.7912 99.7215 57.5201C99.1532 57.2514 98.4897 57.0252 97.8248 57.0062C97.1435 56.9867 96.4525 57.1867 95.8962 57.7725L96.6213 58.4611C96.9459 58.1193 97.342 57.9928 97.7962 58.0058C98.2669 58.0193 98.7874 58.1846 99.2939 58.4241C99.7955 58.6613 100.252 58.956 100.586 59.1954C100.931 59.4422 101.119 59.6099 101.092 59.583L101.799 58.8759Z" fill="#8C9199" mask="url(#path-53-outside-7_1625_4203)"/>
<mask id="path-55-outside-8_1625_4203" maskUnits="userSpaceOnUse" x="73.2524" y="79.1147" width="10" height="4" fill="black">
<rect fill="white" x="73.2524" y="79.1147" width="10" height="4"/>
<path d="M74.2524 80.4841L82.2201 80.1147L75.1173 82.4117"/>
</mask>
<path d="M74.2293 79.9847C73.9534 79.9975 73.7402 80.2314 73.753 80.5073C73.7658 80.7831 73.9998 80.9964 74.2756 80.9836L74.2293 79.9847ZM82.2201 80.1147L82.374 80.5905C82.6123 80.5134 82.7568 80.2719 82.7121 80.0255C82.6674 79.779 82.4472 79.6037 82.197 79.6153L82.2201 80.1147ZM74.9635 81.936C74.7007 82.0209 74.5566 82.3028 74.6416 82.5655C74.7266 82.8283 75.0084 82.9724 75.2712 82.8874L74.9635 81.936ZM74.2756 80.9836L82.2433 80.6142L82.197 79.6153L74.2293 79.9847L74.2756 80.9836ZM82.0663 79.639L74.9635 81.936L75.2712 82.8874L82.374 80.5905L82.0663 79.639Z" fill="#8C9199" mask="url(#path-55-outside-8_1625_4203)"/>
<path d="M97.0594 70.7717C97.0594 70.6544 96.9777 70.5528 96.8631 70.5276C96.7485 70.5023 96.6318 70.5602 96.5825 70.6667L95.4206 73.1771C95.387 73.2497 95.3902 73.334 95.4291 73.4039L96.591 75.4874C96.6465 75.5868 96.7621 75.6362 96.8723 75.6076C96.9825 75.579 97.0594 75.4795 97.0594 75.3656V70.7717Z" stroke="#8C9199" stroke-width="0.5" stroke-linecap="round" stroke-linejoin="round"/>
<mask id="path-58-outside-9_1625_4203" maskUnits="userSpaceOnUse" x="54.8633" y="59.5236" width="39" height="49" fill="black">
<rect fill="white" x="54.8633" y="59.5236" width="39" height="49"/>
<path d="M78.3642 67.1846L80.9015 72.6322L93.2512 78.4738L93.237 78.5022C93.1377 80.0477 92.0601 89.2519 85.7081 90.4258C81.0156 91.2929 76.1098 92.3399 72.9337 93.063L66.1138 107.61C62.6497 106.96 60.6512 105.731 58.1461 103.852L64.8101 88.937C65.3313 87.7706 66.0914 86.7259 67.0413 85.8706C67.9912 85.0162 69.1098 84.3699 70.3249 83.9744L75.1173 82.4148L70.0987 71.1986L59.9893 76.6276C58.9262 75.5508 58.0083 74.3394 57.2588 73.0247C56.6123 71.883 56.1419 70.6502 55.8633 69.3681H55.8775L69.6017 61.216C70.5052 60.6746 71.56 60.4408 72.6076 60.5496"/>
</mask>
<path d="M78.8175 66.9735C78.7009 66.7231 78.4034 66.6147 78.1531 66.7313C77.9028 66.8479 77.7944 67.1453 77.911 67.3957L78.8175 66.9735ZM80.9015 72.6322L80.4482 72.8433C80.4975 72.9491 80.5822 73.0343 80.6877 73.0842L80.9015 72.6322ZM93.2512 78.4738L93.6984 78.6974C93.7585 78.5771 93.7677 78.4377 93.7237 78.3105C93.6798 78.1834 93.5865 78.0793 93.465 78.0218L93.2512 78.4738ZM93.237 78.5022L92.7898 78.2786C92.7599 78.3383 92.7423 78.4035 92.738 78.4701L93.237 78.5022ZM85.7081 90.4258L85.7989 90.9174L85.7081 90.4258ZM72.9337 93.063L72.8227 92.5755C72.6725 92.6097 72.5464 92.7113 72.481 92.8508L72.9337 93.063ZM66.1138 107.61L66.0216 108.101C66.2456 108.143 66.4697 108.028 66.5665 107.822L66.1138 107.61ZM58.1461 103.852L57.6895 103.648C57.5943 103.861 57.6593 104.112 57.846 104.252L58.1461 103.852ZM64.8101 88.937L64.3536 88.733L64.3536 88.733L64.8101 88.937ZM67.0413 85.8706L66.7069 85.4989L66.7067 85.4991L67.0413 85.8706ZM70.3249 83.9744L70.1701 83.499L70.1701 83.499L70.3249 83.9744ZM75.1173 82.4148L75.272 82.8902C75.4069 82.8463 75.5167 82.7472 75.5743 82.6176C75.6318 82.488 75.6316 82.34 75.5737 82.2106L75.1173 82.4148ZM70.0987 71.1986L70.5551 70.9944C70.4984 70.8677 70.3916 70.7702 70.2601 70.7254C70.1287 70.6806 69.9845 70.6924 69.8622 70.7581L70.0987 71.1986ZM59.9893 76.6276L59.6335 76.9789C59.7893 77.1367 60.0305 77.173 60.2259 77.0681L59.9893 76.6276ZM57.2588 73.0247L56.8237 73.2711L56.8244 73.2723L57.2588 73.0247ZM55.8633 69.3681V68.8681C55.712 68.8681 55.5689 68.9365 55.474 69.0543C55.3791 69.1721 55.3426 69.3264 55.3747 69.4742L55.8633 69.3681ZM55.8775 69.3681V69.8681C55.9673 69.8681 56.0555 69.8439 56.1328 69.798L55.8775 69.3681ZM69.6017 61.216L69.8571 61.6459L69.8588 61.6449L69.6017 61.216ZM72.556 61.047C72.8306 61.0755 73.0764 60.876 73.105 60.6013C73.1335 60.3267 72.934 60.0809 72.6593 60.0523L72.556 61.047ZM77.911 67.3957L80.4482 72.8433L81.3547 72.4211L78.8175 66.9735L77.911 67.3957ZM80.6877 73.0842L93.0374 78.9258L93.465 78.0218L81.1153 72.1802L80.6877 73.0842ZM92.8039 78.2502L92.7898 78.2786L93.6842 78.7258L93.6984 78.6974L92.8039 78.2502ZM92.738 78.4701C92.6903 79.2135 92.4022 81.8421 91.3543 84.4147C90.3013 86.9995 88.5406 89.3939 85.6172 89.9341L85.7989 90.9174C89.2276 90.2838 91.1817 87.4891 92.2804 84.792C93.3841 82.0826 93.6844 79.3363 93.7359 78.5342L92.738 78.4701ZM85.6172 89.9341C80.9167 90.8027 76.004 91.8512 72.8227 92.5755L73.0447 93.5505C76.2156 92.8286 81.1146 91.7831 85.7989 90.9174L85.6172 89.9341ZM72.481 92.8508L65.6611 107.397L66.5665 107.822L73.3865 93.2753L72.481 92.8508ZM66.206 107.118C62.8469 106.488 60.9198 105.308 58.4461 103.452L57.846 104.252C60.3827 106.155 62.4524 107.431 66.0216 108.101L66.206 107.118ZM58.6026 104.056L65.2666 89.141L64.3536 88.733L57.6895 103.648L58.6026 104.056ZM65.2666 89.141C65.7593 88.0384 66.4778 87.0507 67.3758 86.2422L66.7067 85.4991C65.7049 86.401 64.9033 87.5028 64.3536 88.733L65.2666 89.141ZM67.3757 86.2424C68.2737 85.4346 69.3311 84.8237 70.4796 84.4499L70.1701 83.499C68.8885 83.9162 67.7087 84.5978 66.7069 85.4989L67.3757 86.2424ZM70.4796 84.4499L75.272 82.8902L74.9625 81.9393L70.1701 83.499L70.4796 84.4499ZM75.5737 82.2106L70.5551 70.9944L69.6424 71.4028L74.6609 82.619L75.5737 82.2106ZM69.8622 70.7581L59.7527 76.1871L60.2259 77.0681L70.3353 71.6391L69.8622 70.7581ZM60.3451 76.2763C59.3126 75.2305 58.4211 74.054 57.6931 72.7771L56.8244 73.2723C57.5955 74.6248 58.5398 75.871 59.6335 76.9789L60.3451 76.2763ZM57.6939 72.7783C57.0722 71.6804 56.6198 70.4949 56.3519 69.2619L55.3747 69.4742C55.6639 70.8055 56.1524 72.0856 56.8237 73.2711L57.6939 72.7783ZM55.8633 69.8681H55.8775V68.8681H55.8633V69.8681ZM56.1328 69.798L69.8571 61.6459L69.3464 60.7862L55.6221 68.9382L56.1328 69.798ZM69.8588 61.6449C70.6695 61.1591 71.6159 60.9493 72.556 61.047L72.6593 60.0523C71.5041 59.9323 70.341 60.1902 69.3447 60.7872L69.8588 61.6449Z" fill="#8C9199" mask="url(#path-58-outside-9_1625_4203)"/>
<path d="M59.7908 76.4789C59.8514 76.4372 59.8905 76.3709 59.8978 76.2978C59.905 76.2246 59.8797 76.1519 59.8286 76.0991C58.0873 74.3014 56.8347 72.0883 56.1899 69.67C56.1563 69.544 56.0316 69.465 55.9034 69.4884C55.018 69.6501 54.1382 69.7628 53.3088 69.8656C53.2419 69.8738 53.1754 69.8821 53.1092 69.8902C52.357 69.9832 51.6471 70.0709 51.0271 70.1831L51.027 70.1831C49.6144 70.4391 48.2795 70.7136 47.2702 70.9931C46.7667 71.1326 46.3352 71.2757 46.0132 71.4218C45.8524 71.4948 45.7107 71.5721 45.5988 71.6551C45.4914 71.7347 45.3851 71.8386 45.3355 71.9735L45.3355 71.9736C45.2196 72.2899 45.2673 72.5851 45.4476 72.8384C45.6164 73.0755 45.8917 73.2632 46.2112 73.4204C46.8523 73.7357 47.7886 73.9822 48.7993 74.2183C49.0919 74.2866 49.3915 74.3543 49.6942 74.4226C50.4501 74.5932 51.2257 74.7682 51.9607 74.97C52.9895 75.2523 53.9058 75.5788 54.5448 75.997C55.3271 76.5599 56.2006 76.9842 57.127 77.2506C57.1479 77.2566 57.1696 77.2599 57.1914 77.2603C58.1181 77.2777 59.0272 77.0049 59.7908 76.4789Z" stroke="#8C9199" stroke-width="0.5" stroke-linecap="round" stroke-linejoin="round"/>
<path d="M91.5046 59.2687C91.3692 59.2936 91.2795 59.4232 91.3037 59.5586C91.328 59.6941 91.4571 59.7845 91.5926 59.7609C91.6614 59.7489 91.7635 59.733 91.8864 59.7138C92.3101 59.6475 92.9812 59.5426 93.3891 59.4294C93.5179 59.3936 93.5958 59.2627 93.5658 59.1323C93.5357 59.002 93.4084 58.9184 93.2769 58.9426L91.5046 59.2687Z" stroke="#8C9199" stroke-width="0.5" stroke-linecap="round" stroke-linejoin="round"/>
<path d="M89.5173 57.6767C89.381 57.6715 89.2656 57.7766 89.2582 57.9129C89.2507 58.0491 89.3539 58.1662 89.49 58.1759C89.8922 58.2046 90.281 58.219 90.6272 58.219C90.7634 58.219 90.8746 58.11 90.8771 57.9738C90.8797 57.8376 90.7728 57.7244 90.6367 57.7192L89.5173 57.6767Z" stroke="#8C9199" stroke-width="0.5" stroke-linecap="round" stroke-linejoin="round"/>
<path d="M91.9974 61.0634C92.1344 61.0465 92.2318 60.9217 92.2149 60.7847C92.198 60.6477 92.0732 60.5503 91.9362 60.5672L90.5265 60.7411C90.3895 60.758 90.2921 60.8828 90.309 61.0198C90.3259 61.1568 90.4507 61.2542 90.5877 61.2373L91.9974 61.0634Z" stroke="#8C9199" stroke-width="0.5" stroke-linecap="round" stroke-linejoin="round"/>
<path d="M93.414 57.3302L93.414 57.3302C93.5492 57.2948 93.7566 57.2208 94.0096 57.1289C94.0285 57.122 94.0477 57.115 94.067 57.108C94.3 57.0233 94.5604 56.9286 94.8101 56.8484C95.0775 56.7626 95.349 56.6878 95.5718 56.6618C95.682 56.6489 95.7989 56.6455 95.9046 56.6689C96.012 56.6927 96.1433 56.7536 96.2121 56.8965C96.2121 56.8965 96.2121 56.8965 96.2121 56.8965L95.9869 57.0049C96.2906 57.6355 94.0518 59.0422 93.3257 59.1885L93.414 57.3302ZM93.414 57.3302L93.4106 57.3312C92.7183 57.5227 92.0094 57.644 91.2941 57.6937C91.7061 57.3001 92.0176 56.966 92.2334 56.6929C92.3804 56.5069 92.4909 56.3394 92.5566 56.1934C92.6148 56.0639 92.6711 55.8789 92.5861 55.7114C92.4887 55.5195 92.2854 55.4874 92.1495 55.4904C92.0025 55.4938 91.8271 55.5367 91.636 55.6037C91.2524 55.7382 90.7348 55.9953 90.1058 56.3689C88.6876 56.9359 87.1761 57.235 85.6487 57.2512C85.5394 57.2524 85.4435 57.3244 85.412 57.429C84.8075 59.434 84.8381 61.5767 85.4992 63.5636C85.5337 63.6674 85.6318 63.7367 85.7412 63.7346C89.9293 63.6541 89.9647 63.6485 90 63.649C90.0076 63.6492 90.0152 63.6496 90.0646 63.6496C90.0784 63.6496 90.0922 63.6484 90.1058 63.6462C90.5738 63.5681 90.9327 63.2742 91.1051 62.9516C91.1911 62.7908 91.2402 62.6045 91.212 62.423C91.2065 62.388 91.1983 62.3539 91.1872 62.3209C91.4737 62.2006 91.7465 62.0235 91.9491 61.8172C92.0936 61.6701 92.2156 61.4947 92.2705 61.2998C92.3005 61.1934 92.3097 61.0831 92.2931 60.9735C92.6078 60.8483 92.8877 60.646 93.1065 60.3837L93.1068 60.3834C93.3452 60.0967 93.4999 59.7511 93.5559 59.3845L93.414 57.3302Z" stroke="#8C9199" stroke-width="0.5" stroke-linecap="round" stroke-linejoin="round"/>
<path d="M89.7349 62.3361L89.698 62.0888C89.5621 62.109 89.468 62.2352 89.4874 62.3712C89.5067 62.5073 89.6322 62.6022 89.7684 62.5838L90.7937 62.445C90.9289 62.4267 91.0244 62.3035 91.0085 62.1681C90.9926 62.0326 90.871 61.9349 90.7353 61.9485C90.5876 61.9633 90.3262 61.9987 90.1063 62.0298C89.9953 62.0454 89.8933 62.0602 89.8191 62.071L89.7308 62.0839L89.7066 62.0875L89.7003 62.0885L89.6986 62.0887L89.6982 62.0888L89.6981 62.0888L89.6981 62.0888L89.7349 62.3361Z" stroke="#8C9199" stroke-width="0.5" stroke-linecap="round" stroke-linejoin="round"/>
<mask id="path-66-outside-10_1625_4203" maskUnits="userSpaceOnUse" x="84.2173" y="55.3802" width="4" height="10" fill="black">
<rect fill="white" x="84.2173" y="55.3802" width="4" height="10"/>
<path d="M87.5089 57.3452C87.2701 56.7325 86.9224 56.3751 86.5776 56.3803C85.4948 56.4624 85.2015 59.3929 85.2179 60.5593C85.2329 61.6787 85.5746 64.4226 86.6157 64.4226C86.9433 64.4047 87.2582 64.0495 87.4947 63.4727"/>
</mask>
<path d="M87.0431 57.5268C87.1433 57.7841 87.4332 57.9114 87.6905 57.8111C87.9478 57.7108 88.0751 57.4209 87.9748 57.1636L87.0431 57.5268ZM86.5776 56.3803L86.57 55.8804C86.5599 55.8805 86.5499 55.881 86.5398 55.8817L86.5776 56.3803ZM85.2179 60.5593L85.7179 60.5526L85.7179 60.5523L85.2179 60.5593ZM86.6157 64.4226V64.9226C86.6248 64.9226 86.6339 64.9224 86.6429 64.9219L86.6157 64.4226ZM87.9573 63.6624C88.0621 63.4069 87.9399 63.1148 87.6844 63.0101C87.429 62.9053 87.1369 63.0275 87.0321 63.283L87.9573 63.6624ZM87.9748 57.1636C87.8395 56.8165 87.6619 56.5104 87.4424 56.2834C87.2244 56.0581 86.927 55.875 86.57 55.8804L86.5852 56.8802C86.573 56.8804 86.6218 56.8734 86.7236 56.9787C86.8238 57.0823 86.9395 57.2612 87.0431 57.5268L87.9748 57.1636ZM86.5398 55.8817C86.0247 55.9208 85.6854 56.2935 85.4753 56.65C85.2584 57.018 85.1067 57.485 84.9985 57.95C84.7811 58.8854 84.7093 59.951 84.718 60.5663L85.7179 60.5523C85.7101 60.0012 85.7768 59.0184 85.9726 58.1764C86.0711 57.7527 86.1947 57.3988 86.3368 57.1578C86.4856 56.9052 86.589 56.8809 86.6154 56.8789L86.5398 55.8817ZM84.718 60.566C84.7258 61.1561 84.8184 62.1639 85.0485 63.038C85.1627 63.4719 85.32 63.9091 85.541 64.249C85.7573 64.5816 86.1059 64.9226 86.6157 64.9226V63.9226C86.6049 63.9226 86.5204 63.9207 86.3793 63.7038C86.2431 63.4943 86.1187 63.1755 86.0155 62.7834C85.8108 62.0057 85.7249 61.0818 85.7179 60.5526L84.718 60.566ZM86.6429 64.9219C86.9848 64.9032 87.259 64.7126 87.4583 64.4947C87.6599 64.2743 87.8253 63.9844 87.9573 63.6624L87.0321 63.283C86.9276 63.5377 86.8173 63.7139 86.7204 63.8198C86.6212 63.9282 86.5741 63.9242 86.5884 63.9234L86.6429 64.9219Z" fill="#8C9199" mask="url(#path-66-outside-10_1625_4203)"/>
<mask id="path-68-outside-11_1625_4203" maskUnits="userSpaceOnUse" x="90.2886" y="91.2943" width="5" height="8" fill="black">
<rect fill="white" x="90.2886" y="91.2943" width="5" height="8"/>
<path d="M94.2577 92.2943C93.6249 94.0719 92.7212 95.7405 91.5779 97.2419C90.9347 98.1464 91.4362 98.5748 92.372 97.724C93.2122 96.9308 93.9674 96.0517 94.6256 95.1017"/>
</mask>
<path d="M94.7288 92.462C94.8214 92.2019 94.6856 91.9159 94.4254 91.8233C94.1653 91.7307 93.8793 91.8665 93.7867 92.1266L94.7288 92.462ZM91.5779 97.2419L91.1801 96.939C91.1769 96.9434 91.1736 96.9477 91.1705 96.9522L91.5779 97.2419ZM92.372 97.724L92.7084 98.0941L92.7152 98.0876L92.372 97.724ZM95.0366 95.3865C95.1939 95.1595 95.1374 94.848 94.9104 94.6907C94.6834 94.5334 94.3719 94.59 94.2146 94.8169L95.0366 95.3865ZM93.7867 92.1266C93.1712 93.8556 92.2922 95.4786 91.1801 96.939L91.9758 97.5448C93.1503 96.0024 94.0787 94.2881 94.7288 92.462L93.7867 92.1266ZM91.1705 96.9522C90.9863 97.2111 90.8546 97.4752 90.8076 97.7265C90.763 97.9647 90.78 98.3287 91.0953 98.5503C91.3834 98.7527 91.7214 98.687 91.9434 98.601C92.1886 98.5059 92.4473 98.3313 92.7083 98.094L92.0356 97.3541C91.8287 97.5421 91.6738 97.633 91.5819 97.6686C91.5367 97.6861 91.5229 97.684 91.5356 97.6838C91.5503 97.6837 91.6064 97.6872 91.6703 97.7321C91.7383 97.7799 91.7713 97.8438 91.783 97.8879C91.7929 97.9251 91.7855 97.9373 91.7905 97.9104C91.7952 97.8855 91.8083 97.8395 91.8404 97.7723C91.872 97.7059 91.9189 97.6253 91.9854 97.5317L91.1705 96.9522ZM92.7152 98.0876C93.5808 97.2704 94.3587 96.3649 95.0366 95.3865L94.2146 94.8169C93.5762 95.7385 92.8437 96.5911 92.0287 97.3605L92.7152 98.0876Z" fill="#8C9199" mask="url(#path-68-outside-11_1625_4203)"/>
<mask id="path-70-outside-12_1625_4203" maskUnits="userSpaceOnUse" x="91.2632" y="94.6115" width="6" height="6" fill="black">
<rect fill="white" x="91.2632" y="94.6115" width="6" height="6"/>
<path d="M94.0496 95.8816C93.6033 96.8883 93.0906 97.8636 92.5138 98.8017C91.8899 99.7233 92.5242 100.075 93.3929 99.1703C94.354 98.0509 95.2301 96.8607 96.0152 95.6115"/>
</mask>
<path d="M94.5067 96.0842C94.6186 95.8318 94.5046 95.5364 94.2522 95.4245C93.9997 95.3126 93.7044 95.4265 93.5925 95.679L94.5067 96.0842ZM92.5138 98.8017L92.9278 99.0819C92.9319 99.0759 92.9359 99.0698 92.9397 99.0636L92.5138 98.8017ZM93.3929 99.1703L93.7535 99.5167C93.7599 99.51 93.7662 99.5031 93.7722 99.496L93.3929 99.1703ZM96.4385 95.8775C96.5855 95.6437 96.515 95.335 96.2812 95.1881C96.0474 95.0412 95.7388 95.1116 95.5918 95.3454L96.4385 95.8775ZM93.5925 95.679C93.1552 96.6653 92.653 97.6209 92.0879 98.5397L92.9397 99.0636C93.5283 98.1064 94.0514 97.1112 94.5067 96.0842L93.5925 95.679ZM92.0997 98.5214C91.92 98.7869 91.7944 99.062 91.7682 99.326C91.7411 99.5997 91.827 99.9549 92.1788 100.122C92.4731 100.262 92.7883 100.181 93.012 100.077C93.2559 99.964 93.5074 99.7728 93.7535 99.5167L93.0322 98.824C92.844 99.02 92.6905 99.124 92.5907 99.1704C92.5669 99.1815 92.5482 99.1883 92.5349 99.1923C92.5214 99.1963 92.515 99.197 92.5151 99.197C92.5152 99.197 92.5241 99.196 92.5401 99.1982C92.5563 99.2004 92.5804 99.2059 92.6085 99.2193C92.672 99.2495 92.7209 99.3027 92.746 99.3596C92.7678 99.4089 92.7621 99.4377 92.7634 99.4245C92.7646 99.4123 92.771 99.3762 92.7972 99.3141C92.823 99.2533 92.8645 99.1755 92.9278 99.0819L92.0997 98.5214ZM93.7722 99.496C94.7497 98.3577 95.6404 97.1475 96.4385 95.8775L95.5918 95.3454C94.8198 96.5739 93.9584 97.7442 93.0135 98.8446L93.7722 99.496Z" fill="#8C9199" mask="url(#path-70-outside-12_1625_4203)"/>
<mask id="path-72-outside-13_1625_4203" maskUnits="userSpaceOnUse" x="93.0942" y="95.0084" width="5" height="6" fill="black">
<rect fill="white" x="93.0942" y="95.0084" width="5" height="6"/>
<path d="M95.1689 96.8808C94.904 97.6405 94.5995 98.3852 94.2577 99.1136C93.7757 100.106 94.4428 100.39 95.1786 99.383C95.8972 98.3136 96.5233 97.1845 97.0502 96.0084"/>
</mask>
<path d="M95.641 97.0454C95.7319 96.7847 95.5943 96.4996 95.3335 96.4087C95.0728 96.3177 94.7877 96.4554 94.6968 96.7162L95.641 97.0454ZM94.2577 99.1136L94.7075 99.332L94.7104 99.326L94.2577 99.1136ZM95.1786 99.383L95.5824 99.6779C95.5862 99.6726 95.59 99.6673 95.5936 99.6619L95.1786 99.383ZM97.5065 96.2128C97.6194 95.9608 97.5066 95.665 97.2546 95.5521C97.0026 95.4392 96.7068 95.552 96.5939 95.804L97.5065 96.2128ZM94.6968 96.7162C94.4376 97.4593 94.1397 98.1881 93.8051 98.9012L94.7104 99.326C95.0593 98.5823 95.3703 97.8217 95.641 97.0454L94.6968 96.7162ZM93.808 98.8951C93.6683 99.1826 93.5842 99.472 93.5952 99.7368C93.6065 100.008 93.7352 100.344 94.0968 100.47C94.4076 100.579 94.7122 100.461 94.9224 100.329C95.1501 100.186 95.3736 99.9637 95.5824 99.6779L94.7748 99.0881C94.6157 99.306 94.4799 99.426 94.3906 99.482C94.3466 99.5097 94.3249 99.5148 94.3262 99.5145C94.3278 99.5142 94.3672 99.5056 94.4261 99.5261C94.4915 99.5489 94.5427 99.5946 94.5718 99.6431C94.5971 99.6852 94.595 99.7104 94.5943 99.6953C94.5937 99.6811 94.5953 99.6433 94.6123 99.5784C94.6291 99.5145 94.6588 99.4322 94.7075 99.332L93.808 98.8951ZM95.5936 99.6619C96.3281 98.5688 96.968 97.4148 97.5065 96.2128L96.5939 95.804C96.0786 96.9542 95.4664 98.0584 94.7636 99.1041L95.5936 99.6619Z" fill="#8C9199" mask="url(#path-72-outside-13_1625_4203)"/>
<mask id="path-74-outside-14_1625_4203" maskUnits="userSpaceOnUse" x="95.0122" y="90.4794" width="7" height="10" fill="black">
<rect fill="white" x="95.0122" y="90.4794" width="7" height="10"/>
<path d="M96.5398 97.0576C96.4301 97.5747 96.2928 98.0859 96.1287 98.5889C95.769 99.5993 96.2988 99.7232 96.9495 98.7023C97.6003 97.6815 98.1547 96.5897 98.7077 95.5263C99.4114 94.1905 99.9607 92.9801 100.579 91.4794"/>
</mask>
<path d="M97.029 97.1613C97.0863 96.8912 96.9137 96.6258 96.6436 96.5685C96.3735 96.5112 96.108 96.6837 96.0507 96.9538L97.029 97.1613ZM96.1287 98.5889L96.5999 98.7566L96.604 98.744L96.1287 98.5889ZM98.7077 95.5263L98.2653 95.2932L98.2641 95.2956L98.7077 95.5263ZM101.041 91.6697C101.146 91.4144 101.024 91.1222 100.769 91.017C100.514 90.9119 100.221 91.0337 100.116 91.289L101.041 91.6697ZM96.0507 96.9538C95.9447 97.4536 95.812 97.9476 95.6533 98.4337L96.604 98.744C96.7736 98.2243 96.9156 97.6959 97.029 97.1613L96.0507 96.9538ZM95.6576 98.4212C95.5577 98.7019 95.4989 98.9738 95.5148 99.21C95.5228 99.3291 95.5521 99.4749 95.6385 99.6089C95.7338 99.7568 95.8852 99.8667 96.0737 99.8998C96.245 99.9299 96.3984 99.8883 96.5102 99.8392C96.6247 99.7889 96.729 99.7163 96.8215 99.6371C97.0065 99.4785 97.1922 99.2518 97.3712 98.9711L96.5279 98.4336C96.3815 98.6633 96.2569 98.8039 96.1708 98.8777C96.1278 98.9146 96.1063 98.9244 96.1078 98.9237C96.1095 98.923 96.122 98.9176 96.1442 98.9138C96.1668 98.9099 96.2024 98.9071 96.2467 98.9149C96.2924 98.9229 96.3405 98.9411 96.3848 98.9714C96.4286 99.0013 96.4591 99.0363 96.479 99.067C96.5155 99.1238 96.5138 99.1615 96.5125 99.1429C96.5116 99.1282 96.5119 99.0888 96.5252 99.0192C96.5381 98.9512 96.5615 98.8639 96.5997 98.7566L95.6576 98.4212ZM97.3712 98.9711C98.0365 97.9273 98.6024 96.8126 99.1513 95.757L98.2641 95.2956C97.7071 96.3668 97.1641 97.4356 96.5279 98.4336L97.3712 98.9711ZM99.1501 95.7593C99.8629 94.4062 100.419 93.1808 101.041 91.6697L100.116 91.289C99.5026 92.7793 98.9599 93.9748 98.2653 95.2932L99.1501 95.7593Z" fill="#8C9199" mask="url(#path-74-outside-14_1625_4203)"/>
<mask id="path-76-outside-15_1625_4203" maskUnits="userSpaceOnUse" x="89.939" y="88.4683" width="6" height="7" fill="black">
<rect fill="white" x="89.939" y="88.4683" width="6" height="7"/>
<path d="M93.9549 93.1152C90.4685 94.7875 90.0132 94.0853 92.5453 92.2376C93.5035 91.5033 94.2758 90.5548 94.8012 89.4683"/>
</mask>
<path d="M94.1712 93.566C94.4202 93.4466 94.5252 93.1479 94.4058 92.8989C94.2863 92.65 93.9877 92.5449 93.7387 92.6644L94.1712 93.566ZM92.5453 92.2376L92.8401 92.6416L92.8494 92.6345L92.5453 92.2376ZM95.2513 89.6859C95.3715 89.4373 95.2674 89.1383 95.0188 89.0181C94.7702 88.8979 94.4712 89.002 94.351 89.2506L95.2513 89.6859ZM93.7387 92.6644C92.879 93.0767 92.2256 93.3331 91.7708 93.4625C91.5417 93.5278 91.3825 93.5551 91.2828 93.5603C91.1535 93.5671 91.2196 93.533 91.3163 93.6149C91.3815 93.6701 91.4238 93.7488 91.4356 93.8289C91.4407 93.8636 91.439 93.8909 91.4367 93.9077C91.4345 93.9242 91.4313 93.9332 91.4312 93.9333C91.4311 93.9336 91.433 93.9282 91.439 93.9167C91.4449 93.9053 91.4537 93.8899 91.4666 93.8701C91.4928 93.8301 91.5313 93.7789 91.5853 93.7164C91.8075 93.4594 92.2182 93.0952 92.84 92.6415L92.2505 91.8337C91.6063 92.3038 91.1244 92.7204 90.8288 93.0624C90.6854 93.2282 90.5541 93.4122 90.4873 93.6031C90.4177 93.8021 90.3868 94.1381 90.67 94.3779C90.8833 94.5586 91.1599 94.5682 91.3355 94.5589C91.5406 94.5481 91.7804 94.4995 92.0447 94.4243C92.5767 94.2728 93.2876 93.9898 94.1712 93.566L93.7387 92.6644ZM92.8494 92.6345C93.8696 91.8526 94.692 90.8427 95.2513 89.6859L94.351 89.2506C93.8596 90.2669 93.1373 91.154 92.2411 91.8407L92.8494 92.6345Z" fill="#8C9199" mask="url(#path-76-outside-15_1625_4203)"/>
<mask id="path-78-outside-16_1625_4203" maskUnits="userSpaceOnUse" x="24.3662" y="71.5724" width="5" height="5" fill="black">
<rect fill="white" x="24.3662" y="71.5724" width="5" height="5"/>
<path d="M27.8617 75.635L27.7766 75.876L25.3662 74.9828L26.2595 72.5724L28.6699 73.4656L28.587 73.6865"/>
</mask>
<path d="M28.3332 75.8014C28.4251 75.541 28.2885 75.2554 28.0281 75.1635C27.7677 75.0716 27.4821 75.2082 27.3902 75.4686L28.3332 75.8014ZM27.7766 75.876L27.6028 76.3449C27.7285 76.3914 27.8675 76.3856 27.9888 76.3288C28.1101 76.2719 28.2035 76.1688 28.2481 76.0424L27.7766 75.876ZM25.3662 74.9828L24.8974 74.809C24.8014 75.068 24.9335 75.3557 25.1925 75.4516L25.3662 74.9828ZM26.2595 72.5724L26.4332 72.1035C26.1743 72.0076 25.8866 72.1397 25.7906 72.3986L26.2595 72.5724ZM28.6699 73.4656L29.138 73.6412C29.1847 73.5167 29.1799 73.3788 29.1246 73.2579C29.0694 73.1369 28.9683 73.043 28.8436 72.9968L28.6699 73.4656ZM28.1189 73.511C28.0219 73.7695 28.1529 74.0577 28.4115 74.1547C28.67 74.2517 28.9582 74.1207 29.0552 73.8621L28.1189 73.511ZM27.3902 75.4686L27.3051 75.7096L28.2481 76.0424L28.3332 75.8014L27.3902 75.4686ZM27.9503 75.4072L25.54 74.5139L25.1925 75.4516L27.6028 76.3449L27.9503 75.4072ZM25.8351 75.1565L26.7283 72.7461L25.7906 72.3986L24.8974 74.809L25.8351 75.1565ZM26.0857 73.0412L28.4961 73.9345L28.8436 72.9968L26.4332 72.1035L26.0857 73.0412ZM28.2017 73.2901L28.1189 73.511L29.0552 73.8621L29.138 73.6412L28.2017 73.2901Z" fill="#8C9199" mask="url(#path-78-outside-16_1625_4203)"/>
<path d="M28.6213 74.302C28.6682 74.1721 28.6008 74.0288 28.471 73.982C28.3411 73.9351 28.1978 74.0025 28.151 74.1323L27.839 74.9973C27.7922 75.1271 27.8595 75.2704 27.9894 75.3172C28.1193 75.3641 28.2625 75.2968 28.3094 75.1669L28.6213 74.302Z" stroke="#8C9199" stroke-width="0.5" stroke-linecap="round" stroke-linejoin="round"/>
<path d="M25.9233 75.3164C26.0272 75.2255 26.0377 75.0675 25.9468 74.9636C25.8558 74.8597 25.6979 74.8492 25.594 74.9402L5.14003 92.8435C5.03614 92.9344 5.02563 93.0923 5.11657 93.1962C5.20751 93.3001 5.36545 93.3106 5.46935 93.2197L25.9233 75.3164Z" stroke="#8C9199" stroke-width="0.5" stroke-linecap="round" stroke-linejoin="round"/>
<path d="M47.6489 56.2998C47.7528 56.2088 47.7633 56.0508 47.6723 55.947C47.5813 55.8431 47.4234 55.8327 47.3195 55.9236L27.8021 73.0172C27.6982 73.1082 27.6878 73.2661 27.7787 73.37C27.8697 73.4739 28.0276 73.4843 28.1315 73.3934L47.6489 56.2998Z" stroke="#8C9199" stroke-width="0.5" stroke-linecap="round" stroke-linejoin="round"/>
<path d="M6.47529 93.7876L6.47556 93.7871C6.64869 93.4616 6.68591 93.0806 6.57908 92.7278L6.57908 92.7278C6.47227 92.3751 6.23012 92.0787 5.90535 91.904L5.90504 91.9038C5.66204 91.7736 5.38634 91.7191 5.11292 91.7455L5.1121 91.7456C4.83851 91.7728 4.57875 91.88 4.36577 92.0548L4.36577 92.0548C4.15299 92.2294 3.99668 92.463 3.91663 92.726L3.91655 92.7262C3.8366 92.9897 3.83635 93.2708 3.91616 93.5339C3.99594 93.7977 4.15204 94.0315 4.36473 94.2061C4.57717 94.3806 4.83676 94.4889 5.11087 94.5162L5.11169 94.5162C5.38507 94.5426 5.66052 94.4881 5.90326 94.359L5.90391 94.3587C6.14631 94.2288 6.34529 94.0306 6.47529 93.7876Z" stroke="#8C9199" stroke-width="0.5" stroke-linecap="round" stroke-linejoin="round"/>
<path d="M48.7119 56.7678L48.7116 56.7684C48.5817 57.011 48.3828 57.2098 48.1398 57.3394C47.8971 57.469 47.6213 57.5238 47.3473 57.4966M48.7119 56.7678L46.1525 56.5149C46.2323 56.7784 46.3884 57.0122 46.601 57.187C46.8137 57.3617 47.0734 57.4694 47.3473 57.4966M48.7119 56.7678C48.885 56.4423 48.9223 56.0615 48.8155 55.7087L48.8154 55.7086C48.7086 55.3558 48.4664 55.0596 48.1418 54.8848L48.1418 54.8848M48.7119 56.7678L48.1418 54.8848M47.3473 57.4966L47.372 57.2478M47.3473 57.4966C47.3474 57.4966 47.3474 57.4966 47.3474 57.4966L47.372 57.2478M47.372 57.2478C47.5967 57.2701 47.823 57.2252 48.0222 57.1188L46.7597 56.9938C46.9342 57.1372 47.1473 57.2255 47.372 57.2478ZM48.1418 54.8848L48.1413 54.8845M48.1418 54.8848L48.1413 54.8845M48.1413 54.8845C47.8985 54.7546 47.6228 54.6997 47.3489 54.7265C47.0749 54.7533 46.8151 54.8607 46.6022 55.0353L48.1413 54.8845ZM46.1529 55.7069C46.0729 55.9702 46.0727 56.2514 46.1525 56.5149L46.6022 55.0353C46.3893 55.2098 46.233 55.4436 46.1529 55.7069Z" stroke="#8C9199" stroke-width="0.5" stroke-linecap="round" stroke-linejoin="round"/>
<path d="M139.973 61.0292C139.993 60.9077 139.921 60.7899 139.804 60.7516C138.259 60.2448 136.679 59.8532 135.076 59.58L135.076 59.58L135.074 59.5797C132.71 59.1976 130.225 58.9549 128.31 58.9077C127.354 58.8842 126.531 58.9091 125.933 58.9927C125.636 59.0342 125.379 59.0922 125.186 59.1738C125.011 59.2479 124.801 59.379 124.762 59.6167C124.724 59.8531 124.881 60.044 125.023 60.1707C125.18 60.3099 125.404 60.4474 125.672 60.5822C126.211 60.8536 126.982 61.1413 127.895 61.4248C129.722 61.9927 132.155 62.5549 134.526 62.9374L134.526 62.9374L134.528 62.9378C136.136 63.1807 137.757 63.3142 139.382 63.3376C139.506 63.3393 139.613 63.25 139.633 63.1276L139.973 61.0292Z" stroke="#8C9199" stroke-width="0.5" stroke-linecap="round" stroke-linejoin="round"/>
<path d="M135.875 59.9702C135.898 59.8341 135.806 59.7051 135.67 59.6822C135.534 59.6593 135.405 59.751 135.382 59.8872L134.902 62.7364C134.879 62.8725 134.971 63.0015 135.107 63.0244C135.243 63.0473 135.372 62.9556 135.395 62.8194L135.875 59.9702Z" stroke="#8C9199" stroke-width="0.5" stroke-linecap="round" stroke-linejoin="round"/>
<path d="M109.581 38.493L113.685 39.2486C114.521 41.0388 115.849 42.5551 117.516 43.619C122.051 46.517 127.912 45.5344 130.593 41.3598C133.273 37.1852 131.724 31.4361 127.186 28.5375C122.651 25.6394 116.789 26.6219 114.109 30.7966L114.109 30.797C113.198 32.2207 112.744 33.8868 112.803 35.5734L109.477 38.0465C109.397 38.1059 109.36 38.2069 109.382 38.3038C109.405 38.4007 109.483 38.475 109.581 38.493Z" stroke="#8C9199" stroke-width="0.5" stroke-linecap="round" stroke-linejoin="round"/>
<mask id="path-88-outside-17_1625_4203" maskUnits="userSpaceOnUse" x="120.437" y="30.7953" width="5" height="7" fill="black">
<rect fill="white" x="120.437" y="30.7953" width="5" height="7"/>
<path d="M121.678 37.127C121.862 36.5748 122.2 36.2315 123.195 35.5255C125.3 34.0218 124.848 32.3607 123.592 31.8958C123.369 31.8132 123.13 31.7809 122.894 31.8011C122.656 31.8213 122.427 31.8936 122.221 32.0128C122.015 32.132 121.838 32.2951 121.703 32.4905C121.567 32.686 121.477 32.909 121.437 33.1435"/>
</mask>
<path d="M121.204 36.9687C121.116 37.2306 121.258 37.5138 121.52 37.6013C121.782 37.6887 122.065 37.5472 122.152 37.2853L121.204 36.9687ZM123.195 35.5255L123.485 35.9333L123.486 35.9323L123.195 35.5255ZM123.592 31.8958L123.766 31.4269L123.766 31.4268L123.592 31.8958ZM122.894 31.8011L122.936 32.2994L122.936 32.2993L122.894 31.8011ZM120.944 33.0604C120.898 33.3327 121.082 33.5906 121.354 33.6365C121.626 33.6825 121.884 33.4989 121.93 33.2266L120.944 33.0604ZM122.152 37.2853C122.281 36.9004 122.492 36.6375 123.485 35.9333L122.906 35.1178C121.909 35.8254 121.444 36.2492 121.204 36.9687L122.152 37.2853ZM123.486 35.9323C124.612 35.1275 125.163 34.2013 125.154 33.316C125.145 32.4182 124.559 31.7206 123.766 31.4269L123.419 32.3647C123.881 32.5358 124.149 32.9013 124.154 33.3263C124.158 33.7636 123.882 34.4199 122.904 35.1187L123.486 35.9323ZM123.766 31.4268C123.474 31.3188 123.161 31.2765 122.851 31.303L122.936 32.2993C123.099 32.2854 123.265 32.3077 123.419 32.3647L123.766 31.4268ZM122.851 31.3029C122.54 31.3293 122.24 31.4241 121.971 31.58L122.472 32.4456C122.614 32.3631 122.772 32.3132 122.936 32.2994L122.851 31.3029ZM121.971 31.58C121.701 31.7361 121.47 31.9497 121.292 32.2052L122.113 32.7759C122.207 32.6404 122.33 32.5278 122.472 32.4456L121.971 31.58ZM121.292 32.2052C121.114 32.4618 120.996 32.754 120.944 33.0604L121.93 33.2266C121.957 33.0639 122.02 32.9101 122.113 32.7759L121.292 32.2052Z" fill="#8C9199" mask="url(#path-88-outside-17_1625_4203)"/>
<path d="M120.422 38.743L120.422 38.7429C120.486 38.5668 120.619 38.4247 120.787 38.3466C120.956 38.2681 121.15 38.2601 121.325 38.3243L121.325 38.3244C121.499 38.3886 121.642 38.5196 121.72 38.6885C121.8 38.8587 121.806 39.0521 121.743 39.2258L120.422 38.743ZM120.422 38.743C120.359 38.9168 120.365 39.1101 120.445 39.2804C120.523 39.4492 120.665 39.5802 120.84 39.6444L120.422 38.743ZM121.378 39.6223C121.546 39.5442 121.679 39.402 121.743 39.2259L120.84 39.6445C121.015 39.7088 121.209 39.7007 121.378 39.6223Z" stroke="#8C9199" stroke-width="0.5" stroke-linecap="round" stroke-linejoin="round"/>
<path d="M90.5093 32.4129C90.383 32.3957 90.2899 32.2862 90.2932 32.1587C90.3525 29.8762 90.0726 28.7181 89.8081 27.9046C89.7625 27.7645 89.7161 27.6319 89.6711 27.5032C89.4551 26.885 89.2706 26.3573 89.3587 25.5314L89.359 25.5289L89.359 25.5289C89.4189 25.0166 89.5817 24.5218 89.8371 24.0741C90.0927 23.6261 90.4368 23.2346 90.8471 22.923L90.8473 22.9229C91.2583 22.6112 91.7278 22.3858 92.2284 22.2601L90.5093 32.4129ZM90.5093 32.4129L94.6629 32.9801C94.7951 32.9981 94.9183 32.9091 94.9425 32.7778C95.3529 30.5593 95.8753 29.5355 96.3132 28.8294C96.3859 28.7121 96.4581 28.6012 96.5285 28.4932C96.8838 27.9478 97.1922 27.4743 97.2848 26.6053L97.2848 26.6053L97.2853 26.6003C97.3759 25.5522 97.0596 24.5092 96.4023 23.6882L96.4022 23.688C95.7447 22.8677 94.7969 22.3318 93.7553 22.1912M90.5093 32.4129L93.7553 22.1912M93.7553 22.1912C93.2468 22.1113 92.7273 22.1347 92.2284 22.2601L93.7553 22.1912Z" stroke="#8C9199" stroke-width="0.5" stroke-linecap="round" stroke-linejoin="round"/>
<path d="M94.408 36.071C94.4749 36.0802 94.5427 36.062 94.5959 36.0205C94.6492 35.9789 94.6834 35.9176 94.6907 35.8505L94.9168 33.7804C94.9315 33.6459 94.8365 33.5241 94.7025 33.5056L90.3929 32.9101C90.326 32.9008 90.2582 32.919 90.205 32.9605C90.1517 33.0021 90.1175 33.0634 90.1102 33.1305L89.8833 35.2006C89.8686 35.3351 89.9636 35.4569 90.0976 35.4755L94.408 36.071Z" stroke="#8C9199" stroke-width="0.5" stroke-linecap="round" stroke-linejoin="round"/>
<mask id="path-93-outside-18_1625_4203" maskUnits="userSpaceOnUse" x="90.1318" y="24.2649" width="6" height="9" fill="black">
<rect fill="white" x="90.1318" y="24.2649" width="6" height="9"/>
<path d="M92.9959 25.3877L92.1004 25.2743C91.9885 25.2574 91.8743 25.2633 91.7646 25.2915C91.6549 25.3197 91.5519 25.3697 91.4616 25.4385C91.3721 25.5073 91.2967 25.5935 91.2407 25.6919C91.1848 25.7904 91.149 25.8991 91.1363 26.0116C91.1131 26.2442 91.181 26.4767 91.3273 26.6596C91.4728 26.8423 91.684 26.9609 91.9161 26.9899L94.4825 27.3302C94.5944 27.3471 94.7086 27.3413 94.8183 27.3131C94.928 27.2849 95.0309 27.2349 95.1205 27.1661C95.2108 27.0973 95.2854 27.0111 95.3414 26.9126C95.3974 26.8141 95.4332 26.7054 95.4459 26.5929C95.469 26.3603 95.4011 26.1278 95.2548 25.945C95.1093 25.7622 94.8981 25.6436 94.666 25.6146L94.2556 25.5721C94.1437 25.5552 94.0295 25.561 93.9198 25.5892C93.8101 25.6174 93.7071 25.6674 93.6168 25.7362C93.5273 25.805 93.4519 25.8912 93.3959 25.9897C93.3399 26.0882 93.3041 26.1969 93.2914 26.3094L92.625 32.4488"/>
</mask>
<path d="M92.9331 25.8838C93.207 25.9185 93.4573 25.7245 93.492 25.4506C93.5267 25.1766 93.3327 24.9264 93.0588 24.8917L92.9331 25.8838ZM92.1004 25.2743L92.0259 25.7689L92.0376 25.7703L92.1004 25.2743ZM91.4616 25.4385L91.1586 25.0408L91.157 25.042L91.4616 25.4385ZM91.2407 25.6919L90.8061 25.4448L90.806 25.4449L91.2407 25.6919ZM91.1363 26.0116L90.6394 25.9556L90.6387 25.9621L91.1363 26.0116ZM91.3273 26.6596L91.7185 26.3481L91.7177 26.3472L91.3273 26.6596ZM91.9161 26.9899L91.9818 26.4943L91.9782 26.4938L91.9161 26.9899ZM94.4825 27.3302L94.557 26.8357L94.5482 26.8346L94.4825 27.3302ZM95.1205 27.1661L94.8175 26.7684L94.8159 26.7696L95.1205 27.1661ZM95.3414 26.9126L94.9067 26.6654L94.9067 26.6656L95.3414 26.9126ZM95.4459 26.5929L95.9428 26.649L95.9434 26.6424L95.4459 26.5929ZM95.2548 25.945L94.8636 26.2564L94.8645 26.2575L95.2548 25.945ZM94.666 25.6146L94.7281 25.1184L94.7176 25.1173L94.666 25.6146ZM94.2556 25.5721L94.1811 26.0665C94.1887 26.0676 94.1964 26.0686 94.2041 26.0694L94.2556 25.5721ZM93.6168 25.7362L93.3138 25.3385L93.3122 25.3398L93.6168 25.7362ZM93.3959 25.9897L92.9613 25.7425L92.9612 25.7427L93.3959 25.9897ZM93.2914 26.3094L92.7946 26.2533L92.7944 26.2554L93.2914 26.3094ZM92.128 32.3948C92.0982 32.6693 92.2966 32.916 92.5711 32.9458C92.8456 32.9756 93.0923 32.7772 93.1221 32.5027L92.128 32.3948ZM93.0588 24.8917L92.1633 24.7783L92.0376 25.7703L92.9331 25.8838L93.0588 24.8917ZM92.1749 24.7799C91.9967 24.753 91.8148 24.7623 91.6401 24.8072L91.8891 25.7757C91.9338 25.7642 91.9803 25.7619 92.0259 25.7687L92.1749 24.7799ZM91.6401 24.8072C91.4654 24.8521 91.3018 24.9317 91.1586 25.0408L91.7647 25.8362C91.8021 25.8077 91.8444 25.7872 91.8891 25.7757L91.6401 24.8072ZM91.157 25.042C91.0151 25.151 90.8953 25.2878 90.8061 25.4448L91.6754 25.9391C91.6981 25.8992 91.729 25.8636 91.7663 25.835L91.157 25.042ZM90.806 25.4449C90.7173 25.6011 90.6598 25.7746 90.6394 25.9556L91.6331 26.0677C91.6381 26.0237 91.6523 25.9798 91.6755 25.9389L90.806 25.4449ZM90.6387 25.9621C90.6028 26.3234 90.7082 26.6861 90.9369 26.9719L91.7177 26.3472C91.6539 26.2674 91.6235 26.165 91.6338 26.0611L90.6387 25.9621ZM90.9362 26.971C91.163 27.256 91.4923 27.4408 91.854 27.4861L91.9782 26.4938C91.8757 26.481 91.7826 26.4287 91.7185 26.3481L90.9362 26.971ZM91.8504 27.4856L94.4167 27.8259L94.5482 26.8346L91.9818 26.4943L91.8504 27.4856ZM94.408 27.8247C94.5862 27.8515 94.7681 27.8422 94.9428 27.7973L94.6937 26.8288C94.6491 26.8403 94.6026 26.8427 94.5569 26.8358L94.408 27.8247ZM94.9428 27.7973C95.1173 27.7525 95.2816 27.6728 95.4251 27.5625L94.8159 26.7696C94.7803 26.7969 94.7387 26.8173 94.6937 26.8288L94.9428 27.7973ZM95.4235 27.5638C95.5686 27.4532 95.6876 27.3153 95.7761 27.1596L94.9067 26.6656C94.8832 26.7068 94.853 26.7413 94.8175 26.7684L95.4235 27.5638ZM95.776 27.1597C95.8648 27.0035 95.9223 26.8299 95.9427 26.649L94.949 26.5369C94.9441 26.5809 94.9299 26.6247 94.9067 26.6654L95.776 27.1597ZM95.9434 26.6424C95.9793 26.2811 95.8739 25.9184 95.6452 25.6326L94.8645 26.2575C94.9283 26.3372 94.9587 26.4395 94.9483 26.5435L95.9434 26.6424ZM95.646 25.6337C95.4191 25.3486 95.0898 25.1637 94.7281 25.1185L94.604 26.1107C94.7064 26.1236 94.7995 26.1758 94.8636 26.2564L95.646 25.6337ZM94.7176 25.1173L94.3071 25.0747L94.2041 26.0694L94.6145 26.1119L94.7176 25.1173ZM94.3301 25.0776C94.1518 25.0508 93.97 25.0601 93.7953 25.105L94.0443 26.0735C94.089 26.062 94.1355 26.0596 94.1811 26.0665L94.3301 25.0776ZM93.7953 25.105C93.6206 25.1499 93.457 25.2294 93.3138 25.3385L93.9198 26.1339C93.9572 26.1055 93.9996 26.085 94.0443 26.0735L93.7953 25.105ZM93.3122 25.3398C93.1703 25.4488 93.0505 25.5856 92.9613 25.7425L93.8306 26.2368C93.8533 26.1969 93.8842 26.1613 93.9214 26.1327L93.3122 25.3398ZM92.9612 25.7427C92.8725 25.8988 92.815 26.0723 92.7946 26.2533L93.7883 26.3654C93.7932 26.3215 93.8074 26.2775 93.8306 26.2367L92.9612 25.7427ZM92.7944 26.2554L92.128 32.3948L93.1221 32.5027L93.7885 26.3633L92.7944 26.2554Z" fill="#8C9199" mask="url(#path-93-outside-18_1625_4203)"/>
<mask id="path-95-outside-19_1625_4203" maskUnits="userSpaceOnUse" x="119.629" y="86.4452" width="17" height="14" fill="black">
<rect fill="white" x="119.629" y="86.4452" width="17" height="14"/>
<path d="M124.627 87.4452L135.459 93.4428L132.283 99.1703L120.629 92.7339"/>
</mask>
<path d="M124.869 87.0078C124.627 86.874 124.323 86.9614 124.189 87.203C124.055 87.4446 124.143 87.7489 124.384 87.8826L124.869 87.0078ZM135.459 93.4428L135.896 93.6853C135.961 93.5693 135.976 93.4324 135.94 93.3049C135.903 93.1774 135.817 93.0696 135.701 93.0054L135.459 93.4428ZM132.283 99.1703L132.041 99.608C132.283 99.7413 132.587 99.654 132.72 99.4127L132.283 99.1703ZM120.871 92.2962C120.629 92.1627 120.325 92.2504 120.191 92.4921C120.058 92.7339 120.145 93.038 120.387 93.1716L120.871 92.2962ZM124.384 87.8826L135.217 93.8802L135.701 93.0054L124.869 87.0078L124.384 87.8826ZM135.022 93.2003L131.846 98.9278L132.72 99.4127L135.896 93.6853L135.022 93.2003ZM132.525 98.7326L120.871 92.2962L120.387 93.1716L132.041 99.608L132.525 98.7326Z" fill="#8C9199" mask="url(#path-95-outside-19_1625_4203)"/>
<path d="M129.229 96.5821C129.162 96.7028 129.205 96.8549 129.326 96.9218L131.651 98.2121C131.709 98.2443 131.778 98.2521 131.841 98.2338C131.905 98.2155 131.959 98.1726 131.991 98.1146L134.402 93.7625C134.469 93.6418 134.425 93.4897 134.304 93.4227L131.979 92.1325C131.921 92.1003 131.853 92.0925 131.789 92.1108C131.725 92.129 131.671 92.1719 131.639 92.23L129.229 96.5821Z" stroke="#8C9199" stroke-width="0.5" stroke-linecap="round" stroke-linejoin="round"/>
<path d="M126.237 94.9239C126.17 95.0446 126.214 95.1967 126.334 95.2636L128.66 96.5532C128.718 96.5853 128.786 96.5931 128.85 96.5748C128.914 96.5566 128.967 96.5137 129 96.4557L131.41 92.1035C131.477 91.9828 131.433 91.8308 131.313 91.7638L128.987 90.4735C128.929 90.4413 128.861 90.4335 128.797 90.4518C128.733 90.4701 128.679 90.513 128.647 90.571L126.237 94.9239Z" stroke="#8C9199" stroke-width="0.5" stroke-linecap="round" stroke-linejoin="round"/>
<path d="M123.246 93.2792C123.213 93.3374 123.206 93.4061 123.224 93.47C123.243 93.5339 123.286 93.5878 123.345 93.6197L125.683 94.8958C125.804 94.9617 125.955 94.9176 126.022 94.7972L128.418 90.4585C128.485 90.3378 128.441 90.1859 128.321 90.119L125.995 88.8288C125.937 88.7966 125.869 88.7888 125.805 88.8071C125.741 88.8253 125.687 88.8682 125.655 88.9263L123.246 93.2792Z" stroke="#8C9199" stroke-width="0.5" stroke-linecap="round" stroke-linejoin="round"/>
<mask id="path-100-outside-20_1625_4203" maskUnits="userSpaceOnUse" x="119.487" y="86.4735" width="7" height="8" fill="black">
<rect fill="white" x="119.487" y="86.4735" width="7" height="8"/>
<path d="M123.053 87.4735L125.222 88.6787L122.812 93.0316L120.487 91.7413L122.84 87.4877"/>
</mask>
<path d="M123.296 87.0365C123.055 86.9023 122.75 86.9893 122.616 87.2306C122.482 87.472 122.569 87.7764 122.81 87.9106L123.296 87.0365ZM125.222 88.6787L125.659 88.9209C125.793 88.6796 125.706 88.3756 125.465 88.2417L125.222 88.6787ZM122.812 93.0316L122.57 93.4688C122.686 93.5332 122.822 93.5488 122.95 93.5122C123.078 93.4756 123.185 93.3898 123.25 93.2737L122.812 93.0316ZM120.487 91.7413L120.049 91.4992C119.916 91.7407 120.003 92.0447 120.244 92.1785L120.487 91.7413ZM123.278 87.7298C123.412 87.4881 123.324 87.1839 123.083 87.0502C122.841 86.9165 122.537 87.004 122.403 87.2456L123.278 87.7298ZM122.81 87.9106L124.979 89.1157L125.465 88.2417L123.296 87.0365L122.81 87.9106ZM124.784 88.4365L122.375 92.7894L123.25 93.2737L125.659 88.9209L124.784 88.4365ZM123.055 92.5944L120.729 91.3041L120.244 92.1785L122.57 93.4688L123.055 92.5944ZM120.924 91.9834L123.278 87.7298L122.403 87.2456L120.049 91.4992L120.924 91.9834Z" fill="#8C9199" mask="url(#path-100-outside-20_1625_4203)"/>
<path d="M118.397 87.9329C118.33 88.0534 118.373 88.2057 118.493 88.2731C118.614 88.3404 118.766 88.2973 118.833 88.1768L119.103 87.6947C119.17 87.5742 119.127 87.4219 119.007 87.3545C118.886 87.2872 118.734 87.3303 118.666 87.4508L118.397 87.9329Z" stroke="#8C9199" stroke-width="0.5" stroke-linecap="round" stroke-linejoin="round"/>
<path d="M122.18 87.6228C122.247 87.502 122.203 87.3499 122.082 87.2831C121.962 87.2164 121.809 87.2602 121.743 87.3811L119.8 90.8974C119.733 91.0183 119.777 91.1703 119.898 91.2371C120.019 91.3039 120.171 91.26 120.238 91.1392L122.18 87.6228Z" stroke="#8C9199" stroke-width="0.5" stroke-linecap="round" stroke-linejoin="round"/>
<path d="M71.3797 37.2691C71.3563 37.133 71.2271 37.0416 71.091 37.065C70.9549 37.0884 70.8635 37.2176 70.8869 37.3537L71.213 39.2536C71.2364 39.3897 71.3656 39.4811 71.5017 39.4578C71.6378 39.4344 71.7292 39.3051 71.7058 39.1691L71.3797 37.2691Z" stroke="#8C9199" stroke-width="0.5" stroke-linecap="round" stroke-linejoin="round"/>
<path d="M70.0412 41.542C70.1772 41.5185 70.2684 41.3891 70.2449 41.2531C70.2214 41.117 70.092 41.0258 69.956 41.0493L68.0702 41.3754C67.9341 41.3989 67.8429 41.5283 67.8664 41.6644C67.89 41.8004 68.0193 41.8916 68.1554 41.8681L70.0412 41.542Z" stroke="#8C9199" stroke-width="0.5" stroke-linecap="round" stroke-linejoin="round"/>
<path d="M75.4878 40.5774C75.6237 40.5529 75.7139 40.4229 75.6894 40.287C75.6649 40.1511 75.5349 40.0609 75.399 40.0854L73.5132 40.4257C73.3773 40.4502 73.2871 40.5802 73.3116 40.7161C73.3361 40.852 73.4661 40.9423 73.602 40.9177L75.4878 40.5774Z" stroke="#8C9199" stroke-width="0.5" stroke-linecap="round" stroke-linejoin="round"/>
<path d="M72.1773 44.6861C72.2018 44.822 72.3318 44.9123 72.4677 44.8878C72.6036 44.8633 72.6938 44.7332 72.6693 44.5974L72.329 42.7116C72.3045 42.5757 72.1745 42.4854 72.0386 42.51C71.9027 42.5345 71.8125 42.6645 71.837 42.8004L72.1773 44.6861Z" stroke="#8C9199" stroke-width="0.5" stroke-linecap="round" stroke-linejoin="round"/>
<path d="M72.1266 43.0022C71.9907 43.0261 71.8611 42.9354 71.8371 42.7995C71.7656 42.3951 71.5366 42.0355 71.2004 41.7998L71.2004 41.7998C70.864 41.564 70.448 41.4712 70.0435 41.5419C69.9076 41.5656 69.7781 41.4747 69.7543 41.3388C69.7304 41.2029 69.8211 41.0734 69.957 41.0494C70.3617 40.9779 70.7214 40.7487 70.9572 40.4122L70.9572 40.4121C71.1931 40.0756 71.2857 39.6592 71.2147 39.2545C71.1908 39.1186 71.2816 38.989 71.4176 38.9651C71.5535 38.9412 71.6831 39.032 71.7071 39.1679C71.7071 39.168 71.7071 39.168 71.7071 39.1681C71.7785 39.5725 72.0075 39.9321 72.3436 40.168L72.1266 43.0022ZM72.1266 43.0022C72.2625 42.9783 72.3533 42.8488 72.3295 42.7129M72.1266 43.0022L72.3295 42.7129M72.3295 42.7129C72.2587 42.3082 72.3514 41.892 72.5872 41.5557L72.5872 41.5556C72.823 41.2192 73.1826 40.9901 73.5872 40.9186C73.723 40.8946 73.8138 40.7651 73.7899 40.6292M72.3295 42.7129L73.7899 40.6292M73.7899 40.6292C73.7661 40.4934 73.6367 40.4025 73.5007 40.4262M73.7899 40.6292L73.5007 40.4262M73.5007 40.4262C73.096 40.4967 72.6799 40.4039 72.3437 40.168L73.5007 40.4262Z" stroke="#8C9199" stroke-width="0.5" stroke-linecap="round" stroke-linejoin="round"/>
<path d="M65.6681 107.548C65.6928 107.481 65.6874 107.406 65.6533 107.343C65.6191 107.28 65.5595 107.234 65.4896 107.218C63.0574 106.658 60.7742 105.58 58.7949 104.059C58.7367 104.015 58.662 103.998 58.5903 104.013C58.5186 104.028 58.4573 104.074 58.4225 104.139C57.9907 104.94 57.5271 105.776 57.0648 106.61C55.9724 108.582 54.8873 110.54 54.2456 111.982L54.2456 111.982C53.6077 113.415 53.0336 114.785 52.6647 115.863C52.4807 116.4 52.3445 116.875 52.2786 117.252C52.2456 117.441 52.2285 117.614 52.2346 117.764C52.2405 117.908 52.269 118.062 52.3568 118.184L52.3569 118.184C52.5672 118.477 52.8556 118.612 53.1874 118.606C53.4997 118.6 53.8342 118.47 54.1708 118.28C54.846 117.899 55.6405 117.209 56.4732 116.444C56.7141 116.223 56.9587 115.995 57.206 115.764C57.8233 115.189 58.4571 114.598 59.0903 114.06C59.9776 113.306 60.8381 112.679 61.6134 112.358C62.4265 112.046 63.1595 111.556 63.7584 110.922C63.763 110.917 63.7675 110.912 63.7717 110.907C64.582 109.898 65.2225 108.763 65.6681 107.548Z" stroke="#8C9199" stroke-width="0.5" stroke-linecap="round" stroke-linejoin="round"/>
<mask id="path-110-outside-21_1625_4203" maskUnits="userSpaceOnUse" x="112.128" y="79.5551" width="29" height="9" fill="black">
<rect fill="white" x="112.128" y="79.5551" width="29" height="9"/>
<path d="M113.128 81.1356L140.265 80.5551L140.407 87.1049L118.346 87.5728"/>
</mask>
<path d="M113.118 80.6358C112.842 80.6417 112.623 80.8703 112.629 81.1463C112.634 81.4224 112.863 81.6414 113.139 81.6355L113.118 80.6358ZM140.265 80.5551L140.765 80.5442C140.759 80.2682 140.53 80.0493 140.254 80.0552L140.265 80.5551ZM140.407 87.1049L140.417 87.6048C140.55 87.602 140.676 87.5466 140.768 87.4508C140.86 87.355 140.91 87.2267 140.907 87.0941L140.407 87.1049ZM118.336 87.0729C118.06 87.0788 117.84 87.3073 117.846 87.5834C117.852 87.8595 118.081 88.0785 118.357 88.0727L118.336 87.0729ZM113.139 81.6355L140.276 81.0549L140.254 80.0552L113.118 80.6358L113.139 81.6355ZM139.765 80.5659L139.907 87.1157L140.907 87.0941L140.765 80.5442L139.765 80.5659ZM140.396 86.605L118.336 87.0729L118.357 88.0727L140.417 87.6048L140.396 86.605Z" fill="#8C9199" mask="url(#path-110-outside-21_1625_4203)"/>
<path d="M136.457 86.401C136.458 86.4673 136.486 86.5304 136.534 86.5764C136.581 86.6223 136.646 86.6474 136.712 86.646L139.377 86.5892C139.515 86.5863 139.624 86.4722 139.621 86.3343L139.522 81.3576C139.521 81.2912 139.493 81.2281 139.445 81.1822C139.397 81.1362 139.333 81.1112 139.267 81.1126L136.602 81.1693C136.464 81.1723 136.355 81.2863 136.357 81.4243L136.457 86.401Z" stroke="#8C9199" stroke-width="0.5" stroke-linecap="round" stroke-linejoin="round"/>
<path d="M133.054 86.4725C133.057 86.6104 133.171 86.7197 133.309 86.7167L135.961 86.66C136.099 86.6571 136.208 86.543 136.205 86.4051L136.106 81.4284C136.105 81.362 136.077 81.2989 136.029 81.253C135.981 81.207 135.917 81.182 135.851 81.1834L133.185 81.2401C133.119 81.2415 133.056 81.2693 133.01 81.3172C132.964 81.3652 132.939 81.4294 132.94 81.4958L133.054 86.4725Z" stroke="#8C9199" stroke-width="0.5" stroke-linecap="round" stroke-linejoin="round"/>
<path d="M129.637 86.5434C129.64 86.6813 129.754 86.7906 129.892 86.7877L132.558 86.731C132.624 86.7295 132.687 86.7018 132.733 86.6539C132.779 86.6059 132.804 86.5417 132.802 86.4753L132.689 81.4986C132.686 81.3607 132.572 81.2514 132.434 81.2543L129.768 81.311C129.702 81.3125 129.639 81.3402 129.593 81.3881C129.547 81.4361 129.522 81.5003 129.524 81.5667L129.637 86.5434Z" stroke="#8C9199" stroke-width="0.5" stroke-linecap="round" stroke-linejoin="round"/>
<path d="M126.22 86.6143C126.223 86.7522 126.337 86.8615 126.475 86.8586L129.141 86.8019C129.207 86.8005 129.27 86.7727 129.316 86.7248C129.362 86.6768 129.387 86.6126 129.385 86.5462L129.272 81.5836C129.269 81.4458 129.155 81.3365 129.017 81.3394L126.351 81.3961C126.285 81.3975 126.222 81.4253 126.176 81.4732C126.13 81.5212 126.105 81.5854 126.107 81.6518L126.22 86.6143Z" stroke="#8C9199" stroke-width="0.5" stroke-linecap="round" stroke-linejoin="round"/>
<path d="M122.803 86.6987C122.805 86.7653 122.833 86.8286 122.881 86.8746C122.929 86.9206 122.993 86.9454 123.06 86.9436L125.725 86.8727C125.863 86.8691 125.971 86.7548 125.968 86.6171L125.855 81.6546C125.852 81.5167 125.737 81.4074 125.599 81.4103L122.949 81.467C122.811 81.47 122.701 81.5841 122.704 81.722L122.803 86.6987Z" stroke="#8C9199" stroke-width="0.5" stroke-linecap="round" stroke-linejoin="round"/>
<path d="M90.2943 63.4892C90.3412 63.3674 90.2863 63.23 90.1685 63.1738C90.0506 63.1177 89.9093 63.1617 89.8442 63.2749C87.7769 66.8694 86.2796 70.7631 85.407 74.8168C85.3795 74.9444 85.4549 75.0717 85.58 75.109C85.7051 75.1463 85.8379 75.081 85.8847 74.9591L90.2943 63.4892Z" stroke="#8C9199" stroke-width="0.5" stroke-linecap="round" stroke-linejoin="round"/>
<path d="M54.0635 95.7007C54.1206 95.575 54.0651 95.4268 53.9394 95.3696C53.8137 95.3124 53.6655 95.368 53.6083 95.4937L51.3965 100.357C51.3393 100.483 51.3948 100.631 51.5205 100.688C51.6462 100.745 51.7944 100.69 51.8516 100.564L54.0635 95.7007Z" stroke="#8C9199" stroke-width="0.5" stroke-linecap="round" stroke-linejoin="round"/>
<path d="M55.051 99.3553C55.1767 99.4125 55.325 99.357 55.3821 99.2313C55.4393 99.1056 55.3838 98.9574 55.2581 98.9002L50.3955 96.6883C50.2698 96.6312 50.1216 96.6867 50.0644 96.8124C50.0073 96.9381 50.0628 97.0863 50.1885 97.1435L55.051 99.3553Z" stroke="#8C9199" stroke-width="0.5" stroke-linecap="round" stroke-linejoin="round"/>
<path d="M69.9803 70.9784C69.8587 71.0437 69.8131 71.1953 69.8784 71.3169C69.9437 71.4385 70.0953 71.4842 70.2169 71.4189L71.2229 70.8786C71.3445 70.8132 71.3901 70.6617 71.3248 70.54C71.2595 70.4184 71.1079 70.3728 70.9863 70.4381L69.9803 70.9784Z" stroke="#8C9199" stroke-width="0.5" stroke-linecap="round" stroke-linejoin="round"/>
<mask id="path-121-outside-22_1625_4203" maskUnits="userSpaceOnUse" x="80.7095" y="63.4204" width="7" height="6" fill="black">
<rect fill="white" x="80.7095" y="63.4204" width="7" height="6"/>
<path d="M86.6153 64.4204L82.5177 64.7465L81.7095 68.6733"/>
</mask>
<path d="M86.655 64.9188C86.9303 64.8969 87.1357 64.656 87.1137 64.3807C87.0918 64.1055 86.8509 63.9001 86.5757 63.922L86.655 64.9188ZM82.5177 64.7465L82.478 64.2481C82.2562 64.2657 82.0728 64.4278 82.0279 64.6457L82.5177 64.7465ZM81.2197 68.5725C81.1641 68.843 81.3382 69.1074 81.6087 69.163C81.8792 69.2187 82.1435 69.0446 82.1992 68.7741L81.2197 68.5725ZM86.5757 63.922L82.478 64.2481L82.5573 65.2449L86.655 64.9188L86.5757 63.922ZM82.0279 64.6457L81.2197 68.5725L82.1992 68.7741L83.0074 64.8473L82.0279 64.6457Z" fill="#8C9199" mask="url(#path-121-outside-22_1625_4203)"/>
</svg>
