<svg width="150" height="150" viewBox="0 0 150 150" fill="none" xmlns="http://www.w3.org/2000/svg">
<path d="M106.476 79.4095L87.3913 84.5138C82.2893 86.075 76.9058 86.4913 71.6245 85.7332C70.0746 89.5518 69.1791 94.3278 71.0857 97.9978V98.012C68.8535 103.266 66.1134 108.29 62.9046 113.012C55.1118 111.925 47.3864 110.401 39.7649 108.446C37.0127 112.396 35.7418 114.885 36.447 121.491C44.8267 124.184 51.6892 126.212 59.7144 128.013C62.271 128.589 64.9391 128.421 67.4037 127.53C69.8684 126.639 72.0266 125.062 73.6237 122.984C77.7921 117.407 81.6271 111.588 85.1085 105.558L77.6117 102.925C84.1399 104.705 92.5165 101.419 97.8574 98.6926V98.7068L93.5292 116.841C96.9134 119.578 102.074 120.612 106.248 119.917L115.676 88.948C116.069 87.6553 116.11 86.2811 115.794 84.9674C115.478 83.6538 114.816 82.4484 113.878 81.4759C112.94 80.5034 111.76 79.7991 110.458 79.4358C109.157 79.0725 107.782 79.0634 106.476 79.4095Z" fill="#F9B1DC"/>
<path d="M113.296 59.4884L116.982 58.822L108.121 10.0896L103.229 4.1062L113.296 59.4884Z" fill="#F9B1DC"/>
<path d="M102.747 4.19128L100.266 11.5217L109.142 60.2541L112.814 59.5877L102.747 4.19128Z" fill="#F9B1DC"/>
<path d="M62.7915 89.0368C62.749 88.6115 62.0826 88.1577 60.5371 87.9592L60.8207 90.1569C61.9975 90.0151 62.8363 89.5331 62.7915 89.0368Z" fill="#BFC1FF"/>
<path d="M54.9783 88.1294C53.0381 88.4279 52.262 88.9227 52.2426 89.3771C52.2187 89.9159 53.2776 90.398 54.738 90.3413C54.8612 90.2346 54.9545 90.098 55.0074 89.9443C55.0749 89.3406 55.0653 88.7307 54.9791 88.1294H54.9783Z" fill="#BFC1FF"/>
<path d="M38.3898 110.433C36.8112 109.819 35.1966 109.303 33.5548 108.887C29.1878 111.397 23.1073 114.083 16.9515 119.394C16.831 119.494 16.7424 119.627 16.6963 119.776C20.4708 119.932 24.2513 119.828 28.0109 119.464C30.6624 119.252 33.5974 118.798 36.2488 119.195C36.1794 115.894 36.551 113.52 38.3898 110.433Z" fill="#BFC1FF"/>
<path d="M104.42 128.581C104.196 125.858 103.725 122.824 104.179 120.148C101.131 120.248 98.1105 119.549 95.4165 118.12C94.8418 119.635 94.3449 121.178 93.9277 122.743C96.565 127.181 99.2873 133.462 104.731 140.04C104.889 136.218 104.784 132.389 104.42 128.581Z" fill="#BFC1FF"/>
<path d="M79.3523 42.8C79.2436 42.5379 79.0486 42.3207 78.7997 42.1845C78.5508 42.0482 78.2628 42.001 77.9834 42.0506C77.704 42.1002 77.4499 42.2436 77.2631 42.4572C77.0763 42.6708 76.968 42.9418 76.9561 43.2253C76.9278 43.2253 76.9136 43.2395 76.8852 43.2395C76.7658 42.9696 76.555 42.7504 76.2899 42.6205C76.0249 42.4906 75.7226 42.4582 75.436 42.5291C75.1492 42.6001 74.8968 42.7704 74.7235 43.0097C74.5502 43.249 74.4671 43.5419 74.489 43.8365C74.4748 43.8365 74.4607 43.8507 74.4465 43.8507C74.3052 43.5607 74.057 43.3367 73.7541 43.2257C73.4512 43.1147 73.1171 43.1253 72.8219 43.2554C72.5266 43.3854 72.2932 43.6248 72.1707 43.9232C72.0481 44.2216 72.0459 44.5559 72.1645 44.8559C72.0346 44.6202 71.8315 44.4332 71.5859 44.3232C71.3403 44.2132 71.0656 44.1862 70.8033 44.2462C70.6049 44.2947 70.4211 44.3904 70.2676 44.5252C70.114 44.66 69.9954 44.8298 69.9216 45.0203C69.8478 45.2108 69.8211 45.4163 69.8438 45.6194C69.8665 45.8224 69.9378 46.0169 70.0518 46.1864C70.8884 47.7603 75.1704 56.1541 74.2062 59.1712C75.4256 56.4205 74.8032 52.5781 74.5465 52.3654C72.051 50.2953 73.8943 47.9842 75.0995 49.5296C75.6808 50.2669 75.9502 50.2386 76.1061 49.7707C76.6024 47.3603 79.5941 43.844 81.1807 48.6789C79.1456 42.1149 79.4688 43.15 79.3523 42.8Z" fill="#BFC1FF"/>
<path d="M68.9026 73.7947C67.6792 74.2253 66.4936 74.7565 65.3579 75.3827L68.1511 72.2208C68.4295 72.7313 68.681 73.2566 68.9026 73.7947Z" fill="#BFC1FF"/>
<path d="M87.8455 82.5713L81.3232 72.3768L87.9589 80.0192C88.0141 80.8715 87.9761 81.7273 87.8455 82.5713Z" fill="#BFC1FF"/>
<path d="M86.6544 102.861C86.1439 103.757 85.6335 104.648 85.0947 105.555L76.9277 102.691C79.8344 103.726 83.4074 103.556 86.6544 102.861Z" fill="#BFC1FF"/>
<path d="M114.388 74.2484L117.011 73.7664L116.245 69.5695C115.48 69.7396 114.572 69.868 113.633 70.0657L114.388 74.2484Z" fill="#BFC1FF"/>
<path d="M114.686 61.0622L114.359 59.3041L111.736 59.7862L112.062 61.5443C112.536 61.4592 114.406 61.1197 114.686 61.0622Z" fill="#BFC1FF"/>
<path d="M127.064 137.542C127.089 137.737 127.188 137.915 127.34 138.039C127.493 138.162 127.688 138.222 127.884 138.206C128.079 138.189 128.261 138.098 128.391 137.95C128.521 137.803 128.589 137.611 128.581 137.415L128.468 136.221C128.451 136.02 128.354 135.833 128.2 135.703C128.046 135.573 127.846 135.509 127.645 135.526C127.444 135.543 127.258 135.639 127.127 135.793C126.997 135.948 126.934 136.147 126.95 136.348L127.064 137.542Z" fill="#BFC1FF"/>
<mask id="path-15-outside-1_1625_4206" maskUnits="userSpaceOnUse" x="59.4092" y="127.156" width="41" height="20" fill="black">
<rect fill="white" x="59.4092" y="127.156" width="41" height="20"/>
<path d="M99.5 136.252C95.6851 140.039 91.3674 143.284 86.6682 145.894C76.8707 142.562 67.9374 136.252 60.4092 128.156"/>
</mask>
<path d="M99.8522 136.607C100.048 136.412 100.049 136.096 99.8548 135.9C99.6603 135.704 99.3437 135.703 99.1477 135.897L99.8522 136.607ZM86.6682 145.894L86.5072 146.367C86.6409 146.413 86.7876 146.399 86.911 146.331L86.6682 145.894ZM60.7753 127.816C60.5873 127.613 60.2709 127.602 60.0687 127.79C59.8665 127.978 59.855 128.294 60.043 128.497L60.7753 127.816ZM99.1477 135.897C95.3654 139.652 91.0845 142.869 86.4254 145.457L86.911 146.331C91.6503 143.698 96.0048 140.426 99.8522 136.607L99.1477 135.897ZM86.8292 145.42C77.1253 142.12 68.2593 135.864 60.7753 127.816L60.043 128.497C67.6154 136.64 76.6161 143.003 86.5072 146.367L86.8292 145.42Z" fill="#8C9199" mask="url(#path-15-outside-1_1625_4206)"/>
<mask id="path-17-outside-2_1625_4206" maskUnits="userSpaceOnUse" x="33.8447" y="26.3735" width="73" height="85" fill="black">
<rect fill="white" x="33.8447" y="26.3735" width="73" height="85"/>
<path d="M105.767 41.0702C95.6587 37.1492 85.8167 32.574 76.3034 27.3735C63.0306 37.2025 49.1867 46.2361 34.8447 54.4266L36.7021 75.5813C37.9117 87.7739 41.6132 99.5879 47.5772 110.291"/>
</mask>
<path d="M105.586 41.5364C105.843 41.6362 106.133 41.5085 106.233 41.251C106.333 40.9936 106.205 40.7039 105.948 40.604L105.586 41.5364ZM76.3034 27.3735L76.5432 26.9348C76.3722 26.8413 76.1625 26.8557 76.0058 26.9717L76.3034 27.3735ZM34.8447 54.4266L34.5968 53.9924C34.4272 54.0892 34.3296 54.2758 34.3466 54.4703L34.8447 54.4266ZM36.7021 75.5813L36.204 75.625L36.2046 75.6306L36.7021 75.5813ZM47.1405 110.534C47.2749 110.775 47.5794 110.862 47.8206 110.728C48.0618 110.593 48.1484 110.289 48.014 110.047L47.1405 110.534ZM105.948 40.604C95.8598 36.6909 86.0375 32.1249 76.5432 26.9348L76.0636 27.8123C85.5959 33.0231 95.4576 37.6075 105.586 41.5364L105.948 40.604ZM76.0058 26.9717C62.7489 36.789 48.9216 45.8117 34.5968 53.9924L35.0927 54.8608C49.4518 46.6605 63.3122 37.6161 76.601 27.7754L76.0058 26.9717ZM34.3466 54.4703L36.2041 75.625L37.2002 75.5376L35.3428 54.3829L34.3466 54.4703ZM36.2046 75.6306C37.4209 87.8914 41.1431 99.7715 47.1405 110.534L48.014 110.047C42.0833 99.4044 38.4025 87.6563 37.1997 75.5319L36.2046 75.6306Z" fill="#8C9199" mask="url(#path-17-outside-2_1625_4206)"/>
<mask id="path-19-outside-3_1625_4206" maskUnits="userSpaceOnUse" x="103.505" y="43.2605" width="21" height="89" fill="black">
<rect fill="white" x="103.505" y="43.2605" width="21" height="89"/>
<path d="M104.505 130.765C118.528 113.595 125.532 88.9944 123.689 67.9532L121.831 46.8127C119.319 45.9967 116.819 45.1459 114.331 44.2605"/>
</mask>
<path d="M104.118 130.449C103.943 130.663 103.975 130.978 104.189 131.152C104.402 131.327 104.717 131.295 104.892 131.081L104.118 130.449ZM123.689 67.9532L124.187 67.9096L124.187 67.9094L123.689 67.9532ZM121.831 46.8127L122.329 46.7689C122.312 46.5691 122.177 46.3991 121.986 46.3371L121.831 46.8127ZM114.498 43.7894C114.238 43.6969 113.952 43.8327 113.86 44.0929C113.767 44.353 113.903 44.639 114.163 44.7316L114.498 43.7894ZM104.892 131.081C119.001 113.806 126.041 89.0751 124.187 67.9096L123.191 67.9968C125.023 88.9138 118.055 113.383 104.118 130.449L104.892 131.081ZM124.187 67.9094L122.329 46.7689L121.333 46.8564L123.191 67.997L124.187 67.9094ZM121.986 46.3371C119.478 45.5226 116.982 44.6733 114.498 43.7894L114.163 44.7316C116.656 45.6185 119.161 46.4708 121.677 47.2882L121.986 46.3371Z" fill="#8C9199" mask="url(#path-19-outside-3_1625_4206)"/>
<mask id="path-21-outside-4_1625_4206" maskUnits="userSpaceOnUse" x="70.6104" y="45.2677" width="12" height="17" fill="black">
<rect fill="white" x="70.6104" y="45.2677" width="12" height="17"/>
<path d="M71.6104 61.6861C76.0058 60.169 74.9035 52.6781 74.5453 52.3707C72.0768 50.2543 73.8887 47.9924 75.0983 49.5349C75.5214 50.0752 75.9677 50.4095 76.1132 49.7357C76.6796 47.1126 80.1795 43.2194 81.578 50.2439C83.4892 59.8436 76.5304 55.8161 76.5304 55.8161"/>
</mask>
<path d="M71.4472 61.2135C71.1862 61.3036 71.0476 61.5882 71.1377 61.8493C71.2278 62.1103 71.5125 62.2489 71.7735 62.1588L71.4472 61.2135ZM74.5453 52.3707L74.871 51.9913L74.8708 51.9911L74.5453 52.3707ZM75.0983 49.5349L75.492 49.2266L75.4918 49.2264L75.0983 49.5349ZM76.1132 49.7357L76.602 49.8412L76.602 49.8412L76.1132 49.7357ZM81.578 50.2439L82.0684 50.1462V50.1462L81.578 50.2439ZM76.7808 55.3834C76.5418 55.245 76.236 55.3267 76.0976 55.5657C75.9593 55.8047 76.0409 56.1105 76.2799 56.2489L76.7808 55.3834ZM71.7735 62.1588C74.2624 61.2997 75.1237 58.7732 75.3575 56.629C75.4767 55.5364 75.4413 54.4867 75.3529 53.6876C75.3088 53.2883 75.2506 52.9439 75.1891 52.6824C75.1585 52.5528 75.1251 52.4342 75.0887 52.3358C75.0706 52.287 75.0486 52.2342 75.0216 52.1839C74.9996 52.143 74.9527 52.0614 74.871 51.9913L74.2197 52.7501C74.186 52.7211 74.1656 52.6946 74.1566 52.6821C74.1467 52.6682 74.1415 52.6586 74.1402 52.6564C74.1382 52.6525 74.1422 52.6595 74.1508 52.6827C74.1677 52.7286 74.1903 52.804 74.2157 52.9116C74.2658 53.1245 74.3181 53.4277 74.359 53.7975C74.4407 54.5369 74.4733 55.5124 74.3634 56.5206C74.139 58.5779 73.3537 60.5554 71.4472 61.2135L71.7735 62.1588ZM74.8708 51.9911C73.7379 51.0199 73.728 50.1535 73.8961 49.7911C73.9839 49.6018 74.1094 49.5361 74.201 49.5275C74.2874 49.5194 74.4755 49.551 74.7049 49.8435L75.4918 49.2264C75.1163 48.7476 74.6243 48.4835 74.1079 48.5318C73.5967 48.5797 73.1967 48.9225 72.9889 49.3703C72.5658 50.2824 72.8842 51.6051 74.2199 52.7503L74.8708 51.9911ZM74.7047 49.8432C74.8198 49.9902 74.9446 50.1339 75.0736 50.2544C75.196 50.3687 75.354 50.4928 75.5379 50.5601C75.7417 50.6347 76.0212 50.6496 76.2646 50.4554C76.4687 50.2925 76.5572 50.0486 76.602 49.8412L75.6245 49.6301C75.6123 49.6865 75.6009 49.7132 75.5973 49.7203C75.5939 49.7273 75.6043 49.7029 75.6409 49.6737C75.6821 49.6409 75.7362 49.6183 75.793 49.6129C75.8442 49.6081 75.8766 49.6192 75.8818 49.6211C75.8831 49.6216 75.8411 49.6029 75.7563 49.5236C75.678 49.4505 75.5884 49.3498 75.492 49.2266L74.7047 49.8432ZM76.602 49.8412C76.7284 49.2557 77.0246 48.5803 77.4212 48.0042C77.8242 47.4187 78.2863 46.9998 78.7102 46.8397C78.9128 46.7632 79.0961 46.7492 79.2658 46.7904C79.4357 46.8316 79.6325 46.9381 79.8453 47.1701C80.2853 47.6499 80.7437 48.6139 81.0876 50.3415L82.0684 50.1462C81.7131 48.3616 81.2095 47.1781 80.5823 46.4942C80.2614 46.1443 79.8984 45.9149 79.5016 45.8186C79.1047 45.7223 78.7147 45.7691 78.357 45.9042C77.6603 46.1672 77.0538 46.7744 76.5975 47.4371C76.1349 48.1092 75.7813 48.9041 75.6245 49.6301L76.602 49.8412ZM81.0876 50.3415C81.5591 52.7096 81.4612 54.1427 81.1305 54.9809C80.969 55.3903 80.7542 55.6528 80.5233 55.8237C80.2904 55.9961 80.0152 56.0943 79.7071 56.134C79.0752 56.2153 78.3555 56.0437 77.7595 55.8258C77.4682 55.7193 77.2202 55.6069 77.0456 55.5214C76.9585 55.4788 76.8904 55.4431 76.8449 55.4186C76.8221 55.4064 76.8051 55.397 76.7942 55.3909C76.7888 55.3879 76.785 55.3857 76.7827 55.3844C76.7816 55.3838 76.7809 55.3834 76.7805 55.3832C76.7804 55.3831 76.7803 55.3831 76.7804 55.3831C76.7804 55.3831 76.7805 55.3832 76.7805 55.3832C76.7807 55.3833 76.7808 55.3834 76.5304 55.8161C76.2799 56.2489 76.2801 56.249 76.2804 56.2491C76.2805 56.2492 76.2808 56.2494 76.281 56.2495C76.2815 56.2498 76.2821 56.2501 76.2827 56.2505C76.2841 56.2513 76.2859 56.2523 76.2881 56.2536C76.2925 56.2561 76.2986 56.2595 76.3063 56.2638C76.3217 56.2724 76.3435 56.2844 76.3713 56.2994C76.4268 56.3292 76.5062 56.3707 76.6057 56.4194C76.8042 56.5167 77.0849 56.6439 77.4161 56.765C78.0652 57.0023 78.9657 57.2376 79.8347 57.1258C80.2769 57.0689 80.7223 56.9206 81.1183 56.6275C81.5162 56.3329 81.8386 55.911 82.0607 55.3479C82.4973 54.2413 82.5525 52.5781 82.0684 50.1462L81.0876 50.3415Z" fill="#8C9199" mask="url(#path-21-outside-4_1625_4206)"/>
<mask id="path-23-outside-5_1625_4206" maskUnits="userSpaceOnUse" x="51.2417" y="86.8691" width="13" height="4" fill="black">
<rect fill="white" x="51.2417" y="86.8691" width="13" height="4"/>
<path d="M54.7376 90.3413C53.2771 90.398 52.2182 89.9152 52.2421 89.3772C52.2966 88.1488 56.7547 87.9153 57.9673 87.878C59.1449 87.8421 62.715 87.8608 62.7911 89.0369C62.7911 89.2011 62.6545 89.9324 60.8202 90.1563"/>
</mask>
<path d="M54.757 90.841C55.0329 90.8302 55.2479 90.5979 55.2372 90.3219C55.2265 90.046 54.9941 89.831 54.7182 89.8417L54.757 90.841ZM52.2421 89.3772L52.7416 89.3993L52.7416 89.3993L52.2421 89.3772ZM57.9673 87.878L57.9521 87.3782L57.952 87.3782L57.9673 87.878ZM62.7911 89.0369H63.2911C63.2911 89.0261 63.2907 89.0153 63.29 89.0046L62.7911 89.0369ZM60.7597 89.6599C60.4856 89.6934 60.2905 89.9427 60.3239 90.2168C60.3574 90.4909 60.6067 90.686 60.8808 90.6526L60.7597 89.6599ZM54.7182 89.8417C54.0412 89.868 53.4853 89.7672 53.1217 89.6192C52.9386 89.5446 52.8281 89.4678 52.772 89.4112C52.718 89.3565 52.7436 89.3534 52.7416 89.3993L51.7426 89.355C51.7286 89.6699 51.8777 89.929 52.0611 90.1144C52.2425 90.2978 52.4835 90.4391 52.7447 90.5454C53.2697 90.7591 53.9735 90.8714 54.757 90.841L54.7182 89.8417ZM52.7416 89.3993C52.7416 89.3989 52.7416 89.3987 52.7418 89.398C52.7421 89.3972 52.743 89.3942 52.7458 89.3888C52.7516 89.3775 52.7663 89.3549 52.7998 89.3227C52.8707 89.2549 52.9957 89.1732 53.1901 89.0878C53.5782 88.9174 54.1306 88.78 54.7543 88.6739C55.9927 88.4631 57.383 88.3962 57.9827 88.3777L57.952 87.3782C57.339 87.3971 55.8939 87.4656 54.5865 87.688C53.9372 87.7985 53.2891 87.9522 52.7881 88.1722C52.538 88.282 52.2963 88.4203 52.1082 88.6005C51.9153 88.7852 51.7567 89.0372 51.7426 89.355L52.7416 89.3993ZM57.9825 88.3777C58.5617 88.3601 59.7155 88.3568 60.7228 88.4981C61.231 88.5694 61.6647 88.6728 61.9627 88.8092C62.2834 88.9561 62.2918 89.0634 62.2921 89.0692L63.29 89.0046C63.2524 88.4223 62.7859 88.0863 62.379 87.9C61.9494 87.7033 61.4027 87.5837 60.8617 87.5078C59.7706 87.3547 58.5506 87.36 57.9521 87.3782L57.9825 88.3777ZM62.2911 89.0369C62.2911 88.9856 62.3113 89.0688 62.1636 89.1985C62.0036 89.339 61.6215 89.5548 60.7597 89.6599L60.8808 90.6526C61.8533 90.5339 62.4565 90.2721 62.8234 89.9499C63.2026 89.6169 63.2911 89.2524 63.2911 89.0369H62.2911Z" fill="#8C9199" mask="url(#path-23-outside-5_1625_4206)"/>
<path d="M61.5097 95.7977C61.5099 95.8133 61.5086 95.8289 61.5058 95.8443C61.4571 96.1161 61.2639 96.6203 60.9974 97.2285C60.7262 97.8477 60.3661 98.6029 59.9658 99.3919C59.1669 100.967 58.1996 102.692 57.4509 103.743L61.5097 95.7977ZM61.5097 95.7977C61.4917 94.0402 61.3536 92.2864 61.0962 90.5484C60.9728 89.5763 60.8878 88.9278 60.8336 88.5221C60.8064 88.3191 60.787 88.1769 60.7743 88.0853L60.7603 87.9845L60.7569 87.9603L60.756 87.9543L60.7558 87.9527L60.7557 87.9523L60.7557 87.9522L60.7557 87.9522L60.5082 87.9877L60.7557 87.9521C60.7392 87.8376 60.6462 87.7493 60.531 87.7388C58.6636 87.5683 56.7825 87.6212 54.9277 87.8964C54.7927 87.9164 54.6987 88.041 54.7165 88.1763C54.7916 88.7483 54.8014 89.3269 54.7471 89.9009C54.7035 90.0087 54.6361 90.1058 54.5501 90.1846C54.5451 90.1891 54.5404 90.1938 54.5358 90.1987C54.4067 90.3375 54.2243 90.5073 54.0121 90.7013C53.9761 90.7342 53.9393 90.7678 53.902 90.8018C53.7221 90.9658 53.5287 91.1422 53.3428 91.321C53.1185 91.5369 52.8991 91.762 52.721 91.9816C52.5463 92.1971 52.3948 92.4272 52.3283 92.6528L52.3282 92.6533C52.2668 92.8635 52.2091 93.063 52.1521 93.2599C51.9585 93.9293 51.7734 94.5694 51.4791 95.4978L51.4791 95.4978C51.3981 95.7533 51.3469 95.9742 51.327 96.1593C51.3077 96.3384 51.3142 96.5125 51.3774 96.6548C51.4107 96.7298 51.4614 96.7995 51.5343 96.8516C51.6075 96.9039 51.6899 96.9291 51.7715 96.935C51.9254 96.9462 52.0827 96.8899 52.2248 96.815C52.5146 96.662 52.8676 96.3621 53.2558 95.9522C53.6482 95.538 54.0905 94.9965 54.558 94.3436C55.1307 93.5437 56.1194 93.3709 56.8292 93.8504C57.534 94.3267 58.0709 95.5301 57.5016 97.6933L57.5009 97.6962M61.5097 95.7977L57.5009 97.6962M57.5009 97.6962C57.0871 99.3494 56.5603 100.972 55.9242 102.553M57.5009 97.6962L55.9242 102.553M55.9242 102.553C55.6416 103.223 55.4989 103.726 55.4726 104.083C55.4595 104.261 55.4733 104.426 55.5325 104.562C55.5967 104.709 55.7131 104.818 55.8719 104.855C56.0159 104.89 56.1621 104.859 56.2874 104.809C56.416 104.757 56.5476 104.676 56.6762 104.577C56.9338 104.379 57.2056 104.088 57.4508 103.744L55.9242 102.553Z" stroke="#8C9199" stroke-width="0.5" stroke-linecap="round" stroke-linejoin="round"/>
<mask id="path-26-outside-6_1625_4206" maskUnits="userSpaceOnUse" x="51.5527" y="96.1741" width="7" height="8" fill="black">
<rect fill="white" x="51.5527" y="96.1741" width="7" height="8"/>
<path d="M57.1196 99.9248C56.1888 101.041 55.1218 102.037 53.9435 102.888C52.4824 103.894 51.9033 103.131 53.5465 101.314C54.6976 100.042 55.7144 98.6548 56.5808 97.1741"/>
</mask>
<path d="M57.5036 100.245C57.6805 100.033 57.6519 99.7175 57.4397 99.5407C57.2276 99.3639 56.9124 99.3925 56.7355 99.6046L57.5036 100.245ZM53.9435 102.888L54.2271 103.3L54.2364 103.293L53.9435 102.888ZM53.5465 101.314L53.1758 100.979L53.1758 100.979L53.5465 101.314ZM57.0123 97.4266C57.1518 97.1883 57.0716 96.882 56.8333 96.7425C56.595 96.6031 56.2887 96.6832 56.1492 96.9216L57.0123 97.4266ZM56.7355 99.6046C55.8315 100.689 54.7951 101.656 53.6507 102.483L54.2364 103.293C55.4485 102.418 56.5461 101.394 57.5036 100.245L56.7355 99.6046ZM53.66 102.476C53.3215 102.709 53.0801 102.806 52.9467 102.83C52.8811 102.841 52.8785 102.829 52.9121 102.841C52.9619 102.859 53.0164 102.905 53.0423 102.967C53.0611 103.012 53.0465 103.022 53.057 102.963C53.0669 102.908 53.0948 102.817 53.158 102.69C53.2845 102.434 53.5246 102.084 53.9173 101.65L53.1758 100.979C52.7469 101.453 52.4431 101.879 52.2617 102.246C52.1709 102.43 52.1038 102.612 52.0725 102.788C52.0418 102.961 52.0396 103.161 52.1195 103.352C52.2063 103.56 52.3704 103.708 52.573 103.781C52.7593 103.849 52.9528 103.844 53.1213 103.814C53.4561 103.755 53.835 103.57 54.2271 103.3L53.66 102.476ZM53.9173 101.65C55.0914 100.352 56.1286 98.937 57.0123 97.4266L56.1492 96.9216C55.3002 98.3726 54.3038 99.7322 53.1758 100.979L53.9173 101.65Z" fill="#8C9199" mask="url(#path-26-outside-6_1625_4206)"/>
<path d="M55.5773 96.1673C55.4653 96.0999 55.3203 96.13 55.2446 96.2365C55.1688 96.343 55.1878 96.4898 55.2882 96.5735C55.9942 97.1621 56.7856 97.6396 57.6362 97.9881C57.7571 98.0377 57.8958 97.9858 57.9544 97.869C58.0131 97.7523 57.9719 97.6101 57.86 97.5427L55.5773 96.1673Z" stroke="#8C9199" stroke-width="0.5" stroke-linecap="round" stroke-linejoin="round"/>
<mask id="path-29-outside-7_1625_4206" maskUnits="userSpaceOnUse" x="49.5732" y="95.595" width="7" height="6" fill="black">
<rect fill="white" x="49.5732" y="95.595" width="7" height="6"/>
<path d="M55.2765 99.1464C54.1585 99.8205 52.9634 100.357 51.7169 100.746C50.1013 101.23 50.2244 100.244 51.9154 99.3561C53.2681 98.5739 54.5326 97.6482 55.687 96.595"/>
</mask>
<path d="M55.5347 99.5746C55.7712 99.432 55.8473 99.1247 55.7047 98.8882C55.5621 98.6518 55.2548 98.5756 55.0184 98.7182L55.5347 99.5746ZM51.7169 100.746L51.8605 101.225L51.8656 101.223L51.7169 100.746ZM51.9154 99.3561L52.1479 99.7988C52.1539 99.7956 52.1598 99.7923 52.1657 99.7889L51.9154 99.3561ZM56.024 96.9643C56.228 96.7782 56.2424 96.462 56.0563 96.258C55.8702 96.054 55.554 96.0395 55.35 96.2256L56.024 96.9643ZM55.0184 98.7182C53.9347 99.3715 52.7763 99.892 51.5682 100.268L51.8656 101.223C53.1504 100.823 54.3823 100.269 55.5347 99.5746L55.0184 98.7182ZM51.5733 100.267C51.1933 100.381 50.9943 100.381 50.9274 100.368C50.8997 100.362 50.9508 100.365 51.006 100.431C51.0712 100.508 51.077 100.593 51.0717 100.633C51.0681 100.659 51.0632 100.646 51.1003 100.59C51.1348 100.538 51.1938 100.467 51.2855 100.381C51.4688 100.209 51.7538 100.006 52.1479 99.7988L51.6829 98.9134C51.2315 99.1505 50.867 99.403 50.6021 99.6509C50.3587 99.8788 50.125 100.171 50.0807 100.498C50.0553 100.686 50.0926 100.899 50.2417 101.075C50.3808 101.24 50.5681 101.315 50.7296 101.348C51.0412 101.411 51.4327 101.353 51.8605 101.225L51.5733 100.267ZM52.1657 99.7889C53.5495 98.9887 54.8431 98.0417 56.024 96.9643L55.35 96.2256C54.2222 97.2546 52.9867 98.159 51.6651 98.9233L52.1657 99.7889Z" fill="#8C9199" mask="url(#path-29-outside-7_1625_4206)"/>
<mask id="path-31-outside-8_1625_4206" maskUnits="userSpaceOnUse" x="48.8535" y="92.3615" width="8" height="7" fill="black">
<rect fill="white" x="48.8535" y="92.3615" width="8" height="7"/>
<path d="M53.5606 98.3098C52.6894 98.5378 51.7951 98.6662 50.895 98.6927C49.6756 98.6449 49.2794 97.9867 51.0793 97.5584C52.4994 97.2282 53.859 96.6781 55.1091 95.9278C55.1708 95.028 55.4272 94.1524 55.8605 93.3615"/>
</mask>
<path d="M53.6872 98.7936C53.9543 98.7237 54.1142 98.4504 54.0443 98.1833C53.9744 97.9161 53.7012 97.7562 53.434 97.8261L53.6872 98.7936ZM50.895 98.6927L50.8754 99.1923C50.8868 99.1927 50.8983 99.1928 50.9097 99.1924L50.895 98.6927ZM51.0793 97.5584L50.9661 97.0713L50.9636 97.0719L51.0793 97.5584ZM55.1091 95.9278L55.3664 96.3565C55.5065 96.2724 55.5967 96.1251 55.6079 95.962L55.1091 95.9278ZM56.299 93.6017C56.4317 93.3595 56.343 93.0556 56.1008 92.923C55.8586 92.7903 55.5547 92.879 55.422 93.1212L56.299 93.6017ZM53.434 97.8261C52.5994 98.0445 51.7427 98.1675 50.8803 98.1929L50.9097 99.1924C51.8476 99.1649 52.7794 99.0311 53.6872 98.7936L53.434 97.8261ZM50.9146 98.193C50.6469 98.1826 50.4567 98.139 50.3484 98.0939C50.2941 98.0713 50.2802 98.0565 50.2867 98.0627C50.2951 98.0707 50.3407 98.1188 50.3514 98.2095C50.3627 98.3045 50.3266 98.3678 50.3149 98.3842C50.3071 98.395 50.3189 98.3746 50.3841 98.334C50.5151 98.2523 50.7684 98.1463 51.1951 98.0448L50.9636 97.0719C50.4903 97.1846 50.1181 97.3215 49.8553 97.4852C49.6258 97.6282 49.3085 97.9054 49.3584 98.3269C49.4056 98.7268 49.7508 98.9284 49.9641 99.0171C50.2167 99.1223 50.5334 99.1789 50.8754 99.1923L50.9146 98.193ZM51.1925 98.0454C52.6633 97.7035 54.0716 97.1336 55.3664 96.3565L54.8517 95.4991C53.6464 96.2225 52.3354 96.753 50.9661 97.0713L51.1925 98.0454ZM55.6079 95.962C55.6646 95.1345 55.9005 94.3291 56.299 93.6017L55.422 93.1212C54.9539 93.9756 54.6769 94.9216 54.6102 95.8936L55.6079 95.962Z" fill="#8C9199" mask="url(#path-31-outside-8_1625_4206)"/>
<mask id="path-33-outside-9_1625_4206" maskUnits="userSpaceOnUse" x="64.3574" y="71.2209" width="6" height="5" fill="black">
<rect fill="white" x="64.3574" y="71.2209" width="6" height="5"/>
<path d="M65.3574 75.3828L68.1506 72.2209C68.4335 72.7291 68.6879 73.2523 68.9148 73.7881"/>
</mask>
<path d="M64.9827 75.0518C64.7999 75.2587 64.8194 75.5747 65.0264 75.7575C65.2333 75.9404 65.5493 75.9208 65.7321 75.7138L64.9827 75.0518ZM68.1506 72.2209L68.5875 71.9778C68.5086 71.836 68.3658 71.7413 68.2045 71.7239C68.0431 71.7064 67.8833 71.7683 67.7759 71.8899L68.1506 72.2209ZM68.4544 73.983C68.562 74.2373 68.8555 74.3562 69.1097 74.2485C69.364 74.1408 69.4829 73.8474 69.3752 73.5931L68.4544 73.983ZM65.7321 75.7138L68.5254 72.552L67.7759 71.8899L64.9827 75.0518L65.7321 75.7138ZM67.7137 72.4641C67.9876 72.9562 68.2343 73.4632 68.4544 73.983L69.3752 73.5931C69.1416 73.0413 68.8793 72.502 68.5875 71.9778L67.7137 72.4641Z" fill="#8C9199" mask="url(#path-33-outside-9_1625_4206)"/>
<mask id="path-35-outside-10_1625_4206" maskUnits="userSpaceOnUse" x="80.3228" y="71.3911" width="9" height="12" fill="black">
<rect fill="white" x="80.3228" y="71.3911" width="9" height="12"/>
<path d="M87.845 82.5715L81.3228 72.3911L87.9584 80.0335"/>
</mask>
<path d="M87.424 82.8412C87.5729 83.0737 87.8822 83.1414 88.1147 82.9925C88.3472 82.8435 88.415 82.5342 88.266 82.3017L87.424 82.8412ZM81.3228 72.3911L81.7003 72.0633C81.5285 71.8654 81.233 71.8338 81.0232 71.9908C80.8134 72.1478 80.7604 72.4402 80.9017 72.6608L81.3228 72.3911ZM87.5809 80.3613C87.7619 80.5698 88.0777 80.592 88.2862 80.411C88.4947 80.23 88.517 79.9142 88.336 79.7056L87.5809 80.3613ZM88.266 82.3017L81.7438 72.1214L80.9017 72.6608L87.424 82.8412L88.266 82.3017ZM80.9452 72.7189L87.5809 80.3613L88.336 79.7056L81.7003 72.0633L80.9452 72.7189Z" fill="#8C9199" mask="url(#path-35-outside-10_1625_4206)"/>
<mask id="path-37-outside-11_1625_4206" maskUnits="userSpaceOnUse" x="50.9961" y="58.9087" width="63" height="31" fill="black">
<rect fill="white" x="50.9961" y="58.9087" width="63" height="31"/>
<path d="M62.7913 89.037C62.5503 85.9318 62.1943 78.6723 62.2241 77.0276C64.0898 76.1373 66.7464 74.4724 68.915 73.7911C70.3202 77.1656 71.0426 81.6618 71.6105 85.7475C76.8916 86.5125 82.2766 86.096 87.3773 84.5282C87.8661 83.0831 88.0637 81.5554 87.9586 80.0335C87.884 79.8529 91.2995 84.5162 96.2106 81.4372L112.856 71.2001C112.02 67.2868 110.12 63.6287 106.916 61.913L93.2189 71.3158C87.3773 62.4399 87.3765 58.8064 77.8917 60.1967C71.0568 61.2004 63.9577 64.3137 57.3041 68.8457C52.3438 72.224 52.2296 74.0777 52.0722 79.0261C51.9276 82.4768 51.9891 85.9331 52.2565 89.3765"/>
</mask>
<path d="M62.2928 89.0757C62.3142 89.351 62.5547 89.5569 62.83 89.5355C63.1053 89.5141 63.3112 89.2736 63.2898 88.9983L62.2928 89.0757ZM62.2241 77.0276L62.0088 76.5763C61.8378 76.6579 61.7277 76.8291 61.7242 77.0185L62.2241 77.0276ZM68.915 73.7911L69.3766 73.5989C69.2772 73.3601 69.012 73.2366 68.7652 73.3141L68.915 73.7911ZM71.6105 85.7475L71.1152 85.8164C71.1459 86.0368 71.3185 86.2105 71.5388 86.2424L71.6105 85.7475ZM87.3773 84.5282L87.5242 85.0061C87.6778 84.9589 87.7994 84.8406 87.8509 84.6884L87.3773 84.5282ZM87.9586 80.0335L88.4574 79.999C88.4537 79.9452 88.4413 79.8924 88.4207 79.8425L87.9586 80.0335ZM96.2106 81.4372L95.9487 81.0113L95.945 81.0136L96.2106 81.4372ZM112.856 71.2001L113.118 71.626C113.299 71.5151 113.39 71.3026 113.345 71.0956L112.856 71.2001ZM106.916 61.913L107.152 61.4722C106.987 61.384 106.787 61.3951 106.633 61.5008L106.916 61.913ZM93.2189 71.3158L92.8012 71.5907C92.8751 71.7029 92.9909 71.7806 93.1227 71.8065C93.2545 71.8323 93.3912 71.804 93.5019 71.728L93.2189 71.3158ZM77.8917 60.1967L77.8192 59.702L77.819 59.702L77.8917 60.1967ZM57.3041 68.8457L57.5856 69.259L57.5856 69.259L57.3041 68.8457ZM52.0722 79.0261L52.5718 79.047L52.5719 79.042L52.0722 79.0261ZM51.758 89.4152C51.7794 89.6906 52.0199 89.8964 52.2952 89.875C52.5705 89.8537 52.7764 89.6131 52.755 89.3378L51.758 89.4152ZM63.2898 88.9983C63.0489 85.8946 62.6947 78.6556 62.7241 77.0367L61.7242 77.0185C61.6939 78.689 62.0516 85.9691 62.2928 89.0757L63.2898 88.9983ZM62.4395 77.4788C63.3825 77.0289 64.5421 76.3747 65.6882 75.7738C66.8542 75.1624 68.0266 74.5943 69.0649 74.2681L68.7652 73.3141C67.6349 73.6692 66.3946 74.2742 65.2238 74.8882C64.0329 75.5126 62.9315 76.1361 62.0088 76.5763L62.4395 77.4788ZM68.4534 73.9833C69.8301 77.2893 70.5462 81.7223 71.1152 85.8164L72.1057 85.6787C71.539 81.6013 70.8103 77.042 69.3766 73.5989L68.4534 73.9833ZM71.5388 86.2424C76.8931 87.0179 82.3528 86.5957 87.5242 85.0061L87.2303 84.0502C82.2004 85.5963 76.89 86.007 71.6822 85.2527L71.5388 86.2424ZM87.8509 84.6884C88.3609 83.1807 88.567 81.5869 88.4574 79.999L87.4598 80.0679C87.5603 81.5239 87.3713 82.9854 86.9036 84.3679L87.8509 84.6884ZM88.4207 79.8425C88.4243 79.8513 88.4392 79.8871 88.4486 79.9362C88.4531 79.96 88.4616 80.0124 88.4549 80.079C88.4485 80.1431 88.4217 80.2772 88.3022 80.3908C88.1728 80.5139 88.0203 80.5332 87.9269 80.5274C87.8423 80.5221 87.78 80.4963 87.7539 80.4846C87.6994 80.4601 87.6628 80.4313 87.6552 80.4254C87.6227 80.4002 87.6026 80.3765 87.621 80.3961C87.6412 80.4176 87.6667 80.4463 87.7223 80.5067C87.823 80.6162 87.9783 80.7809 88.1832 80.9737C88.5914 81.3579 89.2021 81.8591 89.9843 82.2659C91.5706 83.0907 93.8444 83.5108 96.4762 81.8608L95.945 81.0136C93.6658 82.4426 91.7762 82.0705 90.4456 81.3786C89.7694 81.027 89.2332 80.5887 88.8685 80.2455C88.687 80.0747 88.5493 79.9287 88.4583 79.8298C88.418 79.7859 88.373 79.736 88.349 79.7105C88.3453 79.7066 88.3096 79.6674 88.2683 79.6354C88.2585 79.6277 88.2201 79.5978 88.1643 79.5727C88.1375 79.5606 88.0746 79.5347 87.9895 79.5293C87.8956 79.5234 87.7427 79.5429 87.6131 79.6662C87.4933 79.7801 87.4664 79.9146 87.4599 79.9792C87.4532 80.0464 87.4617 80.0994 87.4664 80.1241C87.4761 80.1748 87.4917 80.2128 87.4965 80.2244L88.4207 79.8425ZM96.4725 81.8631L113.118 71.626L112.595 70.7742L95.9487 81.0113L96.4725 81.8631ZM113.345 71.0956C112.495 67.1182 110.544 63.2883 107.152 61.4722L106.68 62.3538C109.696 63.9691 111.545 67.4554 112.368 71.3046L113.345 71.0956ZM106.633 61.5008L92.9359 70.9036L93.5019 71.728L107.199 62.3253L106.633 61.5008ZM93.6366 71.0409C92.1808 68.829 91.0979 66.9579 90.1186 65.3753C89.1484 63.8075 88.2759 62.5161 87.2682 61.5462C86.2451 60.5615 85.0881 59.9125 83.5641 59.609C82.0578 59.309 80.2143 59.3509 77.8192 59.702L77.9642 60.6914C80.3115 60.3473 82.0249 60.3221 83.3688 60.5897C84.6952 60.8539 85.6818 61.4073 86.5748 62.2667C87.483 63.1408 88.2989 64.3351 89.2682 65.9015C90.2284 67.4531 91.3362 69.3646 92.8012 71.5907L93.6366 71.0409ZM77.819 59.702C70.8903 60.7195 63.7208 63.8701 57.0226 68.4325L57.5856 69.259C64.1946 64.7573 71.2232 61.6813 77.9643 60.6914L77.819 59.702ZM57.0227 68.4324C54.5172 70.1388 53.1553 71.5117 52.4301 73.1441C51.7144 74.7552 51.6503 76.5626 51.5724 79.0101L52.5719 79.042C52.6515 76.5411 52.7232 74.9475 53.344 73.5501C53.9553 72.174 55.1307 70.9309 57.5856 69.259L57.0227 68.4324ZM51.5726 79.0051C51.4272 82.4758 51.4891 85.952 51.758 89.4152L52.755 89.3378C52.4892 85.9143 52.428 82.4779 52.5717 79.047L51.5726 79.0051Z" fill="#8C9199" mask="url(#path-37-outside-11_1625_4206)"/>
<path d="M101.924 96.4241L102.059 96.6344C102.173 96.5613 102.208 96.4111 102.139 96.2953C102.069 96.1794 101.92 96.1399 101.802 96.206L97.7327 98.4888C97.614 98.5554 97.5703 98.7047 97.6345 98.8247C97.6986 98.9447 97.847 98.9914 97.9683 98.9297C99.2139 98.2962 100.236 97.7231 100.946 97.3081C101.302 97.1006 101.579 96.9326 101.768 96.8162C101.863 96.7581 101.935 96.7128 101.984 96.682L102.04 96.6468L102.054 96.6376L102.058 96.6353L102.059 96.6346L102.059 96.6345L102.059 96.6344L101.924 96.4241Z" stroke="#8C9199" stroke-width="0.5" stroke-linecap="round" stroke-linejoin="round"/>
<mask id="path-40-outside-12_1625_4206" maskUnits="userSpaceOnUse" x="35.2505" y="96.939" width="52" height="32" fill="black">
<rect fill="white" x="35.2505" y="96.939" width="52" height="32"/>
<path d="M86.6413 102.946C82.7679 109.923 78.4139 116.622 73.611 122.995C72.0142 125.073 69.8561 126.652 67.3916 127.544C64.927 128.435 62.2587 128.604 59.7016 128.029C51.6772 126.223 44.8139 124.2 36.4343 121.492C36.2104 118.709 35.9866 116.065 37.091 113.098C37.7545 111.433 38.6453 109.868 39.738 108.448C47.3595 110.402 55.0849 111.927 62.8777 113.013C66.1245 108.296 68.8531 103.242 71.0163 97.939"/>
</mask>
<path d="M87.0784 103.189C87.2124 102.948 87.1254 102.643 86.884 102.509C86.6425 102.375 86.3382 102.462 86.2041 102.704L87.0784 103.189ZM73.611 122.995L74.0075 123.3L74.0103 123.296L73.611 122.995ZM59.7016 128.029L59.5919 128.516L59.5919 128.516L59.7016 128.029ZM36.4343 121.492L35.9359 121.532C35.9521 121.734 36.0881 121.906 36.2805 121.968L36.4343 121.492ZM37.091 113.098L36.6264 112.913L36.6224 112.924L37.091 113.098ZM39.738 108.448L39.8622 107.963C39.6684 107.914 39.4636 107.984 39.3416 108.143L39.738 108.448ZM62.8777 113.013L62.8086 113.508C62.9961 113.535 63.1822 113.453 63.2896 113.297L62.8777 113.013ZM71.4792 98.1278C71.5835 97.8721 71.4608 97.5803 71.2051 97.476C70.9495 97.3717 70.6576 97.4944 70.5533 97.7501L71.4792 98.1278ZM86.2041 102.704C82.342 109.66 78.0007 116.34 73.2117 122.694L74.0103 123.296C78.8272 116.905 83.1938 110.186 87.0784 103.189L86.2041 102.704ZM73.2145 122.69C71.6758 124.693 69.5963 126.214 67.2214 127.073L67.5617 128.014C70.116 127.089 72.3525 125.454 74.0075 123.3L73.2145 122.69ZM67.2214 127.073C64.8465 127.933 62.2754 128.095 59.8114 127.541L59.5919 128.516C62.2421 129.112 65.0074 128.938 67.5617 128.014L67.2214 127.073ZM59.8114 127.541C51.8075 125.74 44.9602 123.722 36.5881 121.016L36.2805 121.968C44.6677 124.678 51.5469 126.707 59.5919 128.516L59.8114 127.541ZM36.9327 121.452C36.7081 118.66 36.4989 116.122 37.5596 113.273L36.6224 112.924C35.4742 116.008 35.7128 118.759 35.9359 121.532L36.9327 121.452ZM37.5555 113.283C38.2019 111.661 39.0697 110.137 40.1343 108.752L39.3416 108.143C38.2208 109.6 37.3071 111.205 36.6265 112.913L37.5555 113.283ZM39.6137 108.932C47.2534 110.891 54.9973 112.419 62.8086 113.508L62.9467 112.518C55.1726 111.434 47.4655 109.913 39.8622 107.963L39.6137 108.932ZM63.2896 113.297C66.5567 108.549 69.3025 103.464 71.4792 98.1278L70.5533 97.7501C68.4037 103.019 65.6922 108.042 62.4658 112.73L63.2896 113.297Z" fill="#8C9199" mask="url(#path-40-outside-12_1625_4206)"/>
<path d="M78.9167 56.5481C78.8956 56.4258 78.7879 56.3375 78.6638 56.3408C78.5397 56.3441 78.4368 56.4379 78.4222 56.5611C78.4076 56.6829 78.3917 56.8051 78.3757 56.9273C78.2258 58.0764 78.0747 59.2335 79.0934 60.2209C79.1711 60.2962 79.2885 60.313 79.3842 60.2624C79.4799 60.2118 79.5322 60.1054 79.5137 59.9987L78.9167 56.5481Z" stroke="#8C9199" stroke-width="0.5" stroke-linecap="round" stroke-linejoin="round"/>
<mask id="path-43-outside-13_1625_4206" maskUnits="userSpaceOnUse" x="13.686" y="107.431" width="21" height="13" fill="black">
<rect fill="white" x="13.686" y="107.431" width="21" height="13"/>
<path d="M16.696 119.775C16.2707 119.747 15.817 119.735 15.3916 119.704C15.2768 119.696 15.1654 119.661 15.0657 119.604C14.9661 119.546 14.8809 119.466 14.8164 119.371C14.752 119.276 14.71 119.167 14.6937 119.053C14.6774 118.939 14.6871 118.823 14.7222 118.713C14.7692 118.567 14.8588 118.438 14.9804 118.343C17.847 116.101 20.8967 114.104 24.0974 112.373C26.9219 110.833 29.4569 109.636 31.4987 108.431C32.1934 108.573 32.874 108.701 33.5546 108.885"/>
</mask>
<path d="M16.6628 120.274C16.9383 120.292 17.1766 120.084 17.1949 119.808C17.2133 119.533 17.0048 119.294 16.7293 119.276L16.6628 120.274ZM15.3916 119.704L15.4283 119.205L15.4281 119.205L15.3916 119.704ZM14.7222 118.713L14.2462 118.56L14.246 118.561L14.7222 118.713ZM14.9804 118.343L15.2877 118.737L15.2884 118.737L14.9804 118.343ZM24.0974 112.373L24.3352 112.813L24.3367 112.812L24.0974 112.373ZM31.4987 108.431L31.5986 107.941C31.4773 107.917 31.3511 107.938 31.2445 108.001L31.4987 108.431ZM33.4239 109.368C33.6904 109.44 33.965 109.282 34.0372 109.016C34.1094 108.749 33.9518 108.475 33.6853 108.402L33.4239 109.368ZM16.7293 119.276C16.5105 119.262 16.2851 119.251 16.0671 119.241C15.8469 119.231 15.6334 119.221 15.4283 119.205L15.3549 120.203C15.5751 120.219 15.8012 120.23 16.0205 120.24C16.2421 120.25 16.4562 120.26 16.6628 120.274L16.7293 119.276ZM15.4281 119.205C15.3887 119.203 15.3505 119.191 15.3163 119.171L14.8152 120.036C14.9803 120.132 15.1649 120.189 15.3551 120.203L15.4281 119.205ZM15.3163 119.171C15.2821 119.151 15.2529 119.124 15.2308 119.091L14.4021 119.651C14.5089 119.809 14.6501 119.941 14.8152 120.036L15.3163 119.171ZM15.2308 119.091C15.2087 119.058 15.1943 119.021 15.1887 118.982L14.1988 119.124C14.2258 119.313 14.2953 119.493 14.4021 119.651L15.2308 119.091ZM15.1887 118.982C15.1831 118.943 15.1864 118.903 15.1984 118.865L14.246 118.561C14.1879 118.742 14.1717 118.935 14.1988 119.124L15.1887 118.982ZM15.1982 118.866C15.2149 118.814 15.2461 118.77 15.2877 118.737L14.6731 117.949C14.4714 118.106 14.3236 118.319 14.2462 118.56L15.1982 118.866ZM15.2884 118.737C18.1329 116.512 21.1592 114.531 24.3352 112.813L23.8595 111.933C20.6341 113.678 17.561 115.69 14.6724 117.949L15.2884 118.737ZM24.3367 112.812C27.1172 111.296 29.7095 110.068 31.7528 108.862L31.2445 108.001C29.2043 109.205 26.7266 110.37 23.858 111.934L24.3367 112.812ZM31.3987 108.921C32.1043 109.065 32.763 109.189 33.4239 109.368L33.6853 108.402C32.985 108.213 32.2826 108.081 31.5986 107.941L31.3987 108.921Z" fill="#8C9199" mask="url(#path-43-outside-13_1625_4206)"/>
<path d="M38.6261 110.351C38.6501 110.421 38.6423 110.497 38.6046 110.561C36.8061 113.58 36.4286 115.903 36.4987 119.19C36.5003 119.264 36.4693 119.334 36.414 119.383C36.3586 119.432 36.2847 119.453 36.2118 119.442C34.1375 119.132 31.8911 119.349 29.7129 119.56C29.1469 119.615 28.5855 119.669 28.033 119.714C28.0323 119.714 28.0317 119.714 28.031 119.714L28.0109 119.465C24.3385 119.819 20.6462 119.926 16.9589 119.785L38.6261 110.351ZM38.6261 110.351C38.602 110.281 38.5485 110.226 38.4798 110.199C36.8906 109.586 35.2669 109.067 33.6169 108.644C33.5538 108.627 33.4868 108.637 33.4302 108.669C32.4624 109.225 31.4062 109.792 30.2806 110.397C26.3587 112.502 21.594 115.059 16.7899 119.201L38.6261 110.351Z" stroke="#8C9199" stroke-width="0.5" stroke-linecap="round" stroke-linejoin="round"/>
<mask id="path-46-outside-14_1625_4206" maskUnits="userSpaceOnUse" x="92.3745" y="121.74" width="13" height="21" fill="black">
<rect fill="white" x="92.3745" y="121.74" width="13" height="21"/>
<path d="M104.731 140.037C104.703 140.416 104.688 140.808 104.647 141.186C104.634 141.34 104.576 141.486 104.48 141.605C104.384 141.725 104.254 141.813 104.107 141.858C103.96 141.902 103.802 141.901 103.656 141.855C103.509 141.808 103.38 141.718 103.285 141.598C98.2423 135.169 95.7849 129.163 93.3745 125.079C93.5305 124.285 93.729 123.52 93.9275 122.74"/>
</mask>
<path d="M105.23 140.074C105.25 139.798 105.043 139.559 104.767 139.539C104.492 139.518 104.252 139.725 104.232 140.001L105.23 140.074ZM104.647 141.186L104.15 141.132C104.149 141.137 104.149 141.142 104.148 141.147L104.647 141.186ZM104.107 141.858L104.251 142.337L104.253 142.336L104.107 141.858ZM103.656 141.855L103.503 142.331L103.506 142.332L103.656 141.855ZM103.285 141.598L102.892 141.906L102.892 141.906L103.285 141.598ZM93.3745 125.079L92.8839 124.983C92.8603 125.103 92.8816 125.228 92.9439 125.334L93.3745 125.079ZM94.412 122.863C94.4802 122.596 94.3184 122.323 94.0508 122.255C93.7832 122.187 93.5111 122.349 93.4429 122.617L94.412 122.863ZM104.232 140.001C104.203 140.405 104.19 140.764 104.15 141.132L105.144 141.241C105.187 140.852 105.204 140.428 105.23 140.074L104.232 140.001ZM104.148 141.147C104.144 141.2 104.124 141.251 104.09 141.292L104.87 141.918C105.029 141.72 105.125 141.479 105.145 141.226L104.148 141.147ZM104.09 141.292C104.057 141.334 104.012 141.364 103.961 141.38L104.253 142.336C104.496 142.262 104.711 142.116 104.87 141.918L104.09 141.292ZM103.964 141.379C103.912 141.395 103.857 141.394 103.805 141.378L103.506 142.332C103.748 142.408 104.007 142.41 104.251 142.337L103.964 141.379ZM103.808 141.379C103.757 141.363 103.712 141.331 103.679 141.289L102.892 141.906C103.049 142.106 103.261 142.254 103.503 142.331L103.808 141.379ZM103.679 141.289C98.6599 134.891 96.2614 128.986 93.8051 124.825L92.9439 125.334C95.3084 129.339 97.8247 135.446 102.892 141.906L103.679 141.289ZM93.8651 125.176C94.0179 124.398 94.2125 123.647 94.412 122.863L93.4429 122.617C93.2455 123.392 93.0431 124.173 92.8839 124.983L93.8651 125.176Z" fill="#8C9199" mask="url(#path-46-outside-14_1625_4206)"/>
<path d="M104.279 124.141L104.279 124.141L104.278 124.136C104.18 122.817 104.225 121.49 104.412 120.18C104.423 120.107 104.4 120.033 104.351 119.978C104.302 119.923 104.23 119.893 104.157 119.895C101.153 119.994 98.1749 119.305 95.5194 117.897C95.4553 117.863 95.3796 117.858 95.3119 117.884C95.2442 117.911 95.1913 117.965 95.1669 118.033C94.5943 119.637 94.1185 120.998 93.6856 122.677C93.669 122.742 93.6788 122.81 93.7128 122.868C94.3974 124.019 95.0907 125.303 95.8389 126.687C97.9528 130.599 100.505 135.323 104.539 140.197C104.604 140.276 104.712 140.307 104.809 140.275C104.907 140.243 104.975 140.154 104.981 140.051C105.259 135.087 104.806 130.15 104.499 126.815C104.401 125.74 104.317 124.831 104.279 124.141Z" stroke="#8C9199" stroke-width="0.5" stroke-linecap="round" stroke-linejoin="round"/>
<path d="M105.211 60.717C105.076 60.7418 104.986 60.872 105.01 61.0079C105.035 61.1437 105.165 61.2337 105.301 61.2089L120.912 58.359C121.048 58.3342 121.138 58.204 121.113 58.0681C121.088 57.9323 120.958 57.8423 120.822 57.8671L105.211 60.717Z" stroke="#8C9199" stroke-width="0.5" stroke-linecap="round" stroke-linejoin="round"/>
<mask id="path-50-outside-15_1625_4206" maskUnits="userSpaceOnUse" x="17.1421" y="91.8226" width="8" height="8" fill="black">
<rect fill="white" x="17.1421" y="91.8226" width="8" height="8"/>
<path d="M18.1421 95.1479L21.3181 98.877L24.1113 92.8226"/>
</mask>
<path d="M18.5227 94.8237C18.3437 94.6135 18.0281 94.5882 17.8179 94.7673C17.6077 94.9463 17.5824 95.2619 17.7614 95.4721L18.5227 94.8237ZM21.3181 98.877L20.9375 99.2012C21.0481 99.331 21.2172 99.3955 21.3862 99.3723C21.5552 99.3491 21.7007 99.2413 21.7721 99.0864L21.3181 98.877ZM24.5654 93.0321C24.681 92.7814 24.5715 92.4843 24.3208 92.3686C24.0701 92.2529 23.773 92.3624 23.6573 92.6132L24.5654 93.0321ZM17.7614 95.4721L20.9375 99.2012L21.6988 98.5527L18.5227 94.8237L17.7614 95.4721ZM21.7721 99.0864L24.5654 93.0321L23.6573 92.6132L20.8641 98.6675L21.7721 99.0864Z" fill="#8C9199" mask="url(#path-50-outside-15_1625_4206)"/>
<path d="M131.878 132.402C131.872 132.336 131.84 132.275 131.79 132.233C131.739 132.19 131.673 132.169 131.607 132.175L123.156 132.912C123.019 132.924 122.917 133.045 122.929 133.183L123.34 137.931C123.385 138.524 123.546 139.102 123.815 139.631C124.085 140.162 124.457 140.633 124.91 141.019C125.363 141.404 125.888 141.696 126.454 141.877C127.021 142.057 127.618 142.124 128.21 142.073L128.21 142.073C128.803 142.021 129.379 141.852 129.906 141.576C130.433 141.299 130.899 140.921 131.278 140.463C131.658 140.005 131.943 139.476 132.116 138.907C132.289 138.339 132.348 137.742 132.289 137.151L131.878 132.402Z" stroke="#8C9199" stroke-width="0.5" stroke-linecap="round" stroke-linejoin="round"/>
<mask id="path-53-outside-16_1625_4206" maskUnits="userSpaceOnUse" x="121.897" y="124.573" width="10" height="10" fill="black">
<rect fill="white" x="121.897" y="124.573" width="10" height="10"/>
<path d="M123.178 133.161L122.909 130.127C122.827 129.015 123.186 127.915 123.908 127.065C124.631 126.216 125.659 125.686 126.77 125.589C127.881 125.492 128.985 125.836 129.845 126.547C130.704 127.259 131.248 128.28 131.359 129.39"/>
</mask>
<path d="M122.68 133.205C122.705 133.48 122.947 133.684 123.223 133.659C123.498 133.635 123.701 133.392 123.676 133.117L122.68 133.205ZM122.909 130.127L122.41 130.164L122.411 130.171L122.909 130.127ZM123.908 127.065L123.528 126.741L123.527 126.741L123.908 127.065ZM129.845 126.547L130.164 126.162L130.163 126.162L129.845 126.547ZM130.862 129.44C130.89 129.714 131.135 129.915 131.41 129.887C131.684 129.86 131.885 129.614 131.857 129.34L130.862 129.44ZM123.676 133.117L123.407 130.083L122.411 130.171L122.68 133.205L123.676 133.117ZM123.408 130.09C123.335 129.109 123.652 128.139 124.289 127.389L123.527 126.741C122.72 127.691 122.319 128.92 122.41 130.164L123.408 130.09ZM124.289 127.389C124.927 126.641 125.834 126.173 126.814 126.087L126.727 125.091C125.485 125.2 124.336 125.792 123.528 126.741L124.289 127.389ZM126.814 126.087C127.794 126.002 128.768 126.305 129.526 126.932L130.163 126.162C129.203 125.367 127.968 124.983 126.727 125.091L126.814 126.087ZM129.526 126.932C130.283 127.56 130.764 128.461 130.862 129.44L131.857 129.34C131.732 128.099 131.124 126.957 130.164 126.162L129.526 126.932Z" fill="#8C9199" mask="url(#path-53-outside-16_1625_4206)"/>
<path d="M126.815 137.566L126.814 137.566L126.815 137.574C126.848 137.833 126.98 138.069 127.183 138.233C127.386 138.397 127.644 138.477 127.904 138.455C128.164 138.433 128.406 138.312 128.578 138.116C128.751 137.92 128.841 137.665 128.83 137.404L128.831 137.404L128.829 137.391L128.716 136.198C128.693 135.932 128.566 135.685 128.361 135.512C128.156 135.339 127.891 135.255 127.624 135.277C127.356 135.299 127.109 135.427 126.936 135.632C126.763 135.837 126.678 136.102 126.701 136.369L126.701 136.369L126.701 136.372L126.815 137.566Z" stroke="#8C9199" stroke-width="0.5" stroke-linecap="round" stroke-linejoin="round"/>
<path d="M44.0793 31.6745C44.1879 31.3106 44.2229 30.9287 44.182 30.5511C44.1017 29.8085 43.7336 29.127 43.1565 28.6527C42.5795 28.1785 41.8395 27.9493 41.0955 28.0144C40.3514 28.0795 39.6625 28.4336 39.1765 29.0008C38.6906 29.568 38.4463 30.3031 38.4961 31.0484C38.5214 31.4273 38.6221 31.7973 38.7923 32.1369C38.9624 32.4764 39.1986 32.7785 39.487 33.0256C39.7754 33.2727 40.1102 33.4597 40.4718 33.5758C40.8334 33.6919 41.2145 33.7346 41.5928 33.7015C41.9712 33.6684 42.3391 33.5602 42.675 33.3831C43.011 33.206 43.3083 32.9637 43.5494 32.6703C43.7905 32.3769 43.9707 32.0384 44.0793 31.6745Z" stroke="#8C9199" stroke-width="0.5" stroke-linecap="round" stroke-linejoin="round"/>
<path d="M114.329 61.1137C114.627 61.0601 115.203 60.9477 115.752 60.8405C116.22 60.7492 116.668 60.6617 116.909 60.6175M114.329 61.1137L117.621 62.9162C117.621 62.9162 117.621 62.9161 117.621 62.9161C117.691 62.8991 117.756 62.877 117.817 62.8505M114.329 61.1137C114.145 61.1469 113.967 61.1789 113.795 61.21C110.603 61.7852 109.261 62.027 108.257 62.4838C108.223 62.4577 108.189 62.4319 108.155 62.4064L108.005 62.6062L108.12 62.8281C108.154 62.8103 108.189 62.7929 108.224 62.7758L114.329 61.1137ZM116.909 60.6175C118.34 60.3548 118.731 62.3868 117.561 62.6734C117.542 62.6782 117.496 62.6886 117.432 62.7028C117.482 62.7137 117.531 62.7271 117.578 62.743L117.561 62.6734L117.579 62.7431C117.663 62.7714 117.743 62.8075 117.817 62.8505M116.909 60.6175L116.864 60.3716M116.909 60.6175L116.864 60.3716M117.817 62.8505C117.852 62.8703 117.885 62.8916 117.917 62.9144C118.202 63.1152 118.384 63.4137 118.461 63.7264C118.538 64.0382 118.513 64.3786 118.367 64.6691C118.252 64.8961 118.066 65.0855 117.812 65.201M117.817 62.8505C118.082 62.7357 118.27 62.537 118.381 62.2998C118.514 62.0138 118.53 61.6811 118.452 61.3777C118.375 61.0734 118.199 60.7816 117.925 60.5847C117.647 60.3846 117.285 60.2944 116.864 60.3716M117.812 65.201L116.864 60.3716M117.812 65.201C118.068 65.4017 118.237 65.6854 118.305 65.9866C118.374 66.2914 118.343 66.621 118.192 66.9002C118.07 67.1249 117.875 67.3083 117.612 67.4151C117.858 67.6218 118.015 67.9086 118.073 68.2067C118.132 68.5075 118.093 68.8301 117.937 69.0981C117.778 69.3721 117.505 69.5745 117.132 69.6322C117.028 69.6487 114.207 70.1412 112.705 70.5345C112.64 70.5513 112.572 70.5419 112.515 70.5083C112.458 70.4748 112.416 70.4198 112.399 70.3556C111.599 67.282 110.117 64.5056 107.855 62.8061C107.786 62.7545 107.749 62.6712 107.756 62.5856C107.763 62.5 107.813 62.424 107.89 62.3844C108.463 62.0864 109.1 61.8822 110.07 61.6653C110.945 61.4695 112.105 61.2605 113.748 60.9643C113.921 60.9331 114.1 60.901 114.284 60.8677L114.284 60.8677C114.588 60.8132 115.153 60.7027 115.696 60.5967C116.162 60.5056 116.612 60.4178 116.864 60.3716L117.812 65.201Z" stroke="#8C9199" stroke-width="0.5" stroke-linecap="round" stroke-linejoin="round"/>
<mask id="path-58-outside-17_1625_4206" maskUnits="userSpaceOnUse" x="68.8223" y="41.0426" width="13" height="19" fill="black">
<rect fill="white" x="68.8223" y="41.0426" width="13" height="19"/>
<path d="M81.1809 48.6842L79.366 42.8C79.2494 42.5395 79.0491 42.3254 78.7969 42.1917C78.5447 42.0581 78.2551 42.0125 77.9741 42.0622C77.693 42.1119 77.4366 42.2541 77.2456 42.4662C77.0546 42.6783 76.9399 42.9481 76.9198 43.2328C76.8249 43.0315 76.6795 42.8581 76.4977 42.7296C76.316 42.6011 76.104 42.5218 75.8825 42.4995C75.6611 42.4772 75.4376 42.5126 75.2338 42.6022C75.0301 42.6919 74.853 42.8328 74.7199 43.0112C74.5418 43.2507 74.4524 43.5445 74.4669 43.8425C73.7751 42.3351 71.4819 43.4366 72.1632 44.8559C72.0739 44.6937 71.9493 44.5535 71.7986 44.4458C71.6479 44.338 71.475 44.2654 71.2925 44.2334C71.1101 44.2013 70.9228 44.2105 70.7444 44.2604C70.566 44.3103 70.4011 44.3996 70.2618 44.5216C70.0275 44.7238 69.8752 45.0047 69.8337 45.3114C69.7922 45.618 69.8643 45.9293 70.0364 46.1865C70.8729 47.7603 75.1549 56.14 74.1908 59.1601"/>
</mask>
<path d="M80.7031 48.8316C80.7845 49.0955 81.0644 49.2434 81.3282 49.162C81.5921 49.0806 81.7401 48.8007 81.6587 48.5368L80.7031 48.8316ZM79.366 42.8L79.8438 42.6527C79.8378 42.6333 79.8307 42.6143 79.8224 42.5958L79.366 42.8ZM76.9198 43.2328L76.4675 43.446C76.5645 43.6518 76.7881 43.7661 77.0117 43.7243C77.2353 43.6825 77.4025 43.495 77.4185 43.2681L76.9198 43.2328ZM74.7199 43.0112L74.3191 42.7122L74.3186 42.7129L74.7199 43.0112ZM74.4669 43.8425L74.0124 44.0511C74.1124 44.2688 74.3527 44.3851 74.5854 44.3283C74.8181 44.2715 74.9779 44.0576 74.9663 43.8183L74.4669 43.8425ZM72.1632 44.8559L71.7252 45.0971C71.8558 45.3342 72.1514 45.4244 72.392 45.3005C72.6327 45.1766 72.7311 44.8836 72.614 44.6396L72.1632 44.8559ZM70.2618 44.5216L70.5884 44.9002L70.5912 44.8977L70.2618 44.5216ZM70.0364 46.1865L70.4779 45.9518C70.47 45.9369 70.4613 45.9225 70.4519 45.9085L70.0364 46.1865ZM73.7144 59.008C73.6305 59.2711 73.7756 59.5524 74.0387 59.6364C74.3018 59.7204 74.5831 59.5752 74.6671 59.3121L73.7144 59.008ZM81.6587 48.5368L79.8438 42.6527L78.8882 42.9474L80.7031 48.8316L81.6587 48.5368ZM79.8224 42.5958C79.6602 42.2335 79.3817 41.9358 79.0311 41.75L78.5627 42.6335C78.7165 42.715 78.8386 42.8455 78.9096 43.0043L79.8224 42.5958ZM79.0311 41.75C78.6804 41.5641 78.2777 41.5007 77.8869 41.5698L78.0612 42.5545C78.2325 42.5242 78.409 42.552 78.5627 42.6335L79.0311 41.75ZM77.8869 41.5698C77.4961 41.639 77.1396 41.8367 76.8741 42.1316L77.6171 42.8008C77.7336 42.6715 77.8899 42.5849 78.0612 42.5545L77.8869 41.5698ZM76.8741 42.1316C76.6085 42.4265 76.449 42.8017 76.421 43.1976L77.4185 43.2681C77.4308 43.0946 77.5007 42.9301 77.6171 42.8008L76.8741 42.1316ZM77.3721 43.0197C77.2404 42.7403 77.0386 42.4997 76.7864 42.3213L76.2091 43.1378C76.3204 43.2165 76.4094 43.3227 76.4675 43.446L77.3721 43.0197ZM76.7864 42.3213C76.5342 42.143 76.24 42.033 75.9327 42.002L75.8324 42.997C75.968 43.0106 76.0978 43.0592 76.2091 43.1378L76.7864 42.3213ZM75.9327 42.002C75.6253 41.971 75.3151 42.0202 75.0324 42.1446L75.4352 43.0599C75.56 43.005 75.6968 42.9833 75.8324 42.997L75.9327 42.002ZM75.0324 42.1446C74.7496 42.2691 74.5039 42.4646 74.3191 42.7122L75.1206 43.3103C75.2021 43.201 75.3105 43.1148 75.4352 43.0599L75.0324 42.1446ZM74.3186 42.7129C74.0715 43.0453 73.9474 43.4531 73.9675 43.8668L74.9663 43.8183C74.9574 43.6359 75.0122 43.4561 75.1211 43.3095L74.3186 42.7129ZM74.9213 43.634C74.6899 43.1298 74.3043 42.813 73.8572 42.6847C73.4237 42.5604 72.9702 42.6231 72.5911 42.7975C72.2125 42.9716 71.8723 43.2737 71.6851 43.6759C71.4917 44.0915 71.4777 44.5833 71.7124 45.0723L72.614 44.6396C72.508 44.4189 72.5252 44.2407 72.5917 44.0978C72.6646 43.9413 72.8131 43.7961 73.0091 43.7059C73.2047 43.6159 73.4116 43.5972 73.5814 43.6459C73.7375 43.6907 73.8979 43.8015 74.0124 44.0511L74.9213 43.634ZM72.6012 44.6148C72.4758 44.387 72.3009 44.1903 72.0894 44.0391L71.5078 44.8525C71.5976 44.9167 71.6719 45.0003 71.7252 45.0971L72.6012 44.6148ZM72.0894 44.0391C71.8779 43.8878 71.6352 43.7859 71.3791 43.7409L71.206 44.7258C71.3148 44.7449 71.4179 44.7882 71.5078 44.8525L72.0894 44.0391ZM71.3791 43.7409C71.1231 43.6959 70.8601 43.7089 70.6098 43.7789L70.8791 44.7419C70.9855 44.7122 71.0972 44.7067 71.206 44.7258L71.3791 43.7409ZM70.6098 43.7789C70.3594 43.8489 70.1279 43.9742 69.9323 44.1455L70.5912 44.8977C70.6743 44.8249 70.7727 44.7717 70.8791 44.7419L70.6098 43.7789ZM69.9351 44.1431C69.6084 44.425 69.3961 44.8167 69.3382 45.2443L70.3292 45.3785C70.3543 45.1927 70.4466 45.0226 70.5884 44.9001L69.9351 44.1431ZM69.3382 45.2443C69.2804 45.6719 69.3809 46.1059 69.6208 46.4646L70.4519 45.9085C70.3477 45.7527 70.3041 45.5642 70.3292 45.3785L69.3382 45.2443ZM69.5949 46.4212C70.0091 47.2006 71.2791 49.6704 72.3238 52.3147C72.8465 53.6377 73.3074 54.9908 73.5783 56.1903C73.8544 57.4127 73.9121 58.389 73.7144 59.008L74.6671 59.3121C74.9515 58.4211 74.8355 57.2174 74.5537 55.97C74.2668 54.6998 73.7857 53.2934 73.2539 51.9472C72.1895 49.2532 70.9002 46.7463 70.4779 45.9518L69.5949 46.4212Z" fill="#8C9199" mask="url(#path-58-outside-17_1625_4206)"/>
<path d="M130.304 34.1439C130.293 34.0064 130.172 33.9043 130.034 33.9161C129.896 33.9278 129.794 34.0488 129.806 34.1864L130.019 36.6818C130.03 36.8194 130.152 36.9214 130.289 36.9097C130.427 36.898 130.529 36.777 130.517 36.6394L130.304 34.1439Z" stroke="#8C9199" stroke-width="0.5" stroke-linecap="round" stroke-linejoin="round"/>
<path d="M128.149 39.4617C128.287 39.4492 128.388 39.3276 128.376 39.1901C128.363 39.0526 128.242 38.9513 128.104 38.9638L125.609 39.1907C125.471 39.2032 125.37 39.3248 125.382 39.4623C125.395 39.5998 125.516 39.7011 125.654 39.6886L128.149 39.4617Z" stroke="#8C9199" stroke-width="0.5" stroke-linecap="round" stroke-linejoin="round"/>
<path d="M135.338 38.8237C135.475 38.8112 135.577 38.6896 135.564 38.5521C135.552 38.4146 135.43 38.3132 135.293 38.3257L132.797 38.5526C132.66 38.5651 132.558 38.6867 132.571 38.8242C132.583 38.9617 132.705 39.063 132.842 39.0505L135.338 38.8237Z" stroke="#8C9199" stroke-width="0.5" stroke-linecap="round" stroke-linejoin="round"/>
<path d="M130.643 43.8704C130.655 44.008 130.776 44.11 130.913 44.0983C131.051 44.0866 131.153 43.9656 131.141 43.828L130.928 41.3325C130.917 41.195 130.796 41.0929 130.658 41.1047C130.52 41.1164 130.418 41.2374 130.43 41.375L130.643 43.8704Z" stroke="#8C9199" stroke-width="0.5" stroke-linecap="round" stroke-linejoin="round"/>
<path d="M133.069 38.7797C133.081 38.9172 132.98 39.0384 132.842 39.0507C132.578 39.0742 132.313 39.057 132.056 39.0009C132.016 39.0189 131.976 39.0381 131.937 39.0583L133.069 38.7797ZM133.069 38.7797C133.057 38.6423 132.936 38.5406 132.798 38.5526C132.535 38.5755 132.277 38.6384 132.033 38.7386L133.069 38.7797ZM131.601 38.3021C131.236 38.1019 130.939 37.7978 130.747 37.4282L132.052 39.2802C132.298 39.1528 132.566 39.0747 132.842 39.0507L132.82 38.8016L132.798 38.5526C132.383 38.5895 131.967 38.5023 131.601 38.3021ZM128.912 39.2763C129.104 39.325 129.29 39.3979 129.465 39.494C129.874 39.718 130.207 40.0579 130.422 40.471C130.443 40.5101 130.462 40.5498 130.48 40.5899L128.912 39.2763ZM130.746 37.4282C130.619 37.1827 130.541 36.9145 130.517 36.6389L130.268 36.6606L130.268 36.6606L130.019 36.6826C130.043 36.9581 130.013 37.2356 129.93 37.4994C129.847 37.7631 129.713 38.0079 129.535 38.2198C129.357 38.4316 129.139 38.6064 128.894 38.734C128.649 38.8617 128.381 38.9398 128.105 38.9638L128.127 39.2128L130.746 37.4282Z" stroke="#8C9199" stroke-width="0.5" stroke-linecap="round" stroke-linejoin="round"/>
<path d="M85.0547 105.806C85.1851 105.852 85.3276 105.782 85.3728 105.652C85.4181 105.522 85.349 105.379 85.2186 105.334L77.2651 102.574C77.1346 102.529 76.9922 102.598 76.9469 102.728C76.9017 102.859 76.9707 103.001 77.1012 103.047L85.0547 105.806Z" stroke="#8C9199" stroke-width="0.5" stroke-linecap="round" stroke-linejoin="round"/>
<mask id="path-66-outside-18_1625_4206" maskUnits="userSpaceOnUse" x="68.9868" y="78.1663" width="48" height="43" fill="black">
<rect fill="white" x="68.9868" y="78.1663" width="48" height="43"/>
<path d="M87.3629 84.5281L106.447 79.4237C107.755 79.0742 109.133 79.0807 110.438 79.4424C111.743 79.8041 112.927 80.5079 113.868 81.4811C114.809 82.4542 115.474 83.6613 115.792 84.9772C116.11 86.2932 116.071 87.6704 115.678 88.966L106.249 119.935C104.127 120.273 101.96 120.212 99.8611 119.753C97.5531 119.298 95.3846 118.307 93.5306 116.859L97.8589 98.7098C92.997 101.201 86.1502 103.807 80.4138 103.394C73.8535 102.921 69.0141 98.7046 70.1536 90.857C70.42 89.1047 70.9109 87.3939 71.614 85.7669"/>
</mask>
<path d="M87.2337 84.0451C86.9669 84.1164 86.8085 84.3905 86.8798 84.6573C86.9512 84.924 87.2253 85.0825 87.492 85.0111L87.2337 84.0451ZM106.447 79.4237L106.318 78.9407L106.318 78.9407L106.447 79.4237ZM115.678 88.966L116.156 89.1117L116.156 89.1111L115.678 88.966ZM106.249 119.935L106.328 120.429C106.516 120.399 106.672 120.264 106.727 120.081L106.249 119.935ZM99.8611 119.753L99.9677 119.265L99.9578 119.263L99.8611 119.753ZM93.5306 116.859L93.0443 116.743C92.9989 116.933 93.0687 117.132 93.2229 117.253L93.5306 116.859ZM97.8589 98.7098L98.3452 98.8258C98.3905 98.636 98.3212 98.4371 98.1677 98.3166C98.0142 98.196 97.8046 98.1758 97.6309 98.2648L97.8589 98.7098ZM80.4138 103.394L80.3778 103.893L80.3778 103.893L80.4138 103.394ZM70.1536 90.857L69.6593 90.7819L69.6588 90.7852L70.1536 90.857ZM72.073 85.9652C72.1825 85.7117 72.0658 85.4174 71.8124 85.3079C71.5589 85.1983 71.2646 85.315 71.155 85.5685L72.073 85.9652ZM87.492 85.0111L106.577 79.9068L106.318 78.9407L87.2337 84.0451L87.492 85.0111ZM106.577 79.9068C107.798 79.5803 109.085 79.5863 110.304 79.9242L110.571 78.9605C109.181 78.575 107.713 78.5682 106.318 78.9407L106.577 79.9068ZM110.304 79.9242C111.523 80.2621 112.629 80.9196 113.509 81.8287L114.228 81.1334C113.224 80.0963 111.962 79.3461 110.571 78.9605L110.304 79.9242ZM113.509 81.8287C114.388 82.7378 115.009 83.8654 115.306 85.0947L116.278 84.8597C115.939 83.4571 115.231 82.1706 114.228 81.1334L113.509 81.8287ZM115.306 85.0947C115.603 86.3241 115.566 87.6106 115.199 88.821L116.156 89.1111C116.575 87.7301 116.617 86.2624 116.278 84.8597L115.306 85.0947ZM115.2 88.8204L105.771 119.79L106.727 120.081L116.156 89.1117L115.2 88.8204ZM106.17 119.442C104.11 119.77 102.006 119.71 99.9677 119.265L99.7544 120.242C101.915 120.713 104.144 120.777 106.328 120.429L106.17 119.442ZM99.9578 119.263C97.7268 118.823 95.6306 117.864 93.8384 116.465L93.2229 117.253C95.1386 118.749 97.3794 119.774 99.7643 120.244L99.9578 119.263ZM94.017 116.975L98.3452 98.8258L97.3725 98.5938L93.0443 116.743L94.017 116.975ZM97.6309 98.2648C92.7855 100.747 86.0425 103.298 80.4497 102.895L80.3778 103.893C86.2579 104.317 93.2086 101.654 98.0869 99.1548L97.6309 98.2648ZM80.4497 102.895C77.2617 102.665 74.5468 101.53 72.7677 99.5562C70.9975 97.5922 70.0959 94.734 70.6484 90.9289L69.6588 90.7852C69.0718 94.8276 70.0201 98.0013 72.0248 100.226C74.0206 102.44 77.0056 103.65 80.3778 103.893L80.4497 102.895ZM70.6479 90.9322C70.9079 89.2223 71.3868 87.5529 72.073 85.9652L71.155 85.5685C70.4349 87.2349 69.9321 88.9871 69.6593 90.7819L70.6479 90.9322Z" fill="#8C9199" mask="url(#path-66-outside-18_1625_4206)"/>
<path d="M93.4238 71.1705C93.3448 71.0572 93.189 71.0294 93.0757 71.1084C92.9625 71.1874 92.9347 71.3432 93.0137 71.4565L93.7652 72.5341C93.8441 72.6473 94 72.6751 94.1132 72.5961C94.2265 72.5171 94.2543 72.3613 94.1753 72.2481L93.4238 71.1705Z" stroke="#8C9199" stroke-width="0.5" stroke-linecap="round" stroke-linejoin="round"/>
<path d="M100.031 11.435C100.016 11.477 100.012 11.5224 100.02 11.5665L108.896 60.2989C108.907 60.3641 108.945 60.422 108.999 60.4597C109.054 60.4974 109.121 60.5119 109.186 60.5L117.027 59.0679C117.163 59.0432 117.253 58.9131 117.228 58.7773L108.367 10.0449C108.359 10.0004 108.339 9.95895 108.309 9.92492L103.159 4.04596C103.101 3.97967 103.012 3.94885 102.925 3.96485C102.839 3.98084 102.767 4.04128 102.736 4.12394L100.031 11.435Z" stroke="#8C9199" stroke-width="0.5" stroke-linejoin="round"/>
<path d="M102.73 4.26076L112.799 59.5139L113.045 59.469L113.291 59.4242L103.222 4.17112L102.976 4.21594L102.73 4.26076Z" stroke="#8C9199" stroke-width="0.5" stroke-linecap="round"/>
<path d="M114.142 74.2928C114.154 74.3582 114.191 74.4162 114.246 74.454C114.3 74.4918 114.368 74.5063 114.433 74.4943L117.056 74.0122C117.192 73.9873 117.282 73.8572 117.257 73.7215L116.491 69.5246C116.479 69.4577 116.44 69.3987 116.383 69.3611C116.327 69.3236 116.257 69.3107 116.191 69.3254C115.814 69.4091 115.401 69.4828 114.96 69.5611C114.95 69.563 114.939 69.565 114.928 69.5669C114.498 69.6431 114.044 69.7237 113.582 69.8211C113.449 69.849 113.363 69.977 113.387 70.1101L114.142 74.2928Z" stroke="#8C9199" stroke-width="0.5" stroke-linejoin="round"/>
<path d="M114.736 61.3071C114.869 61.2796 114.956 61.1505 114.931 61.0166L114.605 59.2585C114.58 59.1229 114.45 59.0333 114.314 59.0582L111.691 59.5403C111.626 59.5523 111.568 59.5897 111.53 59.6444C111.493 59.6991 111.478 59.7665 111.491 59.8317L111.817 61.5899C111.842 61.7251 111.971 61.8147 112.107 61.7904C112.578 61.7057 114.453 61.3654 114.736 61.3071Z" stroke="#8C9199" stroke-width="0.5" stroke-linejoin="round"/>
</svg>
